<?xml version="1.0" encoding="utf-8"?>
<!-- Generator: Adobe Illustrator 25.4.1, SVG Export Plug-In . SVG Version: 6.00 Build 0)  -->
<svg version="1.1" id="Layer_1" xmlns="http://www.w3.org/2000/svg" xmlns:xlink="http://www.w3.org/1999/xlink" x="0px" y="0px"
	 viewBox="0 0 28.77 28.77" style="enable-background:new 0 0 28.77 28.77;" xml:space="preserve">
<style type="text/css">
	.st0{fill:#FFFFFF;stroke:#B4BDB9;stroke-width:0.1692;stroke-miterlimit:10;}
	.st1{fill:none;stroke:#233C4E;stroke-width:1.1046;stroke-linecap:round;stroke-linejoin:round;stroke-miterlimit:10;}
</style>
<g>
	<path class="st0" d="M28.38,14.38c0,7.73-6.27,14-14,14c-7.73,0-14-6.27-14-14c0-7.73,6.27-14,14-14
		C22.11,0.38,28.38,6.65,28.38,14.38z"/>
	<g>
		<g id="Logo">
			<path class="st1" d="M22.61,10.23h0.02 M17.14,4.74v2.74h2.65v2.75h2.83 M17.12,4.74h-5.49v2.74H8.98v2.75H6.14v5.49h2.84v2.74
				h2.65v2.45l5.49-0.01v-2.44h2.65v-2.74h2.84v-5.49"/>
			<line class="st1" x1="12.87" y1="24.03" x2="15.84" y2="24.03"/>
			<line class="st1" x1="11.63" y1="22.5" x2="17.12" y2="22.49"/>
		</g>
	</g>
</g>
</svg>
