<?xml version="1.0" encoding="utf-8"?>
<!-- Generator: Adobe Illustrator 24.1.0, SVG Export Plug-In . SVG Version: 6.00 Build 0)  -->
<svg version="1.1" id="Open_Knowledge_Maps_Logo" xmlns="http://www.w3.org/2000/svg" xmlns:xlink="http://www.w3.org/1999/xlink"
	 x="0px" y="0px" viewBox="0 0 538.6 273.8" style="enable-background:new 0 0 538.6 273.8;" xml:space="preserve">
<style type="text/css">
	.st0{fill:#FFFFFF;}
	.st1{fill:none;stroke:#263C50;stroke-width:11.07;stroke-linecap:round;stroke-linejoin:round;}
	.st2{fill:#E95C41;}
	.st3{fill:#253D50;}
</style>
<g id="white_BG-2">
	<rect y="0" class="st0" width="538.6" height="273.8"/>
</g>
<g id="Logo_1_">
	<g id="Logo">
		<path class="st1" d="M210.9,94.9h0.2 M156.1,39.9v27.5h26.5v27.5h28.3 M155.9,39.9h-55v27.5H74.3v27.5H45.8v55h28.5v27.5h26.6V202
			l55-0.1v-24.5h26.6v-27.5h28.5v-55"/>
		<line class="st1" x1="113.3" y1="233.1" x2="143" y2="233.1"/>
		<line class="st1" x1="100.9" y1="217.8" x2="155.9" y2="217.7"/>
	</g>
</g>
<g id="Open_Knowledge_Maps">
	<path class="st2" d="M286.7,102.5c0,4.3-1.1,7.6-3.2,9.9c-2.1,2.3-5.2,3.4-9.3,3.4c-4,0-7.1-1.1-9.3-3.4s-3.3-5.6-3.2-9.9
		c0-4.3,1.1-7.5,3.2-9.8c2.1-2.3,5.2-3.4,9.3-3.4c4.1,0,7.2,1.1,9.3,3.3C285.7,94.8,286.7,98.1,286.7,102.5z M269,102.5
		c0,5,1.7,7.4,5.2,7.4c1.5,0.1,3-0.6,3.9-1.8c0.9-1.2,1.3-3.1,1.3-5.6c0-2.5-0.4-4.4-1.3-5.7c-0.9-1.2-2.3-1.9-3.9-1.8
		C270.8,95,269,97.5,269,102.5L269,102.5z"/>
	<path class="st2" d="M309.8,97.8c0.2,2.5-0.8,4.9-2.5,6.7c-1.7,1.6-4.1,2.3-7.2,2.3h-2v8.5h-6.9V89.6h8.9c3.2,0,5.7,0.7,7.3,2.1
		C309.1,93.3,310,95.5,309.8,97.8z M298.1,101.2h1.3c0.9,0,1.8-0.3,2.5-0.9c0.6-0.6,1-1.5,0.9-2.4c0-1.7-1-2.6-2.9-2.6h-1.8
		L298.1,101.2z"/>
	<path class="st2" d="M328.7,115.3h-15.3V89.6h15.3v5.6h-8.3v4h7.7v5.6h-7.7v4.8h8.3L328.7,115.3z"/>
	<path class="st2" d="M357.9,115.3h-9.1l-9.4-18.1h-0.2c0.2,2.8,0.3,5,0.3,6.5v11.6h-6.1V89.6h9.1l9.4,17.9h0.1
		c-0.2-2.6-0.2-4.7-0.2-6.2V89.6h6.2L357.9,115.3z"/>
	<path class="st3" d="M284.6,161.3h-7.8l-5.1-9.8l-2.1,1.2v8.6h-7v-25.7h7v11.2c0.6-1.1,1.3-2.2,2.1-3.3l5.4-7.9h7.6l-8.1,11.5
		L284.6,161.3z"/>
	<path class="st3" d="M312.1,161.3H303l-9.4-18.1h-0.1c0.2,2.9,0.3,5,0.3,6.5v11.6h-6.1v-25.7h9.1l9.3,17.9h0.1
		c-0.2-2.6-0.2-4.7-0.2-6.2v-11.6h6.2L312.1,161.3z"/>
	<path class="st3" d="M341.5,148.5c0,4.3-1.1,7.6-3.2,9.9s-5.2,3.4-9.3,3.4c-4,0-7.1-1.1-9.3-3.4c-2.2-2.3-3.3-5.6-3.2-9.9
		c0-4.3,1.1-7.5,3.2-9.8c2.1-2.3,5.2-3.4,9.3-3.4c4.1,0,7.2,1.1,9.3,3.4C340.4,140.8,341.5,144.1,341.5,148.5z M323.8,148.5
		c0,5,1.7,7.4,5.2,7.4c1.5,0.1,3-0.6,3.9-1.8c0.9-1.2,1.3-3.1,1.3-5.6c0-2.5-0.4-4.4-1.3-5.7c-0.9-1.2-2.3-1.9-3.9-1.8
		C325.5,141,323.8,143.5,323.8,148.5z"/>
	<path class="st3" d="M373.1,161.3h-8.2l-2.5-11.2c-0.1-0.5-0.3-1.4-0.5-2.8s-0.4-2.6-0.6-3.5c-0.1,0.8-0.2,1.7-0.5,2.8
		s-0.4,2.2-0.6,3.1s-1.1,4.8-2.6,11.5h-8.2l-6.4-25.7h6.7l2.8,12.9c0.6,2.8,1.1,5.1,1.3,6.8c0.1-1.2,0.4-2.8,0.8-4.9
		s0.8-3.8,1.1-5.1l2.3-9.7h6.4l2.2,9.7c0.4,1.6,0.8,3.4,1.1,5.4c0.4,2,0.6,3.6,0.8,4.6c0.1-1.3,0.6-3.6,1.2-6.8l2.9-12.9h6.7
		L373.1,161.3z"/>
	<path class="st3" d="M382.6,161.3v-25.7h6.9v20.1h9.9v5.6H382.6z"/>
	<path class="st3" d="M418.3,161.3H403v-25.7h15.3v5.6H410v4.1h7.7v5.6H410v4.9h8.3L418.3,161.3z"/>
	<path class="st3" d="M444.9,148c0,4.3-1.2,7.6-3.5,9.9c-2.4,2.3-5.7,3.5-10,3.5H423v-25.7h8.9c4.1,0,7.3,1.1,9.5,3.2
		C443.7,140.9,444.8,144,444.9,148z M437.6,148.2c0.1-1.9-0.4-3.7-1.4-5.2c-1.1-1.2-2.6-1.8-4.2-1.7h-2v14.4h1.5
		c1.7,0.2,3.5-0.5,4.6-1.8C437.2,152.6,437.7,150.7,437.6,148.2z"/>
	<path class="st3" d="M459.5,146.3h11.1v13.9c-3.2,1.1-6.6,1.6-9.9,1.6c-4,0-7-1.1-9.2-3.4c-2.2-2.3-3.2-5.6-3.2-9.8
		c0-4.1,1.2-7.4,3.5-9.7c2.4-2.3,5.7-3.5,10-3.5c1.5,0,3.1,0.1,4.6,0.5c1.3,0.3,2.5,0.6,3.8,1.2l-2.2,5.4c-1.9-0.9-4-1.4-6.1-1.4
		c-1.8-0.1-3.5,0.6-4.7,2c-2.2,3.4-2.2,7.7-0.1,11.1c1.1,1.3,2.7,2,4.3,1.9c1,0,1.9-0.1,2.9-0.3v-4h-4.6V146.3z"/>
	<path class="st3" d="M491,161.3h-15.2v-25.7H491v5.6h-8.3v4.1h7.7v5.6h-7.7v4.9h8.3V161.3z"/>
	<path class="st3" d="M273.9,207.3l-5.3-18.5h-0.1c0.2,3.2,0.4,5.6,0.4,7.4v11.2h-6.1v-25.7h9.2l5.4,18.2h0.1l5.3-18.2h9.3v25.7
		h-6.4v-11.3c0-0.6,0-1.2,0-2c0-0.7,0.1-2.5,0.2-5.2h-0.2l-5.2,18.5L273.9,207.3z"/>
	<path class="st3" d="M313.4,207.3l-1.3-4.8h-8.4l-1.3,4.8h-7.6l8.4-25.8h9.3l8.5,25.8H313.4z M310.7,196.8l-1.1-4.2
		c-0.2-0.9-0.6-2.1-0.9-3.6s-0.6-2.6-0.7-3.2c-0.1,0.6-0.3,1.6-0.6,3s-1,4.1-2.1,8.1L310.7,196.8z"/>
	<path class="st3" d="M342.6,189.8c0.2,2.5-0.8,4.9-2.5,6.7c-1.7,1.6-4.1,2.3-7.2,2.3h-2v8.5h-7v-25.7h8.9c3.2,0,5.7,0.7,7.3,2.1
		C341.8,185.3,342.7,187.5,342.6,189.8z M330.9,193.2h1.3c0.9,0,1.8-0.3,2.5-0.9c0.6-0.6,1-1.5,0.9-2.4c0-1.7-1-2.6-2.9-2.6h-1.8
		V193.2z"/>
	<path class="st3" d="M363.5,199.5c0,1.5-0.4,3-1.2,4.2c-0.9,1.3-2.1,2.3-3.5,2.9c-1.7,0.7-3.5,1.1-5.4,1c-1.4,0-2.9-0.1-4.3-0.4
		c-1.3-0.3-2.5-0.7-3.6-1.3v-6.2c1.3,0.7,2.7,1.2,4.1,1.6c1.3,0.4,2.6,0.6,3.9,0.6c0.8,0.1,1.6-0.1,2.3-0.5c0.5-0.3,0.7-0.8,0.7-1.4
		c0-0.3-0.1-0.7-0.3-0.9c-0.3-0.3-0.6-0.6-0.9-0.8c-0.4-0.3-1.6-0.8-3.4-1.6c-1.4-0.6-2.6-1.3-3.8-2.2c-0.8-0.7-1.4-1.5-1.9-2.5
		c-0.4-1-0.6-2.2-0.6-3.3c-0.1-2.2,0.9-4.2,2.6-5.5c2.1-1.4,4.6-2.1,7.1-2c2.8,0,5.6,0.7,8.1,1.9l-2.1,5.4c-1.9-1-4.1-1.5-6.2-1.6
		c-0.7-0.1-1.4,0.1-2,0.5c-0.4,0.3-0.6,0.7-0.6,1.2c0,0.5,0.3,1.1,0.8,1.4c1.4,0.8,2.8,1.6,4.2,2.2c1.8,0.7,3.4,1.8,4.6,3.2
		C363.1,196.5,363.6,198,363.5,199.5z"/>
</g>
</svg>
