<?xml version="1.0" standalone="no"?>
<!DOCTYPE svg PUBLIC "-//W3C//DTD SVG 20010904//EN"
 "http://www.w3.org/TR/2001/REC-SVG-20010904/DTD/svg10.dtd">
<svg version="1.0" xmlns="http://www.w3.org/2000/svg"
 width="500.000000pt" height="500.000000pt" viewBox="0 0 500.000000 500.000000"
 preserveAspectRatio="xMidYMid meet">
<metadata>
Created by potrace 1.11, written by Peter Selinger 2001-2013
</metadata>
<g transform="translate(0.000000,500.000000) scale(0.100000,-0.100000)"
fill="#000000" stroke="none">
<path d="M2495 4328 c-563 -83 -1017 -378 -1284 -832 -45 -78 -56 -99 -99
-196 -126 -284 -179 -645 -149 -1004 36 -417 176 -784 404 -1058 230 -277 560
-473 921 -547 149 -31 164 -32 372 -36 299 -5 473 19 690 92 197 67 378 177
532 322 49 46 97 96 108 110 l19 27 -66 75 c-171 194 -225 248 -257 255 -71
17 -106 0 -237 -116 -64 -56 -230 -134 -349 -164 -155 -38 -461 -44 -595 -11
-481 117 -778 481 -851 1045 -9 68 -11 319 -2 387 17 146 32 217 68 324 141
422 449 689 880 764 66 12 315 15 385 5 117 -16 135 -21 224 -52 122 -43 189
-78 352 -186 40 -26 95 -43 124 -37 11 2 27 4 35 4 28 2 76 56 193 219 134
185 131 157 22 249 -197 166 -478 300 -725 346 -146 28 -160 29 -375 32 -167
2 -236 -1 -340 -17z"/>
</g>
</svg>
