<?xml version="1.0" encoding="utf-8" standalone="no"?>
<!DOCTYPE svg PUBLIC "-//W3C//DTD SVG 1.1//EN"
  "http://www.w3.org/Graphics/SVG/1.1/DTD/svg11.dtd">
<!-- Created with matplotlib (http://matplotlib.org/) -->
<svg height="1064pt" version="1.1" viewBox="0 0 530 1064" width="530pt" xmlns="http://www.w3.org/2000/svg" xmlns:xlink="http://www.w3.org/1999/xlink">
 <defs>
  <style type="text/css">
*{stroke-linecap:butt;stroke-linejoin:round;}
  </style>
 </defs>
 <g id="figure_1">
  <g id="patch_1">
   <path d="M 0 1064.4848 
L 530.514687 1064.4848 
L 530.514687 0 
L 0 0 
z
" style="fill:#f4f4f6;"/>
  </g>
  <g id="axes_1">
   <g id="patch_2">
    <path d="M 200.20401 152.366933 
L 469.287344 152.366933 
L 469.287344 80.672 
L 200.20401 80.672 
z
" style="fill:#f4f4f6;"/>
   </g>
   <g id="patch_3">
    <path clip-path="url(#pfcf91a0a3e)" d="z
" style="fill:#9ba1b8;"/>
   </g>
   <g id="patch_4">
    <path clip-path="url(#pfcf91a0a3e)" d="M 200.20401 129.663538 
L 317.697589 129.663538 
L 317.697589 137.310997 
L 200.20401 137.310997 
z
" style="fill:#9ba1b8;"/>
   </g>
   <g id="patch_5">
    <path clip-path="url(#pfcf91a0a3e)" d="M 200.20401 93.816071 
L 293.348241 93.816071 
L 293.348241 105.28726 
L 200.20401 105.28726 
z
" style="fill:#343866;"/>
   </g>
   <g id="patch_6">
    <path clip-path="url(#pfcf91a0a3e)" d="z
" style="fill:#343866;"/>
   </g>
   <g id="patch_7">
    <path clip-path="url(#pfcf91a0a3e)" d="z
" style="fill:#d68091;"/>
   </g>
   <g id="patch_8">
    <path clip-path="url(#pfcf91a0a3e)" d="z
" style="fill:#d68091;"/>
   </g>
   <g id="matplotlib.axis_1">
    <g id="xtick_1">
     <g id="line2d_1">
      <defs>
       <path d="M 0 0 
L 0 -3.5 
" id="m18a0f7ff0c" style="stroke:#000000;stroke-width:0.8;"/>
      </defs>
      <g>
       <use style="stroke:#000000;stroke-width:0.8;" x="200.20401" xlink:href="#m18a0f7ff0c" y="80.672"/>
      </g>
     </g>
     <g id="text_1">
      <!--   0% -->
      <defs>
       <path id="DejaVuSans-20"/>
       <path d="M 31.78125 66.40625 
Q 24.171875 66.40625 20.328125 58.90625 
Q 16.5 51.421875 16.5 36.375 
Q 16.5 21.390625 20.328125 13.890625 
Q 24.171875 6.390625 31.78125 6.390625 
Q 39.453125 6.390625 43.28125 13.890625 
Q 47.125 21.390625 47.125 36.375 
Q 47.125 51.421875 43.28125 58.90625 
Q 39.453125 66.40625 31.78125 66.40625 
z
M 31.78125 74.21875 
Q 44.046875 74.21875 50.515625 64.515625 
Q 56.984375 54.828125 56.984375 36.375 
Q 56.984375 17.96875 50.515625 8.265625 
Q 44.046875 -1.421875 31.78125 -1.421875 
Q 19.53125 -1.421875 13.0625 8.265625 
Q 6.59375 17.96875 6.59375 36.375 
Q 6.59375 54.828125 13.0625 64.515625 
Q 19.53125 74.21875 31.78125 74.21875 
z
" id="DejaVuSans-30"/>
       <path d="M 72.703125 32.078125 
Q 68.453125 32.078125 66.03125 28.46875 
Q 63.625 24.859375 63.625 18.40625 
Q 63.625 12.0625 66.03125 8.421875 
Q 68.453125 4.78125 72.703125 4.78125 
Q 76.859375 4.78125 79.265625 8.421875 
Q 81.6875 12.0625 81.6875 18.40625 
Q 81.6875 24.8125 79.265625 28.4375 
Q 76.859375 32.078125 72.703125 32.078125 
z
M 72.703125 38.28125 
Q 80.421875 38.28125 84.953125 32.90625 
Q 89.5 27.546875 89.5 18.40625 
Q 89.5 9.28125 84.9375 3.921875 
Q 80.375 -1.421875 72.703125 -1.421875 
Q 64.890625 -1.421875 60.34375 3.921875 
Q 55.8125 9.28125 55.8125 18.40625 
Q 55.8125 27.59375 60.375 32.9375 
Q 64.9375 38.28125 72.703125 38.28125 
z
M 22.3125 68.015625 
Q 18.109375 68.015625 15.6875 64.375 
Q 13.28125 60.75 13.28125 54.390625 
Q 13.28125 47.953125 15.671875 44.328125 
Q 18.0625 40.71875 22.3125 40.71875 
Q 26.5625 40.71875 28.96875 44.328125 
Q 31.390625 47.953125 31.390625 54.390625 
Q 31.390625 60.6875 28.953125 64.34375 
Q 26.515625 68.015625 22.3125 68.015625 
z
M 66.40625 74.21875 
L 74.21875 74.21875 
L 28.609375 -1.421875 
L 20.796875 -1.421875 
z
M 22.3125 74.21875 
Q 30.03125 74.21875 34.609375 68.875 
Q 39.203125 63.53125 39.203125 54.390625 
Q 39.203125 45.171875 34.640625 39.84375 
Q 30.078125 34.515625 22.3125 34.515625 
Q 14.546875 34.515625 10.03125 39.859375 
Q 5.515625 45.21875 5.515625 54.390625 
Q 5.515625 63.484375 10.046875 68.84375 
Q 14.59375 74.21875 22.3125 74.21875 
z
" id="DejaVuSans-25"/>
      </defs>
      <g transform="translate(189.093854 71.592312)scale(0.1 -0.1)">
       <use xlink:href="#DejaVuSans-20"/>
       <use x="31.787109" xlink:href="#DejaVuSans-20"/>
       <use x="63.574219" xlink:href="#DejaVuSans-30"/>
       <use x="127.197266" xlink:href="#DejaVuSans-25"/>
      </g>
     </g>
    </g>
    <g id="xtick_2">
     <g id="line2d_2">
      <g>
       <use style="stroke:#000000;stroke-width:0.8;" x="254.020677" xlink:href="#m18a0f7ff0c" y="80.672"/>
      </g>
     </g>
     <g id="text_2">
      <!--  20% -->
      <defs>
       <path d="M 19.1875 8.296875 
L 53.609375 8.296875 
L 53.609375 0 
L 7.328125 0 
L 7.328125 8.296875 
Q 12.9375 14.109375 22.625 23.890625 
Q 32.328125 33.6875 34.8125 36.53125 
Q 39.546875 41.84375 41.421875 45.53125 
Q 43.3125 49.21875 43.3125 52.78125 
Q 43.3125 58.59375 39.234375 62.25 
Q 35.15625 65.921875 28.609375 65.921875 
Q 23.96875 65.921875 18.8125 64.3125 
Q 13.671875 62.703125 7.8125 59.421875 
L 7.8125 69.390625 
Q 13.765625 71.78125 18.9375 73 
Q 24.125 74.21875 28.421875 74.21875 
Q 39.75 74.21875 46.484375 68.546875 
Q 53.21875 62.890625 53.21875 53.421875 
Q 53.21875 48.921875 51.53125 44.890625 
Q 49.859375 40.875 45.40625 35.40625 
Q 44.1875 33.984375 37.640625 27.21875 
Q 31.109375 20.453125 19.1875 8.296875 
z
" id="DejaVuSans-32"/>
      </defs>
      <g transform="translate(241.318333 71.592312)scale(0.1 -0.1)">
       <use xlink:href="#DejaVuSans-20"/>
       <use x="31.787109" xlink:href="#DejaVuSans-32"/>
       <use x="95.410156" xlink:href="#DejaVuSans-30"/>
       <use x="159.033203" xlink:href="#DejaVuSans-25"/>
      </g>
     </g>
    </g>
    <g id="xtick_3">
     <g id="line2d_3">
      <g>
       <use style="stroke:#000000;stroke-width:0.8;" x="307.837344" xlink:href="#m18a0f7ff0c" y="80.672"/>
      </g>
     </g>
     <g id="text_3">
      <!--  40% -->
      <defs>
       <path d="M 37.796875 64.3125 
L 12.890625 25.390625 
L 37.796875 25.390625 
z
M 35.203125 72.90625 
L 47.609375 72.90625 
L 47.609375 25.390625 
L 58.015625 25.390625 
L 58.015625 17.1875 
L 47.609375 17.1875 
L 47.609375 0 
L 37.796875 0 
L 37.796875 17.1875 
L 4.890625 17.1875 
L 4.890625 26.703125 
z
" id="DejaVuSans-34"/>
      </defs>
      <g transform="translate(295.135 71.592312)scale(0.1 -0.1)">
       <use xlink:href="#DejaVuSans-20"/>
       <use x="31.787109" xlink:href="#DejaVuSans-34"/>
       <use x="95.410156" xlink:href="#DejaVuSans-30"/>
       <use x="159.033203" xlink:href="#DejaVuSans-25"/>
      </g>
     </g>
    </g>
    <g id="xtick_4">
     <g id="line2d_4">
      <g>
       <use style="stroke:#000000;stroke-width:0.8;" x="361.65401" xlink:href="#m18a0f7ff0c" y="80.672"/>
      </g>
     </g>
     <g id="text_4">
      <!--  60% -->
      <defs>
       <path d="M 33.015625 40.375 
Q 26.375 40.375 22.484375 35.828125 
Q 18.609375 31.296875 18.609375 23.390625 
Q 18.609375 15.53125 22.484375 10.953125 
Q 26.375 6.390625 33.015625 6.390625 
Q 39.65625 6.390625 43.53125 10.953125 
Q 47.40625 15.53125 47.40625 23.390625 
Q 47.40625 31.296875 43.53125 35.828125 
Q 39.65625 40.375 33.015625 40.375 
z
M 52.59375 71.296875 
L 52.59375 62.3125 
Q 48.875 64.0625 45.09375 64.984375 
Q 41.3125 65.921875 37.59375 65.921875 
Q 27.828125 65.921875 22.671875 59.328125 
Q 17.53125 52.734375 16.796875 39.40625 
Q 19.671875 43.65625 24.015625 45.921875 
Q 28.375 48.1875 33.59375 48.1875 
Q 44.578125 48.1875 50.953125 41.515625 
Q 57.328125 34.859375 57.328125 23.390625 
Q 57.328125 12.15625 50.6875 5.359375 
Q 44.046875 -1.421875 33.015625 -1.421875 
Q 20.359375 -1.421875 13.671875 8.265625 
Q 6.984375 17.96875 6.984375 36.375 
Q 6.984375 53.65625 15.1875 63.9375 
Q 23.390625 74.21875 37.203125 74.21875 
Q 40.921875 74.21875 44.703125 73.484375 
Q 48.484375 72.75 52.59375 71.296875 
z
" id="DejaVuSans-36"/>
      </defs>
      <g transform="translate(348.951667 71.592312)scale(0.1 -0.1)">
       <use xlink:href="#DejaVuSans-20"/>
       <use x="31.787109" xlink:href="#DejaVuSans-36"/>
       <use x="95.410156" xlink:href="#DejaVuSans-30"/>
       <use x="159.033203" xlink:href="#DejaVuSans-25"/>
      </g>
     </g>
    </g>
    <g id="xtick_5">
     <g id="line2d_5">
      <g>
       <use style="stroke:#000000;stroke-width:0.8;" x="415.470677" xlink:href="#m18a0f7ff0c" y="80.672"/>
      </g>
     </g>
     <g id="text_5">
      <!--  80% -->
      <defs>
       <path d="M 31.78125 34.625 
Q 24.75 34.625 20.71875 30.859375 
Q 16.703125 27.09375 16.703125 20.515625 
Q 16.703125 13.921875 20.71875 10.15625 
Q 24.75 6.390625 31.78125 6.390625 
Q 38.8125 6.390625 42.859375 10.171875 
Q 46.921875 13.96875 46.921875 20.515625 
Q 46.921875 27.09375 42.890625 30.859375 
Q 38.875 34.625 31.78125 34.625 
z
M 21.921875 38.8125 
Q 15.578125 40.375 12.03125 44.71875 
Q 8.5 49.078125 8.5 55.328125 
Q 8.5 64.0625 14.71875 69.140625 
Q 20.953125 74.21875 31.78125 74.21875 
Q 42.671875 74.21875 48.875 69.140625 
Q 55.078125 64.0625 55.078125 55.328125 
Q 55.078125 49.078125 51.53125 44.71875 
Q 48 40.375 41.703125 38.8125 
Q 48.828125 37.15625 52.796875 32.3125 
Q 56.78125 27.484375 56.78125 20.515625 
Q 56.78125 9.90625 50.3125 4.234375 
Q 43.84375 -1.421875 31.78125 -1.421875 
Q 19.734375 -1.421875 13.25 4.234375 
Q 6.78125 9.90625 6.78125 20.515625 
Q 6.78125 27.484375 10.78125 32.3125 
Q 14.796875 37.15625 21.921875 38.8125 
z
M 18.3125 54.390625 
Q 18.3125 48.734375 21.84375 45.5625 
Q 25.390625 42.390625 31.78125 42.390625 
Q 38.140625 42.390625 41.71875 45.5625 
Q 45.3125 48.734375 45.3125 54.390625 
Q 45.3125 60.0625 41.71875 63.234375 
Q 38.140625 66.40625 31.78125 66.40625 
Q 25.390625 66.40625 21.84375 63.234375 
Q 18.3125 60.0625 18.3125 54.390625 
z
" id="DejaVuSans-38"/>
      </defs>
      <g transform="translate(402.768333 71.592312)scale(0.1 -0.1)">
       <use xlink:href="#DejaVuSans-20"/>
       <use x="31.787109" xlink:href="#DejaVuSans-38"/>
       <use x="95.410156" xlink:href="#DejaVuSans-30"/>
       <use x="159.033203" xlink:href="#DejaVuSans-25"/>
      </g>
     </g>
    </g>
    <g id="xtick_6">
     <g id="line2d_6">
      <g>
       <use style="stroke:#000000;stroke-width:0.8;" x="469.287344" xlink:href="#m18a0f7ff0c" y="80.672"/>
      </g>
     </g>
     <g id="text_6">
      <!-- 100% -->
      <defs>
       <path d="M 12.40625 8.296875 
L 28.515625 8.296875 
L 28.515625 63.921875 
L 10.984375 60.40625 
L 10.984375 69.390625 
L 28.421875 72.90625 
L 38.28125 72.90625 
L 38.28125 8.296875 
L 54.390625 8.296875 
L 54.390625 0 
L 12.40625 0 
z
" id="DejaVuSans-31"/>
      </defs>
      <g transform="translate(454.992813 71.592312)scale(0.1 -0.1)">
       <use xlink:href="#DejaVuSans-31"/>
       <use x="63.623047" xlink:href="#DejaVuSans-30"/>
       <use x="127.246094" xlink:href="#DejaVuSans-30"/>
       <use x="190.869141" xlink:href="#DejaVuSans-25"/>
      </g>
     </g>
    </g>
   </g>
   <g id="matplotlib.axis_2">
    <g id="ytick_1">
     <g id="line2d_7">
      <defs>
       <path d="M 0 0 
L -3.5 0 
" id="mf8b1bd5398"/>
      </defs>
      <g>
       <use style="fill:none;" x="200.20401" xlink:href="#mf8b1bd5398" y="98.595733"/>
      </g>
     </g>
    </g>
    <g id="ytick_2">
     <g id="line2d_8">
      <g>
       <use style="fill:none;" x="200.20401" xlink:href="#mf8b1bd5398" y="134.4432"/>
      </g>
     </g>
    </g>
   </g>
   <g id="line2d_9">
    <path clip-path="url(#pfcf91a0a3e)" d="M 0 0 
" style="fill:none;stroke:#424242;stroke-linecap:square;stroke-width:2.7;"/>
   </g>
   <g id="line2d_10">
    <path clip-path="url(#pfcf91a0a3e)" d="M 0 0 
" style="fill:none;stroke:#424242;stroke-linecap:square;stroke-width:2.7;"/>
   </g>
   <g id="line2d_11">
    <path clip-path="url(#pfcf91a0a3e)" d="M 0 0 
" style="fill:none;stroke:#424242;stroke-linecap:square;stroke-width:2.7;"/>
   </g>
   <g id="line2d_12">
    <path clip-path="url(#pfcf91a0a3e)" d="M 0 0 
" style="fill:none;stroke:#424242;stroke-linecap:square;stroke-width:2.7;"/>
   </g>
   <g id="line2d_13">
    <path clip-path="url(#pfcf91a0a3e)" d="M 0 0 
" style="fill:none;stroke:#424242;stroke-linecap:square;stroke-width:2.7;"/>
   </g>
   <g id="line2d_14">
    <path clip-path="url(#pfcf91a0a3e)" d="M 0 0 
" style="fill:none;stroke:#424242;stroke-linecap:square;stroke-width:2.7;"/>
   </g>
   <g id="patch_9">
    <path d="M 200.20401 80.672 
L 469.287344 80.672 
" style="fill:none;stroke:#000000;stroke-linecap:square;stroke-linejoin:miter;stroke-width:0.8;"/>
   </g>
   <g id="text_7">
    <!--  44% -->
    <g style="fill:#969ebd;" transform="translate(158.654323 137.310997)scale(0.1 -0.1)">
     <use xlink:href="#DejaVuSans-20"/>
     <use x="31.787109" xlink:href="#DejaVuSans-34"/>
     <use x="95.410156" xlink:href="#DejaVuSans-34"/>
     <use x="159.033203" xlink:href="#DejaVuSans-25"/>
    </g>
   </g>
   <g id="text_8">
    <!-- Durchschnitt -->
    <defs>
     <path d="M 19.671875 64.796875 
L 19.671875 8.109375 
L 31.59375 8.109375 
Q 46.6875 8.109375 53.6875 14.9375 
Q 60.6875 21.78125 60.6875 36.53125 
Q 60.6875 51.171875 53.6875 57.984375 
Q 46.6875 64.796875 31.59375 64.796875 
z
M 9.8125 72.90625 
L 30.078125 72.90625 
Q 51.265625 72.90625 61.171875 64.09375 
Q 71.09375 55.28125 71.09375 36.53125 
Q 71.09375 17.671875 61.125 8.828125 
Q 51.171875 0 30.078125 0 
L 9.8125 0 
z
" id="DejaVuSans-44"/>
     <path d="M 8.5 21.578125 
L 8.5 54.6875 
L 17.484375 54.6875 
L 17.484375 21.921875 
Q 17.484375 14.15625 20.5 10.265625 
Q 23.53125 6.390625 29.59375 6.390625 
Q 36.859375 6.390625 41.078125 11.03125 
Q 45.3125 15.671875 45.3125 23.6875 
L 45.3125 54.6875 
L 54.296875 54.6875 
L 54.296875 0 
L 45.3125 0 
L 45.3125 8.40625 
Q 42.046875 3.421875 37.71875 1 
Q 33.40625 -1.421875 27.6875 -1.421875 
Q 18.265625 -1.421875 13.375 4.4375 
Q 8.5 10.296875 8.5 21.578125 
z
M 31.109375 56 
z
" id="DejaVuSans-75"/>
     <path d="M 41.109375 46.296875 
Q 39.59375 47.171875 37.8125 47.578125 
Q 36.03125 48 33.890625 48 
Q 26.265625 48 22.1875 43.046875 
Q 18.109375 38.09375 18.109375 28.8125 
L 18.109375 0 
L 9.078125 0 
L 9.078125 54.6875 
L 18.109375 54.6875 
L 18.109375 46.1875 
Q 20.953125 51.171875 25.484375 53.578125 
Q 30.03125 56 36.53125 56 
Q 37.453125 56 38.578125 55.875 
Q 39.703125 55.765625 41.0625 55.515625 
z
" id="DejaVuSans-72"/>
     <path d="M 48.78125 52.59375 
L 48.78125 44.1875 
Q 44.96875 46.296875 41.140625 47.34375 
Q 37.3125 48.390625 33.40625 48.390625 
Q 24.65625 48.390625 19.8125 42.84375 
Q 14.984375 37.3125 14.984375 27.296875 
Q 14.984375 17.28125 19.8125 11.734375 
Q 24.65625 6.203125 33.40625 6.203125 
Q 37.3125 6.203125 41.140625 7.25 
Q 44.96875 8.296875 48.78125 10.40625 
L 48.78125 2.09375 
Q 45.015625 0.34375 40.984375 -0.53125 
Q 36.96875 -1.421875 32.421875 -1.421875 
Q 20.0625 -1.421875 12.78125 6.34375 
Q 5.515625 14.109375 5.515625 27.296875 
Q 5.515625 40.671875 12.859375 48.328125 
Q 20.21875 56 33.015625 56 
Q 37.15625 56 41.109375 55.140625 
Q 45.0625 54.296875 48.78125 52.59375 
z
" id="DejaVuSans-63"/>
     <path d="M 54.890625 33.015625 
L 54.890625 0 
L 45.90625 0 
L 45.90625 32.71875 
Q 45.90625 40.484375 42.875 44.328125 
Q 39.84375 48.1875 33.796875 48.1875 
Q 26.515625 48.1875 22.3125 43.546875 
Q 18.109375 38.921875 18.109375 30.90625 
L 18.109375 0 
L 9.078125 0 
L 9.078125 75.984375 
L 18.109375 75.984375 
L 18.109375 46.1875 
Q 21.34375 51.125 25.703125 53.5625 
Q 30.078125 56 35.796875 56 
Q 45.21875 56 50.046875 50.171875 
Q 54.890625 44.34375 54.890625 33.015625 
z
" id="DejaVuSans-68"/>
     <path d="M 44.28125 53.078125 
L 44.28125 44.578125 
Q 40.484375 46.53125 36.375 47.5 
Q 32.28125 48.484375 27.875 48.484375 
Q 21.1875 48.484375 17.84375 46.4375 
Q 14.5 44.390625 14.5 40.28125 
Q 14.5 37.15625 16.890625 35.375 
Q 19.28125 33.59375 26.515625 31.984375 
L 29.59375 31.296875 
Q 39.15625 29.25 43.1875 25.515625 
Q 47.21875 21.78125 47.21875 15.09375 
Q 47.21875 7.46875 41.1875 3.015625 
Q 35.15625 -1.421875 24.609375 -1.421875 
Q 20.21875 -1.421875 15.453125 -0.5625 
Q 10.6875 0.296875 5.421875 2 
L 5.421875 11.28125 
Q 10.40625 8.6875 15.234375 7.390625 
Q 20.0625 6.109375 24.8125 6.109375 
Q 31.15625 6.109375 34.5625 8.28125 
Q 37.984375 10.453125 37.984375 14.40625 
Q 37.984375 18.0625 35.515625 20.015625 
Q 33.0625 21.96875 24.703125 23.78125 
L 21.578125 24.515625 
Q 13.234375 26.265625 9.515625 29.90625 
Q 5.8125 33.546875 5.8125 39.890625 
Q 5.8125 47.609375 11.28125 51.796875 
Q 16.75 56 26.8125 56 
Q 31.78125 56 36.171875 55.265625 
Q 40.578125 54.546875 44.28125 53.078125 
z
" id="DejaVuSans-73"/>
     <path d="M 54.890625 33.015625 
L 54.890625 0 
L 45.90625 0 
L 45.90625 32.71875 
Q 45.90625 40.484375 42.875 44.328125 
Q 39.84375 48.1875 33.796875 48.1875 
Q 26.515625 48.1875 22.3125 43.546875 
Q 18.109375 38.921875 18.109375 30.90625 
L 18.109375 0 
L 9.078125 0 
L 9.078125 54.6875 
L 18.109375 54.6875 
L 18.109375 46.1875 
Q 21.34375 51.125 25.703125 53.5625 
Q 30.078125 56 35.796875 56 
Q 45.21875 56 50.046875 50.171875 
Q 54.890625 44.34375 54.890625 33.015625 
z
" id="DejaVuSans-6e"/>
     <path d="M 9.421875 54.6875 
L 18.40625 54.6875 
L 18.40625 0 
L 9.421875 0 
z
M 9.421875 75.984375 
L 18.40625 75.984375 
L 18.40625 64.59375 
L 9.421875 64.59375 
z
" id="DejaVuSans-69"/>
     <path d="M 18.3125 70.21875 
L 18.3125 54.6875 
L 36.8125 54.6875 
L 36.8125 47.703125 
L 18.3125 47.703125 
L 18.3125 18.015625 
Q 18.3125 11.328125 20.140625 9.421875 
Q 21.96875 7.515625 27.59375 7.515625 
L 36.8125 7.515625 
L 36.8125 0 
L 27.59375 0 
Q 17.1875 0 13.234375 3.875 
Q 9.28125 7.765625 9.28125 18.015625 
L 9.28125 47.703125 
L 2.6875 47.703125 
L 2.6875 54.6875 
L 9.28125 54.6875 
L 9.28125 70.21875 
z
" id="DejaVuSans-74"/>
    </defs>
    <g style="fill:#969ebd;" transform="translate(82.404531 137.310997)scale(0.1 -0.1)">
     <use xlink:href="#DejaVuSans-44"/>
     <use x="77.001953" xlink:href="#DejaVuSans-75"/>
     <use x="140.380859" xlink:href="#DejaVuSans-72"/>
     <use x="181.462891" xlink:href="#DejaVuSans-63"/>
     <use x="236.443359" xlink:href="#DejaVuSans-68"/>
     <use x="299.822266" xlink:href="#DejaVuSans-73"/>
     <use x="351.921875" xlink:href="#DejaVuSans-63"/>
     <use x="406.902344" xlink:href="#DejaVuSans-68"/>
     <use x="470.28125" xlink:href="#DejaVuSans-6e"/>
     <use x="533.660156" xlink:href="#DejaVuSans-69"/>
     <use x="561.443359" xlink:href="#DejaVuSans-74"/>
     <use x="600.652344" xlink:href="#DejaVuSans-74"/>
    </g>
   </g>
   <g id="text_9">
    <!--  35% -->
    <defs>
     <path d="M 40.578125 39.3125 
Q 47.65625 37.796875 51.625 33 
Q 55.609375 28.21875 55.609375 21.1875 
Q 55.609375 10.40625 48.1875 4.484375 
Q 40.765625 -1.421875 27.09375 -1.421875 
Q 22.515625 -1.421875 17.65625 -0.515625 
Q 12.796875 0.390625 7.625 2.203125 
L 7.625 11.71875 
Q 11.71875 9.328125 16.59375 8.109375 
Q 21.484375 6.890625 26.8125 6.890625 
Q 36.078125 6.890625 40.9375 10.546875 
Q 45.796875 14.203125 45.796875 21.1875 
Q 45.796875 27.640625 41.28125 31.265625 
Q 36.765625 34.90625 28.71875 34.90625 
L 20.21875 34.90625 
L 20.21875 43.015625 
L 29.109375 43.015625 
Q 36.375 43.015625 40.234375 45.921875 
Q 44.09375 48.828125 44.09375 54.296875 
Q 44.09375 59.90625 40.109375 62.90625 
Q 36.140625 65.921875 28.71875 65.921875 
Q 24.65625 65.921875 20.015625 65.03125 
Q 15.375 64.15625 9.8125 62.3125 
L 9.8125 71.09375 
Q 15.4375 72.65625 20.34375 73.4375 
Q 25.25 74.21875 29.59375 74.21875 
Q 40.828125 74.21875 47.359375 69.109375 
Q 53.90625 64.015625 53.90625 55.328125 
Q 53.90625 49.265625 50.4375 45.09375 
Q 46.96875 40.921875 40.578125 39.3125 
z
" id="DejaVuSans-33"/>
     <path d="M 10.796875 72.90625 
L 49.515625 72.90625 
L 49.515625 64.59375 
L 19.828125 64.59375 
L 19.828125 46.734375 
Q 21.96875 47.46875 24.109375 47.828125 
Q 26.265625 48.1875 28.421875 48.1875 
Q 40.625 48.1875 47.75 41.5 
Q 54.890625 34.8125 54.890625 23.390625 
Q 54.890625 11.625 47.5625 5.09375 
Q 40.234375 -1.421875 26.90625 -1.421875 
Q 22.3125 -1.421875 17.546875 -0.640625 
Q 12.796875 0.140625 7.71875 1.703125 
L 7.71875 11.625 
Q 12.109375 9.234375 16.796875 8.0625 
Q 21.484375 6.890625 26.703125 6.890625 
Q 35.15625 6.890625 40.078125 11.328125 
Q 45.015625 15.765625 45.015625 23.390625 
Q 45.015625 31 40.078125 35.4375 
Q 35.15625 39.890625 26.703125 39.890625 
Q 22.75 39.890625 18.8125 39.015625 
Q 14.890625 38.140625 10.796875 36.28125 
z
" id="DejaVuSans-35"/>
    </defs>
    <g style="fill:#2c316e;" transform="translate(153.573385 105.28726)scale(0.12 -0.12)">
     <use xlink:href="#DejaVuSans-20"/>
     <use x="31.787109" xlink:href="#DejaVuSans-33"/>
     <use x="95.410156" xlink:href="#DejaVuSans-35"/>
     <use x="159.033203" xlink:href="#DejaVuSans-25"/>
    </g>
   </g>
   <g id="text_10">
    <!-- Unbekannt -->
    <defs>
     <path d="M 8.6875 72.90625 
L 18.609375 72.90625 
L 18.609375 28.609375 
Q 18.609375 16.890625 22.84375 11.734375 
Q 27.09375 6.59375 36.625 6.59375 
Q 46.09375 6.59375 50.34375 11.734375 
Q 54.59375 16.890625 54.59375 28.609375 
L 54.59375 72.90625 
L 64.5 72.90625 
L 64.5 27.390625 
Q 64.5 13.140625 57.4375 5.859375 
Q 50.390625 -1.421875 36.625 -1.421875 
Q 22.796875 -1.421875 15.734375 5.859375 
Q 8.6875 13.140625 8.6875 27.390625 
z
" id="DejaVuSans-55"/>
     <path d="M 48.6875 27.296875 
Q 48.6875 37.203125 44.609375 42.84375 
Q 40.53125 48.484375 33.40625 48.484375 
Q 26.265625 48.484375 22.1875 42.84375 
Q 18.109375 37.203125 18.109375 27.296875 
Q 18.109375 17.390625 22.1875 11.75 
Q 26.265625 6.109375 33.40625 6.109375 
Q 40.53125 6.109375 44.609375 11.75 
Q 48.6875 17.390625 48.6875 27.296875 
z
M 18.109375 46.390625 
Q 20.953125 51.265625 25.265625 53.625 
Q 29.59375 56 35.59375 56 
Q 45.5625 56 51.78125 48.09375 
Q 58.015625 40.1875 58.015625 27.296875 
Q 58.015625 14.40625 51.78125 6.484375 
Q 45.5625 -1.421875 35.59375 -1.421875 
Q 29.59375 -1.421875 25.265625 0.953125 
Q 20.953125 3.328125 18.109375 8.203125 
L 18.109375 0 
L 9.078125 0 
L 9.078125 75.984375 
L 18.109375 75.984375 
z
" id="DejaVuSans-62"/>
     <path d="M 56.203125 29.59375 
L 56.203125 25.203125 
L 14.890625 25.203125 
Q 15.484375 15.921875 20.484375 11.0625 
Q 25.484375 6.203125 34.421875 6.203125 
Q 39.59375 6.203125 44.453125 7.46875 
Q 49.3125 8.734375 54.109375 11.28125 
L 54.109375 2.78125 
Q 49.265625 0.734375 44.1875 -0.34375 
Q 39.109375 -1.421875 33.890625 -1.421875 
Q 20.796875 -1.421875 13.15625 6.1875 
Q 5.515625 13.8125 5.515625 26.8125 
Q 5.515625 40.234375 12.765625 48.109375 
Q 20.015625 56 32.328125 56 
Q 43.359375 56 49.78125 48.890625 
Q 56.203125 41.796875 56.203125 29.59375 
z
M 47.21875 32.234375 
Q 47.125 39.59375 43.09375 43.984375 
Q 39.0625 48.390625 32.421875 48.390625 
Q 24.90625 48.390625 20.390625 44.140625 
Q 15.875 39.890625 15.1875 32.171875 
z
" id="DejaVuSans-65"/>
     <path d="M 9.078125 75.984375 
L 18.109375 75.984375 
L 18.109375 31.109375 
L 44.921875 54.6875 
L 56.390625 54.6875 
L 27.390625 29.109375 
L 57.625 0 
L 45.90625 0 
L 18.109375 26.703125 
L 18.109375 0 
L 9.078125 0 
z
" id="DejaVuSans-6b"/>
     <path d="M 34.28125 27.484375 
Q 23.390625 27.484375 19.1875 25 
Q 14.984375 22.515625 14.984375 16.5 
Q 14.984375 11.71875 18.140625 8.90625 
Q 21.296875 6.109375 26.703125 6.109375 
Q 34.1875 6.109375 38.703125 11.40625 
Q 43.21875 16.703125 43.21875 25.484375 
L 43.21875 27.484375 
z
M 52.203125 31.203125 
L 52.203125 0 
L 43.21875 0 
L 43.21875 8.296875 
Q 40.140625 3.328125 35.546875 0.953125 
Q 30.953125 -1.421875 24.3125 -1.421875 
Q 15.921875 -1.421875 10.953125 3.296875 
Q 6 8.015625 6 15.921875 
Q 6 25.140625 12.171875 29.828125 
Q 18.359375 34.515625 30.609375 34.515625 
L 43.21875 34.515625 
L 43.21875 35.40625 
Q 43.21875 41.609375 39.140625 45 
Q 35.0625 48.390625 27.6875 48.390625 
Q 23 48.390625 18.546875 47.265625 
Q 14.109375 46.140625 10.015625 43.890625 
L 10.015625 52.203125 
Q 14.9375 54.109375 19.578125 55.046875 
Q 24.21875 56 28.609375 56 
Q 40.484375 56 46.34375 49.84375 
Q 52.203125 43.703125 52.203125 31.203125 
z
" id="DejaVuSans-61"/>
    </defs>
    <g style="fill:#2c316e;" transform="translate(80.782969 105.28726)scale(0.12 -0.12)">
     <use xlink:href="#DejaVuSans-55"/>
     <use x="73.193359" xlink:href="#DejaVuSans-6e"/>
     <use x="136.572266" xlink:href="#DejaVuSans-62"/>
     <use x="200.048828" xlink:href="#DejaVuSans-65"/>
     <use x="261.572266" xlink:href="#DejaVuSans-6b"/>
     <use x="319.466797" xlink:href="#DejaVuSans-61"/>
     <use x="380.746094" xlink:href="#DejaVuSans-6e"/>
     <use x="444.125" xlink:href="#DejaVuSans-6e"/>
     <use x="507.503906" xlink:href="#DejaVuSans-74"/>
    </g>
   </g>
  </g>
  <g id="axes_2">
   <g id="patch_10">
    <path clip-path="url(#p450303677d)" d="z
" style="fill:#9ba1b8;"/>
   </g>
   <g id="patch_11">
    <path clip-path="url(#p450303677d)" d="M 200.20401 226.782471 
L 244.897646 226.782471 
L 244.897646 234.429931 
L 200.20401 234.429931 
z
" style="fill:#9ba1b8;"/>
   </g>
   <g id="patch_12">
    <path clip-path="url(#p450303677d)" d="z
" style="fill:#343866;"/>
   </g>
   <g id="patch_13">
    <path clip-path="url(#p450303677d)" d="z
" style="fill:#343866;"/>
   </g>
   <g id="patch_14">
    <path clip-path="url(#p450303677d)" d="M 200.20401 190.935004 
L 251.950805 190.935004 
L 251.950805 202.406194 
L 200.20401 202.406194 
z
" style="fill:#d68091;"/>
   </g>
   <g id="patch_15">
    <path clip-path="url(#p450303677d)" d="z
" style="fill:#d68091;"/>
   </g>
   <g id="line2d_15">
    <path clip-path="url(#p450303677d)" d="M 0 0 
" style="fill:none;stroke:#424242;stroke-linecap:square;stroke-width:2.7;"/>
   </g>
   <g id="line2d_16">
    <path clip-path="url(#p450303677d)" d="M 0 0 
" style="fill:none;stroke:#424242;stroke-linecap:square;stroke-width:2.7;"/>
   </g>
   <g id="line2d_17">
    <path clip-path="url(#p450303677d)" d="M 0 0 
" style="fill:none;stroke:#424242;stroke-linecap:square;stroke-width:2.7;"/>
   </g>
   <g id="line2d_18">
    <path clip-path="url(#p450303677d)" d="M 0 0 
" style="fill:none;stroke:#424242;stroke-linecap:square;stroke-width:2.7;"/>
   </g>
   <g id="line2d_19">
    <path clip-path="url(#p450303677d)" d="M 0 0 
" style="fill:none;stroke:#424242;stroke-linecap:square;stroke-width:2.7;"/>
   </g>
   <g id="line2d_20">
    <path clip-path="url(#p450303677d)" d="M 0 0 
" style="fill:none;stroke:#424242;stroke-linecap:square;stroke-width:2.7;"/>
   </g>
   <g id="text_11">
    <!--  17% -->
    <defs>
     <path d="M 8.203125 72.90625 
L 55.078125 72.90625 
L 55.078125 68.703125 
L 28.609375 0 
L 18.3125 0 
L 43.21875 64.59375 
L 8.203125 64.59375 
z
" id="DejaVuSans-37"/>
    </defs>
    <g style="fill:#969ebd;" transform="translate(158.654323 234.429931)scale(0.1 -0.1)">
     <use xlink:href="#DejaVuSans-20"/>
     <use x="31.787109" xlink:href="#DejaVuSans-31"/>
     <use x="95.410156" xlink:href="#DejaVuSans-37"/>
     <use x="159.033203" xlink:href="#DejaVuSans-25"/>
    </g>
   </g>
   <g id="text_12">
    <!-- Durchschnitt -->
    <g style="fill:#969ebd;" transform="translate(82.404531 234.429931)scale(0.1 -0.1)">
     <use xlink:href="#DejaVuSans-44"/>
     <use x="77.001953" xlink:href="#DejaVuSans-75"/>
     <use x="140.380859" xlink:href="#DejaVuSans-72"/>
     <use x="181.462891" xlink:href="#DejaVuSans-63"/>
     <use x="236.443359" xlink:href="#DejaVuSans-68"/>
     <use x="299.822266" xlink:href="#DejaVuSans-73"/>
     <use x="351.921875" xlink:href="#DejaVuSans-63"/>
     <use x="406.902344" xlink:href="#DejaVuSans-68"/>
     <use x="470.28125" xlink:href="#DejaVuSans-6e"/>
     <use x="533.660156" xlink:href="#DejaVuSans-69"/>
     <use x="561.443359" xlink:href="#DejaVuSans-74"/>
     <use x="600.652344" xlink:href="#DejaVuSans-74"/>
    </g>
   </g>
   <g id="text_13">
    <!--  19% -->
    <defs>
     <path d="M 10.984375 1.515625 
L 10.984375 10.5 
Q 14.703125 8.734375 18.5 7.8125 
Q 22.3125 6.890625 25.984375 6.890625 
Q 35.75 6.890625 40.890625 13.453125 
Q 46.046875 20.015625 46.78125 33.40625 
Q 43.953125 29.203125 39.59375 26.953125 
Q 35.25 24.703125 29.984375 24.703125 
Q 19.046875 24.703125 12.671875 31.3125 
Q 6.296875 37.9375 6.296875 49.421875 
Q 6.296875 60.640625 12.9375 67.421875 
Q 19.578125 74.21875 30.609375 74.21875 
Q 43.265625 74.21875 49.921875 64.515625 
Q 56.59375 54.828125 56.59375 36.375 
Q 56.59375 19.140625 48.40625 8.859375 
Q 40.234375 -1.421875 26.421875 -1.421875 
Q 22.703125 -1.421875 18.890625 -0.6875 
Q 15.09375 0.046875 10.984375 1.515625 
z
M 30.609375 32.421875 
Q 37.25 32.421875 41.125 36.953125 
Q 45.015625 41.5 45.015625 49.421875 
Q 45.015625 57.28125 41.125 61.84375 
Q 37.25 66.40625 30.609375 66.40625 
Q 23.96875 66.40625 20.09375 61.84375 
Q 16.21875 57.28125 16.21875 49.421875 
Q 16.21875 41.5 20.09375 36.953125 
Q 23.96875 32.421875 30.609375 32.421875 
z
" id="DejaVuSans-39"/>
    </defs>
    <g style="fill:#e47288;" transform="translate(153.573385 202.406194)scale(0.12 -0.12)">
     <use xlink:href="#DejaVuSans-20"/>
     <use x="31.787109" xlink:href="#DejaVuSans-31"/>
     <use x="95.410156" xlink:href="#DejaVuSans-39"/>
     <use x="159.033203" xlink:href="#DejaVuSans-25"/>
    </g>
   </g>
   <g id="text_14">
    <!-- Wien -->
    <defs>
     <path d="M 3.328125 72.90625 
L 13.28125 72.90625 
L 28.609375 11.28125 
L 43.890625 72.90625 
L 54.984375 72.90625 
L 70.3125 11.28125 
L 85.59375 72.90625 
L 95.609375 72.90625 
L 77.296875 0 
L 64.890625 0 
L 49.515625 63.28125 
L 33.984375 0 
L 21.578125 0 
z
" id="DejaVuSans-57"/>
    </defs>
    <g style="fill:#e47288;" transform="translate(116.203594 202.406194)scale(0.12 -0.12)">
     <use xlink:href="#DejaVuSans-57"/>
     <use x="98.845703" xlink:href="#DejaVuSans-69"/>
     <use x="126.628906" xlink:href="#DejaVuSans-65"/>
     <use x="188.152344" xlink:href="#DejaVuSans-6e"/>
    </g>
   </g>
  </g>
  <g id="axes_3">
   <g id="patch_16">
    <path clip-path="url(#pb63e0fa20a)" d="z
" style="fill:#9ba1b8;"/>
   </g>
   <g id="patch_17">
    <path clip-path="url(#pb63e0fa20a)" d="M 200.20401 323.901404 
L 239.138157 323.901404 
L 239.138157 331.548864 
L 200.20401 331.548864 
z
" style="fill:#9ba1b8;"/>
   </g>
   <g id="patch_18">
    <path clip-path="url(#pb63e0fa20a)" d="M 200.20401 288.053938 
L 217.452942 288.053938 
L 217.452942 299.525127 
L 200.20401 299.525127 
z
" style="fill:#343866;"/>
   </g>
   <g id="patch_19">
    <path clip-path="url(#pb63e0fa20a)" d="z
" style="fill:#343866;"/>
   </g>
   <g id="patch_20">
    <path clip-path="url(#pb63e0fa20a)" d="z
" style="fill:#d68091;"/>
   </g>
   <g id="patch_21">
    <path clip-path="url(#pb63e0fa20a)" d="z
" style="fill:#d68091;"/>
   </g>
   <g id="line2d_21">
    <path clip-path="url(#pb63e0fa20a)" d="M 0 0 
" style="fill:none;stroke:#424242;stroke-linecap:square;stroke-width:2.7;"/>
   </g>
   <g id="line2d_22">
    <path clip-path="url(#pb63e0fa20a)" d="M 0 0 
" style="fill:none;stroke:#424242;stroke-linecap:square;stroke-width:2.7;"/>
   </g>
   <g id="line2d_23">
    <path clip-path="url(#pb63e0fa20a)" d="M 0 0 
" style="fill:none;stroke:#424242;stroke-linecap:square;stroke-width:2.7;"/>
   </g>
   <g id="line2d_24">
    <path clip-path="url(#pb63e0fa20a)" d="M 0 0 
" style="fill:none;stroke:#424242;stroke-linecap:square;stroke-width:2.7;"/>
   </g>
   <g id="line2d_25">
    <path clip-path="url(#pb63e0fa20a)" d="M 0 0 
" style="fill:none;stroke:#424242;stroke-linecap:square;stroke-width:2.7;"/>
   </g>
   <g id="line2d_26">
    <path clip-path="url(#pb63e0fa20a)" d="M 0 0 
" style="fill:none;stroke:#424242;stroke-linecap:square;stroke-width:2.7;"/>
   </g>
   <g id="text_15">
    <!--  14% -->
    <g style="fill:#969ebd;" transform="translate(158.654323 331.548864)scale(0.1 -0.1)">
     <use xlink:href="#DejaVuSans-20"/>
     <use x="31.787109" xlink:href="#DejaVuSans-31"/>
     <use x="95.410156" xlink:href="#DejaVuSans-34"/>
     <use x="159.033203" xlink:href="#DejaVuSans-25"/>
    </g>
   </g>
   <g id="text_16">
    <!-- Durchschnitt -->
    <g style="fill:#969ebd;" transform="translate(82.404531 331.548864)scale(0.1 -0.1)">
     <use xlink:href="#DejaVuSans-44"/>
     <use x="77.001953" xlink:href="#DejaVuSans-75"/>
     <use x="140.380859" xlink:href="#DejaVuSans-72"/>
     <use x="181.462891" xlink:href="#DejaVuSans-63"/>
     <use x="236.443359" xlink:href="#DejaVuSans-68"/>
     <use x="299.822266" xlink:href="#DejaVuSans-73"/>
     <use x="351.921875" xlink:href="#DejaVuSans-63"/>
     <use x="406.902344" xlink:href="#DejaVuSans-68"/>
     <use x="470.28125" xlink:href="#DejaVuSans-6e"/>
     <use x="533.660156" xlink:href="#DejaVuSans-69"/>
     <use x="561.443359" xlink:href="#DejaVuSans-74"/>
     <use x="600.652344" xlink:href="#DejaVuSans-74"/>
    </g>
   </g>
   <g id="text_17">
    <!--   6% -->
    <g style="fill:#2c316e;" transform="translate(157.394635 299.525127)scale(0.12 -0.12)">
     <use xlink:href="#DejaVuSans-20"/>
     <use x="31.787109" xlink:href="#DejaVuSans-20"/>
     <use x="63.574219" xlink:href="#DejaVuSans-36"/>
     <use x="127.197266" xlink:href="#DejaVuSans-25"/>
    </g>
   </g>
   <g id="text_18">
    <!-- Niederösterreich -->
    <defs>
     <path d="M 9.8125 72.90625 
L 23.09375 72.90625 
L 55.421875 11.921875 
L 55.421875 72.90625 
L 64.984375 72.90625 
L 64.984375 0 
L 51.703125 0 
L 19.390625 60.984375 
L 19.390625 0 
L 9.8125 0 
z
" id="DejaVuSans-4e"/>
     <path d="M 45.40625 46.390625 
L 45.40625 75.984375 
L 54.390625 75.984375 
L 54.390625 0 
L 45.40625 0 
L 45.40625 8.203125 
Q 42.578125 3.328125 38.25 0.953125 
Q 33.9375 -1.421875 27.875 -1.421875 
Q 17.96875 -1.421875 11.734375 6.484375 
Q 5.515625 14.40625 5.515625 27.296875 
Q 5.515625 40.1875 11.734375 48.09375 
Q 17.96875 56 27.875 56 
Q 33.9375 56 38.25 53.625 
Q 42.578125 51.265625 45.40625 46.390625 
z
M 14.796875 27.296875 
Q 14.796875 17.390625 18.875 11.75 
Q 22.953125 6.109375 30.078125 6.109375 
Q 37.203125 6.109375 41.296875 11.75 
Q 45.40625 17.390625 45.40625 27.296875 
Q 45.40625 37.203125 41.296875 42.84375 
Q 37.203125 48.484375 30.078125 48.484375 
Q 22.953125 48.484375 18.875 42.84375 
Q 14.796875 37.203125 14.796875 27.296875 
z
" id="DejaVuSans-64"/>
     <path d="M 30.609375 48.390625 
Q 23.390625 48.390625 19.1875 42.75 
Q 14.984375 37.109375 14.984375 27.296875 
Q 14.984375 17.484375 19.15625 11.84375 
Q 23.34375 6.203125 30.609375 6.203125 
Q 37.796875 6.203125 41.984375 11.859375 
Q 46.1875 17.53125 46.1875 27.296875 
Q 46.1875 37.015625 41.984375 42.703125 
Q 37.796875 48.390625 30.609375 48.390625 
z
M 30.609375 56 
Q 42.328125 56 49.015625 48.375 
Q 55.71875 40.765625 55.71875 27.296875 
Q 55.71875 13.875 49.015625 6.21875 
Q 42.328125 -1.421875 30.609375 -1.421875 
Q 18.84375 -1.421875 12.171875 6.21875 
Q 5.515625 13.875 5.515625 27.296875 
Q 5.515625 40.765625 12.171875 48.375 
Q 18.84375 56 30.609375 56 
z
M 35.21875 75.78125 
L 45.125 75.78125 
L 45.125 65.921875 
L 35.21875 65.921875 
z
M 16.125 75.78125 
L 26.03125 75.78125 
L 26.03125 65.921875 
L 16.125 65.921875 
z
" id="DejaVuSans-f6"/>
    </defs>
    <g style="fill:#2c316e;" transform="translate(46.297969 299.525127)scale(0.12 -0.12)">
     <use xlink:href="#DejaVuSans-4e"/>
     <use x="74.804688" xlink:href="#DejaVuSans-69"/>
     <use x="102.587891" xlink:href="#DejaVuSans-65"/>
     <use x="164.111328" xlink:href="#DejaVuSans-64"/>
     <use x="227.587891" xlink:href="#DejaVuSans-65"/>
     <use x="289.111328" xlink:href="#DejaVuSans-72"/>
     <use x="330.193359" xlink:href="#DejaVuSans-f6"/>
     <use x="391.375" xlink:href="#DejaVuSans-73"/>
     <use x="443.474609" xlink:href="#DejaVuSans-74"/>
     <use x="482.683594" xlink:href="#DejaVuSans-65"/>
     <use x="544.207031" xlink:href="#DejaVuSans-72"/>
     <use x="585.304688" xlink:href="#DejaVuSans-72"/>
     <use x="626.386719" xlink:href="#DejaVuSans-65"/>
     <use x="687.910156" xlink:href="#DejaVuSans-69"/>
     <use x="715.693359" xlink:href="#DejaVuSans-63"/>
     <use x="770.673828" xlink:href="#DejaVuSans-68"/>
    </g>
   </g>
  </g>
  <g id="axes_4">
   <g id="patch_22">
    <path clip-path="url(#p8b96e03703)" d="z
" style="fill:#9ba1b8;"/>
   </g>
   <g id="patch_23">
    <path clip-path="url(#p8b96e03703)" d="M 200.20401 421.020338 
L 215.639441 421.020338 
L 215.639441 428.667797 
L 200.20401 428.667797 
z
" style="fill:#9ba1b8;"/>
   </g>
   <g id="patch_24">
    <path clip-path="url(#p8b96e03703)" d="z
" style="fill:#343866;"/>
   </g>
   <g id="patch_25">
    <path clip-path="url(#p8b96e03703)" d="z
" style="fill:#343866;"/>
   </g>
   <g id="patch_26">
    <path clip-path="url(#p8b96e03703)" d="M 200.20401 385.172871 
L 227.802301 385.172871 
L 227.802301 396.64406 
L 200.20401 396.64406 
z
" style="fill:#d68091;"/>
   </g>
   <g id="patch_27">
    <path clip-path="url(#p8b96e03703)" d="z
" style="fill:#d68091;"/>
   </g>
   <g id="line2d_27">
    <path clip-path="url(#p8b96e03703)" d="M 0 0 
" style="fill:none;stroke:#424242;stroke-linecap:square;stroke-width:2.7;"/>
   </g>
   <g id="line2d_28">
    <path clip-path="url(#p8b96e03703)" d="M 0 0 
" style="fill:none;stroke:#424242;stroke-linecap:square;stroke-width:2.7;"/>
   </g>
   <g id="line2d_29">
    <path clip-path="url(#p8b96e03703)" d="M 0 0 
" style="fill:none;stroke:#424242;stroke-linecap:square;stroke-width:2.7;"/>
   </g>
   <g id="line2d_30">
    <path clip-path="url(#p8b96e03703)" d="M 0 0 
" style="fill:none;stroke:#424242;stroke-linecap:square;stroke-width:2.7;"/>
   </g>
   <g id="line2d_31">
    <path clip-path="url(#p8b96e03703)" d="M 0 0 
" style="fill:none;stroke:#424242;stroke-linecap:square;stroke-width:2.7;"/>
   </g>
   <g id="line2d_32">
    <path clip-path="url(#p8b96e03703)" d="M 0 0 
" style="fill:none;stroke:#424242;stroke-linecap:square;stroke-width:2.7;"/>
   </g>
   <g id="text_19">
    <!--   6% -->
    <g style="fill:#969ebd;" transform="translate(161.838698 428.667797)scale(0.1 -0.1)">
     <use xlink:href="#DejaVuSans-20"/>
     <use x="31.787109" xlink:href="#DejaVuSans-20"/>
     <use x="63.574219" xlink:href="#DejaVuSans-36"/>
     <use x="127.197266" xlink:href="#DejaVuSans-25"/>
    </g>
   </g>
   <g id="text_20">
    <!-- Durchschnitt -->
    <g style="fill:#969ebd;" transform="translate(82.404531 428.667797)scale(0.1 -0.1)">
     <use xlink:href="#DejaVuSans-44"/>
     <use x="77.001953" xlink:href="#DejaVuSans-75"/>
     <use x="140.380859" xlink:href="#DejaVuSans-72"/>
     <use x="181.462891" xlink:href="#DejaVuSans-63"/>
     <use x="236.443359" xlink:href="#DejaVuSans-68"/>
     <use x="299.822266" xlink:href="#DejaVuSans-73"/>
     <use x="351.921875" xlink:href="#DejaVuSans-63"/>
     <use x="406.902344" xlink:href="#DejaVuSans-68"/>
     <use x="470.28125" xlink:href="#DejaVuSans-6e"/>
     <use x="533.660156" xlink:href="#DejaVuSans-69"/>
     <use x="561.443359" xlink:href="#DejaVuSans-74"/>
     <use x="600.652344" xlink:href="#DejaVuSans-74"/>
    </g>
   </g>
   <g id="text_21">
    <!--  10% -->
    <g style="fill:#e47288;" transform="translate(153.573385 396.64406)scale(0.12 -0.12)">
     <use xlink:href="#DejaVuSans-20"/>
     <use x="31.787109" xlink:href="#DejaVuSans-31"/>
     <use x="95.410156" xlink:href="#DejaVuSans-30"/>
     <use x="159.033203" xlink:href="#DejaVuSans-25"/>
    </g>
   </g>
   <g id="text_22">
    <!-- Steiermark -->
    <defs>
     <path d="M 53.515625 70.515625 
L 53.515625 60.890625 
Q 47.90625 63.578125 42.921875 64.890625 
Q 37.9375 66.21875 33.296875 66.21875 
Q 25.25 66.21875 20.875 63.09375 
Q 16.5 59.96875 16.5 54.203125 
Q 16.5 49.359375 19.40625 46.890625 
Q 22.3125 44.4375 30.421875 42.921875 
L 36.375 41.703125 
Q 47.40625 39.59375 52.65625 34.296875 
Q 57.90625 29 57.90625 20.125 
Q 57.90625 9.515625 50.796875 4.046875 
Q 43.703125 -1.421875 29.984375 -1.421875 
Q 24.8125 -1.421875 18.96875 -0.25 
Q 13.140625 0.921875 6.890625 3.21875 
L 6.890625 13.375 
Q 12.890625 10.015625 18.65625 8.296875 
Q 24.421875 6.59375 29.984375 6.59375 
Q 38.421875 6.59375 43.015625 9.90625 
Q 47.609375 13.234375 47.609375 19.390625 
Q 47.609375 24.75 44.3125 27.78125 
Q 41.015625 30.8125 33.5 32.328125 
L 27.484375 33.5 
Q 16.453125 35.6875 11.515625 40.375 
Q 6.59375 45.0625 6.59375 53.421875 
Q 6.59375 63.09375 13.40625 68.65625 
Q 20.21875 74.21875 32.171875 74.21875 
Q 37.3125 74.21875 42.625 73.28125 
Q 47.953125 72.359375 53.515625 70.515625 
z
" id="DejaVuSans-53"/>
     <path d="M 52 44.1875 
Q 55.375 50.25 60.0625 53.125 
Q 64.75 56 71.09375 56 
Q 79.640625 56 84.28125 50.015625 
Q 88.921875 44.046875 88.921875 33.015625 
L 88.921875 0 
L 79.890625 0 
L 79.890625 32.71875 
Q 79.890625 40.578125 77.09375 44.375 
Q 74.3125 48.1875 68.609375 48.1875 
Q 61.625 48.1875 57.5625 43.546875 
Q 53.515625 38.921875 53.515625 30.90625 
L 53.515625 0 
L 44.484375 0 
L 44.484375 32.71875 
Q 44.484375 40.625 41.703125 44.40625 
Q 38.921875 48.1875 33.109375 48.1875 
Q 26.21875 48.1875 22.15625 43.53125 
Q 18.109375 38.875 18.109375 30.90625 
L 18.109375 0 
L 9.078125 0 
L 9.078125 54.6875 
L 18.109375 54.6875 
L 18.109375 46.1875 
Q 21.1875 51.21875 25.484375 53.609375 
Q 29.78125 56 35.6875 56 
Q 41.65625 56 45.828125 52.96875 
Q 50 49.953125 52 44.1875 
z
" id="DejaVuSans-6d"/>
    </defs>
    <g style="fill:#e47288;" transform="translate(80.107969 396.64406)scale(0.12 -0.12)">
     <use xlink:href="#DejaVuSans-53"/>
     <use x="63.476562" xlink:href="#DejaVuSans-74"/>
     <use x="102.685547" xlink:href="#DejaVuSans-65"/>
     <use x="164.208984" xlink:href="#DejaVuSans-69"/>
     <use x="191.992188" xlink:href="#DejaVuSans-65"/>
     <use x="253.515625" xlink:href="#DejaVuSans-72"/>
     <use x="294.613281" xlink:href="#DejaVuSans-6d"/>
     <use x="392.025391" xlink:href="#DejaVuSans-61"/>
     <use x="453.304688" xlink:href="#DejaVuSans-72"/>
     <use x="494.417969" xlink:href="#DejaVuSans-6b"/>
    </g>
   </g>
  </g>
  <g id="axes_5">
   <g id="patch_28">
    <path clip-path="url(#p5cf1d4d6c7)" d="z
" style="fill:#9ba1b8;"/>
   </g>
   <g id="patch_29">
    <path clip-path="url(#p5cf1d4d6c7)" d="M 200.20401 518.139271 
L 210.340711 518.139271 
L 210.340711 525.786731 
L 200.20401 525.786731 
z
" style="fill:#9ba1b8;"/>
   </g>
   <g id="patch_30">
    <path clip-path="url(#p5cf1d4d6c7)" d="z
" style="fill:#343866;"/>
   </g>
   <g id="patch_31">
    <path clip-path="url(#p5cf1d4d6c7)" d="z
" style="fill:#343866;"/>
   </g>
   <g id="patch_32">
    <path clip-path="url(#p5cf1d4d6c7)" d="M 200.20401 482.291804 
L 227.802301 482.291804 
L 227.802301 493.762994 
L 200.20401 493.762994 
z
" style="fill:#d68091;"/>
   </g>
   <g id="patch_33">
    <path clip-path="url(#p5cf1d4d6c7)" d="z
" style="fill:#d68091;"/>
   </g>
   <g id="line2d_33">
    <path clip-path="url(#p5cf1d4d6c7)" d="M 0 0 
" style="fill:none;stroke:#424242;stroke-linecap:square;stroke-width:2.7;"/>
   </g>
   <g id="line2d_34">
    <path clip-path="url(#p5cf1d4d6c7)" d="M 0 0 
" style="fill:none;stroke:#424242;stroke-linecap:square;stroke-width:2.7;"/>
   </g>
   <g id="line2d_35">
    <path clip-path="url(#p5cf1d4d6c7)" d="M 0 0 
" style="fill:none;stroke:#424242;stroke-linecap:square;stroke-width:2.7;"/>
   </g>
   <g id="line2d_36">
    <path clip-path="url(#p5cf1d4d6c7)" d="M 0 0 
" style="fill:none;stroke:#424242;stroke-linecap:square;stroke-width:2.7;"/>
   </g>
   <g id="line2d_37">
    <path clip-path="url(#p5cf1d4d6c7)" d="M 0 0 
" style="fill:none;stroke:#424242;stroke-linecap:square;stroke-width:2.7;"/>
   </g>
   <g id="line2d_38">
    <path clip-path="url(#p5cf1d4d6c7)" d="M 0 0 
" style="fill:none;stroke:#424242;stroke-linecap:square;stroke-width:2.7;"/>
   </g>
   <g id="text_23">
    <!--   4% -->
    <g style="fill:#969ebd;" transform="translate(161.838698 525.786731)scale(0.1 -0.1)">
     <use xlink:href="#DejaVuSans-20"/>
     <use x="31.787109" xlink:href="#DejaVuSans-20"/>
     <use x="63.574219" xlink:href="#DejaVuSans-34"/>
     <use x="127.197266" xlink:href="#DejaVuSans-25"/>
    </g>
   </g>
   <g id="text_24">
    <!-- Durchschnitt -->
    <g style="fill:#969ebd;" transform="translate(82.404531 525.786731)scale(0.1 -0.1)">
     <use xlink:href="#DejaVuSans-44"/>
     <use x="77.001953" xlink:href="#DejaVuSans-75"/>
     <use x="140.380859" xlink:href="#DejaVuSans-72"/>
     <use x="181.462891" xlink:href="#DejaVuSans-63"/>
     <use x="236.443359" xlink:href="#DejaVuSans-68"/>
     <use x="299.822266" xlink:href="#DejaVuSans-73"/>
     <use x="351.921875" xlink:href="#DejaVuSans-63"/>
     <use x="406.902344" xlink:href="#DejaVuSans-68"/>
     <use x="470.28125" xlink:href="#DejaVuSans-6e"/>
     <use x="533.660156" xlink:href="#DejaVuSans-69"/>
     <use x="561.443359" xlink:href="#DejaVuSans-74"/>
     <use x="600.652344" xlink:href="#DejaVuSans-74"/>
    </g>
   </g>
   <g id="text_25">
    <!--  10% -->
    <g style="fill:#e47288;" transform="translate(153.573385 493.762994)scale(0.12 -0.12)">
     <use xlink:href="#DejaVuSans-20"/>
     <use x="31.787109" xlink:href="#DejaVuSans-31"/>
     <use x="95.410156" xlink:href="#DejaVuSans-30"/>
     <use x="159.033203" xlink:href="#DejaVuSans-25"/>
    </g>
   </g>
   <g id="text_26">
    <!-- Salzburg -->
    <defs>
     <path d="M 9.421875 75.984375 
L 18.40625 75.984375 
L 18.40625 0 
L 9.421875 0 
z
" id="DejaVuSans-6c"/>
     <path d="M 5.515625 54.6875 
L 48.1875 54.6875 
L 48.1875 46.484375 
L 14.40625 7.171875 
L 48.1875 7.171875 
L 48.1875 0 
L 4.296875 0 
L 4.296875 8.203125 
L 38.09375 47.515625 
L 5.515625 47.515625 
z
" id="DejaVuSans-7a"/>
     <path d="M 45.40625 27.984375 
Q 45.40625 37.75 41.375 43.109375 
Q 37.359375 48.484375 30.078125 48.484375 
Q 22.859375 48.484375 18.828125 43.109375 
Q 14.796875 37.75 14.796875 27.984375 
Q 14.796875 18.265625 18.828125 12.890625 
Q 22.859375 7.515625 30.078125 7.515625 
Q 37.359375 7.515625 41.375 12.890625 
Q 45.40625 18.265625 45.40625 27.984375 
z
M 54.390625 6.78125 
Q 54.390625 -7.171875 48.1875 -13.984375 
Q 42 -20.796875 29.203125 -20.796875 
Q 24.46875 -20.796875 20.265625 -20.09375 
Q 16.0625 -19.390625 12.109375 -17.921875 
L 12.109375 -9.1875 
Q 16.0625 -11.328125 19.921875 -12.34375 
Q 23.78125 -13.375 27.78125 -13.375 
Q 36.625 -13.375 41.015625 -8.765625 
Q 45.40625 -4.15625 45.40625 5.171875 
L 45.40625 9.625 
Q 42.625 4.78125 38.28125 2.390625 
Q 33.9375 0 27.875 0 
Q 17.828125 0 11.671875 7.65625 
Q 5.515625 15.328125 5.515625 27.984375 
Q 5.515625 40.671875 11.671875 48.328125 
Q 17.828125 56 27.875 56 
Q 33.9375 56 38.28125 53.609375 
Q 42.625 51.21875 45.40625 46.390625 
L 45.40625 54.6875 
L 54.390625 54.6875 
z
" id="DejaVuSans-67"/>
    </defs>
    <g style="fill:#e47288;" transform="translate(94.011094 493.762994)scale(0.12 -0.12)">
     <use xlink:href="#DejaVuSans-53"/>
     <use x="63.476562" xlink:href="#DejaVuSans-61"/>
     <use x="124.755859" xlink:href="#DejaVuSans-6c"/>
     <use x="152.539062" xlink:href="#DejaVuSans-7a"/>
     <use x="205.029297" xlink:href="#DejaVuSans-62"/>
     <use x="268.505859" xlink:href="#DejaVuSans-75"/>
     <use x="331.884766" xlink:href="#DejaVuSans-72"/>
     <use x="372.982422" xlink:href="#DejaVuSans-67"/>
    </g>
   </g>
  </g>
  <g id="axes_6">
   <g id="patch_34">
    <path clip-path="url(#p15e8b56b2c)" d="z
" style="fill:#9ba1b8;"/>
   </g>
   <g id="patch_35">
    <path clip-path="url(#p15e8b56b2c)" d="M 200.20401 615.258204 
L 215.869821 615.258204 
L 215.869821 622.905664 
L 200.20401 622.905664 
z
" style="fill:#9ba1b8;"/>
   </g>
   <g id="patch_36">
    <path clip-path="url(#p15e8b56b2c)" d="z
" style="fill:#343866;"/>
   </g>
   <g id="patch_37">
    <path clip-path="url(#p15e8b56b2c)" d="z
" style="fill:#343866;"/>
   </g>
   <g id="patch_38">
    <path clip-path="url(#p15e8b56b2c)" d="M 200.20401 579.410738 
L 220.902728 579.410738 
L 220.902728 590.881927 
L 200.20401 590.881927 
z
" style="fill:#d68091;"/>
   </g>
   <g id="patch_39">
    <path clip-path="url(#p15e8b56b2c)" d="z
" style="fill:#d68091;"/>
   </g>
   <g id="line2d_39">
    <path clip-path="url(#p15e8b56b2c)" d="M 0 0 
" style="fill:none;stroke:#424242;stroke-linecap:square;stroke-width:2.7;"/>
   </g>
   <g id="line2d_40">
    <path clip-path="url(#p15e8b56b2c)" d="M 0 0 
" style="fill:none;stroke:#424242;stroke-linecap:square;stroke-width:2.7;"/>
   </g>
   <g id="line2d_41">
    <path clip-path="url(#p15e8b56b2c)" d="M 0 0 
" style="fill:none;stroke:#424242;stroke-linecap:square;stroke-width:2.7;"/>
   </g>
   <g id="line2d_42">
    <path clip-path="url(#p15e8b56b2c)" d="M 0 0 
" style="fill:none;stroke:#424242;stroke-linecap:square;stroke-width:2.7;"/>
   </g>
   <g id="line2d_43">
    <path clip-path="url(#p15e8b56b2c)" d="M 0 0 
" style="fill:none;stroke:#424242;stroke-linecap:square;stroke-width:2.7;"/>
   </g>
   <g id="line2d_44">
    <path clip-path="url(#p15e8b56b2c)" d="M 0 0 
" style="fill:none;stroke:#424242;stroke-linecap:square;stroke-width:2.7;"/>
   </g>
   <g id="text_27">
    <!--   6% -->
    <g style="fill:#969ebd;" transform="translate(161.838698 622.905664)scale(0.1 -0.1)">
     <use xlink:href="#DejaVuSans-20"/>
     <use x="31.787109" xlink:href="#DejaVuSans-20"/>
     <use x="63.574219" xlink:href="#DejaVuSans-36"/>
     <use x="127.197266" xlink:href="#DejaVuSans-25"/>
    </g>
   </g>
   <g id="text_28">
    <!-- Durchschnitt -->
    <g style="fill:#969ebd;" transform="translate(82.404531 622.905664)scale(0.1 -0.1)">
     <use xlink:href="#DejaVuSans-44"/>
     <use x="77.001953" xlink:href="#DejaVuSans-75"/>
     <use x="140.380859" xlink:href="#DejaVuSans-72"/>
     <use x="181.462891" xlink:href="#DejaVuSans-63"/>
     <use x="236.443359" xlink:href="#DejaVuSans-68"/>
     <use x="299.822266" xlink:href="#DejaVuSans-73"/>
     <use x="351.921875" xlink:href="#DejaVuSans-63"/>
     <use x="406.902344" xlink:href="#DejaVuSans-68"/>
     <use x="470.28125" xlink:href="#DejaVuSans-6e"/>
     <use x="533.660156" xlink:href="#DejaVuSans-69"/>
     <use x="561.443359" xlink:href="#DejaVuSans-74"/>
     <use x="600.652344" xlink:href="#DejaVuSans-74"/>
    </g>
   </g>
   <g id="text_29">
    <!--   8% -->
    <g style="fill:#e47288;" transform="translate(157.394635 590.881927)scale(0.12 -0.12)">
     <use xlink:href="#DejaVuSans-20"/>
     <use x="31.787109" xlink:href="#DejaVuSans-20"/>
     <use x="63.574219" xlink:href="#DejaVuSans-38"/>
     <use x="127.197266" xlink:href="#DejaVuSans-25"/>
    </g>
   </g>
   <g id="text_30">
    <!-- Burgenland -->
    <defs>
     <path d="M 19.671875 34.8125 
L 19.671875 8.109375 
L 35.5 8.109375 
Q 43.453125 8.109375 47.28125 11.40625 
Q 51.125 14.703125 51.125 21.484375 
Q 51.125 28.328125 47.28125 31.5625 
Q 43.453125 34.8125 35.5 34.8125 
z
M 19.671875 64.796875 
L 19.671875 42.828125 
L 34.28125 42.828125 
Q 41.5 42.828125 45.03125 45.53125 
Q 48.578125 48.25 48.578125 53.8125 
Q 48.578125 59.328125 45.03125 62.0625 
Q 41.5 64.796875 34.28125 64.796875 
z
M 9.8125 72.90625 
L 35.015625 72.90625 
Q 46.296875 72.90625 52.390625 68.21875 
Q 58.5 63.53125 58.5 54.890625 
Q 58.5 48.1875 55.375 44.234375 
Q 52.25 40.28125 46.1875 39.3125 
Q 53.46875 37.75 57.5 32.78125 
Q 61.53125 27.828125 61.53125 20.40625 
Q 61.53125 10.640625 54.890625 5.3125 
Q 48.25 0 35.984375 0 
L 9.8125 0 
z
" id="DejaVuSans-42"/>
    </defs>
    <g style="fill:#e47288;" transform="translate(77.100469 590.881927)scale(0.12 -0.12)">
     <use xlink:href="#DejaVuSans-42"/>
     <use x="68.603516" xlink:href="#DejaVuSans-75"/>
     <use x="131.982422" xlink:href="#DejaVuSans-72"/>
     <use x="173.080078" xlink:href="#DejaVuSans-67"/>
     <use x="236.556641" xlink:href="#DejaVuSans-65"/>
     <use x="298.080078" xlink:href="#DejaVuSans-6e"/>
     <use x="361.458984" xlink:href="#DejaVuSans-6c"/>
     <use x="389.242188" xlink:href="#DejaVuSans-61"/>
     <use x="450.521484" xlink:href="#DejaVuSans-6e"/>
     <use x="513.900391" xlink:href="#DejaVuSans-64"/>
    </g>
   </g>
  </g>
  <g id="axes_7">
   <g id="patch_40">
    <path clip-path="url(#pd75ec98c74)" d="z
" style="fill:#9ba1b8;"/>
   </g>
   <g id="patch_41">
    <path clip-path="url(#pd75ec98c74)" d="M 200.20401 712.377138 
L 210.340711 712.377138 
L 210.340711 720.024597 
L 200.20401 720.024597 
z
" style="fill:#9ba1b8;"/>
   </g>
   <g id="patch_42">
    <path clip-path="url(#pd75ec98c74)" d="z
" style="fill:#343866;"/>
   </g>
   <g id="patch_43">
    <path clip-path="url(#pd75ec98c74)" d="z
" style="fill:#343866;"/>
   </g>
   <g id="patch_44">
    <path clip-path="url(#pd75ec98c74)" d="M 200.20401 676.529671 
L 214.003156 676.529671 
L 214.003156 688.00086 
L 200.20401 688.00086 
z
" style="fill:#d68091;"/>
   </g>
   <g id="patch_45">
    <path clip-path="url(#pd75ec98c74)" d="z
" style="fill:#d68091;"/>
   </g>
   <g id="line2d_45">
    <path clip-path="url(#pd75ec98c74)" d="M 0 0 
" style="fill:none;stroke:#424242;stroke-linecap:square;stroke-width:2.7;"/>
   </g>
   <g id="line2d_46">
    <path clip-path="url(#pd75ec98c74)" d="M 0 0 
" style="fill:none;stroke:#424242;stroke-linecap:square;stroke-width:2.7;"/>
   </g>
   <g id="line2d_47">
    <path clip-path="url(#pd75ec98c74)" d="M 0 0 
" style="fill:none;stroke:#424242;stroke-linecap:square;stroke-width:2.7;"/>
   </g>
   <g id="line2d_48">
    <path clip-path="url(#pd75ec98c74)" d="M 0 0 
" style="fill:none;stroke:#424242;stroke-linecap:square;stroke-width:2.7;"/>
   </g>
   <g id="line2d_49">
    <path clip-path="url(#pd75ec98c74)" d="M 0 0 
" style="fill:none;stroke:#424242;stroke-linecap:square;stroke-width:2.7;"/>
   </g>
   <g id="line2d_50">
    <path clip-path="url(#pd75ec98c74)" d="M 0 0 
" style="fill:none;stroke:#424242;stroke-linecap:square;stroke-width:2.7;"/>
   </g>
   <g id="text_31">
    <!--   4% -->
    <g style="fill:#969ebd;" transform="translate(161.838698 720.024597)scale(0.1 -0.1)">
     <use xlink:href="#DejaVuSans-20"/>
     <use x="31.787109" xlink:href="#DejaVuSans-20"/>
     <use x="63.574219" xlink:href="#DejaVuSans-34"/>
     <use x="127.197266" xlink:href="#DejaVuSans-25"/>
    </g>
   </g>
   <g id="text_32">
    <!-- Durchschnitt -->
    <g style="fill:#969ebd;" transform="translate(82.404531 720.024597)scale(0.1 -0.1)">
     <use xlink:href="#DejaVuSans-44"/>
     <use x="77.001953" xlink:href="#DejaVuSans-75"/>
     <use x="140.380859" xlink:href="#DejaVuSans-72"/>
     <use x="181.462891" xlink:href="#DejaVuSans-63"/>
     <use x="236.443359" xlink:href="#DejaVuSans-68"/>
     <use x="299.822266" xlink:href="#DejaVuSans-73"/>
     <use x="351.921875" xlink:href="#DejaVuSans-63"/>
     <use x="406.902344" xlink:href="#DejaVuSans-68"/>
     <use x="470.28125" xlink:href="#DejaVuSans-6e"/>
     <use x="533.660156" xlink:href="#DejaVuSans-69"/>
     <use x="561.443359" xlink:href="#DejaVuSans-74"/>
     <use x="600.652344" xlink:href="#DejaVuSans-74"/>
    </g>
   </g>
   <g id="text_33">
    <!--   5% -->
    <g style="fill:#e47288;" transform="translate(157.394635 688.00086)scale(0.12 -0.12)">
     <use xlink:href="#DejaVuSans-20"/>
     <use x="31.787109" xlink:href="#DejaVuSans-20"/>
     <use x="63.574219" xlink:href="#DejaVuSans-35"/>
     <use x="127.197266" xlink:href="#DejaVuSans-25"/>
    </g>
   </g>
   <g id="text_34">
    <!-- Kärnten -->
    <defs>
     <path d="M 9.8125 72.90625 
L 19.671875 72.90625 
L 19.671875 42.09375 
L 52.390625 72.90625 
L 65.09375 72.90625 
L 28.90625 38.921875 
L 67.671875 0 
L 54.6875 0 
L 19.671875 35.109375 
L 19.671875 0 
L 9.8125 0 
z
" id="DejaVuSans-4b"/>
     <path d="M 34.28125 27.484375 
Q 23.390625 27.484375 19.1875 25 
Q 14.984375 22.515625 14.984375 16.5 
Q 14.984375 11.71875 18.140625 8.90625 
Q 21.296875 6.109375 26.703125 6.109375 
Q 34.1875 6.109375 38.703125 11.40625 
Q 43.21875 16.703125 43.21875 25.484375 
L 43.21875 27.484375 
z
M 52.203125 31.203125 
L 52.203125 0 
L 43.21875 0 
L 43.21875 8.296875 
Q 40.140625 3.328125 35.546875 0.953125 
Q 30.953125 -1.421875 24.3125 -1.421875 
Q 15.921875 -1.421875 10.953125 3.296875 
Q 6 8.015625 6 15.921875 
Q 6 25.140625 12.171875 29.828125 
Q 18.359375 34.515625 30.609375 34.515625 
L 43.21875 34.515625 
L 43.21875 35.40625 
Q 43.21875 41.609375 39.140625 45 
Q 35.0625 48.390625 27.6875 48.390625 
Q 23 48.390625 18.546875 47.265625 
Q 14.109375 46.140625 10.015625 43.890625 
L 10.015625 52.203125 
Q 14.9375 54.109375 19.578125 55.046875 
Q 24.21875 56 28.609375 56 
Q 40.484375 56 46.34375 49.84375 
Q 52.203125 43.703125 52.203125 31.203125 
z
M 33.59375 75.78125 
L 43.5 75.78125 
L 43.5 65.921875 
L 33.59375 65.921875 
z
M 14.5 75.78125 
L 24.40625 75.78125 
L 24.40625 65.921875 
L 14.5 65.921875 
z
" id="DejaVuSans-e4"/>
    </defs>
    <g style="fill:#e47288;" transform="translate(98.936719 688.00086)scale(0.12 -0.12)">
     <use xlink:href="#DejaVuSans-4b"/>
     <use x="65.560547" xlink:href="#DejaVuSans-e4"/>
     <use x="126.839844" xlink:href="#DejaVuSans-72"/>
     <use x="167.9375" xlink:href="#DejaVuSans-6e"/>
     <use x="231.316406" xlink:href="#DejaVuSans-74"/>
     <use x="270.525391" xlink:href="#DejaVuSans-65"/>
     <use x="332.048828" xlink:href="#DejaVuSans-6e"/>
    </g>
   </g>
  </g>
  <g id="axes_8">
   <g id="patch_46">
    <path clip-path="url(#pbf2b02294f)" d="z
" style="fill:#9ba1b8;"/>
   </g>
   <g id="patch_47">
    <path clip-path="url(#pbf2b02294f)" d="M 200.20401 809.496071 
L 207.115397 809.496071 
L 207.115397 817.143531 
L 200.20401 817.143531 
z
" style="fill:#9ba1b8;"/>
   </g>
   <g id="patch_48">
    <path clip-path="url(#pbf2b02294f)" d="z
" style="fill:#343866;"/>
   </g>
   <g id="patch_49">
    <path clip-path="url(#pbf2b02294f)" d="z
" style="fill:#343866;"/>
   </g>
   <g id="patch_50">
    <path clip-path="url(#pbf2b02294f)" d="M 200.20401 773.648604 
L 214.003156 773.648604 
L 214.003156 785.119794 
L 200.20401 785.119794 
z
" style="fill:#d68091;"/>
   </g>
   <g id="patch_51">
    <path clip-path="url(#pbf2b02294f)" d="z
" style="fill:#d68091;"/>
   </g>
   <g id="line2d_51">
    <path clip-path="url(#pbf2b02294f)" d="M 0 0 
" style="fill:none;stroke:#424242;stroke-linecap:square;stroke-width:2.7;"/>
   </g>
   <g id="line2d_52">
    <path clip-path="url(#pbf2b02294f)" d="M 0 0 
" style="fill:none;stroke:#424242;stroke-linecap:square;stroke-width:2.7;"/>
   </g>
   <g id="line2d_53">
    <path clip-path="url(#pbf2b02294f)" d="M 0 0 
" style="fill:none;stroke:#424242;stroke-linecap:square;stroke-width:2.7;"/>
   </g>
   <g id="line2d_54">
    <path clip-path="url(#pbf2b02294f)" d="M 0 0 
" style="fill:none;stroke:#424242;stroke-linecap:square;stroke-width:2.7;"/>
   </g>
   <g id="line2d_55">
    <path clip-path="url(#pbf2b02294f)" d="M 0 0 
" style="fill:none;stroke:#424242;stroke-linecap:square;stroke-width:2.7;"/>
   </g>
   <g id="line2d_56">
    <path clip-path="url(#pbf2b02294f)" d="M 0 0 
" style="fill:none;stroke:#424242;stroke-linecap:square;stroke-width:2.7;"/>
   </g>
   <g id="text_35">
    <!--   3% -->
    <g style="fill:#969ebd;" transform="translate(161.838698 817.143531)scale(0.1 -0.1)">
     <use xlink:href="#DejaVuSans-20"/>
     <use x="31.787109" xlink:href="#DejaVuSans-20"/>
     <use x="63.574219" xlink:href="#DejaVuSans-33"/>
     <use x="127.197266" xlink:href="#DejaVuSans-25"/>
    </g>
   </g>
   <g id="text_36">
    <!-- Durchschnitt -->
    <g style="fill:#969ebd;" transform="translate(82.404531 817.143531)scale(0.1 -0.1)">
     <use xlink:href="#DejaVuSans-44"/>
     <use x="77.001953" xlink:href="#DejaVuSans-75"/>
     <use x="140.380859" xlink:href="#DejaVuSans-72"/>
     <use x="181.462891" xlink:href="#DejaVuSans-63"/>
     <use x="236.443359" xlink:href="#DejaVuSans-68"/>
     <use x="299.822266" xlink:href="#DejaVuSans-73"/>
     <use x="351.921875" xlink:href="#DejaVuSans-63"/>
     <use x="406.902344" xlink:href="#DejaVuSans-68"/>
     <use x="470.28125" xlink:href="#DejaVuSans-6e"/>
     <use x="533.660156" xlink:href="#DejaVuSans-69"/>
     <use x="561.443359" xlink:href="#DejaVuSans-74"/>
     <use x="600.652344" xlink:href="#DejaVuSans-74"/>
    </g>
   </g>
   <g id="text_37">
    <!--   5% -->
    <g style="fill:#e47288;" transform="translate(157.394635 785.119794)scale(0.12 -0.12)">
     <use xlink:href="#DejaVuSans-20"/>
     <use x="31.787109" xlink:href="#DejaVuSans-20"/>
     <use x="63.574219" xlink:href="#DejaVuSans-35"/>
     <use x="127.197266" xlink:href="#DejaVuSans-25"/>
    </g>
   </g>
   <g id="text_38">
    <!-- Tirol -->
    <defs>
     <path d="M -0.296875 72.90625 
L 61.375 72.90625 
L 61.375 64.59375 
L 35.5 64.59375 
L 35.5 0 
L 25.59375 0 
L 25.59375 64.59375 
L -0.296875 64.59375 
z
" id="DejaVuSans-54"/>
     <path d="M 30.609375 48.390625 
Q 23.390625 48.390625 19.1875 42.75 
Q 14.984375 37.109375 14.984375 27.296875 
Q 14.984375 17.484375 19.15625 11.84375 
Q 23.34375 6.203125 30.609375 6.203125 
Q 37.796875 6.203125 41.984375 11.859375 
Q 46.1875 17.53125 46.1875 27.296875 
Q 46.1875 37.015625 41.984375 42.703125 
Q 37.796875 48.390625 30.609375 48.390625 
z
M 30.609375 56 
Q 42.328125 56 49.015625 48.375 
Q 55.71875 40.765625 55.71875 27.296875 
Q 55.71875 13.875 49.015625 6.21875 
Q 42.328125 -1.421875 30.609375 -1.421875 
Q 18.84375 -1.421875 12.171875 6.21875 
Q 5.515625 13.875 5.515625 27.296875 
Q 5.515625 40.765625 12.171875 48.375 
Q 18.84375 56 30.609375 56 
z
" id="DejaVuSans-6f"/>
    </defs>
    <g style="fill:#e47288;" transform="translate(120.124219 785.119794)scale(0.12 -0.12)">
     <use xlink:href="#DejaVuSans-54"/>
     <use x="61.037109" xlink:href="#DejaVuSans-69"/>
     <use x="88.820312" xlink:href="#DejaVuSans-72"/>
     <use x="129.902344" xlink:href="#DejaVuSans-6f"/>
     <use x="191.083984" xlink:href="#DejaVuSans-6c"/>
    </g>
   </g>
  </g>
  <g id="axes_9">
   <g id="patch_52">
    <path clip-path="url(#p1b917f4f17)" d="z
" style="fill:#9ba1b8;"/>
   </g>
   <g id="patch_53">
    <path clip-path="url(#p1b917f4f17)" d="M 200.20401 906.615004 
L 208.036916 906.615004 
L 208.036916 914.262464 
L 200.20401 914.262464 
z
" style="fill:#9ba1b8;"/>
   </g>
   <g id="patch_54">
    <path clip-path="url(#p1b917f4f17)" d="M 200.20401 870.767538 
L 203.653797 870.767538 
L 203.653797 882.238727 
L 200.20401 882.238727 
z
" style="fill:#343866;"/>
   </g>
   <g id="patch_55">
    <path clip-path="url(#p1b917f4f17)" d="z
" style="fill:#343866;"/>
   </g>
   <g id="patch_56">
    <path clip-path="url(#p1b917f4f17)" d="z
" style="fill:#d68091;"/>
   </g>
   <g id="patch_57">
    <path clip-path="url(#p1b917f4f17)" d="z
" style="fill:#d68091;"/>
   </g>
   <g id="line2d_57">
    <path clip-path="url(#p1b917f4f17)" d="M 0 0 
" style="fill:none;stroke:#424242;stroke-linecap:square;stroke-width:2.7;"/>
   </g>
   <g id="line2d_58">
    <path clip-path="url(#p1b917f4f17)" d="M 0 0 
" style="fill:none;stroke:#424242;stroke-linecap:square;stroke-width:2.7;"/>
   </g>
   <g id="line2d_59">
    <path clip-path="url(#p1b917f4f17)" d="M 0 0 
" style="fill:none;stroke:#424242;stroke-linecap:square;stroke-width:2.7;"/>
   </g>
   <g id="line2d_60">
    <path clip-path="url(#p1b917f4f17)" d="M 0 0 
" style="fill:none;stroke:#424242;stroke-linecap:square;stroke-width:2.7;"/>
   </g>
   <g id="line2d_61">
    <path clip-path="url(#p1b917f4f17)" d="M 0 0 
" style="fill:none;stroke:#424242;stroke-linecap:square;stroke-width:2.7;"/>
   </g>
   <g id="line2d_62">
    <path clip-path="url(#p1b917f4f17)" d="M 0 0 
" style="fill:none;stroke:#424242;stroke-linecap:square;stroke-width:2.7;"/>
   </g>
   <g id="text_39">
    <!--   3% -->
    <g style="fill:#969ebd;" transform="translate(161.838698 914.262464)scale(0.1 -0.1)">
     <use xlink:href="#DejaVuSans-20"/>
     <use x="31.787109" xlink:href="#DejaVuSans-20"/>
     <use x="63.574219" xlink:href="#DejaVuSans-33"/>
     <use x="127.197266" xlink:href="#DejaVuSans-25"/>
    </g>
   </g>
   <g id="text_40">
    <!-- Durchschnitt -->
    <g style="fill:#969ebd;" transform="translate(82.404531 914.262464)scale(0.1 -0.1)">
     <use xlink:href="#DejaVuSans-44"/>
     <use x="77.001953" xlink:href="#DejaVuSans-75"/>
     <use x="140.380859" xlink:href="#DejaVuSans-72"/>
     <use x="181.462891" xlink:href="#DejaVuSans-63"/>
     <use x="236.443359" xlink:href="#DejaVuSans-68"/>
     <use x="299.822266" xlink:href="#DejaVuSans-73"/>
     <use x="351.921875" xlink:href="#DejaVuSans-63"/>
     <use x="406.902344" xlink:href="#DejaVuSans-68"/>
     <use x="470.28125" xlink:href="#DejaVuSans-6e"/>
     <use x="533.660156" xlink:href="#DejaVuSans-69"/>
     <use x="561.443359" xlink:href="#DejaVuSans-74"/>
     <use x="600.652344" xlink:href="#DejaVuSans-74"/>
    </g>
   </g>
   <g id="text_41">
    <!--   1% -->
    <g style="fill:#2c316e;" transform="translate(157.394635 882.238727)scale(0.12 -0.12)">
     <use xlink:href="#DejaVuSans-20"/>
     <use x="31.787109" xlink:href="#DejaVuSans-20"/>
     <use x="63.574219" xlink:href="#DejaVuSans-31"/>
     <use x="127.197266" xlink:href="#DejaVuSans-25"/>
    </g>
   </g>
   <g id="text_42">
    <!-- Oberösterreich -->
    <defs>
     <path d="M 39.40625 66.21875 
Q 28.65625 66.21875 22.328125 58.203125 
Q 16.015625 50.203125 16.015625 36.375 
Q 16.015625 22.609375 22.328125 14.59375 
Q 28.65625 6.59375 39.40625 6.59375 
Q 50.140625 6.59375 56.421875 14.59375 
Q 62.703125 22.609375 62.703125 36.375 
Q 62.703125 50.203125 56.421875 58.203125 
Q 50.140625 66.21875 39.40625 66.21875 
z
M 39.40625 74.21875 
Q 54.734375 74.21875 63.90625 63.9375 
Q 73.09375 53.65625 73.09375 36.375 
Q 73.09375 19.140625 63.90625 8.859375 
Q 54.734375 -1.421875 39.40625 -1.421875 
Q 24.03125 -1.421875 14.8125 8.828125 
Q 5.609375 19.09375 5.609375 36.375 
Q 5.609375 53.65625 14.8125 63.9375 
Q 24.03125 74.21875 39.40625 74.21875 
z
" id="DejaVuSans-4f"/>
    </defs>
    <g style="fill:#2c316e;" transform="translate(56.546719 882.238727)scale(0.12 -0.12)">
     <use xlink:href="#DejaVuSans-4f"/>
     <use x="78.710938" xlink:href="#DejaVuSans-62"/>
     <use x="142.1875" xlink:href="#DejaVuSans-65"/>
     <use x="203.710938" xlink:href="#DejaVuSans-72"/>
     <use x="244.792969" xlink:href="#DejaVuSans-f6"/>
     <use x="305.974609" xlink:href="#DejaVuSans-73"/>
     <use x="358.074219" xlink:href="#DejaVuSans-74"/>
     <use x="397.283203" xlink:href="#DejaVuSans-65"/>
     <use x="458.806641" xlink:href="#DejaVuSans-72"/>
     <use x="499.904297" xlink:href="#DejaVuSans-72"/>
     <use x="540.986328" xlink:href="#DejaVuSans-65"/>
     <use x="602.509766" xlink:href="#DejaVuSans-69"/>
     <use x="630.292969" xlink:href="#DejaVuSans-63"/>
     <use x="685.273438" xlink:href="#DejaVuSans-68"/>
    </g>
   </g>
  </g>
  <g id="axes_10">
   <g id="patch_58">
    <path clip-path="url(#p6975c546af)" d="z
" style="fill:#9ba1b8;"/>
   </g>
   <g id="patch_59">
    <path clip-path="url(#p6975c546af)" d="M 200.20401 1003.733938 
L 202.047047 1003.733938 
L 202.047047 1011.381397 
L 200.20401 1011.381397 
z
" style="fill:#9ba1b8;"/>
   </g>
   <g id="patch_60">
    <path clip-path="url(#p6975c546af)" d="M 200.20401 967.886471 
L 200.20401 967.886471 
L 200.20401 979.35766 
L 200.20401 979.35766 
z
" style="fill:#343866;"/>
   </g>
   <g id="patch_61">
    <path clip-path="url(#p6975c546af)" d="z
" style="fill:#343866;"/>
   </g>
   <g id="patch_62">
    <path clip-path="url(#p6975c546af)" d="z
" style="fill:#d68091;"/>
   </g>
   <g id="patch_63">
    <path clip-path="url(#p6975c546af)" d="z
" style="fill:#d68091;"/>
   </g>
   <g id="line2d_63">
    <path clip-path="url(#p6975c546af)" d="M 0 0 
" style="fill:none;stroke:#424242;stroke-linecap:square;stroke-width:2.7;"/>
   </g>
   <g id="line2d_64">
    <path clip-path="url(#p6975c546af)" d="M 0 0 
" style="fill:none;stroke:#424242;stroke-linecap:square;stroke-width:2.7;"/>
   </g>
   <g id="line2d_65">
    <path clip-path="url(#p6975c546af)" d="M 0 0 
" style="fill:none;stroke:#424242;stroke-linecap:square;stroke-width:2.7;"/>
   </g>
   <g id="line2d_66">
    <path clip-path="url(#p6975c546af)" d="M 0 0 
" style="fill:none;stroke:#424242;stroke-linecap:square;stroke-width:2.7;"/>
   </g>
   <g id="line2d_67">
    <path clip-path="url(#p6975c546af)" d="M 0 0 
" style="fill:none;stroke:#424242;stroke-linecap:square;stroke-width:2.7;"/>
   </g>
   <g id="line2d_68">
    <path clip-path="url(#p6975c546af)" d="M 0 0 
" style="fill:none;stroke:#424242;stroke-linecap:square;stroke-width:2.7;"/>
   </g>
   <g id="text_43">
    <!--   1% -->
    <g style="fill:#969ebd;" transform="translate(161.838698 1011.381397)scale(0.1 -0.1)">
     <use xlink:href="#DejaVuSans-20"/>
     <use x="31.787109" xlink:href="#DejaVuSans-20"/>
     <use x="63.574219" xlink:href="#DejaVuSans-31"/>
     <use x="127.197266" xlink:href="#DejaVuSans-25"/>
    </g>
   </g>
   <g id="text_44">
    <!-- Durchschnitt -->
    <g style="fill:#969ebd;" transform="translate(82.404531 1011.381397)scale(0.1 -0.1)">
     <use xlink:href="#DejaVuSans-44"/>
     <use x="77.001953" xlink:href="#DejaVuSans-75"/>
     <use x="140.380859" xlink:href="#DejaVuSans-72"/>
     <use x="181.462891" xlink:href="#DejaVuSans-63"/>
     <use x="236.443359" xlink:href="#DejaVuSans-68"/>
     <use x="299.822266" xlink:href="#DejaVuSans-73"/>
     <use x="351.921875" xlink:href="#DejaVuSans-63"/>
     <use x="406.902344" xlink:href="#DejaVuSans-68"/>
     <use x="470.28125" xlink:href="#DejaVuSans-6e"/>
     <use x="533.660156" xlink:href="#DejaVuSans-69"/>
     <use x="561.443359" xlink:href="#DejaVuSans-74"/>
     <use x="600.652344" xlink:href="#DejaVuSans-74"/>
    </g>
   </g>
   <g id="text_45">
    <!--   0% -->
    <g style="fill:#2c316e;" transform="translate(157.394635 979.35766)scale(0.12 -0.12)">
     <use xlink:href="#DejaVuSans-20"/>
     <use x="31.787109" xlink:href="#DejaVuSans-20"/>
     <use x="63.574219" xlink:href="#DejaVuSans-30"/>
     <use x="127.197266" xlink:href="#DejaVuSans-25"/>
    </g>
   </g>
   <g id="text_46">
    <!-- Vorarlberg -->
    <defs>
     <path d="M 28.609375 0 
L 0.78125 72.90625 
L 11.078125 72.90625 
L 34.1875 11.53125 
L 57.328125 72.90625 
L 67.578125 72.90625 
L 39.796875 0 
z
" id="DejaVuSans-56"/>
    </defs>
    <g style="fill:#2c316e;" transform="translate(82.744219 979.35766)scale(0.12 -0.12)">
     <use xlink:href="#DejaVuSans-56"/>
     <use x="68.298828" xlink:href="#DejaVuSans-6f"/>
     <use x="129.480469" xlink:href="#DejaVuSans-72"/>
     <use x="170.59375" xlink:href="#DejaVuSans-61"/>
     <use x="231.873047" xlink:href="#DejaVuSans-72"/>
     <use x="272.986328" xlink:href="#DejaVuSans-6c"/>
     <use x="300.769531" xlink:href="#DejaVuSans-62"/>
     <use x="364.246094" xlink:href="#DejaVuSans-65"/>
     <use x="425.769531" xlink:href="#DejaVuSans-72"/>
     <use x="466.867188" xlink:href="#DejaVuSans-67"/>
    </g>
   </g>
   <g id="legend_1">
    <g id="text_47">
     <!-- Verteilung -->
     <g transform="translate(281.963906 1036.526988)scale(0.1 -0.1)">
      <use xlink:href="#DejaVuSans-56"/>
      <use x="68.298828" xlink:href="#DejaVuSans-65"/>
      <use x="129.822266" xlink:href="#DejaVuSans-72"/>
      <use x="170.935547" xlink:href="#DejaVuSans-74"/>
      <use x="210.144531" xlink:href="#DejaVuSans-65"/>
      <use x="271.667969" xlink:href="#DejaVuSans-69"/>
      <use x="299.451172" xlink:href="#DejaVuSans-6c"/>
      <use x="327.234375" xlink:href="#DejaVuSans-75"/>
      <use x="390.613281" xlink:href="#DejaVuSans-6e"/>
      <use x="453.992188" xlink:href="#DejaVuSans-67"/>
     </g>
    </g>
    <g id="patch_64">
     <path d="M 96.36 1051.205113 
L 116.36 1051.205113 
L 116.36 1044.205113 
L 96.36 1044.205113 
z
" style="fill:#9ba1b8;"/>
    </g>
    <g id="text_48">
     <!-- Durchschnitt -->
     <g transform="translate(124.36 1051.205113)scale(0.1 -0.1)">
      <use xlink:href="#DejaVuSans-44"/>
      <use x="77.001953" xlink:href="#DejaVuSans-75"/>
      <use x="140.380859" xlink:href="#DejaVuSans-72"/>
      <use x="181.462891" xlink:href="#DejaVuSans-63"/>
      <use x="236.443359" xlink:href="#DejaVuSans-68"/>
      <use x="299.822266" xlink:href="#DejaVuSans-73"/>
      <use x="351.921875" xlink:href="#DejaVuSans-63"/>
      <use x="406.902344" xlink:href="#DejaVuSans-68"/>
      <use x="470.28125" xlink:href="#DejaVuSans-6e"/>
      <use x="533.660156" xlink:href="#DejaVuSans-69"/>
      <use x="561.443359" xlink:href="#DejaVuSans-74"/>
      <use x="600.652344" xlink:href="#DejaVuSans-74"/>
     </g>
    </g>
    <g id="patch_65">
     <path d="M 208.342813 1051.205113 
L 228.342813 1051.205113 
L 228.342813 1044.205113 
L 208.342813 1044.205113 
z
" style="fill:#343866;"/>
    </g>
    <g id="text_49">
     <!-- unter dem Durchschnitt -->
     <g transform="translate(236.342813 1051.205113)scale(0.1 -0.1)">
      <use xlink:href="#DejaVuSans-75"/>
      <use x="63.378906" xlink:href="#DejaVuSans-6e"/>
      <use x="126.757812" xlink:href="#DejaVuSans-74"/>
      <use x="165.966797" xlink:href="#DejaVuSans-65"/>
      <use x="227.490234" xlink:href="#DejaVuSans-72"/>
      <use x="268.603516" xlink:href="#DejaVuSans-20"/>
      <use x="300.390625" xlink:href="#DejaVuSans-64"/>
      <use x="363.867188" xlink:href="#DejaVuSans-65"/>
      <use x="425.390625" xlink:href="#DejaVuSans-6d"/>
      <use x="522.802734" xlink:href="#DejaVuSans-20"/>
      <use x="554.589844" xlink:href="#DejaVuSans-44"/>
      <use x="631.591797" xlink:href="#DejaVuSans-75"/>
      <use x="694.970703" xlink:href="#DejaVuSans-72"/>
      <use x="736.052734" xlink:href="#DejaVuSans-63"/>
      <use x="791.033203" xlink:href="#DejaVuSans-68"/>
      <use x="854.412109" xlink:href="#DejaVuSans-73"/>
      <use x="906.511719" xlink:href="#DejaVuSans-63"/>
      <use x="961.492188" xlink:href="#DejaVuSans-68"/>
      <use x="1024.871094" xlink:href="#DejaVuSans-6e"/>
      <use x="1088.25" xlink:href="#DejaVuSans-69"/>
      <use x="1116.033203" xlink:href="#DejaVuSans-74"/>
      <use x="1155.242188" xlink:href="#DejaVuSans-74"/>
     </g>
    </g>
    <g id="patch_66">
     <path d="M 375.783437 1051.205113 
L 395.783437 1051.205113 
L 395.783437 1044.205113 
L 375.783437 1044.205113 
z
" style="fill:#d68091;"/>
    </g>
    <g id="text_50">
     <!-- über dem Durchschnitt -->
     <defs>
      <path d="M 8.5 21.578125 
L 8.5 54.6875 
L 17.484375 54.6875 
L 17.484375 21.921875 
Q 17.484375 14.15625 20.5 10.265625 
Q 23.53125 6.390625 29.59375 6.390625 
Q 36.859375 6.390625 41.078125 11.03125 
Q 45.3125 15.671875 45.3125 23.6875 
L 45.3125 54.6875 
L 54.296875 54.6875 
L 54.296875 0 
L 45.3125 0 
L 45.3125 8.40625 
Q 42.046875 3.421875 37.71875 1 
Q 33.40625 -1.421875 27.6875 -1.421875 
Q 18.265625 -1.421875 13.375 4.4375 
Q 8.5 10.296875 8.5 21.578125 
z
M 31.109375 56 
z
M 35.59375 75.78125 
L 45.5 75.78125 
L 45.5 65.921875 
L 35.59375 65.921875 
z
M 16.5 75.78125 
L 26.40625 75.78125 
L 26.40625 65.921875 
L 16.5 65.921875 
z
" id="DejaVuSans-fc"/>
     </defs>
     <g transform="translate(403.783437 1051.205113)scale(0.1 -0.1)">
      <use xlink:href="#DejaVuSans-fc"/>
      <use x="63.378906" xlink:href="#DejaVuSans-62"/>
      <use x="126.855469" xlink:href="#DejaVuSans-65"/>
      <use x="188.378906" xlink:href="#DejaVuSans-72"/>
      <use x="229.492188" xlink:href="#DejaVuSans-20"/>
      <use x="261.279297" xlink:href="#DejaVuSans-64"/>
      <use x="324.755859" xlink:href="#DejaVuSans-65"/>
      <use x="386.279297" xlink:href="#DejaVuSans-6d"/>
      <use x="483.691406" xlink:href="#DejaVuSans-20"/>
      <use x="515.478516" xlink:href="#DejaVuSans-44"/>
      <use x="592.480469" xlink:href="#DejaVuSans-75"/>
      <use x="655.859375" xlink:href="#DejaVuSans-72"/>
      <use x="696.941406" xlink:href="#DejaVuSans-63"/>
      <use x="751.921875" xlink:href="#DejaVuSans-68"/>
      <use x="815.300781" xlink:href="#DejaVuSans-73"/>
      <use x="867.400391" xlink:href="#DejaVuSans-63"/>
      <use x="922.380859" xlink:href="#DejaVuSans-68"/>
      <use x="985.759766" xlink:href="#DejaVuSans-6e"/>
      <use x="1049.138672" xlink:href="#DejaVuSans-69"/>
      <use x="1076.921875" xlink:href="#DejaVuSans-74"/>
      <use x="1116.130859" xlink:href="#DejaVuSans-74"/>
     </g>
    </g>
   </g>
  </g>
  <g id="text_51">
   <!-- Bundesland -->
   <g transform="translate(7.2 17.837813)scale(0.14 -0.14)">
    <use xlink:href="#DejaVuSans-42"/>
    <use x="68.603516" xlink:href="#DejaVuSans-75"/>
    <use x="131.982422" xlink:href="#DejaVuSans-6e"/>
    <use x="195.361328" xlink:href="#DejaVuSans-64"/>
    <use x="258.837891" xlink:href="#DejaVuSans-65"/>
    <use x="320.361328" xlink:href="#DejaVuSans-73"/>
    <use x="372.460938" xlink:href="#DejaVuSans-6c"/>
    <use x="400.244141" xlink:href="#DejaVuSans-61"/>
    <use x="461.523438" xlink:href="#DejaVuSans-6e"/>
    <use x="524.902344" xlink:href="#DejaVuSans-64"/>
   </g>
  </g>
 </g>
 <defs>
  <clipPath id="pfcf91a0a3e">
   <rect height="71.694933" width="269.083333" x="200.20401" y="80.672"/>
  </clipPath>
  <clipPath id="p450303677d">
   <rect height="71.694933" width="269.083333" x="200.20401" y="177.790933"/>
  </clipPath>
  <clipPath id="pb63e0fa20a">
   <rect height="71.694933" width="269.083333" x="200.20401" y="274.909867"/>
  </clipPath>
  <clipPath id="p8b96e03703">
   <rect height="71.694933" width="269.083333" x="200.20401" y="372.0288"/>
  </clipPath>
  <clipPath id="p5cf1d4d6c7">
   <rect height="71.694933" width="269.083333" x="200.20401" y="469.147733"/>
  </clipPath>
  <clipPath id="p15e8b56b2c">
   <rect height="71.694933" width="269.083333" x="200.20401" y="566.266667"/>
  </clipPath>
  <clipPath id="pd75ec98c74">
   <rect height="71.694933" width="269.083333" x="200.20401" y="663.3856"/>
  </clipPath>
  <clipPath id="pbf2b02294f">
   <rect height="71.694933" width="269.083333" x="200.20401" y="760.504533"/>
  </clipPath>
  <clipPath id="p1b917f4f17">
   <rect height="71.694933" width="269.083333" x="200.20401" y="857.623467"/>
  </clipPath>
  <clipPath id="p6975c546af">
   <rect height="71.694933" width="269.083333" x="200.20401" y="954.7424"/>
  </clipPath>
 </defs>
</svg>
