<?xml version="1.0" encoding="utf-8" standalone="no"?>
<!DOCTYPE svg PUBLIC "-//W3C//DTD SVG 1.1//EN"
  "http://www.w3.org/Graphics/SVG/1.1/DTD/svg11.dtd">
<!-- Created with matplotlib (http://matplotlib.org/) -->
<svg height="608pt" version="1.1" viewBox="0 0 578 608" width="578pt" xmlns="http://www.w3.org/2000/svg" xmlns:xlink="http://www.w3.org/1999/xlink">
 <defs>
  <style type="text/css">
*{stroke-linecap:butt;stroke-linejoin:round;}
  </style>
 </defs>
 <g id="figure_1">
  <g id="patch_1">
   <path d="M 0 608.307733 
L 578.309844 608.307733 
L 578.309844 0 
L 0 0 
z
" style="fill:#f4f4f6;"/>
  </g>
  <g id="axes_1">
   <g id="patch_2">
    <path d="M 247.999167 140.098133 
L 517.0825 140.098133 
L 517.0825 62.368 
L 247.999167 62.368 
z
" style="fill:#f4f4f6;"/>
   </g>
   <g id="patch_3">
    <path clip-path="url(#pe657b68c9a)" d="z
" style="fill:#9ba1b8;"/>
   </g>
   <g id="patch_4">
    <path clip-path="url(#pe657b68c9a)" d="M 247.999167 115.483591 
L 395.442089 115.483591 
L 395.442089 123.774805 
L 247.999167 123.774805 
z
" style="fill:#9ba1b8;"/>
   </g>
   <g id="patch_5">
    <path clip-path="url(#pe657b68c9a)" d="M 247.999167 76.618524 
L 368.741688 76.618524 
L 368.741688 89.055346 
L 247.999167 89.055346 
z
" style="fill:#343866;"/>
   </g>
   <g id="patch_6">
    <path clip-path="url(#pe657b68c9a)" d="z
" style="fill:#343866;"/>
   </g>
   <g id="patch_7">
    <path clip-path="url(#pe657b68c9a)" d="z
" style="fill:#d68091;"/>
   </g>
   <g id="patch_8">
    <path clip-path="url(#pe657b68c9a)" d="z
" style="fill:#d68091;"/>
   </g>
   <g id="matplotlib.axis_1">
    <g id="xtick_1">
     <g id="line2d_1">
      <defs>
       <path d="M 0 0 
L 0 -3.5 
" id="m782ab8c426" style="stroke:#000000;stroke-width:0.8;"/>
      </defs>
      <g>
       <use style="stroke:#000000;stroke-width:0.8;" x="247.999167" xlink:href="#m782ab8c426" y="62.368"/>
      </g>
     </g>
     <g id="text_1">
      <!--   0% -->
      <defs>
       <path id="DejaVuSans-20"/>
       <path d="M 31.78125 66.40625 
Q 24.171875 66.40625 20.328125 58.90625 
Q 16.5 51.421875 16.5 36.375 
Q 16.5 21.390625 20.328125 13.890625 
Q 24.171875 6.390625 31.78125 6.390625 
Q 39.453125 6.390625 43.28125 13.890625 
Q 47.125 21.390625 47.125 36.375 
Q 47.125 51.421875 43.28125 58.90625 
Q 39.453125 66.40625 31.78125 66.40625 
z
M 31.78125 74.21875 
Q 44.046875 74.21875 50.515625 64.515625 
Q 56.984375 54.828125 56.984375 36.375 
Q 56.984375 17.96875 50.515625 8.265625 
Q 44.046875 -1.421875 31.78125 -1.421875 
Q 19.53125 -1.421875 13.0625 8.265625 
Q 6.59375 17.96875 6.59375 36.375 
Q 6.59375 54.828125 13.0625 64.515625 
Q 19.53125 74.21875 31.78125 74.21875 
z
" id="DejaVuSans-30"/>
       <path d="M 72.703125 32.078125 
Q 68.453125 32.078125 66.03125 28.46875 
Q 63.625 24.859375 63.625 18.40625 
Q 63.625 12.0625 66.03125 8.421875 
Q 68.453125 4.78125 72.703125 4.78125 
Q 76.859375 4.78125 79.265625 8.421875 
Q 81.6875 12.0625 81.6875 18.40625 
Q 81.6875 24.8125 79.265625 28.4375 
Q 76.859375 32.078125 72.703125 32.078125 
z
M 72.703125 38.28125 
Q 80.421875 38.28125 84.953125 32.90625 
Q 89.5 27.546875 89.5 18.40625 
Q 89.5 9.28125 84.9375 3.921875 
Q 80.375 -1.421875 72.703125 -1.421875 
Q 64.890625 -1.421875 60.34375 3.921875 
Q 55.8125 9.28125 55.8125 18.40625 
Q 55.8125 27.59375 60.375 32.9375 
Q 64.9375 38.28125 72.703125 38.28125 
z
M 22.3125 68.015625 
Q 18.109375 68.015625 15.6875 64.375 
Q 13.28125 60.75 13.28125 54.390625 
Q 13.28125 47.953125 15.671875 44.328125 
Q 18.0625 40.71875 22.3125 40.71875 
Q 26.5625 40.71875 28.96875 44.328125 
Q 31.390625 47.953125 31.390625 54.390625 
Q 31.390625 60.6875 28.953125 64.34375 
Q 26.515625 68.015625 22.3125 68.015625 
z
M 66.40625 74.21875 
L 74.21875 74.21875 
L 28.609375 -1.421875 
L 20.796875 -1.421875 
z
M 22.3125 74.21875 
Q 30.03125 74.21875 34.609375 68.875 
Q 39.203125 63.53125 39.203125 54.390625 
Q 39.203125 45.171875 34.640625 39.84375 
Q 30.078125 34.515625 22.3125 34.515625 
Q 14.546875 34.515625 10.03125 39.859375 
Q 5.515625 45.21875 5.515625 54.390625 
Q 5.515625 63.484375 10.046875 68.84375 
Q 14.59375 74.21875 22.3125 74.21875 
z
" id="DejaVuSans-25"/>
      </defs>
      <g transform="translate(236.88901 53.288313)scale(0.1 -0.1)">
       <use xlink:href="#DejaVuSans-20"/>
       <use x="31.787109" xlink:href="#DejaVuSans-20"/>
       <use x="63.574219" xlink:href="#DejaVuSans-30"/>
       <use x="127.197266" xlink:href="#DejaVuSans-25"/>
      </g>
     </g>
    </g>
    <g id="xtick_2">
     <g id="line2d_2">
      <g>
       <use style="stroke:#000000;stroke-width:0.8;" x="301.815833" xlink:href="#m782ab8c426" y="62.368"/>
      </g>
     </g>
     <g id="text_2">
      <!--  20% -->
      <defs>
       <path d="M 19.1875 8.296875 
L 53.609375 8.296875 
L 53.609375 0 
L 7.328125 0 
L 7.328125 8.296875 
Q 12.9375 14.109375 22.625 23.890625 
Q 32.328125 33.6875 34.8125 36.53125 
Q 39.546875 41.84375 41.421875 45.53125 
Q 43.3125 49.21875 43.3125 52.78125 
Q 43.3125 58.59375 39.234375 62.25 
Q 35.15625 65.921875 28.609375 65.921875 
Q 23.96875 65.921875 18.8125 64.3125 
Q 13.671875 62.703125 7.8125 59.421875 
L 7.8125 69.390625 
Q 13.765625 71.78125 18.9375 73 
Q 24.125 74.21875 28.421875 74.21875 
Q 39.75 74.21875 46.484375 68.546875 
Q 53.21875 62.890625 53.21875 53.421875 
Q 53.21875 48.921875 51.53125 44.890625 
Q 49.859375 40.875 45.40625 35.40625 
Q 44.1875 33.984375 37.640625 27.21875 
Q 31.109375 20.453125 19.1875 8.296875 
z
" id="DejaVuSans-32"/>
      </defs>
      <g transform="translate(289.11349 53.288313)scale(0.1 -0.1)">
       <use xlink:href="#DejaVuSans-20"/>
       <use x="31.787109" xlink:href="#DejaVuSans-32"/>
       <use x="95.410156" xlink:href="#DejaVuSans-30"/>
       <use x="159.033203" xlink:href="#DejaVuSans-25"/>
      </g>
     </g>
    </g>
    <g id="xtick_3">
     <g id="line2d_3">
      <g>
       <use style="stroke:#000000;stroke-width:0.8;" x="355.6325" xlink:href="#m782ab8c426" y="62.368"/>
      </g>
     </g>
     <g id="text_3">
      <!--  40% -->
      <defs>
       <path d="M 37.796875 64.3125 
L 12.890625 25.390625 
L 37.796875 25.390625 
z
M 35.203125 72.90625 
L 47.609375 72.90625 
L 47.609375 25.390625 
L 58.015625 25.390625 
L 58.015625 17.1875 
L 47.609375 17.1875 
L 47.609375 0 
L 37.796875 0 
L 37.796875 17.1875 
L 4.890625 17.1875 
L 4.890625 26.703125 
z
" id="DejaVuSans-34"/>
      </defs>
      <g transform="translate(342.930156 53.288313)scale(0.1 -0.1)">
       <use xlink:href="#DejaVuSans-20"/>
       <use x="31.787109" xlink:href="#DejaVuSans-34"/>
       <use x="95.410156" xlink:href="#DejaVuSans-30"/>
       <use x="159.033203" xlink:href="#DejaVuSans-25"/>
      </g>
     </g>
    </g>
    <g id="xtick_4">
     <g id="line2d_4">
      <g>
       <use style="stroke:#000000;stroke-width:0.8;" x="409.449167" xlink:href="#m782ab8c426" y="62.368"/>
      </g>
     </g>
     <g id="text_4">
      <!--  60% -->
      <defs>
       <path d="M 33.015625 40.375 
Q 26.375 40.375 22.484375 35.828125 
Q 18.609375 31.296875 18.609375 23.390625 
Q 18.609375 15.53125 22.484375 10.953125 
Q 26.375 6.390625 33.015625 6.390625 
Q 39.65625 6.390625 43.53125 10.953125 
Q 47.40625 15.53125 47.40625 23.390625 
Q 47.40625 31.296875 43.53125 35.828125 
Q 39.65625 40.375 33.015625 40.375 
z
M 52.59375 71.296875 
L 52.59375 62.3125 
Q 48.875 64.0625 45.09375 64.984375 
Q 41.3125 65.921875 37.59375 65.921875 
Q 27.828125 65.921875 22.671875 59.328125 
Q 17.53125 52.734375 16.796875 39.40625 
Q 19.671875 43.65625 24.015625 45.921875 
Q 28.375 48.1875 33.59375 48.1875 
Q 44.578125 48.1875 50.953125 41.515625 
Q 57.328125 34.859375 57.328125 23.390625 
Q 57.328125 12.15625 50.6875 5.359375 
Q 44.046875 -1.421875 33.015625 -1.421875 
Q 20.359375 -1.421875 13.671875 8.265625 
Q 6.984375 17.96875 6.984375 36.375 
Q 6.984375 53.65625 15.1875 63.9375 
Q 23.390625 74.21875 37.203125 74.21875 
Q 40.921875 74.21875 44.703125 73.484375 
Q 48.484375 72.75 52.59375 71.296875 
z
" id="DejaVuSans-36"/>
      </defs>
      <g transform="translate(396.746823 53.288313)scale(0.1 -0.1)">
       <use xlink:href="#DejaVuSans-20"/>
       <use x="31.787109" xlink:href="#DejaVuSans-36"/>
       <use x="95.410156" xlink:href="#DejaVuSans-30"/>
       <use x="159.033203" xlink:href="#DejaVuSans-25"/>
      </g>
     </g>
    </g>
    <g id="xtick_5">
     <g id="line2d_5">
      <g>
       <use style="stroke:#000000;stroke-width:0.8;" x="463.265833" xlink:href="#m782ab8c426" y="62.368"/>
      </g>
     </g>
     <g id="text_5">
      <!--  80% -->
      <defs>
       <path d="M 31.78125 34.625 
Q 24.75 34.625 20.71875 30.859375 
Q 16.703125 27.09375 16.703125 20.515625 
Q 16.703125 13.921875 20.71875 10.15625 
Q 24.75 6.390625 31.78125 6.390625 
Q 38.8125 6.390625 42.859375 10.171875 
Q 46.921875 13.96875 46.921875 20.515625 
Q 46.921875 27.09375 42.890625 30.859375 
Q 38.875 34.625 31.78125 34.625 
z
M 21.921875 38.8125 
Q 15.578125 40.375 12.03125 44.71875 
Q 8.5 49.078125 8.5 55.328125 
Q 8.5 64.0625 14.71875 69.140625 
Q 20.953125 74.21875 31.78125 74.21875 
Q 42.671875 74.21875 48.875 69.140625 
Q 55.078125 64.0625 55.078125 55.328125 
Q 55.078125 49.078125 51.53125 44.71875 
Q 48 40.375 41.703125 38.8125 
Q 48.828125 37.15625 52.796875 32.3125 
Q 56.78125 27.484375 56.78125 20.515625 
Q 56.78125 9.90625 50.3125 4.234375 
Q 43.84375 -1.421875 31.78125 -1.421875 
Q 19.734375 -1.421875 13.25 4.234375 
Q 6.78125 9.90625 6.78125 20.515625 
Q 6.78125 27.484375 10.78125 32.3125 
Q 14.796875 37.15625 21.921875 38.8125 
z
M 18.3125 54.390625 
Q 18.3125 48.734375 21.84375 45.5625 
Q 25.390625 42.390625 31.78125 42.390625 
Q 38.140625 42.390625 41.71875 45.5625 
Q 45.3125 48.734375 45.3125 54.390625 
Q 45.3125 60.0625 41.71875 63.234375 
Q 38.140625 66.40625 31.78125 66.40625 
Q 25.390625 66.40625 21.84375 63.234375 
Q 18.3125 60.0625 18.3125 54.390625 
z
" id="DejaVuSans-38"/>
      </defs>
      <g transform="translate(450.56349 53.288313)scale(0.1 -0.1)">
       <use xlink:href="#DejaVuSans-20"/>
       <use x="31.787109" xlink:href="#DejaVuSans-38"/>
       <use x="95.410156" xlink:href="#DejaVuSans-30"/>
       <use x="159.033203" xlink:href="#DejaVuSans-25"/>
      </g>
     </g>
    </g>
    <g id="xtick_6">
     <g id="line2d_6">
      <g>
       <use style="stroke:#000000;stroke-width:0.8;" x="517.0825" xlink:href="#m782ab8c426" y="62.368"/>
      </g>
     </g>
     <g id="text_6">
      <!-- 100% -->
      <defs>
       <path d="M 12.40625 8.296875 
L 28.515625 8.296875 
L 28.515625 63.921875 
L 10.984375 60.40625 
L 10.984375 69.390625 
L 28.421875 72.90625 
L 38.28125 72.90625 
L 38.28125 8.296875 
L 54.390625 8.296875 
L 54.390625 0 
L 12.40625 0 
z
" id="DejaVuSans-31"/>
      </defs>
      <g transform="translate(502.787969 53.288313)scale(0.1 -0.1)">
       <use xlink:href="#DejaVuSans-31"/>
       <use x="63.623047" xlink:href="#DejaVuSans-30"/>
       <use x="127.246094" xlink:href="#DejaVuSans-30"/>
       <use x="190.869141" xlink:href="#DejaVuSans-25"/>
      </g>
     </g>
    </g>
   </g>
   <g id="matplotlib.axis_2">
    <g id="ytick_1">
     <g id="line2d_7">
      <defs>
       <path d="M 0 0 
L -3.5 0 
" id="m4fba876c9e"/>
      </defs>
      <g>
       <use style="fill:none;" x="247.999167" xlink:href="#m4fba876c9e" y="81.800533"/>
      </g>
     </g>
    </g>
    <g id="ytick_2">
     <g id="line2d_8">
      <g>
       <use style="fill:none;" x="247.999167" xlink:href="#m4fba876c9e" y="120.6656"/>
      </g>
     </g>
    </g>
   </g>
   <g id="line2d_9">
    <path clip-path="url(#pe657b68c9a)" d="M 0 0 
" style="fill:none;stroke:#424242;stroke-linecap:square;stroke-width:2.7;"/>
   </g>
   <g id="line2d_10">
    <path clip-path="url(#pe657b68c9a)" d="M 0 0 
" style="fill:none;stroke:#424242;stroke-linecap:square;stroke-width:2.7;"/>
   </g>
   <g id="line2d_11">
    <path clip-path="url(#pe657b68c9a)" d="M 0 0 
" style="fill:none;stroke:#424242;stroke-linecap:square;stroke-width:2.7;"/>
   </g>
   <g id="line2d_12">
    <path clip-path="url(#pe657b68c9a)" d="M 0 0 
" style="fill:none;stroke:#424242;stroke-linecap:square;stroke-width:2.7;"/>
   </g>
   <g id="line2d_13">
    <path clip-path="url(#pe657b68c9a)" d="M 0 0 
" style="fill:none;stroke:#424242;stroke-linecap:square;stroke-width:2.7;"/>
   </g>
   <g id="line2d_14">
    <path clip-path="url(#pe657b68c9a)" d="M 0 0 
" style="fill:none;stroke:#424242;stroke-linecap:square;stroke-width:2.7;"/>
   </g>
   <g id="patch_9">
    <path d="M 247.999167 62.368 
L 517.0825 62.368 
" style="fill:none;stroke:#000000;stroke-linecap:square;stroke-linejoin:miter;stroke-width:0.8;"/>
   </g>
   <g id="text_7">
    <!--  55% -->
    <defs>
     <path d="M 10.796875 72.90625 
L 49.515625 72.90625 
L 49.515625 64.59375 
L 19.828125 64.59375 
L 19.828125 46.734375 
Q 21.96875 47.46875 24.109375 47.828125 
Q 26.265625 48.1875 28.421875 48.1875 
Q 40.625 48.1875 47.75 41.5 
Q 54.890625 34.8125 54.890625 23.390625 
Q 54.890625 11.625 47.5625 5.09375 
Q 40.234375 -1.421875 26.90625 -1.421875 
Q 22.3125 -1.421875 17.546875 -0.640625 
Q 12.796875 0.140625 7.71875 1.703125 
L 7.71875 11.625 
Q 12.109375 9.234375 16.796875 8.0625 
Q 21.484375 6.890625 26.703125 6.890625 
Q 35.15625 6.890625 40.078125 11.328125 
Q 45.015625 15.765625 45.015625 23.390625 
Q 45.015625 31 40.078125 35.4375 
Q 35.15625 39.890625 26.703125 39.890625 
Q 22.75 39.890625 18.8125 39.015625 
Q 14.890625 38.140625 10.796875 36.28125 
z
" id="DejaVuSans-35"/>
    </defs>
    <g style="fill:#969ebd;" transform="translate(206.449479 123.774805)scale(0.1 -0.1)">
     <use xlink:href="#DejaVuSans-20"/>
     <use x="31.787109" xlink:href="#DejaVuSans-35"/>
     <use x="95.410156" xlink:href="#DejaVuSans-35"/>
     <use x="159.033203" xlink:href="#DejaVuSans-25"/>
    </g>
   </g>
   <g id="text_8">
    <!-- Durchschnitt -->
    <defs>
     <path d="M 19.671875 64.796875 
L 19.671875 8.109375 
L 31.59375 8.109375 
Q 46.6875 8.109375 53.6875 14.9375 
Q 60.6875 21.78125 60.6875 36.53125 
Q 60.6875 51.171875 53.6875 57.984375 
Q 46.6875 64.796875 31.59375 64.796875 
z
M 9.8125 72.90625 
L 30.078125 72.90625 
Q 51.265625 72.90625 61.171875 64.09375 
Q 71.09375 55.28125 71.09375 36.53125 
Q 71.09375 17.671875 61.125 8.828125 
Q 51.171875 0 30.078125 0 
L 9.8125 0 
z
" id="DejaVuSans-44"/>
     <path d="M 8.5 21.578125 
L 8.5 54.6875 
L 17.484375 54.6875 
L 17.484375 21.921875 
Q 17.484375 14.15625 20.5 10.265625 
Q 23.53125 6.390625 29.59375 6.390625 
Q 36.859375 6.390625 41.078125 11.03125 
Q 45.3125 15.671875 45.3125 23.6875 
L 45.3125 54.6875 
L 54.296875 54.6875 
L 54.296875 0 
L 45.3125 0 
L 45.3125 8.40625 
Q 42.046875 3.421875 37.71875 1 
Q 33.40625 -1.421875 27.6875 -1.421875 
Q 18.265625 -1.421875 13.375 4.4375 
Q 8.5 10.296875 8.5 21.578125 
z
M 31.109375 56 
z
" id="DejaVuSans-75"/>
     <path d="M 41.109375 46.296875 
Q 39.59375 47.171875 37.8125 47.578125 
Q 36.03125 48 33.890625 48 
Q 26.265625 48 22.1875 43.046875 
Q 18.109375 38.09375 18.109375 28.8125 
L 18.109375 0 
L 9.078125 0 
L 9.078125 54.6875 
L 18.109375 54.6875 
L 18.109375 46.1875 
Q 20.953125 51.171875 25.484375 53.578125 
Q 30.03125 56 36.53125 56 
Q 37.453125 56 38.578125 55.875 
Q 39.703125 55.765625 41.0625 55.515625 
z
" id="DejaVuSans-72"/>
     <path d="M 48.78125 52.59375 
L 48.78125 44.1875 
Q 44.96875 46.296875 41.140625 47.34375 
Q 37.3125 48.390625 33.40625 48.390625 
Q 24.65625 48.390625 19.8125 42.84375 
Q 14.984375 37.3125 14.984375 27.296875 
Q 14.984375 17.28125 19.8125 11.734375 
Q 24.65625 6.203125 33.40625 6.203125 
Q 37.3125 6.203125 41.140625 7.25 
Q 44.96875 8.296875 48.78125 10.40625 
L 48.78125 2.09375 
Q 45.015625 0.34375 40.984375 -0.53125 
Q 36.96875 -1.421875 32.421875 -1.421875 
Q 20.0625 -1.421875 12.78125 6.34375 
Q 5.515625 14.109375 5.515625 27.296875 
Q 5.515625 40.671875 12.859375 48.328125 
Q 20.21875 56 33.015625 56 
Q 37.15625 56 41.109375 55.140625 
Q 45.0625 54.296875 48.78125 52.59375 
z
" id="DejaVuSans-63"/>
     <path d="M 54.890625 33.015625 
L 54.890625 0 
L 45.90625 0 
L 45.90625 32.71875 
Q 45.90625 40.484375 42.875 44.328125 
Q 39.84375 48.1875 33.796875 48.1875 
Q 26.515625 48.1875 22.3125 43.546875 
Q 18.109375 38.921875 18.109375 30.90625 
L 18.109375 0 
L 9.078125 0 
L 9.078125 75.984375 
L 18.109375 75.984375 
L 18.109375 46.1875 
Q 21.34375 51.125 25.703125 53.5625 
Q 30.078125 56 35.796875 56 
Q 45.21875 56 50.046875 50.171875 
Q 54.890625 44.34375 54.890625 33.015625 
z
" id="DejaVuSans-68"/>
     <path d="M 44.28125 53.078125 
L 44.28125 44.578125 
Q 40.484375 46.53125 36.375 47.5 
Q 32.28125 48.484375 27.875 48.484375 
Q 21.1875 48.484375 17.84375 46.4375 
Q 14.5 44.390625 14.5 40.28125 
Q 14.5 37.15625 16.890625 35.375 
Q 19.28125 33.59375 26.515625 31.984375 
L 29.59375 31.296875 
Q 39.15625 29.25 43.1875 25.515625 
Q 47.21875 21.78125 47.21875 15.09375 
Q 47.21875 7.46875 41.1875 3.015625 
Q 35.15625 -1.421875 24.609375 -1.421875 
Q 20.21875 -1.421875 15.453125 -0.5625 
Q 10.6875 0.296875 5.421875 2 
L 5.421875 11.28125 
Q 10.40625 8.6875 15.234375 7.390625 
Q 20.0625 6.109375 24.8125 6.109375 
Q 31.15625 6.109375 34.5625 8.28125 
Q 37.984375 10.453125 37.984375 14.40625 
Q 37.984375 18.0625 35.515625 20.015625 
Q 33.0625 21.96875 24.703125 23.78125 
L 21.578125 24.515625 
Q 13.234375 26.265625 9.515625 29.90625 
Q 5.8125 33.546875 5.8125 39.890625 
Q 5.8125 47.609375 11.28125 51.796875 
Q 16.75 56 26.8125 56 
Q 31.78125 56 36.171875 55.265625 
Q 40.578125 54.546875 44.28125 53.078125 
z
" id="DejaVuSans-73"/>
     <path d="M 54.890625 33.015625 
L 54.890625 0 
L 45.90625 0 
L 45.90625 32.71875 
Q 45.90625 40.484375 42.875 44.328125 
Q 39.84375 48.1875 33.796875 48.1875 
Q 26.515625 48.1875 22.3125 43.546875 
Q 18.109375 38.921875 18.109375 30.90625 
L 18.109375 0 
L 9.078125 0 
L 9.078125 54.6875 
L 18.109375 54.6875 
L 18.109375 46.1875 
Q 21.34375 51.125 25.703125 53.5625 
Q 30.078125 56 35.796875 56 
Q 45.21875 56 50.046875 50.171875 
Q 54.890625 44.34375 54.890625 33.015625 
z
" id="DejaVuSans-6e"/>
     <path d="M 9.421875 54.6875 
L 18.40625 54.6875 
L 18.40625 0 
L 9.421875 0 
z
M 9.421875 75.984375 
L 18.40625 75.984375 
L 18.40625 64.59375 
L 9.421875 64.59375 
z
" id="DejaVuSans-69"/>
     <path d="M 18.3125 70.21875 
L 18.3125 54.6875 
L 36.8125 54.6875 
L 36.8125 47.703125 
L 18.3125 47.703125 
L 18.3125 18.015625 
Q 18.3125 11.328125 20.140625 9.421875 
Q 21.96875 7.515625 27.59375 7.515625 
L 36.8125 7.515625 
L 36.8125 0 
L 27.59375 0 
Q 17.1875 0 13.234375 3.875 
Q 9.28125 7.765625 9.28125 18.015625 
L 9.28125 47.703125 
L 2.6875 47.703125 
L 2.6875 54.6875 
L 9.28125 54.6875 
L 9.28125 70.21875 
z
" id="DejaVuSans-74"/>
    </defs>
    <g style="fill:#969ebd;" transform="translate(130.199687 123.774805)scale(0.1 -0.1)">
     <use xlink:href="#DejaVuSans-44"/>
     <use x="77.001953" xlink:href="#DejaVuSans-75"/>
     <use x="140.380859" xlink:href="#DejaVuSans-72"/>
     <use x="181.462891" xlink:href="#DejaVuSans-63"/>
     <use x="236.443359" xlink:href="#DejaVuSans-68"/>
     <use x="299.822266" xlink:href="#DejaVuSans-73"/>
     <use x="351.921875" xlink:href="#DejaVuSans-63"/>
     <use x="406.902344" xlink:href="#DejaVuSans-68"/>
     <use x="470.28125" xlink:href="#DejaVuSans-6e"/>
     <use x="533.660156" xlink:href="#DejaVuSans-69"/>
     <use x="561.443359" xlink:href="#DejaVuSans-74"/>
     <use x="600.652344" xlink:href="#DejaVuSans-74"/>
    </g>
   </g>
   <g id="text_9">
    <!--  45% -->
    <g style="fill:#2c316e;" transform="translate(201.368542 89.055346)scale(0.12 -0.12)">
     <use xlink:href="#DejaVuSans-20"/>
     <use x="31.787109" xlink:href="#DejaVuSans-34"/>
     <use x="95.410156" xlink:href="#DejaVuSans-35"/>
     <use x="159.033203" xlink:href="#DejaVuSans-25"/>
    </g>
   </g>
   <g id="text_10">
    <!-- Universitäts-, -->
    <defs>
     <path d="M 8.6875 72.90625 
L 18.609375 72.90625 
L 18.609375 28.609375 
Q 18.609375 16.890625 22.84375 11.734375 
Q 27.09375 6.59375 36.625 6.59375 
Q 46.09375 6.59375 50.34375 11.734375 
Q 54.59375 16.890625 54.59375 28.609375 
L 54.59375 72.90625 
L 64.5 72.90625 
L 64.5 27.390625 
Q 64.5 13.140625 57.4375 5.859375 
Q 50.390625 -1.421875 36.625 -1.421875 
Q 22.796875 -1.421875 15.734375 5.859375 
Q 8.6875 13.140625 8.6875 27.390625 
z
" id="DejaVuSans-55"/>
     <path d="M 2.984375 54.6875 
L 12.5 54.6875 
L 29.59375 8.796875 
L 46.6875 54.6875 
L 56.203125 54.6875 
L 35.6875 0 
L 23.484375 0 
z
" id="DejaVuSans-76"/>
     <path d="M 56.203125 29.59375 
L 56.203125 25.203125 
L 14.890625 25.203125 
Q 15.484375 15.921875 20.484375 11.0625 
Q 25.484375 6.203125 34.421875 6.203125 
Q 39.59375 6.203125 44.453125 7.46875 
Q 49.3125 8.734375 54.109375 11.28125 
L 54.109375 2.78125 
Q 49.265625 0.734375 44.1875 -0.34375 
Q 39.109375 -1.421875 33.890625 -1.421875 
Q 20.796875 -1.421875 13.15625 6.1875 
Q 5.515625 13.8125 5.515625 26.8125 
Q 5.515625 40.234375 12.765625 48.109375 
Q 20.015625 56 32.328125 56 
Q 43.359375 56 49.78125 48.890625 
Q 56.203125 41.796875 56.203125 29.59375 
z
M 47.21875 32.234375 
Q 47.125 39.59375 43.09375 43.984375 
Q 39.0625 48.390625 32.421875 48.390625 
Q 24.90625 48.390625 20.390625 44.140625 
Q 15.875 39.890625 15.1875 32.171875 
z
" id="DejaVuSans-65"/>
     <path d="M 34.28125 27.484375 
Q 23.390625 27.484375 19.1875 25 
Q 14.984375 22.515625 14.984375 16.5 
Q 14.984375 11.71875 18.140625 8.90625 
Q 21.296875 6.109375 26.703125 6.109375 
Q 34.1875 6.109375 38.703125 11.40625 
Q 43.21875 16.703125 43.21875 25.484375 
L 43.21875 27.484375 
z
M 52.203125 31.203125 
L 52.203125 0 
L 43.21875 0 
L 43.21875 8.296875 
Q 40.140625 3.328125 35.546875 0.953125 
Q 30.953125 -1.421875 24.3125 -1.421875 
Q 15.921875 -1.421875 10.953125 3.296875 
Q 6 8.015625 6 15.921875 
Q 6 25.140625 12.171875 29.828125 
Q 18.359375 34.515625 30.609375 34.515625 
L 43.21875 34.515625 
L 43.21875 35.40625 
Q 43.21875 41.609375 39.140625 45 
Q 35.0625 48.390625 27.6875 48.390625 
Q 23 48.390625 18.546875 47.265625 
Q 14.109375 46.140625 10.015625 43.890625 
L 10.015625 52.203125 
Q 14.9375 54.109375 19.578125 55.046875 
Q 24.21875 56 28.609375 56 
Q 40.484375 56 46.34375 49.84375 
Q 52.203125 43.703125 52.203125 31.203125 
z
M 33.59375 75.78125 
L 43.5 75.78125 
L 43.5 65.921875 
L 33.59375 65.921875 
z
M 14.5 75.78125 
L 24.40625 75.78125 
L 24.40625 65.921875 
L 14.5 65.921875 
z
" id="DejaVuSans-e4"/>
     <path d="M 4.890625 31.390625 
L 31.203125 31.390625 
L 31.203125 23.390625 
L 4.890625 23.390625 
z
" id="DejaVuSans-2d"/>
     <path d="M 11.71875 12.40625 
L 22.015625 12.40625 
L 22.015625 4 
L 14.015625 -11.625 
L 7.71875 -11.625 
L 11.71875 4 
z
" id="DejaVuSans-2c"/>
    </defs>
    <g style="fill:#2c316e;" transform="translate(114.3 75.617971)scale(0.12 -0.12)">
     <use xlink:href="#DejaVuSans-55"/>
     <use x="73.193359" xlink:href="#DejaVuSans-6e"/>
     <use x="136.572266" xlink:href="#DejaVuSans-69"/>
     <use x="164.355469" xlink:href="#DejaVuSans-76"/>
     <use x="223.535156" xlink:href="#DejaVuSans-65"/>
     <use x="285.058594" xlink:href="#DejaVuSans-72"/>
     <use x="326.171875" xlink:href="#DejaVuSans-73"/>
     <use x="378.271484" xlink:href="#DejaVuSans-69"/>
     <use x="406.054688" xlink:href="#DejaVuSans-74"/>
     <use x="445.263672" xlink:href="#DejaVuSans-e4"/>
     <use x="506.542969" xlink:href="#DejaVuSans-74"/>
     <use x="545.751953" xlink:href="#DejaVuSans-73"/>
     <use x="597.851562" xlink:href="#DejaVuSans-2d"/>
     <use x="633.935547" xlink:href="#DejaVuSans-2c"/>
    </g>
    <!-- Fachhochschulabschluss -->
    <defs>
     <path d="M 9.8125 72.90625 
L 51.703125 72.90625 
L 51.703125 64.59375 
L 19.671875 64.59375 
L 19.671875 43.109375 
L 48.578125 43.109375 
L 48.578125 34.8125 
L 19.671875 34.8125 
L 19.671875 0 
L 9.8125 0 
z
" id="DejaVuSans-46"/>
     <path d="M 34.28125 27.484375 
Q 23.390625 27.484375 19.1875 25 
Q 14.984375 22.515625 14.984375 16.5 
Q 14.984375 11.71875 18.140625 8.90625 
Q 21.296875 6.109375 26.703125 6.109375 
Q 34.1875 6.109375 38.703125 11.40625 
Q 43.21875 16.703125 43.21875 25.484375 
L 43.21875 27.484375 
z
M 52.203125 31.203125 
L 52.203125 0 
L 43.21875 0 
L 43.21875 8.296875 
Q 40.140625 3.328125 35.546875 0.953125 
Q 30.953125 -1.421875 24.3125 -1.421875 
Q 15.921875 -1.421875 10.953125 3.296875 
Q 6 8.015625 6 15.921875 
Q 6 25.140625 12.171875 29.828125 
Q 18.359375 34.515625 30.609375 34.515625 
L 43.21875 34.515625 
L 43.21875 35.40625 
Q 43.21875 41.609375 39.140625 45 
Q 35.0625 48.390625 27.6875 48.390625 
Q 23 48.390625 18.546875 47.265625 
Q 14.109375 46.140625 10.015625 43.890625 
L 10.015625 52.203125 
Q 14.9375 54.109375 19.578125 55.046875 
Q 24.21875 56 28.609375 56 
Q 40.484375 56 46.34375 49.84375 
Q 52.203125 43.703125 52.203125 31.203125 
z
" id="DejaVuSans-61"/>
     <path d="M 30.609375 48.390625 
Q 23.390625 48.390625 19.1875 42.75 
Q 14.984375 37.109375 14.984375 27.296875 
Q 14.984375 17.484375 19.15625 11.84375 
Q 23.34375 6.203125 30.609375 6.203125 
Q 37.796875 6.203125 41.984375 11.859375 
Q 46.1875 17.53125 46.1875 27.296875 
Q 46.1875 37.015625 41.984375 42.703125 
Q 37.796875 48.390625 30.609375 48.390625 
z
M 30.609375 56 
Q 42.328125 56 49.015625 48.375 
Q 55.71875 40.765625 55.71875 27.296875 
Q 55.71875 13.875 49.015625 6.21875 
Q 42.328125 -1.421875 30.609375 -1.421875 
Q 18.84375 -1.421875 12.171875 6.21875 
Q 5.515625 13.875 5.515625 27.296875 
Q 5.515625 40.765625 12.171875 48.375 
Q 18.84375 56 30.609375 56 
z
" id="DejaVuSans-6f"/>
     <path d="M 9.421875 75.984375 
L 18.40625 75.984375 
L 18.40625 0 
L 9.421875 0 
z
" id="DejaVuSans-6c"/>
     <path d="M 48.6875 27.296875 
Q 48.6875 37.203125 44.609375 42.84375 
Q 40.53125 48.484375 33.40625 48.484375 
Q 26.265625 48.484375 22.1875 42.84375 
Q 18.109375 37.203125 18.109375 27.296875 
Q 18.109375 17.390625 22.1875 11.75 
Q 26.265625 6.109375 33.40625 6.109375 
Q 40.53125 6.109375 44.609375 11.75 
Q 48.6875 17.390625 48.6875 27.296875 
z
M 18.109375 46.390625 
Q 20.953125 51.265625 25.265625 53.625 
Q 29.59375 56 35.59375 56 
Q 45.5625 56 51.78125 48.09375 
Q 58.015625 40.1875 58.015625 27.296875 
Q 58.015625 14.40625 51.78125 6.484375 
Q 45.5625 -1.421875 35.59375 -1.421875 
Q 29.59375 -1.421875 25.265625 0.953125 
Q 20.953125 3.328125 18.109375 8.203125 
L 18.109375 0 
L 9.078125 0 
L 9.078125 75.984375 
L 18.109375 75.984375 
z
" id="DejaVuSans-62"/>
    </defs>
    <g style="fill:#2c316e;" transform="translate(46.329375 89.055346)scale(0.12 -0.12)">
     <use xlink:href="#DejaVuSans-46"/>
     <use x="57.378906" xlink:href="#DejaVuSans-61"/>
     <use x="118.658203" xlink:href="#DejaVuSans-63"/>
     <use x="173.638672" xlink:href="#DejaVuSans-68"/>
     <use x="237.017578" xlink:href="#DejaVuSans-68"/>
     <use x="300.396484" xlink:href="#DejaVuSans-6f"/>
     <use x="361.578125" xlink:href="#DejaVuSans-63"/>
     <use x="416.558594" xlink:href="#DejaVuSans-68"/>
     <use x="479.9375" xlink:href="#DejaVuSans-73"/>
     <use x="532.037109" xlink:href="#DejaVuSans-63"/>
     <use x="587.017578" xlink:href="#DejaVuSans-68"/>
     <use x="650.396484" xlink:href="#DejaVuSans-75"/>
     <use x="713.775391" xlink:href="#DejaVuSans-6c"/>
     <use x="741.558594" xlink:href="#DejaVuSans-61"/>
     <use x="802.837891" xlink:href="#DejaVuSans-62"/>
     <use x="866.314453" xlink:href="#DejaVuSans-73"/>
     <use x="918.414062" xlink:href="#DejaVuSans-63"/>
     <use x="973.394531" xlink:href="#DejaVuSans-68"/>
     <use x="1036.773438" xlink:href="#DejaVuSans-6c"/>
     <use x="1064.556641" xlink:href="#DejaVuSans-75"/>
     <use x="1127.935547" xlink:href="#DejaVuSans-73"/>
     <use x="1180.035156" xlink:href="#DejaVuSans-73"/>
    </g>
   </g>
  </g>
  <g id="axes_2">
   <g id="patch_10">
    <path clip-path="url(#p016d36d28f)" d="z
" style="fill:#9ba1b8;"/>
   </g>
   <g id="patch_11">
    <path clip-path="url(#p016d36d28f)" d="M 247.999167 222.269724 
L 305.594058 222.269724 
L 305.594058 230.560939 
L 247.999167 230.560939 
z
" style="fill:#9ba1b8;"/>
   </g>
   <g id="patch_12">
    <path clip-path="url(#p016d36d28f)" d="z
" style="fill:#343866;"/>
   </g>
   <g id="patch_13">
    <path clip-path="url(#p016d36d28f)" d="z
" style="fill:#343866;"/>
   </g>
   <g id="patch_14">
    <path clip-path="url(#p016d36d28f)" d="M 247.999167 183.404658 
L 320.444679 183.404658 
L 320.444679 195.841479 
L 247.999167 195.841479 
z
" style="fill:#d68091;"/>
   </g>
   <g id="patch_15">
    <path clip-path="url(#p016d36d28f)" d="z
" style="fill:#d68091;"/>
   </g>
   <g id="line2d_15">
    <path clip-path="url(#p016d36d28f)" d="M 0 0 
" style="fill:none;stroke:#424242;stroke-linecap:square;stroke-width:2.7;"/>
   </g>
   <g id="line2d_16">
    <path clip-path="url(#p016d36d28f)" d="M 0 0 
" style="fill:none;stroke:#424242;stroke-linecap:square;stroke-width:2.7;"/>
   </g>
   <g id="line2d_17">
    <path clip-path="url(#p016d36d28f)" d="M 0 0 
" style="fill:none;stroke:#424242;stroke-linecap:square;stroke-width:2.7;"/>
   </g>
   <g id="line2d_18">
    <path clip-path="url(#p016d36d28f)" d="M 0 0 
" style="fill:none;stroke:#424242;stroke-linecap:square;stroke-width:2.7;"/>
   </g>
   <g id="line2d_19">
    <path clip-path="url(#p016d36d28f)" d="M 0 0 
" style="fill:none;stroke:#424242;stroke-linecap:square;stroke-width:2.7;"/>
   </g>
   <g id="line2d_20">
    <path clip-path="url(#p016d36d28f)" d="M 0 0 
" style="fill:none;stroke:#424242;stroke-linecap:square;stroke-width:2.7;"/>
   </g>
   <g id="text_11">
    <!--  21% -->
    <g style="fill:#969ebd;" transform="translate(206.449479 230.560939)scale(0.1 -0.1)">
     <use xlink:href="#DejaVuSans-20"/>
     <use x="31.787109" xlink:href="#DejaVuSans-32"/>
     <use x="95.410156" xlink:href="#DejaVuSans-31"/>
     <use x="159.033203" xlink:href="#DejaVuSans-25"/>
    </g>
   </g>
   <g id="text_12">
    <!-- Durchschnitt -->
    <g style="fill:#969ebd;" transform="translate(130.199687 230.560939)scale(0.1 -0.1)">
     <use xlink:href="#DejaVuSans-44"/>
     <use x="77.001953" xlink:href="#DejaVuSans-75"/>
     <use x="140.380859" xlink:href="#DejaVuSans-72"/>
     <use x="181.462891" xlink:href="#DejaVuSans-63"/>
     <use x="236.443359" xlink:href="#DejaVuSans-68"/>
     <use x="299.822266" xlink:href="#DejaVuSans-73"/>
     <use x="351.921875" xlink:href="#DejaVuSans-63"/>
     <use x="406.902344" xlink:href="#DejaVuSans-68"/>
     <use x="470.28125" xlink:href="#DejaVuSans-6e"/>
     <use x="533.660156" xlink:href="#DejaVuSans-69"/>
     <use x="561.443359" xlink:href="#DejaVuSans-74"/>
     <use x="600.652344" xlink:href="#DejaVuSans-74"/>
    </g>
   </g>
   <g id="text_13">
    <!--  27% -->
    <defs>
     <path d="M 8.203125 72.90625 
L 55.078125 72.90625 
L 55.078125 68.703125 
L 28.609375 0 
L 18.3125 0 
L 43.21875 64.59375 
L 8.203125 64.59375 
z
" id="DejaVuSans-37"/>
    </defs>
    <g style="fill:#e47288;" transform="translate(201.368542 195.841479)scale(0.12 -0.12)">
     <use xlink:href="#DejaVuSans-20"/>
     <use x="31.787109" xlink:href="#DejaVuSans-32"/>
     <use x="95.410156" xlink:href="#DejaVuSans-37"/>
     <use x="159.033203" xlink:href="#DejaVuSans-25"/>
    </g>
   </g>
   <g id="text_14">
    <!-- Unbekannt -->
    <defs>
     <path d="M 9.078125 75.984375 
L 18.109375 75.984375 
L 18.109375 31.109375 
L 44.921875 54.6875 
L 56.390625 54.6875 
L 27.390625 29.109375 
L 57.625 0 
L 45.90625 0 
L 18.109375 26.703125 
L 18.109375 0 
L 9.078125 0 
z
" id="DejaVuSans-6b"/>
    </defs>
    <g style="fill:#e47288;" transform="translate(128.578125 195.841479)scale(0.12 -0.12)">
     <use xlink:href="#DejaVuSans-55"/>
     <use x="73.193359" xlink:href="#DejaVuSans-6e"/>
     <use x="136.572266" xlink:href="#DejaVuSans-62"/>
     <use x="200.048828" xlink:href="#DejaVuSans-65"/>
     <use x="261.572266" xlink:href="#DejaVuSans-6b"/>
     <use x="319.466797" xlink:href="#DejaVuSans-61"/>
     <use x="380.746094" xlink:href="#DejaVuSans-6e"/>
     <use x="444.125" xlink:href="#DejaVuSans-6e"/>
     <use x="507.503906" xlink:href="#DejaVuSans-74"/>
    </g>
   </g>
  </g>
  <g id="axes_3">
   <g id="patch_16">
    <path clip-path="url(#pe691142fee)" d="z
" style="fill:#9ba1b8;"/>
   </g>
   <g id="patch_17">
    <path clip-path="url(#pe691142fee)" d="M 247.999167 329.055858 
L 285.090277 329.055858 
L 285.090277 337.347072 
L 247.999167 337.347072 
z
" style="fill:#9ba1b8;"/>
   </g>
   <g id="patch_18">
    <path clip-path="url(#pe691142fee)" d="z
" style="fill:#343866;"/>
   </g>
   <g id="patch_19">
    <path clip-path="url(#pe691142fee)" d="z
" style="fill:#343866;"/>
   </g>
   <g id="patch_20">
    <path clip-path="url(#pe691142fee)" d="M 247.999167 290.190791 
L 285.946816 290.190791 
L 285.946816 302.627612 
L 247.999167 302.627612 
z
" style="fill:#d68091;"/>
   </g>
   <g id="patch_21">
    <path clip-path="url(#pe691142fee)" d="z
" style="fill:#d68091;"/>
   </g>
   <g id="line2d_21">
    <path clip-path="url(#pe691142fee)" d="M 0 0 
" style="fill:none;stroke:#424242;stroke-linecap:square;stroke-width:2.7;"/>
   </g>
   <g id="line2d_22">
    <path clip-path="url(#pe691142fee)" d="M 0 0 
" style="fill:none;stroke:#424242;stroke-linecap:square;stroke-width:2.7;"/>
   </g>
   <g id="line2d_23">
    <path clip-path="url(#pe691142fee)" d="M 0 0 
" style="fill:none;stroke:#424242;stroke-linecap:square;stroke-width:2.7;"/>
   </g>
   <g id="line2d_24">
    <path clip-path="url(#pe691142fee)" d="M 0 0 
" style="fill:none;stroke:#424242;stroke-linecap:square;stroke-width:2.7;"/>
   </g>
   <g id="line2d_25">
    <path clip-path="url(#pe691142fee)" d="M 0 0 
" style="fill:none;stroke:#424242;stroke-linecap:square;stroke-width:2.7;"/>
   </g>
   <g id="line2d_26">
    <path clip-path="url(#pe691142fee)" d="M 0 0 
" style="fill:none;stroke:#424242;stroke-linecap:square;stroke-width:2.7;"/>
   </g>
   <g id="text_15">
    <!--  14% -->
    <g style="fill:#969ebd;" transform="translate(206.449479 337.347072)scale(0.1 -0.1)">
     <use xlink:href="#DejaVuSans-20"/>
     <use x="31.787109" xlink:href="#DejaVuSans-31"/>
     <use x="95.410156" xlink:href="#DejaVuSans-34"/>
     <use x="159.033203" xlink:href="#DejaVuSans-25"/>
    </g>
   </g>
   <g id="text_16">
    <!-- Durchschnitt -->
    <g style="fill:#969ebd;" transform="translate(130.199687 337.347072)scale(0.1 -0.1)">
     <use xlink:href="#DejaVuSans-44"/>
     <use x="77.001953" xlink:href="#DejaVuSans-75"/>
     <use x="140.380859" xlink:href="#DejaVuSans-72"/>
     <use x="181.462891" xlink:href="#DejaVuSans-63"/>
     <use x="236.443359" xlink:href="#DejaVuSans-68"/>
     <use x="299.822266" xlink:href="#DejaVuSans-73"/>
     <use x="351.921875" xlink:href="#DejaVuSans-63"/>
     <use x="406.902344" xlink:href="#DejaVuSans-68"/>
     <use x="470.28125" xlink:href="#DejaVuSans-6e"/>
     <use x="533.660156" xlink:href="#DejaVuSans-69"/>
     <use x="561.443359" xlink:href="#DejaVuSans-74"/>
     <use x="600.652344" xlink:href="#DejaVuSans-74"/>
    </g>
   </g>
   <g id="text_17">
    <!--  14% -->
    <g style="fill:#e47288;" transform="translate(201.368542 302.627612)scale(0.12 -0.12)">
     <use xlink:href="#DejaVuSans-20"/>
     <use x="31.787109" xlink:href="#DejaVuSans-31"/>
     <use x="95.410156" xlink:href="#DejaVuSans-34"/>
     <use x="159.033203" xlink:href="#DejaVuSans-25"/>
    </g>
   </g>
   <g id="text_18">
    <!-- Abgeschlossene Matura, Abitur -->
    <defs>
     <path d="M 34.1875 63.1875 
L 20.796875 26.90625 
L 47.609375 26.90625 
z
M 28.609375 72.90625 
L 39.796875 72.90625 
L 67.578125 0 
L 57.328125 0 
L 50.6875 18.703125 
L 17.828125 18.703125 
L 11.1875 0 
L 0.78125 0 
z
" id="DejaVuSans-41"/>
     <path d="M 45.40625 27.984375 
Q 45.40625 37.75 41.375 43.109375 
Q 37.359375 48.484375 30.078125 48.484375 
Q 22.859375 48.484375 18.828125 43.109375 
Q 14.796875 37.75 14.796875 27.984375 
Q 14.796875 18.265625 18.828125 12.890625 
Q 22.859375 7.515625 30.078125 7.515625 
Q 37.359375 7.515625 41.375 12.890625 
Q 45.40625 18.265625 45.40625 27.984375 
z
M 54.390625 6.78125 
Q 54.390625 -7.171875 48.1875 -13.984375 
Q 42 -20.796875 29.203125 -20.796875 
Q 24.46875 -20.796875 20.265625 -20.09375 
Q 16.0625 -19.390625 12.109375 -17.921875 
L 12.109375 -9.1875 
Q 16.0625 -11.328125 19.921875 -12.34375 
Q 23.78125 -13.375 27.78125 -13.375 
Q 36.625 -13.375 41.015625 -8.765625 
Q 45.40625 -4.15625 45.40625 5.171875 
L 45.40625 9.625 
Q 42.625 4.78125 38.28125 2.390625 
Q 33.9375 0 27.875 0 
Q 17.828125 0 11.671875 7.65625 
Q 5.515625 15.328125 5.515625 27.984375 
Q 5.515625 40.671875 11.671875 48.328125 
Q 17.828125 56 27.875 56 
Q 33.9375 56 38.28125 53.609375 
Q 42.625 51.21875 45.40625 46.390625 
L 45.40625 54.6875 
L 54.390625 54.6875 
z
" id="DejaVuSans-67"/>
     <path d="M 9.8125 72.90625 
L 24.515625 72.90625 
L 43.109375 23.296875 
L 61.8125 72.90625 
L 76.515625 72.90625 
L 76.515625 0 
L 66.890625 0 
L 66.890625 64.015625 
L 48.09375 14.015625 
L 38.1875 14.015625 
L 19.390625 64.015625 
L 19.390625 0 
L 9.8125 0 
z
" id="DejaVuSans-4d"/>
    </defs>
    <g style="fill:#e47288;" transform="translate(7.2 302.627612)scale(0.12 -0.12)">
     <use xlink:href="#DejaVuSans-41"/>
     <use x="68.408203" xlink:href="#DejaVuSans-62"/>
     <use x="131.884766" xlink:href="#DejaVuSans-67"/>
     <use x="195.361328" xlink:href="#DejaVuSans-65"/>
     <use x="256.884766" xlink:href="#DejaVuSans-73"/>
     <use x="308.984375" xlink:href="#DejaVuSans-63"/>
     <use x="363.964844" xlink:href="#DejaVuSans-68"/>
     <use x="427.34375" xlink:href="#DejaVuSans-6c"/>
     <use x="455.126953" xlink:href="#DejaVuSans-6f"/>
     <use x="516.308594" xlink:href="#DejaVuSans-73"/>
     <use x="568.408203" xlink:href="#DejaVuSans-73"/>
     <use x="620.507812" xlink:href="#DejaVuSans-65"/>
     <use x="682.03125" xlink:href="#DejaVuSans-6e"/>
     <use x="745.410156" xlink:href="#DejaVuSans-65"/>
     <use x="806.933594" xlink:href="#DejaVuSans-20"/>
     <use x="838.720703" xlink:href="#DejaVuSans-4d"/>
     <use x="925" xlink:href="#DejaVuSans-61"/>
     <use x="986.279297" xlink:href="#DejaVuSans-74"/>
     <use x="1025.488281" xlink:href="#DejaVuSans-75"/>
     <use x="1088.867188" xlink:href="#DejaVuSans-72"/>
     <use x="1129.980469" xlink:href="#DejaVuSans-61"/>
     <use x="1191.259766" xlink:href="#DejaVuSans-2c"/>
     <use x="1223.046875" xlink:href="#DejaVuSans-20"/>
     <use x="1254.833984" xlink:href="#DejaVuSans-41"/>
     <use x="1323.242188" xlink:href="#DejaVuSans-62"/>
     <use x="1386.71875" xlink:href="#DejaVuSans-69"/>
     <use x="1414.501953" xlink:href="#DejaVuSans-74"/>
     <use x="1453.710938" xlink:href="#DejaVuSans-75"/>
     <use x="1517.089844" xlink:href="#DejaVuSans-72"/>
    </g>
   </g>
  </g>
  <g id="axes_4">
   <g id="patch_22">
    <path clip-path="url(#p365ad1568f)" d="z
" style="fill:#9ba1b8;"/>
   </g>
   <g id="patch_23">
    <path clip-path="url(#p365ad1568f)" d="M 247.999167 435.841991 
L 268.733328 435.841991 
L 268.733328 444.133205 
L 247.999167 444.133205 
z
" style="fill:#9ba1b8;"/>
   </g>
   <g id="patch_24">
    <path clip-path="url(#p365ad1568f)" d="z
" style="fill:#343866;"/>
   </g>
   <g id="patch_25">
    <path clip-path="url(#p365ad1568f)" d="z
" style="fill:#343866;"/>
   </g>
   <g id="patch_26">
    <path clip-path="url(#p365ad1568f)" d="M 247.999167 396.976924 
L 275.597457 396.976924 
L 275.597457 409.413746 
L 247.999167 409.413746 
z
" style="fill:#d68091;"/>
   </g>
   <g id="patch_27">
    <path clip-path="url(#p365ad1568f)" d="z
" style="fill:#d68091;"/>
   </g>
   <g id="line2d_27">
    <path clip-path="url(#p365ad1568f)" d="M 0 0 
" style="fill:none;stroke:#424242;stroke-linecap:square;stroke-width:2.7;"/>
   </g>
   <g id="line2d_28">
    <path clip-path="url(#p365ad1568f)" d="M 0 0 
" style="fill:none;stroke:#424242;stroke-linecap:square;stroke-width:2.7;"/>
   </g>
   <g id="line2d_29">
    <path clip-path="url(#p365ad1568f)" d="M 0 0 
" style="fill:none;stroke:#424242;stroke-linecap:square;stroke-width:2.7;"/>
   </g>
   <g id="line2d_30">
    <path clip-path="url(#p365ad1568f)" d="M 0 0 
" style="fill:none;stroke:#424242;stroke-linecap:square;stroke-width:2.7;"/>
   </g>
   <g id="line2d_31">
    <path clip-path="url(#p365ad1568f)" d="M 0 0 
" style="fill:none;stroke:#424242;stroke-linecap:square;stroke-width:2.7;"/>
   </g>
   <g id="line2d_32">
    <path clip-path="url(#p365ad1568f)" d="M 0 0 
" style="fill:none;stroke:#424242;stroke-linecap:square;stroke-width:2.7;"/>
   </g>
   <g id="text_19">
    <!--   8% -->
    <g style="fill:#969ebd;" transform="translate(209.633854 444.133205)scale(0.1 -0.1)">
     <use xlink:href="#DejaVuSans-20"/>
     <use x="31.787109" xlink:href="#DejaVuSans-20"/>
     <use x="63.574219" xlink:href="#DejaVuSans-38"/>
     <use x="127.197266" xlink:href="#DejaVuSans-25"/>
    </g>
   </g>
   <g id="text_20">
    <!-- Durchschnitt -->
    <g style="fill:#969ebd;" transform="translate(130.199687 444.133205)scale(0.1 -0.1)">
     <use xlink:href="#DejaVuSans-44"/>
     <use x="77.001953" xlink:href="#DejaVuSans-75"/>
     <use x="140.380859" xlink:href="#DejaVuSans-72"/>
     <use x="181.462891" xlink:href="#DejaVuSans-63"/>
     <use x="236.443359" xlink:href="#DejaVuSans-68"/>
     <use x="299.822266" xlink:href="#DejaVuSans-73"/>
     <use x="351.921875" xlink:href="#DejaVuSans-63"/>
     <use x="406.902344" xlink:href="#DejaVuSans-68"/>
     <use x="470.28125" xlink:href="#DejaVuSans-6e"/>
     <use x="533.660156" xlink:href="#DejaVuSans-69"/>
     <use x="561.443359" xlink:href="#DejaVuSans-74"/>
     <use x="600.652344" xlink:href="#DejaVuSans-74"/>
    </g>
   </g>
   <g id="text_21">
    <!--  10% -->
    <g style="fill:#e47288;" transform="translate(201.368542 409.413746)scale(0.12 -0.12)">
     <use xlink:href="#DejaVuSans-20"/>
     <use x="31.787109" xlink:href="#DejaVuSans-31"/>
     <use x="95.410156" xlink:href="#DejaVuSans-30"/>
     <use x="159.033203" xlink:href="#DejaVuSans-25"/>
    </g>
   </g>
   <g id="text_22">
    <!-- Abgeschlossene Lehre -->
    <defs>
     <path d="M 9.8125 72.90625 
L 19.671875 72.90625 
L 19.671875 8.296875 
L 55.171875 8.296875 
L 55.171875 0 
L 9.8125 0 
z
" id="DejaVuSans-4c"/>
    </defs>
    <g style="fill:#e47288;" transform="translate(59.548125 409.413746)scale(0.12 -0.12)">
     <use xlink:href="#DejaVuSans-41"/>
     <use x="68.408203" xlink:href="#DejaVuSans-62"/>
     <use x="131.884766" xlink:href="#DejaVuSans-67"/>
     <use x="195.361328" xlink:href="#DejaVuSans-65"/>
     <use x="256.884766" xlink:href="#DejaVuSans-73"/>
     <use x="308.984375" xlink:href="#DejaVuSans-63"/>
     <use x="363.964844" xlink:href="#DejaVuSans-68"/>
     <use x="427.34375" xlink:href="#DejaVuSans-6c"/>
     <use x="455.126953" xlink:href="#DejaVuSans-6f"/>
     <use x="516.308594" xlink:href="#DejaVuSans-73"/>
     <use x="568.408203" xlink:href="#DejaVuSans-73"/>
     <use x="620.507812" xlink:href="#DejaVuSans-65"/>
     <use x="682.03125" xlink:href="#DejaVuSans-6e"/>
     <use x="745.410156" xlink:href="#DejaVuSans-65"/>
     <use x="806.933594" xlink:href="#DejaVuSans-20"/>
     <use x="838.720703" xlink:href="#DejaVuSans-4c"/>
     <use x="894.417969" xlink:href="#DejaVuSans-65"/>
     <use x="955.941406" xlink:href="#DejaVuSans-68"/>
     <use x="1019.320312" xlink:href="#DejaVuSans-72"/>
     <use x="1060.402344" xlink:href="#DejaVuSans-65"/>
    </g>
   </g>
  </g>
  <g id="axes_5">
   <g id="patch_28">
    <path clip-path="url(#p0e5d957876)" d="z
" style="fill:#9ba1b8;"/>
   </g>
   <g id="patch_29">
    <path clip-path="url(#p0e5d957876)" d="M 247.999167 542.628124 
L 254.219415 542.628124 
L 254.219415 550.919339 
L 247.999167 550.919339 
z
" style="fill:#9ba1b8;"/>
   </g>
   <g id="patch_30">
    <path clip-path="url(#p0e5d957876)" d="z
" style="fill:#343866;"/>
   </g>
   <g id="patch_31">
    <path clip-path="url(#p0e5d957876)" d="z
" style="fill:#343866;"/>
   </g>
   <g id="patch_32">
    <path clip-path="url(#p0e5d957876)" d="M 247.999167 503.763058 
L 258.348526 503.763058 
L 258.348526 516.199879 
L 247.999167 516.199879 
z
" style="fill:#d68091;"/>
   </g>
   <g id="patch_33">
    <path clip-path="url(#p0e5d957876)" d="z
" style="fill:#d68091;"/>
   </g>
   <g id="line2d_33">
    <path clip-path="url(#p0e5d957876)" d="M 0 0 
" style="fill:none;stroke:#424242;stroke-linecap:square;stroke-width:2.7;"/>
   </g>
   <g id="line2d_34">
    <path clip-path="url(#p0e5d957876)" d="M 0 0 
" style="fill:none;stroke:#424242;stroke-linecap:square;stroke-width:2.7;"/>
   </g>
   <g id="line2d_35">
    <path clip-path="url(#p0e5d957876)" d="M 0 0 
" style="fill:none;stroke:#424242;stroke-linecap:square;stroke-width:2.7;"/>
   </g>
   <g id="line2d_36">
    <path clip-path="url(#p0e5d957876)" d="M 0 0 
" style="fill:none;stroke:#424242;stroke-linecap:square;stroke-width:2.7;"/>
   </g>
   <g id="line2d_37">
    <path clip-path="url(#p0e5d957876)" d="M 0 0 
" style="fill:none;stroke:#424242;stroke-linecap:square;stroke-width:2.7;"/>
   </g>
   <g id="line2d_38">
    <path clip-path="url(#p0e5d957876)" d="M 0 0 
" style="fill:none;stroke:#424242;stroke-linecap:square;stroke-width:2.7;"/>
   </g>
   <g id="text_23">
    <!--   2% -->
    <g style="fill:#969ebd;" transform="translate(209.633854 550.919339)scale(0.1 -0.1)">
     <use xlink:href="#DejaVuSans-20"/>
     <use x="31.787109" xlink:href="#DejaVuSans-20"/>
     <use x="63.574219" xlink:href="#DejaVuSans-32"/>
     <use x="127.197266" xlink:href="#DejaVuSans-25"/>
    </g>
   </g>
   <g id="text_24">
    <!-- Durchschnitt -->
    <g style="fill:#969ebd;" transform="translate(130.199687 550.919339)scale(0.1 -0.1)">
     <use xlink:href="#DejaVuSans-44"/>
     <use x="77.001953" xlink:href="#DejaVuSans-75"/>
     <use x="140.380859" xlink:href="#DejaVuSans-72"/>
     <use x="181.462891" xlink:href="#DejaVuSans-63"/>
     <use x="236.443359" xlink:href="#DejaVuSans-68"/>
     <use x="299.822266" xlink:href="#DejaVuSans-73"/>
     <use x="351.921875" xlink:href="#DejaVuSans-63"/>
     <use x="406.902344" xlink:href="#DejaVuSans-68"/>
     <use x="470.28125" xlink:href="#DejaVuSans-6e"/>
     <use x="533.660156" xlink:href="#DejaVuSans-69"/>
     <use x="561.443359" xlink:href="#DejaVuSans-74"/>
     <use x="600.652344" xlink:href="#DejaVuSans-74"/>
    </g>
   </g>
   <g id="text_25">
    <!--   4% -->
    <g style="fill:#e47288;" transform="translate(205.189792 516.199879)scale(0.12 -0.12)">
     <use xlink:href="#DejaVuSans-20"/>
     <use x="31.787109" xlink:href="#DejaVuSans-20"/>
     <use x="63.574219" xlink:href="#DejaVuSans-34"/>
     <use x="127.197266" xlink:href="#DejaVuSans-25"/>
    </g>
   </g>
   <g id="text_26">
    <!-- Pflichtabschluss -->
    <defs>
     <path d="M 19.671875 64.796875 
L 19.671875 37.40625 
L 32.078125 37.40625 
Q 38.96875 37.40625 42.71875 40.96875 
Q 46.484375 44.53125 46.484375 51.125 
Q 46.484375 57.671875 42.71875 61.234375 
Q 38.96875 64.796875 32.078125 64.796875 
z
M 9.8125 72.90625 
L 32.078125 72.90625 
Q 44.34375 72.90625 50.609375 67.359375 
Q 56.890625 61.8125 56.890625 51.125 
Q 56.890625 40.328125 50.609375 34.8125 
Q 44.34375 29.296875 32.078125 29.296875 
L 19.671875 29.296875 
L 19.671875 0 
L 9.8125 0 
z
" id="DejaVuSans-50"/>
     <path d="M 37.109375 75.984375 
L 37.109375 68.5 
L 28.515625 68.5 
Q 23.6875 68.5 21.796875 66.546875 
Q 19.921875 64.59375 19.921875 59.515625 
L 19.921875 54.6875 
L 34.71875 54.6875 
L 34.71875 47.703125 
L 19.921875 47.703125 
L 19.921875 0 
L 10.890625 0 
L 10.890625 47.703125 
L 2.296875 47.703125 
L 2.296875 54.6875 
L 10.890625 54.6875 
L 10.890625 58.5 
Q 10.890625 67.625 15.140625 71.796875 
Q 19.390625 75.984375 28.609375 75.984375 
z
" id="DejaVuSans-66"/>
    </defs>
    <g style="fill:#e47288;" transform="translate(98.28 516.199879)scale(0.12 -0.12)">
     <use xlink:href="#DejaVuSans-50"/>
     <use x="60.302734" xlink:href="#DejaVuSans-66"/>
     <use x="95.507812" xlink:href="#DejaVuSans-6c"/>
     <use x="123.291016" xlink:href="#DejaVuSans-69"/>
     <use x="151.074219" xlink:href="#DejaVuSans-63"/>
     <use x="206.054688" xlink:href="#DejaVuSans-68"/>
     <use x="269.433594" xlink:href="#DejaVuSans-74"/>
     <use x="308.642578" xlink:href="#DejaVuSans-61"/>
     <use x="369.921875" xlink:href="#DejaVuSans-62"/>
     <use x="433.398438" xlink:href="#DejaVuSans-73"/>
     <use x="485.498047" xlink:href="#DejaVuSans-63"/>
     <use x="540.478516" xlink:href="#DejaVuSans-68"/>
     <use x="603.857422" xlink:href="#DejaVuSans-6c"/>
     <use x="631.640625" xlink:href="#DejaVuSans-75"/>
     <use x="695.019531" xlink:href="#DejaVuSans-73"/>
     <use x="747.119141" xlink:href="#DejaVuSans-73"/>
    </g>
   </g>
   <g id="legend_1">
    <g id="text_27">
     <!-- Verteilung -->
     <defs>
      <path d="M 28.609375 0 
L 0.78125 72.90625 
L 11.078125 72.90625 
L 34.1875 11.53125 
L 57.328125 72.90625 
L 67.578125 72.90625 
L 39.796875 0 
z
" id="DejaVuSans-56"/>
     </defs>
     <g transform="translate(329.759062 580.349921)scale(0.1 -0.1)">
      <use xlink:href="#DejaVuSans-56"/>
      <use x="68.298828" xlink:href="#DejaVuSans-65"/>
      <use x="129.822266" xlink:href="#DejaVuSans-72"/>
      <use x="170.935547" xlink:href="#DejaVuSans-74"/>
      <use x="210.144531" xlink:href="#DejaVuSans-65"/>
      <use x="271.667969" xlink:href="#DejaVuSans-69"/>
      <use x="299.451172" xlink:href="#DejaVuSans-6c"/>
      <use x="327.234375" xlink:href="#DejaVuSans-75"/>
      <use x="390.613281" xlink:href="#DejaVuSans-6e"/>
      <use x="453.992188" xlink:href="#DejaVuSans-67"/>
     </g>
    </g>
    <g id="patch_34">
     <path d="M 144.155156 595.028046 
L 164.155156 595.028046 
L 164.155156 588.028046 
L 144.155156 588.028046 
z
" style="fill:#9ba1b8;"/>
    </g>
    <g id="text_28">
     <!-- Durchschnitt -->
     <g transform="translate(172.155156 595.028046)scale(0.1 -0.1)">
      <use xlink:href="#DejaVuSans-44"/>
      <use x="77.001953" xlink:href="#DejaVuSans-75"/>
      <use x="140.380859" xlink:href="#DejaVuSans-72"/>
      <use x="181.462891" xlink:href="#DejaVuSans-63"/>
      <use x="236.443359" xlink:href="#DejaVuSans-68"/>
      <use x="299.822266" xlink:href="#DejaVuSans-73"/>
      <use x="351.921875" xlink:href="#DejaVuSans-63"/>
      <use x="406.902344" xlink:href="#DejaVuSans-68"/>
      <use x="470.28125" xlink:href="#DejaVuSans-6e"/>
      <use x="533.660156" xlink:href="#DejaVuSans-69"/>
      <use x="561.443359" xlink:href="#DejaVuSans-74"/>
      <use x="600.652344" xlink:href="#DejaVuSans-74"/>
     </g>
    </g>
    <g id="patch_35">
     <path d="M 256.137969 595.028046 
L 276.137969 595.028046 
L 276.137969 588.028046 
L 256.137969 588.028046 
z
" style="fill:#343866;"/>
    </g>
    <g id="text_29">
     <!-- unter dem Durchschnitt -->
     <defs>
      <path d="M 45.40625 46.390625 
L 45.40625 75.984375 
L 54.390625 75.984375 
L 54.390625 0 
L 45.40625 0 
L 45.40625 8.203125 
Q 42.578125 3.328125 38.25 0.953125 
Q 33.9375 -1.421875 27.875 -1.421875 
Q 17.96875 -1.421875 11.734375 6.484375 
Q 5.515625 14.40625 5.515625 27.296875 
Q 5.515625 40.1875 11.734375 48.09375 
Q 17.96875 56 27.875 56 
Q 33.9375 56 38.25 53.625 
Q 42.578125 51.265625 45.40625 46.390625 
z
M 14.796875 27.296875 
Q 14.796875 17.390625 18.875 11.75 
Q 22.953125 6.109375 30.078125 6.109375 
Q 37.203125 6.109375 41.296875 11.75 
Q 45.40625 17.390625 45.40625 27.296875 
Q 45.40625 37.203125 41.296875 42.84375 
Q 37.203125 48.484375 30.078125 48.484375 
Q 22.953125 48.484375 18.875 42.84375 
Q 14.796875 37.203125 14.796875 27.296875 
z
" id="DejaVuSans-64"/>
      <path d="M 52 44.1875 
Q 55.375 50.25 60.0625 53.125 
Q 64.75 56 71.09375 56 
Q 79.640625 56 84.28125 50.015625 
Q 88.921875 44.046875 88.921875 33.015625 
L 88.921875 0 
L 79.890625 0 
L 79.890625 32.71875 
Q 79.890625 40.578125 77.09375 44.375 
Q 74.3125 48.1875 68.609375 48.1875 
Q 61.625 48.1875 57.5625 43.546875 
Q 53.515625 38.921875 53.515625 30.90625 
L 53.515625 0 
L 44.484375 0 
L 44.484375 32.71875 
Q 44.484375 40.625 41.703125 44.40625 
Q 38.921875 48.1875 33.109375 48.1875 
Q 26.21875 48.1875 22.15625 43.53125 
Q 18.109375 38.875 18.109375 30.90625 
L 18.109375 0 
L 9.078125 0 
L 9.078125 54.6875 
L 18.109375 54.6875 
L 18.109375 46.1875 
Q 21.1875 51.21875 25.484375 53.609375 
Q 29.78125 56 35.6875 56 
Q 41.65625 56 45.828125 52.96875 
Q 50 49.953125 52 44.1875 
z
" id="DejaVuSans-6d"/>
     </defs>
     <g transform="translate(284.137969 595.028046)scale(0.1 -0.1)">
      <use xlink:href="#DejaVuSans-75"/>
      <use x="63.378906" xlink:href="#DejaVuSans-6e"/>
      <use x="126.757812" xlink:href="#DejaVuSans-74"/>
      <use x="165.966797" xlink:href="#DejaVuSans-65"/>
      <use x="227.490234" xlink:href="#DejaVuSans-72"/>
      <use x="268.603516" xlink:href="#DejaVuSans-20"/>
      <use x="300.390625" xlink:href="#DejaVuSans-64"/>
      <use x="363.867188" xlink:href="#DejaVuSans-65"/>
      <use x="425.390625" xlink:href="#DejaVuSans-6d"/>
      <use x="522.802734" xlink:href="#DejaVuSans-20"/>
      <use x="554.589844" xlink:href="#DejaVuSans-44"/>
      <use x="631.591797" xlink:href="#DejaVuSans-75"/>
      <use x="694.970703" xlink:href="#DejaVuSans-72"/>
      <use x="736.052734" xlink:href="#DejaVuSans-63"/>
      <use x="791.033203" xlink:href="#DejaVuSans-68"/>
      <use x="854.412109" xlink:href="#DejaVuSans-73"/>
      <use x="906.511719" xlink:href="#DejaVuSans-63"/>
      <use x="961.492188" xlink:href="#DejaVuSans-68"/>
      <use x="1024.871094" xlink:href="#DejaVuSans-6e"/>
      <use x="1088.25" xlink:href="#DejaVuSans-69"/>
      <use x="1116.033203" xlink:href="#DejaVuSans-74"/>
      <use x="1155.242188" xlink:href="#DejaVuSans-74"/>
     </g>
    </g>
    <g id="patch_36">
     <path d="M 423.578594 595.028046 
L 443.578594 595.028046 
L 443.578594 588.028046 
L 423.578594 588.028046 
z
" style="fill:#d68091;"/>
    </g>
    <g id="text_30">
     <!-- über dem Durchschnitt -->
     <defs>
      <path d="M 8.5 21.578125 
L 8.5 54.6875 
L 17.484375 54.6875 
L 17.484375 21.921875 
Q 17.484375 14.15625 20.5 10.265625 
Q 23.53125 6.390625 29.59375 6.390625 
Q 36.859375 6.390625 41.078125 11.03125 
Q 45.3125 15.671875 45.3125 23.6875 
L 45.3125 54.6875 
L 54.296875 54.6875 
L 54.296875 0 
L 45.3125 0 
L 45.3125 8.40625 
Q 42.046875 3.421875 37.71875 1 
Q 33.40625 -1.421875 27.6875 -1.421875 
Q 18.265625 -1.421875 13.375 4.4375 
Q 8.5 10.296875 8.5 21.578125 
z
M 31.109375 56 
z
M 35.59375 75.78125 
L 45.5 75.78125 
L 45.5 65.921875 
L 35.59375 65.921875 
z
M 16.5 75.78125 
L 26.40625 75.78125 
L 26.40625 65.921875 
L 16.5 65.921875 
z
" id="DejaVuSans-fc"/>
     </defs>
     <g transform="translate(451.578594 595.028046)scale(0.1 -0.1)">
      <use xlink:href="#DejaVuSans-fc"/>
      <use x="63.378906" xlink:href="#DejaVuSans-62"/>
      <use x="126.855469" xlink:href="#DejaVuSans-65"/>
      <use x="188.378906" xlink:href="#DejaVuSans-72"/>
      <use x="229.492188" xlink:href="#DejaVuSans-20"/>
      <use x="261.279297" xlink:href="#DejaVuSans-64"/>
      <use x="324.755859" xlink:href="#DejaVuSans-65"/>
      <use x="386.279297" xlink:href="#DejaVuSans-6d"/>
      <use x="483.691406" xlink:href="#DejaVuSans-20"/>
      <use x="515.478516" xlink:href="#DejaVuSans-44"/>
      <use x="592.480469" xlink:href="#DejaVuSans-75"/>
      <use x="655.859375" xlink:href="#DejaVuSans-72"/>
      <use x="696.941406" xlink:href="#DejaVuSans-63"/>
      <use x="751.921875" xlink:href="#DejaVuSans-68"/>
      <use x="815.300781" xlink:href="#DejaVuSans-73"/>
      <use x="867.400391" xlink:href="#DejaVuSans-63"/>
      <use x="922.380859" xlink:href="#DejaVuSans-68"/>
      <use x="985.759766" xlink:href="#DejaVuSans-6e"/>
      <use x="1049.138672" xlink:href="#DejaVuSans-69"/>
      <use x="1076.921875" xlink:href="#DejaVuSans-74"/>
      <use x="1116.130859" xlink:href="#DejaVuSans-74"/>
     </g>
    </g>
   </g>
  </g>
  <g id="text_31">
   <!-- Höchste Ausbildung -->
   <defs>
    <path d="M 9.8125 72.90625 
L 19.671875 72.90625 
L 19.671875 43.015625 
L 55.515625 43.015625 
L 55.515625 72.90625 
L 65.375 72.90625 
L 65.375 0 
L 55.515625 0 
L 55.515625 34.71875 
L 19.671875 34.71875 
L 19.671875 0 
L 9.8125 0 
z
" id="DejaVuSans-48"/>
    <path d="M 30.609375 48.390625 
Q 23.390625 48.390625 19.1875 42.75 
Q 14.984375 37.109375 14.984375 27.296875 
Q 14.984375 17.484375 19.15625 11.84375 
Q 23.34375 6.203125 30.609375 6.203125 
Q 37.796875 6.203125 41.984375 11.859375 
Q 46.1875 17.53125 46.1875 27.296875 
Q 46.1875 37.015625 41.984375 42.703125 
Q 37.796875 48.390625 30.609375 48.390625 
z
M 30.609375 56 
Q 42.328125 56 49.015625 48.375 
Q 55.71875 40.765625 55.71875 27.296875 
Q 55.71875 13.875 49.015625 6.21875 
Q 42.328125 -1.421875 30.609375 -1.421875 
Q 18.84375 -1.421875 12.171875 6.21875 
Q 5.515625 13.875 5.515625 27.296875 
Q 5.515625 40.765625 12.171875 48.375 
Q 18.84375 56 30.609375 56 
z
M 35.21875 75.78125 
L 45.125 75.78125 
L 45.125 65.921875 
L 35.21875 65.921875 
z
M 16.125 75.78125 
L 26.03125 75.78125 
L 26.03125 65.921875 
L 16.125 65.921875 
z
" id="DejaVuSans-f6"/>
   </defs>
   <g transform="translate(26.4625 17.837812)scale(0.14 -0.14)">
    <use xlink:href="#DejaVuSans-48"/>
    <use x="75.195312" xlink:href="#DejaVuSans-f6"/>
    <use x="136.376953" xlink:href="#DejaVuSans-63"/>
    <use x="191.357422" xlink:href="#DejaVuSans-68"/>
    <use x="254.736328" xlink:href="#DejaVuSans-73"/>
    <use x="306.835938" xlink:href="#DejaVuSans-74"/>
    <use x="346.044922" xlink:href="#DejaVuSans-65"/>
    <use x="407.568359" xlink:href="#DejaVuSans-20"/>
    <use x="439.355469" xlink:href="#DejaVuSans-41"/>
    <use x="507.763672" xlink:href="#DejaVuSans-75"/>
    <use x="571.142578" xlink:href="#DejaVuSans-73"/>
    <use x="623.242188" xlink:href="#DejaVuSans-62"/>
    <use x="686.71875" xlink:href="#DejaVuSans-69"/>
    <use x="714.501953" xlink:href="#DejaVuSans-6c"/>
    <use x="742.285156" xlink:href="#DejaVuSans-64"/>
    <use x="805.761719" xlink:href="#DejaVuSans-75"/>
    <use x="869.140625" xlink:href="#DejaVuSans-6e"/>
    <use x="932.519531" xlink:href="#DejaVuSans-67"/>
   </g>
  </g>
 </g>
 <defs>
  <clipPath id="pe657b68c9a">
   <rect height="77.730133" width="269.083333" x="247.999167" y="62.368"/>
  </clipPath>
  <clipPath id="p016d36d28f">
   <rect height="77.730133" width="269.083333" x="247.999167" y="169.154133"/>
  </clipPath>
  <clipPath id="pe691142fee">
   <rect height="77.730133" width="269.083333" x="247.999167" y="275.940267"/>
  </clipPath>
  <clipPath id="p365ad1568f">
   <rect height="77.730133" width="269.083333" x="247.999167" y="382.7264"/>
  </clipPath>
  <clipPath id="p0e5d957876">
   <rect height="77.730133" width="269.083333" x="247.999167" y="489.512533"/>
  </clipPath>
 </defs>
</svg>
