<?xml version="1.0" encoding="utf-8" standalone="no"?>
<!DOCTYPE svg PUBLIC "-//W3C//DTD SVG 1.1//EN"
  "http://www.w3.org/Graphics/SVG/1.1/DTD/svg11.dtd">
<!-- Created with matplotlib (http://matplotlib.org/) -->
<svg height="453pt" version="1.1" viewBox="0 0 583 453" width="583pt" xmlns="http://www.w3.org/2000/svg" xmlns:xlink="http://www.w3.org/1999/xlink">
 <defs>
  <style type="text/css">
*{stroke-linecap:butt;stroke-linejoin:round;}
  </style>
 </defs>
 <g id="figure_1">
  <g id="patch_1">
   <path d="M 0 453.8416 
L 583.431656 453.8416 
L 583.431656 -0 
L 0 -0 
z
" style="fill:#f4f4f6;"/>
  </g>
  <g id="axes_1">
   <g id="patch_2">
    <path d="M 316.967125 165.0752 
L 561.937125 165.0752 
L 561.937125 101.616 
L 316.967125 101.616 
z
" style="fill:#f4f4f6;"/>
   </g>
   <g id="patch_3">
    <path clip-path="url(#pe2df9d62ac)" d="z
" style="fill:#9ba1b8;"/>
   </g>
   <g id="patch_4">
    <path clip-path="url(#pe2df9d62ac)" d="M 316.967125 133.239835 
L 417.010524 133.239835 
L 417.010524 145.931675 
L 316.967125 145.931675 
z
" style="fill:#9ba1b8;"/>
   </g>
   <g id="patch_5">
    <path clip-path="url(#pe2df9d62ac)" d="M 316.967125 113.250187 
L 417.010524 113.250187 
L 417.010524 125.942027 
L 316.967125 125.942027 
z
" style="fill:none;opacity:0;"/>
   </g>
   <g id="patch_6">
    <path clip-path="url(#pe2df9d62ac)" d="z
" style="fill:#343866;"/>
   </g>
   <g id="matplotlib.axis_1">
    <g id="xtick_1">
     <g id="line2d_1">
      <defs>
       <path d="M 0 0 
L 0 -3.5 
" id="ma2c90cb9d0" style="stroke:#000000;stroke-width:0.8;"/>
      </defs>
      <g>
       <use style="stroke:#000000;stroke-width:0.8;" x="316.967125" xlink:href="#ma2c90cb9d0" y="101.616"/>
      </g>
     </g>
     <g id="text_1">
      <!--   0% -->
      <defs>
       <path id="DejaVuSans-20"/>
       <path d="M 31.78125 66.40625 
Q 24.171875 66.40625 20.328125 58.90625 
Q 16.5 51.421875 16.5 36.375 
Q 16.5 21.390625 20.328125 13.890625 
Q 24.171875 6.390625 31.78125 6.390625 
Q 39.453125 6.390625 43.28125 13.890625 
Q 47.125 21.390625 47.125 36.375 
Q 47.125 51.421875 43.28125 58.90625 
Q 39.453125 66.40625 31.78125 66.40625 
z
M 31.78125 74.21875 
Q 44.046875 74.21875 50.515625 64.515625 
Q 56.984375 54.828125 56.984375 36.375 
Q 56.984375 17.96875 50.515625 8.265625 
Q 44.046875 -1.421875 31.78125 -1.421875 
Q 19.53125 -1.421875 13.0625 8.265625 
Q 6.59375 17.96875 6.59375 36.375 
Q 6.59375 54.828125 13.0625 64.515625 
Q 19.53125 74.21875 31.78125 74.21875 
z
" id="DejaVuSans-30"/>
       <path d="M 72.703125 32.078125 
Q 68.453125 32.078125 66.03125 28.46875 
Q 63.625 24.859375 63.625 18.40625 
Q 63.625 12.0625 66.03125 8.421875 
Q 68.453125 4.78125 72.703125 4.78125 
Q 76.859375 4.78125 79.265625 8.421875 
Q 81.6875 12.0625 81.6875 18.40625 
Q 81.6875 24.8125 79.265625 28.4375 
Q 76.859375 32.078125 72.703125 32.078125 
z
M 72.703125 38.28125 
Q 80.421875 38.28125 84.953125 32.90625 
Q 89.5 27.546875 89.5 18.40625 
Q 89.5 9.28125 84.9375 3.921875 
Q 80.375 -1.421875 72.703125 -1.421875 
Q 64.890625 -1.421875 60.34375 3.921875 
Q 55.8125 9.28125 55.8125 18.40625 
Q 55.8125 27.59375 60.375 32.9375 
Q 64.9375 38.28125 72.703125 38.28125 
z
M 22.3125 68.015625 
Q 18.109375 68.015625 15.6875 64.375 
Q 13.28125 60.75 13.28125 54.390625 
Q 13.28125 47.953125 15.671875 44.328125 
Q 18.0625 40.71875 22.3125 40.71875 
Q 26.5625 40.71875 28.96875 44.328125 
Q 31.390625 47.953125 31.390625 54.390625 
Q 31.390625 60.6875 28.953125 64.34375 
Q 26.515625 68.015625 22.3125 68.015625 
z
M 66.40625 74.21875 
L 74.21875 74.21875 
L 28.609375 -1.421875 
L 20.796875 -1.421875 
z
M 22.3125 74.21875 
Q 30.03125 74.21875 34.609375 68.875 
Q 39.203125 63.53125 39.203125 54.390625 
Q 39.203125 45.171875 34.640625 39.84375 
Q 30.078125 34.515625 22.3125 34.515625 
Q 14.546875 34.515625 10.03125 39.859375 
Q 5.515625 45.21875 5.515625 54.390625 
Q 5.515625 63.484375 10.046875 68.84375 
Q 14.59375 74.21875 22.3125 74.21875 
z
" id="DejaVuSans-25"/>
      </defs>
      <g transform="translate(305.856969 92.536313)scale(0.1 -0.1)">
       <use xlink:href="#DejaVuSans-20"/>
       <use x="31.787109" xlink:href="#DejaVuSans-20"/>
       <use x="63.574219" xlink:href="#DejaVuSans-30"/>
       <use x="127.197266" xlink:href="#DejaVuSans-25"/>
      </g>
     </g>
    </g>
    <g id="xtick_2">
     <g id="line2d_2">
      <g>
       <use style="stroke:#000000;stroke-width:0.8;" x="365.961125" xlink:href="#ma2c90cb9d0" y="101.616"/>
      </g>
     </g>
     <g id="text_2">
      <!--  20% -->
      <defs>
       <path d="M 19.1875 8.296875 
L 53.609375 8.296875 
L 53.609375 0 
L 7.328125 0 
L 7.328125 8.296875 
Q 12.9375 14.109375 22.625 23.890625 
Q 32.328125 33.6875 34.8125 36.53125 
Q 39.546875 41.84375 41.421875 45.53125 
Q 43.3125 49.21875 43.3125 52.78125 
Q 43.3125 58.59375 39.234375 62.25 
Q 35.15625 65.921875 28.609375 65.921875 
Q 23.96875 65.921875 18.8125 64.3125 
Q 13.671875 62.703125 7.8125 59.421875 
L 7.8125 69.390625 
Q 13.765625 71.78125 18.9375 73 
Q 24.125 74.21875 28.421875 74.21875 
Q 39.75 74.21875 46.484375 68.546875 
Q 53.21875 62.890625 53.21875 53.421875 
Q 53.21875 48.921875 51.53125 44.890625 
Q 49.859375 40.875 45.40625 35.40625 
Q 44.1875 33.984375 37.640625 27.21875 
Q 31.109375 20.453125 19.1875 8.296875 
z
" id="DejaVuSans-32"/>
      </defs>
      <g transform="translate(353.258781 92.536313)scale(0.1 -0.1)">
       <use xlink:href="#DejaVuSans-20"/>
       <use x="31.787109" xlink:href="#DejaVuSans-32"/>
       <use x="95.410156" xlink:href="#DejaVuSans-30"/>
       <use x="159.033203" xlink:href="#DejaVuSans-25"/>
      </g>
     </g>
    </g>
    <g id="xtick_3">
     <g id="line2d_3">
      <g>
       <use style="stroke:#000000;stroke-width:0.8;" x="414.955125" xlink:href="#ma2c90cb9d0" y="101.616"/>
      </g>
     </g>
     <g id="text_3">
      <!--  40% -->
      <defs>
       <path d="M 37.796875 64.3125 
L 12.890625 25.390625 
L 37.796875 25.390625 
z
M 35.203125 72.90625 
L 47.609375 72.90625 
L 47.609375 25.390625 
L 58.015625 25.390625 
L 58.015625 17.1875 
L 47.609375 17.1875 
L 47.609375 0 
L 37.796875 0 
L 37.796875 17.1875 
L 4.890625 17.1875 
L 4.890625 26.703125 
z
" id="DejaVuSans-34"/>
      </defs>
      <g transform="translate(402.252781 92.536313)scale(0.1 -0.1)">
       <use xlink:href="#DejaVuSans-20"/>
       <use x="31.787109" xlink:href="#DejaVuSans-34"/>
       <use x="95.410156" xlink:href="#DejaVuSans-30"/>
       <use x="159.033203" xlink:href="#DejaVuSans-25"/>
      </g>
     </g>
    </g>
    <g id="xtick_4">
     <g id="line2d_4">
      <g>
       <use style="stroke:#000000;stroke-width:0.8;" x="463.949125" xlink:href="#ma2c90cb9d0" y="101.616"/>
      </g>
     </g>
     <g id="text_4">
      <!--  60% -->
      <defs>
       <path d="M 33.015625 40.375 
Q 26.375 40.375 22.484375 35.828125 
Q 18.609375 31.296875 18.609375 23.390625 
Q 18.609375 15.53125 22.484375 10.953125 
Q 26.375 6.390625 33.015625 6.390625 
Q 39.65625 6.390625 43.53125 10.953125 
Q 47.40625 15.53125 47.40625 23.390625 
Q 47.40625 31.296875 43.53125 35.828125 
Q 39.65625 40.375 33.015625 40.375 
z
M 52.59375 71.296875 
L 52.59375 62.3125 
Q 48.875 64.0625 45.09375 64.984375 
Q 41.3125 65.921875 37.59375 65.921875 
Q 27.828125 65.921875 22.671875 59.328125 
Q 17.53125 52.734375 16.796875 39.40625 
Q 19.671875 43.65625 24.015625 45.921875 
Q 28.375 48.1875 33.59375 48.1875 
Q 44.578125 48.1875 50.953125 41.515625 
Q 57.328125 34.859375 57.328125 23.390625 
Q 57.328125 12.15625 50.6875 5.359375 
Q 44.046875 -1.421875 33.015625 -1.421875 
Q 20.359375 -1.421875 13.671875 8.265625 
Q 6.984375 17.96875 6.984375 36.375 
Q 6.984375 53.65625 15.1875 63.9375 
Q 23.390625 74.21875 37.203125 74.21875 
Q 40.921875 74.21875 44.703125 73.484375 
Q 48.484375 72.75 52.59375 71.296875 
z
" id="DejaVuSans-36"/>
      </defs>
      <g transform="translate(451.246781 92.536313)scale(0.1 -0.1)">
       <use xlink:href="#DejaVuSans-20"/>
       <use x="31.787109" xlink:href="#DejaVuSans-36"/>
       <use x="95.410156" xlink:href="#DejaVuSans-30"/>
       <use x="159.033203" xlink:href="#DejaVuSans-25"/>
      </g>
     </g>
    </g>
    <g id="xtick_5">
     <g id="line2d_5">
      <g>
       <use style="stroke:#000000;stroke-width:0.8;" x="512.943125" xlink:href="#ma2c90cb9d0" y="101.616"/>
      </g>
     </g>
     <g id="text_5">
      <!--  80% -->
      <defs>
       <path d="M 31.78125 34.625 
Q 24.75 34.625 20.71875 30.859375 
Q 16.703125 27.09375 16.703125 20.515625 
Q 16.703125 13.921875 20.71875 10.15625 
Q 24.75 6.390625 31.78125 6.390625 
Q 38.8125 6.390625 42.859375 10.171875 
Q 46.921875 13.96875 46.921875 20.515625 
Q 46.921875 27.09375 42.890625 30.859375 
Q 38.875 34.625 31.78125 34.625 
z
M 21.921875 38.8125 
Q 15.578125 40.375 12.03125 44.71875 
Q 8.5 49.078125 8.5 55.328125 
Q 8.5 64.0625 14.71875 69.140625 
Q 20.953125 74.21875 31.78125 74.21875 
Q 42.671875 74.21875 48.875 69.140625 
Q 55.078125 64.0625 55.078125 55.328125 
Q 55.078125 49.078125 51.53125 44.71875 
Q 48 40.375 41.703125 38.8125 
Q 48.828125 37.15625 52.796875 32.3125 
Q 56.78125 27.484375 56.78125 20.515625 
Q 56.78125 9.90625 50.3125 4.234375 
Q 43.84375 -1.421875 31.78125 -1.421875 
Q 19.734375 -1.421875 13.25 4.234375 
Q 6.78125 9.90625 6.78125 20.515625 
Q 6.78125 27.484375 10.78125 32.3125 
Q 14.796875 37.15625 21.921875 38.8125 
z
M 18.3125 54.390625 
Q 18.3125 48.734375 21.84375 45.5625 
Q 25.390625 42.390625 31.78125 42.390625 
Q 38.140625 42.390625 41.71875 45.5625 
Q 45.3125 48.734375 45.3125 54.390625 
Q 45.3125 60.0625 41.71875 63.234375 
Q 38.140625 66.40625 31.78125 66.40625 
Q 25.390625 66.40625 21.84375 63.234375 
Q 18.3125 60.0625 18.3125 54.390625 
z
" id="DejaVuSans-38"/>
      </defs>
      <g transform="translate(500.240781 92.536313)scale(0.1 -0.1)">
       <use xlink:href="#DejaVuSans-20"/>
       <use x="31.787109" xlink:href="#DejaVuSans-38"/>
       <use x="95.410156" xlink:href="#DejaVuSans-30"/>
       <use x="159.033203" xlink:href="#DejaVuSans-25"/>
      </g>
     </g>
    </g>
    <g id="xtick_6">
     <g id="line2d_6">
      <g>
       <use style="stroke:#000000;stroke-width:0.8;" x="561.937125" xlink:href="#ma2c90cb9d0" y="101.616"/>
      </g>
     </g>
     <g id="text_6">
      <!-- 100% -->
      <defs>
       <path d="M 12.40625 8.296875 
L 28.515625 8.296875 
L 28.515625 63.921875 
L 10.984375 60.40625 
L 10.984375 69.390625 
L 28.421875 72.90625 
L 38.28125 72.90625 
L 38.28125 8.296875 
L 54.390625 8.296875 
L 54.390625 0 
L 12.40625 0 
z
" id="DejaVuSans-31"/>
      </defs>
      <g transform="translate(547.642594 92.536313)scale(0.1 -0.1)">
       <use xlink:href="#DejaVuSans-31"/>
       <use x="63.623047" xlink:href="#DejaVuSans-30"/>
       <use x="127.246094" xlink:href="#DejaVuSans-30"/>
       <use x="190.869141" xlink:href="#DejaVuSans-25"/>
      </g>
     </g>
    </g>
   </g>
   <g id="matplotlib.axis_2">
    <g id="ytick_1">
     <g id="line2d_7">
      <defs>
       <path d="M 0 0 
L -3.5 0 
" id="mce54733e02"/>
      </defs>
      <g>
       <use style="fill:none;" x="316.967125" xlink:href="#mce54733e02" y="117.4808"/>
      </g>
     </g>
    </g>
    <g id="ytick_2">
     <g id="line2d_8">
      <g>
       <use style="fill:none;" x="316.967125" xlink:href="#mce54733e02" y="149.2104"/>
      </g>
     </g>
    </g>
   </g>
   <g id="line2d_9">
    <path clip-path="url(#pe2df9d62ac)" d="M 0 0 
" style="fill:none;stroke:#424242;stroke-linecap:square;stroke-width:2.7;"/>
   </g>
   <g id="line2d_10">
    <path clip-path="url(#pe2df9d62ac)" d="M 0 0 
" style="fill:none;stroke:#424242;stroke-linecap:square;stroke-width:2.7;"/>
   </g>
   <g id="line2d_11">
    <path clip-path="url(#pe2df9d62ac)" d="M 0 0 
" style="fill:none;stroke:#424242;stroke-linecap:square;stroke-width:2.7;"/>
   </g>
   <g id="line2d_12">
    <path clip-path="url(#pe2df9d62ac)" d="M 0 0 
" style="fill:none;stroke:#424242;stroke-linecap:square;stroke-width:2.7;"/>
   </g>
   <g id="patch_7">
    <path d="M 316.967125 101.616 
L 561.937125 101.616 
" style="fill:none;stroke:#000000;stroke-linecap:square;stroke-linejoin:miter;stroke-width:0.8;"/>
   </g>
   <g id="text_7">
    <!--  41% -->
    <g style="fill:#969ebd;" transform="translate(271.7833 145.931675)scale(0.12 -0.12)">
     <use xlink:href="#DejaVuSans-20"/>
     <use x="31.787109" xlink:href="#DejaVuSans-34"/>
     <use x="95.410156" xlink:href="#DejaVuSans-31"/>
     <use x="159.033203" xlink:href="#DejaVuSans-25"/>
    </g>
   </g>
   <g id="text_8">
    <!-- Durchschnitt Unbekannt -->
    <defs>
     <path d="M 19.671875 64.796875 
L 19.671875 8.109375 
L 31.59375 8.109375 
Q 46.6875 8.109375 53.6875 14.9375 
Q 60.6875 21.78125 60.6875 36.53125 
Q 60.6875 51.171875 53.6875 57.984375 
Q 46.6875 64.796875 31.59375 64.796875 
z
M 9.8125 72.90625 
L 30.078125 72.90625 
Q 51.265625 72.90625 61.171875 64.09375 
Q 71.09375 55.28125 71.09375 36.53125 
Q 71.09375 17.671875 61.125 8.828125 
Q 51.171875 0 30.078125 0 
L 9.8125 0 
z
" id="DejaVuSans-44"/>
     <path d="M 8.5 21.578125 
L 8.5 54.6875 
L 17.484375 54.6875 
L 17.484375 21.921875 
Q 17.484375 14.15625 20.5 10.265625 
Q 23.53125 6.390625 29.59375 6.390625 
Q 36.859375 6.390625 41.078125 11.03125 
Q 45.3125 15.671875 45.3125 23.6875 
L 45.3125 54.6875 
L 54.296875 54.6875 
L 54.296875 0 
L 45.3125 0 
L 45.3125 8.40625 
Q 42.046875 3.421875 37.71875 1 
Q 33.40625 -1.421875 27.6875 -1.421875 
Q 18.265625 -1.421875 13.375 4.4375 
Q 8.5 10.296875 8.5 21.578125 
z
M 31.109375 56 
z
" id="DejaVuSans-75"/>
     <path d="M 41.109375 46.296875 
Q 39.59375 47.171875 37.8125 47.578125 
Q 36.03125 48 33.890625 48 
Q 26.265625 48 22.1875 43.046875 
Q 18.109375 38.09375 18.109375 28.8125 
L 18.109375 0 
L 9.078125 0 
L 9.078125 54.6875 
L 18.109375 54.6875 
L 18.109375 46.1875 
Q 20.953125 51.171875 25.484375 53.578125 
Q 30.03125 56 36.53125 56 
Q 37.453125 56 38.578125 55.875 
Q 39.703125 55.765625 41.0625 55.515625 
z
" id="DejaVuSans-72"/>
     <path d="M 48.78125 52.59375 
L 48.78125 44.1875 
Q 44.96875 46.296875 41.140625 47.34375 
Q 37.3125 48.390625 33.40625 48.390625 
Q 24.65625 48.390625 19.8125 42.84375 
Q 14.984375 37.3125 14.984375 27.296875 
Q 14.984375 17.28125 19.8125 11.734375 
Q 24.65625 6.203125 33.40625 6.203125 
Q 37.3125 6.203125 41.140625 7.25 
Q 44.96875 8.296875 48.78125 10.40625 
L 48.78125 2.09375 
Q 45.015625 0.34375 40.984375 -0.53125 
Q 36.96875 -1.421875 32.421875 -1.421875 
Q 20.0625 -1.421875 12.78125 6.34375 
Q 5.515625 14.109375 5.515625 27.296875 
Q 5.515625 40.671875 12.859375 48.328125 
Q 20.21875 56 33.015625 56 
Q 37.15625 56 41.109375 55.140625 
Q 45.0625 54.296875 48.78125 52.59375 
z
" id="DejaVuSans-63"/>
     <path d="M 54.890625 33.015625 
L 54.890625 0 
L 45.90625 0 
L 45.90625 32.71875 
Q 45.90625 40.484375 42.875 44.328125 
Q 39.84375 48.1875 33.796875 48.1875 
Q 26.515625 48.1875 22.3125 43.546875 
Q 18.109375 38.921875 18.109375 30.90625 
L 18.109375 0 
L 9.078125 0 
L 9.078125 75.984375 
L 18.109375 75.984375 
L 18.109375 46.1875 
Q 21.34375 51.125 25.703125 53.5625 
Q 30.078125 56 35.796875 56 
Q 45.21875 56 50.046875 50.171875 
Q 54.890625 44.34375 54.890625 33.015625 
z
" id="DejaVuSans-68"/>
     <path d="M 44.28125 53.078125 
L 44.28125 44.578125 
Q 40.484375 46.53125 36.375 47.5 
Q 32.28125 48.484375 27.875 48.484375 
Q 21.1875 48.484375 17.84375 46.4375 
Q 14.5 44.390625 14.5 40.28125 
Q 14.5 37.15625 16.890625 35.375 
Q 19.28125 33.59375 26.515625 31.984375 
L 29.59375 31.296875 
Q 39.15625 29.25 43.1875 25.515625 
Q 47.21875 21.78125 47.21875 15.09375 
Q 47.21875 7.46875 41.1875 3.015625 
Q 35.15625 -1.421875 24.609375 -1.421875 
Q 20.21875 -1.421875 15.453125 -0.5625 
Q 10.6875 0.296875 5.421875 2 
L 5.421875 11.28125 
Q 10.40625 8.6875 15.234375 7.390625 
Q 20.0625 6.109375 24.8125 6.109375 
Q 31.15625 6.109375 34.5625 8.28125 
Q 37.984375 10.453125 37.984375 14.40625 
Q 37.984375 18.0625 35.515625 20.015625 
Q 33.0625 21.96875 24.703125 23.78125 
L 21.578125 24.515625 
Q 13.234375 26.265625 9.515625 29.90625 
Q 5.8125 33.546875 5.8125 39.890625 
Q 5.8125 47.609375 11.28125 51.796875 
Q 16.75 56 26.8125 56 
Q 31.78125 56 36.171875 55.265625 
Q 40.578125 54.546875 44.28125 53.078125 
z
" id="DejaVuSans-73"/>
     <path d="M 54.890625 33.015625 
L 54.890625 0 
L 45.90625 0 
L 45.90625 32.71875 
Q 45.90625 40.484375 42.875 44.328125 
Q 39.84375 48.1875 33.796875 48.1875 
Q 26.515625 48.1875 22.3125 43.546875 
Q 18.109375 38.921875 18.109375 30.90625 
L 18.109375 0 
L 9.078125 0 
L 9.078125 54.6875 
L 18.109375 54.6875 
L 18.109375 46.1875 
Q 21.34375 51.125 25.703125 53.5625 
Q 30.078125 56 35.796875 56 
Q 45.21875 56 50.046875 50.171875 
Q 54.890625 44.34375 54.890625 33.015625 
z
" id="DejaVuSans-6e"/>
     <path d="M 9.421875 54.6875 
L 18.40625 54.6875 
L 18.40625 0 
L 9.421875 0 
z
M 9.421875 75.984375 
L 18.40625 75.984375 
L 18.40625 64.59375 
L 9.421875 64.59375 
z
" id="DejaVuSans-69"/>
     <path d="M 18.3125 70.21875 
L 18.3125 54.6875 
L 36.8125 54.6875 
L 36.8125 47.703125 
L 18.3125 47.703125 
L 18.3125 18.015625 
Q 18.3125 11.328125 20.140625 9.421875 
Q 21.96875 7.515625 27.59375 7.515625 
L 36.8125 7.515625 
L 36.8125 0 
L 27.59375 0 
Q 17.1875 0 13.234375 3.875 
Q 9.28125 7.765625 9.28125 18.015625 
L 9.28125 47.703125 
L 2.6875 47.703125 
L 2.6875 54.6875 
L 9.28125 54.6875 
L 9.28125 70.21875 
z
" id="DejaVuSans-74"/>
     <path d="M 8.6875 72.90625 
L 18.609375 72.90625 
L 18.609375 28.609375 
Q 18.609375 16.890625 22.84375 11.734375 
Q 27.09375 6.59375 36.625 6.59375 
Q 46.09375 6.59375 50.34375 11.734375 
Q 54.59375 16.890625 54.59375 28.609375 
L 54.59375 72.90625 
L 64.5 72.90625 
L 64.5 27.390625 
Q 64.5 13.140625 57.4375 5.859375 
Q 50.390625 -1.421875 36.625 -1.421875 
Q 22.796875 -1.421875 15.734375 5.859375 
Q 8.6875 13.140625 8.6875 27.390625 
z
" id="DejaVuSans-55"/>
     <path d="M 48.6875 27.296875 
Q 48.6875 37.203125 44.609375 42.84375 
Q 40.53125 48.484375 33.40625 48.484375 
Q 26.265625 48.484375 22.1875 42.84375 
Q 18.109375 37.203125 18.109375 27.296875 
Q 18.109375 17.390625 22.1875 11.75 
Q 26.265625 6.109375 33.40625 6.109375 
Q 40.53125 6.109375 44.609375 11.75 
Q 48.6875 17.390625 48.6875 27.296875 
z
M 18.109375 46.390625 
Q 20.953125 51.265625 25.265625 53.625 
Q 29.59375 56 35.59375 56 
Q 45.5625 56 51.78125 48.09375 
Q 58.015625 40.1875 58.015625 27.296875 
Q 58.015625 14.40625 51.78125 6.484375 
Q 45.5625 -1.421875 35.59375 -1.421875 
Q 29.59375 -1.421875 25.265625 0.953125 
Q 20.953125 3.328125 18.109375 8.203125 
L 18.109375 0 
L 9.078125 0 
L 9.078125 75.984375 
L 18.109375 75.984375 
z
" id="DejaVuSans-62"/>
     <path d="M 56.203125 29.59375 
L 56.203125 25.203125 
L 14.890625 25.203125 
Q 15.484375 15.921875 20.484375 11.0625 
Q 25.484375 6.203125 34.421875 6.203125 
Q 39.59375 6.203125 44.453125 7.46875 
Q 49.3125 8.734375 54.109375 11.28125 
L 54.109375 2.78125 
Q 49.265625 0.734375 44.1875 -0.34375 
Q 39.109375 -1.421875 33.890625 -1.421875 
Q 20.796875 -1.421875 13.15625 6.1875 
Q 5.515625 13.8125 5.515625 26.8125 
Q 5.515625 40.234375 12.765625 48.109375 
Q 20.015625 56 32.328125 56 
Q 43.359375 56 49.78125 48.890625 
Q 56.203125 41.796875 56.203125 29.59375 
z
M 47.21875 32.234375 
Q 47.125 39.59375 43.09375 43.984375 
Q 39.0625 48.390625 32.421875 48.390625 
Q 24.90625 48.390625 20.390625 44.140625 
Q 15.875 39.890625 15.1875 32.171875 
z
" id="DejaVuSans-65"/>
     <path d="M 9.078125 75.984375 
L 18.109375 75.984375 
L 18.109375 31.109375 
L 44.921875 54.6875 
L 56.390625 54.6875 
L 27.390625 29.109375 
L 57.625 0 
L 45.90625 0 
L 18.109375 26.703125 
L 18.109375 0 
L 9.078125 0 
z
" id="DejaVuSans-6b"/>
     <path d="M 34.28125 27.484375 
Q 23.390625 27.484375 19.1875 25 
Q 14.984375 22.515625 14.984375 16.5 
Q 14.984375 11.71875 18.140625 8.90625 
Q 21.296875 6.109375 26.703125 6.109375 
Q 34.1875 6.109375 38.703125 11.40625 
Q 43.21875 16.703125 43.21875 25.484375 
L 43.21875 27.484375 
z
M 52.203125 31.203125 
L 52.203125 0 
L 43.21875 0 
L 43.21875 8.296875 
Q 40.140625 3.328125 35.546875 0.953125 
Q 30.953125 -1.421875 24.3125 -1.421875 
Q 15.921875 -1.421875 10.953125 3.296875 
Q 6 8.015625 6 15.921875 
Q 6 25.140625 12.171875 29.828125 
Q 18.359375 34.515625 30.609375 34.515625 
L 43.21875 34.515625 
L 43.21875 35.40625 
Q 43.21875 41.609375 39.140625 45 
Q 35.0625 48.390625 27.6875 48.390625 
Q 23 48.390625 18.546875 47.265625 
Q 14.109375 46.140625 10.015625 43.890625 
L 10.015625 52.203125 
Q 14.9375 54.109375 19.578125 55.046875 
Q 24.21875 56 28.609375 56 
Q 40.484375 56 46.34375 49.84375 
Q 52.203125 43.703125 52.203125 31.203125 
z
" id="DejaVuSans-61"/>
    </defs>
    <g style="fill:#969ebd;" transform="translate(121.775625 145.931675)scale(0.12 -0.12)">
     <use xlink:href="#DejaVuSans-44"/>
     <use x="77.001953" xlink:href="#DejaVuSans-75"/>
     <use x="140.380859" xlink:href="#DejaVuSans-72"/>
     <use x="181.462891" xlink:href="#DejaVuSans-63"/>
     <use x="236.443359" xlink:href="#DejaVuSans-68"/>
     <use x="299.822266" xlink:href="#DejaVuSans-73"/>
     <use x="351.921875" xlink:href="#DejaVuSans-63"/>
     <use x="406.902344" xlink:href="#DejaVuSans-68"/>
     <use x="470.28125" xlink:href="#DejaVuSans-6e"/>
     <use x="533.660156" xlink:href="#DejaVuSans-69"/>
     <use x="561.443359" xlink:href="#DejaVuSans-74"/>
     <use x="600.652344" xlink:href="#DejaVuSans-74"/>
     <use x="639.861328" xlink:href="#DejaVuSans-20"/>
     <use x="671.648438" xlink:href="#DejaVuSans-55"/>
     <use x="744.841797" xlink:href="#DejaVuSans-6e"/>
     <use x="808.220703" xlink:href="#DejaVuSans-62"/>
     <use x="871.697266" xlink:href="#DejaVuSans-65"/>
     <use x="933.220703" xlink:href="#DejaVuSans-6b"/>
     <use x="991.115234" xlink:href="#DejaVuSans-61"/>
     <use x="1052.394531" xlink:href="#DejaVuSans-6e"/>
     <use x="1115.773438" xlink:href="#DejaVuSans-6e"/>
     <use x="1179.152344" xlink:href="#DejaVuSans-74"/>
    </g>
   </g>
  </g>
  <g id="axes_2">
   <g id="patch_8">
    <path clip-path="url(#p4868bb8304)" d="z
" style="fill:#9ba1b8;"/>
   </g>
   <g id="patch_9">
    <path clip-path="url(#p4868bb8304)" d="M 316.967125 196.699035 
L 380.097236 196.699035 
L 380.097236 209.390875 
L 316.967125 209.390875 
z
" style="fill:#9ba1b8;"/>
   </g>
   <g id="patch_10">
    <path clip-path="url(#p4868bb8304)" d="M 316.967125 176.709387 
L 380.097236 176.709387 
L 380.097236 189.401227 
L 316.967125 189.401227 
z
" style="fill:none;opacity:0;"/>
   </g>
   <g id="patch_11">
    <path clip-path="url(#p4868bb8304)" d="z
" style="fill:#343866;"/>
   </g>
   <g id="line2d_13">
    <path clip-path="url(#p4868bb8304)" d="M 0 0 
" style="fill:none;stroke:#424242;stroke-linecap:square;stroke-width:2.7;"/>
   </g>
   <g id="line2d_14">
    <path clip-path="url(#p4868bb8304)" d="M 0 0 
" style="fill:none;stroke:#424242;stroke-linecap:square;stroke-width:2.7;"/>
   </g>
   <g id="line2d_15">
    <path clip-path="url(#p4868bb8304)" d="M 0 0 
" style="fill:none;stroke:#424242;stroke-linecap:square;stroke-width:2.7;"/>
   </g>
   <g id="line2d_16">
    <path clip-path="url(#p4868bb8304)" d="M 0 0 
" style="fill:none;stroke:#424242;stroke-linecap:square;stroke-width:2.7;"/>
   </g>
   <g id="text_9">
    <!--  26% -->
    <g style="fill:#969ebd;" transform="translate(271.7833 209.390875)scale(0.12 -0.12)">
     <use xlink:href="#DejaVuSans-20"/>
     <use x="31.787109" xlink:href="#DejaVuSans-32"/>
     <use x="95.410156" xlink:href="#DejaVuSans-36"/>
     <use x="159.033203" xlink:href="#DejaVuSans-25"/>
    </g>
   </g>
   <g id="text_10">
    <!-- Durchschnitt AllgemeinmedizinerIn, -->
    <defs>
     <path d="M 34.1875 63.1875 
L 20.796875 26.90625 
L 47.609375 26.90625 
z
M 28.609375 72.90625 
L 39.796875 72.90625 
L 67.578125 0 
L 57.328125 0 
L 50.6875 18.703125 
L 17.828125 18.703125 
L 11.1875 0 
L 0.78125 0 
z
" id="DejaVuSans-41"/>
     <path d="M 9.421875 75.984375 
L 18.40625 75.984375 
L 18.40625 0 
L 9.421875 0 
z
" id="DejaVuSans-6c"/>
     <path d="M 45.40625 27.984375 
Q 45.40625 37.75 41.375 43.109375 
Q 37.359375 48.484375 30.078125 48.484375 
Q 22.859375 48.484375 18.828125 43.109375 
Q 14.796875 37.75 14.796875 27.984375 
Q 14.796875 18.265625 18.828125 12.890625 
Q 22.859375 7.515625 30.078125 7.515625 
Q 37.359375 7.515625 41.375 12.890625 
Q 45.40625 18.265625 45.40625 27.984375 
z
M 54.390625 6.78125 
Q 54.390625 -7.171875 48.1875 -13.984375 
Q 42 -20.796875 29.203125 -20.796875 
Q 24.46875 -20.796875 20.265625 -20.09375 
Q 16.0625 -19.390625 12.109375 -17.921875 
L 12.109375 -9.1875 
Q 16.0625 -11.328125 19.921875 -12.34375 
Q 23.78125 -13.375 27.78125 -13.375 
Q 36.625 -13.375 41.015625 -8.765625 
Q 45.40625 -4.15625 45.40625 5.171875 
L 45.40625 9.625 
Q 42.625 4.78125 38.28125 2.390625 
Q 33.9375 0 27.875 0 
Q 17.828125 0 11.671875 7.65625 
Q 5.515625 15.328125 5.515625 27.984375 
Q 5.515625 40.671875 11.671875 48.328125 
Q 17.828125 56 27.875 56 
Q 33.9375 56 38.28125 53.609375 
Q 42.625 51.21875 45.40625 46.390625 
L 45.40625 54.6875 
L 54.390625 54.6875 
z
" id="DejaVuSans-67"/>
     <path d="M 52 44.1875 
Q 55.375 50.25 60.0625 53.125 
Q 64.75 56 71.09375 56 
Q 79.640625 56 84.28125 50.015625 
Q 88.921875 44.046875 88.921875 33.015625 
L 88.921875 0 
L 79.890625 0 
L 79.890625 32.71875 
Q 79.890625 40.578125 77.09375 44.375 
Q 74.3125 48.1875 68.609375 48.1875 
Q 61.625 48.1875 57.5625 43.546875 
Q 53.515625 38.921875 53.515625 30.90625 
L 53.515625 0 
L 44.484375 0 
L 44.484375 32.71875 
Q 44.484375 40.625 41.703125 44.40625 
Q 38.921875 48.1875 33.109375 48.1875 
Q 26.21875 48.1875 22.15625 43.53125 
Q 18.109375 38.875 18.109375 30.90625 
L 18.109375 0 
L 9.078125 0 
L 9.078125 54.6875 
L 18.109375 54.6875 
L 18.109375 46.1875 
Q 21.1875 51.21875 25.484375 53.609375 
Q 29.78125 56 35.6875 56 
Q 41.65625 56 45.828125 52.96875 
Q 50 49.953125 52 44.1875 
z
" id="DejaVuSans-6d"/>
     <path d="M 45.40625 46.390625 
L 45.40625 75.984375 
L 54.390625 75.984375 
L 54.390625 0 
L 45.40625 0 
L 45.40625 8.203125 
Q 42.578125 3.328125 38.25 0.953125 
Q 33.9375 -1.421875 27.875 -1.421875 
Q 17.96875 -1.421875 11.734375 6.484375 
Q 5.515625 14.40625 5.515625 27.296875 
Q 5.515625 40.1875 11.734375 48.09375 
Q 17.96875 56 27.875 56 
Q 33.9375 56 38.25 53.625 
Q 42.578125 51.265625 45.40625 46.390625 
z
M 14.796875 27.296875 
Q 14.796875 17.390625 18.875 11.75 
Q 22.953125 6.109375 30.078125 6.109375 
Q 37.203125 6.109375 41.296875 11.75 
Q 45.40625 17.390625 45.40625 27.296875 
Q 45.40625 37.203125 41.296875 42.84375 
Q 37.203125 48.484375 30.078125 48.484375 
Q 22.953125 48.484375 18.875 42.84375 
Q 14.796875 37.203125 14.796875 27.296875 
z
" id="DejaVuSans-64"/>
     <path d="M 5.515625 54.6875 
L 48.1875 54.6875 
L 48.1875 46.484375 
L 14.40625 7.171875 
L 48.1875 7.171875 
L 48.1875 0 
L 4.296875 0 
L 4.296875 8.203125 
L 38.09375 47.515625 
L 5.515625 47.515625 
z
" id="DejaVuSans-7a"/>
     <path d="M 9.8125 72.90625 
L 19.671875 72.90625 
L 19.671875 0 
L 9.8125 0 
z
" id="DejaVuSans-49"/>
     <path d="M 11.71875 12.40625 
L 22.015625 12.40625 
L 22.015625 4 
L 14.015625 -11.625 
L 7.71875 -11.625 
L 11.71875 4 
z
" id="DejaVuSans-2c"/>
    </defs>
    <g style="fill:#969ebd;" transform="translate(52.95375 195.9535)scale(0.12 -0.12)">
     <use xlink:href="#DejaVuSans-44"/>
     <use x="77.001953" xlink:href="#DejaVuSans-75"/>
     <use x="140.380859" xlink:href="#DejaVuSans-72"/>
     <use x="181.462891" xlink:href="#DejaVuSans-63"/>
     <use x="236.443359" xlink:href="#DejaVuSans-68"/>
     <use x="299.822266" xlink:href="#DejaVuSans-73"/>
     <use x="351.921875" xlink:href="#DejaVuSans-63"/>
     <use x="406.902344" xlink:href="#DejaVuSans-68"/>
     <use x="470.28125" xlink:href="#DejaVuSans-6e"/>
     <use x="533.660156" xlink:href="#DejaVuSans-69"/>
     <use x="561.443359" xlink:href="#DejaVuSans-74"/>
     <use x="600.652344" xlink:href="#DejaVuSans-74"/>
     <use x="639.861328" xlink:href="#DejaVuSans-20"/>
     <use x="671.648438" xlink:href="#DejaVuSans-41"/>
     <use x="740.056641" xlink:href="#DejaVuSans-6c"/>
     <use x="767.839844" xlink:href="#DejaVuSans-6c"/>
     <use x="795.623047" xlink:href="#DejaVuSans-67"/>
     <use x="859.099609" xlink:href="#DejaVuSans-65"/>
     <use x="920.623047" xlink:href="#DejaVuSans-6d"/>
     <use x="1018.035156" xlink:href="#DejaVuSans-65"/>
     <use x="1079.558594" xlink:href="#DejaVuSans-69"/>
     <use x="1107.341797" xlink:href="#DejaVuSans-6e"/>
     <use x="1170.720703" xlink:href="#DejaVuSans-6d"/>
     <use x="1268.132812" xlink:href="#DejaVuSans-65"/>
     <use x="1329.65625" xlink:href="#DejaVuSans-64"/>
     <use x="1393.132812" xlink:href="#DejaVuSans-69"/>
     <use x="1420.916016" xlink:href="#DejaVuSans-7a"/>
     <use x="1473.40625" xlink:href="#DejaVuSans-69"/>
     <use x="1501.189453" xlink:href="#DejaVuSans-6e"/>
     <use x="1564.568359" xlink:href="#DejaVuSans-65"/>
     <use x="1626.091797" xlink:href="#DejaVuSans-72"/>
     <use x="1667.205078" xlink:href="#DejaVuSans-49"/>
     <use x="1696.697266" xlink:href="#DejaVuSans-6e"/>
     <use x="1760.076172" xlink:href="#DejaVuSans-2c"/>
    </g>
    <!-- Gesundheits- und KrankenpflegerIn -->
    <defs>
     <path d="M 59.515625 10.40625 
L 59.515625 29.984375 
L 43.40625 29.984375 
L 43.40625 38.09375 
L 69.28125 38.09375 
L 69.28125 6.78125 
Q 63.578125 2.734375 56.6875 0.65625 
Q 49.8125 -1.421875 42 -1.421875 
Q 24.90625 -1.421875 15.25 8.5625 
Q 5.609375 18.5625 5.609375 36.375 
Q 5.609375 54.25 15.25 64.234375 
Q 24.90625 74.21875 42 74.21875 
Q 49.125 74.21875 55.546875 72.453125 
Q 61.96875 70.703125 67.390625 67.28125 
L 67.390625 56.78125 
Q 61.921875 61.421875 55.765625 63.765625 
Q 49.609375 66.109375 42.828125 66.109375 
Q 29.4375 66.109375 22.71875 58.640625 
Q 16.015625 51.171875 16.015625 36.375 
Q 16.015625 21.625 22.71875 14.15625 
Q 29.4375 6.6875 42.828125 6.6875 
Q 48.046875 6.6875 52.140625 7.59375 
Q 56.25 8.5 59.515625 10.40625 
z
" id="DejaVuSans-47"/>
     <path d="M 4.890625 31.390625 
L 31.203125 31.390625 
L 31.203125 23.390625 
L 4.890625 23.390625 
z
" id="DejaVuSans-2d"/>
     <path d="M 9.8125 72.90625 
L 19.671875 72.90625 
L 19.671875 42.09375 
L 52.390625 72.90625 
L 65.09375 72.90625 
L 28.90625 38.921875 
L 67.671875 0 
L 54.6875 0 
L 19.671875 35.109375 
L 19.671875 0 
L 9.8125 0 
z
" id="DejaVuSans-4b"/>
     <path d="M 18.109375 8.203125 
L 18.109375 -20.796875 
L 9.078125 -20.796875 
L 9.078125 54.6875 
L 18.109375 54.6875 
L 18.109375 46.390625 
Q 20.953125 51.265625 25.265625 53.625 
Q 29.59375 56 35.59375 56 
Q 45.5625 56 51.78125 48.09375 
Q 58.015625 40.1875 58.015625 27.296875 
Q 58.015625 14.40625 51.78125 6.484375 
Q 45.5625 -1.421875 35.59375 -1.421875 
Q 29.59375 -1.421875 25.265625 0.953125 
Q 20.953125 3.328125 18.109375 8.203125 
z
M 48.6875 27.296875 
Q 48.6875 37.203125 44.609375 42.84375 
Q 40.53125 48.484375 33.40625 48.484375 
Q 26.265625 48.484375 22.1875 42.84375 
Q 18.109375 37.203125 18.109375 27.296875 
Q 18.109375 17.390625 22.1875 11.75 
Q 26.265625 6.109375 33.40625 6.109375 
Q 40.53125 6.109375 44.609375 11.75 
Q 48.6875 17.390625 48.6875 27.296875 
z
" id="DejaVuSans-70"/>
     <path d="M 37.109375 75.984375 
L 37.109375 68.5 
L 28.515625 68.5 
Q 23.6875 68.5 21.796875 66.546875 
Q 19.921875 64.59375 19.921875 59.515625 
L 19.921875 54.6875 
L 34.71875 54.6875 
L 34.71875 47.703125 
L 19.921875 47.703125 
L 19.921875 0 
L 10.890625 0 
L 10.890625 47.703125 
L 2.296875 47.703125 
L 2.296875 54.6875 
L 10.890625 54.6875 
L 10.890625 58.5 
Q 10.890625 67.625 15.140625 71.796875 
Q 19.390625 75.984375 28.609375 75.984375 
z
" id="DejaVuSans-66"/>
    </defs>
    <g style="fill:#969ebd;" transform="translate(54.815625 209.390875)scale(0.12 -0.12)">
     <use xlink:href="#DejaVuSans-47"/>
     <use x="77.490234" xlink:href="#DejaVuSans-65"/>
     <use x="139.013672" xlink:href="#DejaVuSans-73"/>
     <use x="191.113281" xlink:href="#DejaVuSans-75"/>
     <use x="254.492188" xlink:href="#DejaVuSans-6e"/>
     <use x="317.871094" xlink:href="#DejaVuSans-64"/>
     <use x="381.347656" xlink:href="#DejaVuSans-68"/>
     <use x="444.726562" xlink:href="#DejaVuSans-65"/>
     <use x="506.25" xlink:href="#DejaVuSans-69"/>
     <use x="534.033203" xlink:href="#DejaVuSans-74"/>
     <use x="573.242188" xlink:href="#DejaVuSans-73"/>
     <use x="625.341797" xlink:href="#DejaVuSans-2d"/>
     <use x="661.425781" xlink:href="#DejaVuSans-20"/>
     <use x="693.212891" xlink:href="#DejaVuSans-75"/>
     <use x="756.591797" xlink:href="#DejaVuSans-6e"/>
     <use x="819.970703" xlink:href="#DejaVuSans-64"/>
     <use x="883.447266" xlink:href="#DejaVuSans-20"/>
     <use x="915.234375" xlink:href="#DejaVuSans-4b"/>
     <use x="980.810547" xlink:href="#DejaVuSans-72"/>
     <use x="1021.923828" xlink:href="#DejaVuSans-61"/>
     <use x="1083.203125" xlink:href="#DejaVuSans-6e"/>
     <use x="1146.582031" xlink:href="#DejaVuSans-6b"/>
     <use x="1204.445312" xlink:href="#DejaVuSans-65"/>
     <use x="1265.96875" xlink:href="#DejaVuSans-6e"/>
     <use x="1329.347656" xlink:href="#DejaVuSans-70"/>
     <use x="1392.824219" xlink:href="#DejaVuSans-66"/>
     <use x="1428.029297" xlink:href="#DejaVuSans-6c"/>
     <use x="1455.8125" xlink:href="#DejaVuSans-65"/>
     <use x="1517.335938" xlink:href="#DejaVuSans-67"/>
     <use x="1580.8125" xlink:href="#DejaVuSans-65"/>
     <use x="1642.335938" xlink:href="#DejaVuSans-72"/>
     <use x="1683.449219" xlink:href="#DejaVuSans-49"/>
     <use x="1712.941406" xlink:href="#DejaVuSans-6e"/>
    </g>
   </g>
  </g>
  <g id="axes_3">
   <g id="patch_12">
    <path clip-path="url(#pec21d156aa)" d="z
" style="fill:#9ba1b8;"/>
   </g>
   <g id="patch_13">
    <path clip-path="url(#pec21d156aa)" d="M 316.967125 260.158235 
L 375.69281 260.158235 
L 375.69281 272.850075 
L 316.967125 272.850075 
z
" style="fill:#9ba1b8;"/>
   </g>
   <g id="patch_14">
    <path clip-path="url(#pec21d156aa)" d="M 316.967125 240.168587 
L 375.69281 240.168587 
L 375.69281 252.860427 
L 316.967125 252.860427 
z
" style="fill:none;opacity:0;"/>
   </g>
   <g id="patch_15">
    <path clip-path="url(#pec21d156aa)" d="z
" style="fill:#343866;"/>
   </g>
   <g id="line2d_17">
    <path clip-path="url(#pec21d156aa)" d="M 0 0 
" style="fill:none;stroke:#424242;stroke-linecap:square;stroke-width:2.7;"/>
   </g>
   <g id="line2d_18">
    <path clip-path="url(#pec21d156aa)" d="M 0 0 
" style="fill:none;stroke:#424242;stroke-linecap:square;stroke-width:2.7;"/>
   </g>
   <g id="line2d_19">
    <path clip-path="url(#pec21d156aa)" d="M 0 0 
" style="fill:none;stroke:#424242;stroke-linecap:square;stroke-width:2.7;"/>
   </g>
   <g id="line2d_20">
    <path clip-path="url(#pec21d156aa)" d="M 0 0 
" style="fill:none;stroke:#424242;stroke-linecap:square;stroke-width:2.7;"/>
   </g>
   <g id="text_11">
    <!--  24% -->
    <g style="fill:#969ebd;" transform="translate(271.7833 272.850075)scale(0.12 -0.12)">
     <use xlink:href="#DejaVuSans-20"/>
     <use x="31.787109" xlink:href="#DejaVuSans-32"/>
     <use x="95.410156" xlink:href="#DejaVuSans-34"/>
     <use x="159.033203" xlink:href="#DejaVuSans-25"/>
    </g>
   </g>
   <g id="text_12">
    <!-- Durchschnitt PatientIn, Familienangehörige -->
    <defs>
     <path d="M 19.671875 64.796875 
L 19.671875 37.40625 
L 32.078125 37.40625 
Q 38.96875 37.40625 42.71875 40.96875 
Q 46.484375 44.53125 46.484375 51.125 
Q 46.484375 57.671875 42.71875 61.234375 
Q 38.96875 64.796875 32.078125 64.796875 
z
M 9.8125 72.90625 
L 32.078125 72.90625 
Q 44.34375 72.90625 50.609375 67.359375 
Q 56.890625 61.8125 56.890625 51.125 
Q 56.890625 40.328125 50.609375 34.8125 
Q 44.34375 29.296875 32.078125 29.296875 
L 19.671875 29.296875 
L 19.671875 0 
L 9.8125 0 
z
" id="DejaVuSans-50"/>
     <path d="M 9.8125 72.90625 
L 51.703125 72.90625 
L 51.703125 64.59375 
L 19.671875 64.59375 
L 19.671875 43.109375 
L 48.578125 43.109375 
L 48.578125 34.8125 
L 19.671875 34.8125 
L 19.671875 0 
L 9.8125 0 
z
" id="DejaVuSans-46"/>
     <path d="M 30.609375 48.390625 
Q 23.390625 48.390625 19.1875 42.75 
Q 14.984375 37.109375 14.984375 27.296875 
Q 14.984375 17.484375 19.15625 11.84375 
Q 23.34375 6.203125 30.609375 6.203125 
Q 37.796875 6.203125 41.984375 11.859375 
Q 46.1875 17.53125 46.1875 27.296875 
Q 46.1875 37.015625 41.984375 42.703125 
Q 37.796875 48.390625 30.609375 48.390625 
z
M 30.609375 56 
Q 42.328125 56 49.015625 48.375 
Q 55.71875 40.765625 55.71875 27.296875 
Q 55.71875 13.875 49.015625 6.21875 
Q 42.328125 -1.421875 30.609375 -1.421875 
Q 18.84375 -1.421875 12.171875 6.21875 
Q 5.515625 13.875 5.515625 27.296875 
Q 5.515625 40.765625 12.171875 48.375 
Q 18.84375 56 30.609375 56 
z
M 35.21875 75.78125 
L 45.125 75.78125 
L 45.125 65.921875 
L 35.21875 65.921875 
z
M 16.125 75.78125 
L 26.03125 75.78125 
L 26.03125 65.921875 
L 16.125 65.921875 
z
" id="DejaVuSans-f6"/>
    </defs>
    <g style="fill:#969ebd;" transform="translate(7.2 272.850075)scale(0.12 -0.12)">
     <use xlink:href="#DejaVuSans-44"/>
     <use x="77.001953" xlink:href="#DejaVuSans-75"/>
     <use x="140.380859" xlink:href="#DejaVuSans-72"/>
     <use x="181.462891" xlink:href="#DejaVuSans-63"/>
     <use x="236.443359" xlink:href="#DejaVuSans-68"/>
     <use x="299.822266" xlink:href="#DejaVuSans-73"/>
     <use x="351.921875" xlink:href="#DejaVuSans-63"/>
     <use x="406.902344" xlink:href="#DejaVuSans-68"/>
     <use x="470.28125" xlink:href="#DejaVuSans-6e"/>
     <use x="533.660156" xlink:href="#DejaVuSans-69"/>
     <use x="561.443359" xlink:href="#DejaVuSans-74"/>
     <use x="600.652344" xlink:href="#DejaVuSans-74"/>
     <use x="639.861328" xlink:href="#DejaVuSans-20"/>
     <use x="671.648438" xlink:href="#DejaVuSans-50"/>
     <use x="731.888672" xlink:href="#DejaVuSans-61"/>
     <use x="793.167969" xlink:href="#DejaVuSans-74"/>
     <use x="832.376953" xlink:href="#DejaVuSans-69"/>
     <use x="860.160156" xlink:href="#DejaVuSans-65"/>
     <use x="921.683594" xlink:href="#DejaVuSans-6e"/>
     <use x="985.0625" xlink:href="#DejaVuSans-74"/>
     <use x="1024.271484" xlink:href="#DejaVuSans-49"/>
     <use x="1053.763672" xlink:href="#DejaVuSans-6e"/>
     <use x="1117.142578" xlink:href="#DejaVuSans-2c"/>
     <use x="1148.929688" xlink:href="#DejaVuSans-20"/>
     <use x="1180.716797" xlink:href="#DejaVuSans-46"/>
     <use x="1238.095703" xlink:href="#DejaVuSans-61"/>
     <use x="1299.375" xlink:href="#DejaVuSans-6d"/>
     <use x="1396.787109" xlink:href="#DejaVuSans-69"/>
     <use x="1424.570312" xlink:href="#DejaVuSans-6c"/>
     <use x="1452.353516" xlink:href="#DejaVuSans-69"/>
     <use x="1480.136719" xlink:href="#DejaVuSans-65"/>
     <use x="1541.660156" xlink:href="#DejaVuSans-6e"/>
     <use x="1605.039062" xlink:href="#DejaVuSans-61"/>
     <use x="1666.318359" xlink:href="#DejaVuSans-6e"/>
     <use x="1729.697266" xlink:href="#DejaVuSans-67"/>
     <use x="1793.173828" xlink:href="#DejaVuSans-65"/>
     <use x="1854.697266" xlink:href="#DejaVuSans-68"/>
     <use x="1918.076172" xlink:href="#DejaVuSans-f6"/>
     <use x="1979.257812" xlink:href="#DejaVuSans-72"/>
     <use x="2020.371094" xlink:href="#DejaVuSans-69"/>
     <use x="2048.154297" xlink:href="#DejaVuSans-67"/>
     <use x="2111.630859" xlink:href="#DejaVuSans-65"/>
    </g>
   </g>
  </g>
  <g id="axes_4">
   <g id="patch_16">
    <path clip-path="url(#p8998479a85)" d="z
" style="fill:#9ba1b8;"/>
   </g>
   <g id="patch_17">
    <path clip-path="url(#p8998479a85)" d="M 316.967125 323.617435 
L 337.31138 323.617435 
L 337.31138 336.309275 
L 316.967125 336.309275 
z
" style="fill:#9ba1b8;"/>
   </g>
   <g id="patch_18">
    <path clip-path="url(#p8998479a85)" d="M 316.967125 303.627787 
L 337.31138 303.627787 
L 337.31138 316.319627 
L 316.967125 316.319627 
z
" style="fill:none;opacity:0;"/>
   </g>
   <g id="patch_19">
    <path clip-path="url(#p8998479a85)" d="z
" style="fill:#343866;"/>
   </g>
   <g id="line2d_21">
    <path clip-path="url(#p8998479a85)" d="M 0 0 
" style="fill:none;stroke:#424242;stroke-linecap:square;stroke-width:2.7;"/>
   </g>
   <g id="line2d_22">
    <path clip-path="url(#p8998479a85)" d="M 0 0 
" style="fill:none;stroke:#424242;stroke-linecap:square;stroke-width:2.7;"/>
   </g>
   <g id="line2d_23">
    <path clip-path="url(#p8998479a85)" d="M 0 0 
" style="fill:none;stroke:#424242;stroke-linecap:square;stroke-width:2.7;"/>
   </g>
   <g id="line2d_24">
    <path clip-path="url(#p8998479a85)" d="M 0 0 
" style="fill:none;stroke:#424242;stroke-linecap:square;stroke-width:2.7;"/>
   </g>
   <g id="text_13">
    <!--   8% -->
    <g style="fill:#969ebd;" transform="translate(275.60455 336.309275)scale(0.12 -0.12)">
     <use xlink:href="#DejaVuSans-20"/>
     <use x="31.787109" xlink:href="#DejaVuSans-20"/>
     <use x="63.574219" xlink:href="#DejaVuSans-38"/>
     <use x="127.197266" xlink:href="#DejaVuSans-25"/>
    </g>
   </g>
   <g id="text_14">
    <!-- Durchschnitt PsychologIn, -->
    <defs>
     <path d="M 32.171875 -5.078125 
Q 28.375 -14.84375 24.75 -17.8125 
Q 21.140625 -20.796875 15.09375 -20.796875 
L 7.90625 -20.796875 
L 7.90625 -13.28125 
L 13.1875 -13.28125 
Q 16.890625 -13.28125 18.9375 -11.515625 
Q 21 -9.765625 23.484375 -3.21875 
L 25.09375 0.875 
L 2.984375 54.6875 
L 12.5 54.6875 
L 29.59375 11.921875 
L 46.6875 54.6875 
L 56.203125 54.6875 
z
" id="DejaVuSans-79"/>
     <path d="M 30.609375 48.390625 
Q 23.390625 48.390625 19.1875 42.75 
Q 14.984375 37.109375 14.984375 27.296875 
Q 14.984375 17.484375 19.15625 11.84375 
Q 23.34375 6.203125 30.609375 6.203125 
Q 37.796875 6.203125 41.984375 11.859375 
Q 46.1875 17.53125 46.1875 27.296875 
Q 46.1875 37.015625 41.984375 42.703125 
Q 37.796875 48.390625 30.609375 48.390625 
z
M 30.609375 56 
Q 42.328125 56 49.015625 48.375 
Q 55.71875 40.765625 55.71875 27.296875 
Q 55.71875 13.875 49.015625 6.21875 
Q 42.328125 -1.421875 30.609375 -1.421875 
Q 18.84375 -1.421875 12.171875 6.21875 
Q 5.515625 13.875 5.515625 27.296875 
Q 5.515625 40.765625 12.171875 48.375 
Q 18.84375 56 30.609375 56 
z
" id="DejaVuSans-6f"/>
    </defs>
    <g style="fill:#969ebd;" transform="translate(111.99375 322.8719)scale(0.12 -0.12)">
     <use xlink:href="#DejaVuSans-44"/>
     <use x="77.001953" xlink:href="#DejaVuSans-75"/>
     <use x="140.380859" xlink:href="#DejaVuSans-72"/>
     <use x="181.462891" xlink:href="#DejaVuSans-63"/>
     <use x="236.443359" xlink:href="#DejaVuSans-68"/>
     <use x="299.822266" xlink:href="#DejaVuSans-73"/>
     <use x="351.921875" xlink:href="#DejaVuSans-63"/>
     <use x="406.902344" xlink:href="#DejaVuSans-68"/>
     <use x="470.28125" xlink:href="#DejaVuSans-6e"/>
     <use x="533.660156" xlink:href="#DejaVuSans-69"/>
     <use x="561.443359" xlink:href="#DejaVuSans-74"/>
     <use x="600.652344" xlink:href="#DejaVuSans-74"/>
     <use x="639.861328" xlink:href="#DejaVuSans-20"/>
     <use x="671.648438" xlink:href="#DejaVuSans-50"/>
     <use x="731.935547" xlink:href="#DejaVuSans-73"/>
     <use x="784.035156" xlink:href="#DejaVuSans-79"/>
     <use x="843.214844" xlink:href="#DejaVuSans-63"/>
     <use x="898.195312" xlink:href="#DejaVuSans-68"/>
     <use x="961.574219" xlink:href="#DejaVuSans-6f"/>
     <use x="1022.755859" xlink:href="#DejaVuSans-6c"/>
     <use x="1050.539062" xlink:href="#DejaVuSans-6f"/>
     <use x="1111.720703" xlink:href="#DejaVuSans-67"/>
     <use x="1175.197266" xlink:href="#DejaVuSans-49"/>
     <use x="1204.689453" xlink:href="#DejaVuSans-6e"/>
     <use x="1268.068359" xlink:href="#DejaVuSans-2c"/>
    </g>
    <!-- PsychiaterIn, PsychotherapeutIn -->
    <g style="fill:#969ebd;" transform="translate(74.131875 336.309275)scale(0.12 -0.12)">
     <use xlink:href="#DejaVuSans-50"/>
     <use x="60.287109" xlink:href="#DejaVuSans-73"/>
     <use x="112.386719" xlink:href="#DejaVuSans-79"/>
     <use x="171.566406" xlink:href="#DejaVuSans-63"/>
     <use x="226.546875" xlink:href="#DejaVuSans-68"/>
     <use x="289.925781" xlink:href="#DejaVuSans-69"/>
     <use x="317.708984" xlink:href="#DejaVuSans-61"/>
     <use x="378.988281" xlink:href="#DejaVuSans-74"/>
     <use x="418.197266" xlink:href="#DejaVuSans-65"/>
     <use x="479.720703" xlink:href="#DejaVuSans-72"/>
     <use x="520.833984" xlink:href="#DejaVuSans-49"/>
     <use x="550.326172" xlink:href="#DejaVuSans-6e"/>
     <use x="613.705078" xlink:href="#DejaVuSans-2c"/>
     <use x="645.492188" xlink:href="#DejaVuSans-20"/>
     <use x="677.279297" xlink:href="#DejaVuSans-50"/>
     <use x="737.566406" xlink:href="#DejaVuSans-73"/>
     <use x="789.666016" xlink:href="#DejaVuSans-79"/>
     <use x="848.845703" xlink:href="#DejaVuSans-63"/>
     <use x="903.826172" xlink:href="#DejaVuSans-68"/>
     <use x="967.205078" xlink:href="#DejaVuSans-6f"/>
     <use x="1028.386719" xlink:href="#DejaVuSans-74"/>
     <use x="1067.595703" xlink:href="#DejaVuSans-68"/>
     <use x="1130.974609" xlink:href="#DejaVuSans-65"/>
     <use x="1192.498047" xlink:href="#DejaVuSans-72"/>
     <use x="1233.611328" xlink:href="#DejaVuSans-61"/>
     <use x="1294.890625" xlink:href="#DejaVuSans-70"/>
     <use x="1358.367188" xlink:href="#DejaVuSans-65"/>
     <use x="1419.890625" xlink:href="#DejaVuSans-75"/>
     <use x="1483.269531" xlink:href="#DejaVuSans-74"/>
     <use x="1522.478516" xlink:href="#DejaVuSans-49"/>
     <use x="1551.970703" xlink:href="#DejaVuSans-6e"/>
    </g>
   </g>
  </g>
  <g id="axes_5">
   <g id="patch_20">
    <path clip-path="url(#p4b00bb970e)" d="z
" style="fill:#9ba1b8;"/>
   </g>
   <g id="patch_21">
    <path clip-path="url(#p4b00bb970e)" d="M 316.967125 387.076635 
L 319.693675 387.076635 
L 319.693675 399.768475 
L 316.967125 399.768475 
z
" style="fill:#9ba1b8;"/>
   </g>
   <g id="patch_22">
    <path clip-path="url(#p4b00bb970e)" d="M 316.967125 367.086987 
L 319.693675 367.086987 
L 319.693675 379.778827 
L 316.967125 379.778827 
z
" style="fill:none;opacity:0;"/>
   </g>
   <g id="patch_23">
    <path clip-path="url(#p4b00bb970e)" d="z
" style="fill:#343866;"/>
   </g>
   <g id="line2d_25">
    <path clip-path="url(#p4b00bb970e)" d="M 0 0 
" style="fill:none;stroke:#424242;stroke-linecap:square;stroke-width:2.7;"/>
   </g>
   <g id="line2d_26">
    <path clip-path="url(#p4b00bb970e)" d="M 0 0 
" style="fill:none;stroke:#424242;stroke-linecap:square;stroke-width:2.7;"/>
   </g>
   <g id="line2d_27">
    <path clip-path="url(#p4b00bb970e)" d="M 0 0 
" style="fill:none;stroke:#424242;stroke-linecap:square;stroke-width:2.7;"/>
   </g>
   <g id="line2d_28">
    <path clip-path="url(#p4b00bb970e)" d="M 0 0 
" style="fill:none;stroke:#424242;stroke-linecap:square;stroke-width:2.7;"/>
   </g>
   <g id="text_15">
    <!--   1% -->
    <g style="fill:#969ebd;" transform="translate(275.60455 399.768475)scale(0.12 -0.12)">
     <use xlink:href="#DejaVuSans-20"/>
     <use x="31.787109" xlink:href="#DejaVuSans-20"/>
     <use x="63.574219" xlink:href="#DejaVuSans-31"/>
     <use x="127.197266" xlink:href="#DejaVuSans-25"/>
    </g>
   </g>
   <g id="text_16">
    <!-- Durchschnitt Andere -->
    <g style="fill:#969ebd;" transform="translate(144.25125 399.768475)scale(0.12 -0.12)">
     <use xlink:href="#DejaVuSans-44"/>
     <use x="77.001953" xlink:href="#DejaVuSans-75"/>
     <use x="140.380859" xlink:href="#DejaVuSans-72"/>
     <use x="181.462891" xlink:href="#DejaVuSans-63"/>
     <use x="236.443359" xlink:href="#DejaVuSans-68"/>
     <use x="299.822266" xlink:href="#DejaVuSans-73"/>
     <use x="351.921875" xlink:href="#DejaVuSans-63"/>
     <use x="406.902344" xlink:href="#DejaVuSans-68"/>
     <use x="470.28125" xlink:href="#DejaVuSans-6e"/>
     <use x="533.660156" xlink:href="#DejaVuSans-69"/>
     <use x="561.443359" xlink:href="#DejaVuSans-74"/>
     <use x="600.652344" xlink:href="#DejaVuSans-74"/>
     <use x="639.861328" xlink:href="#DejaVuSans-20"/>
     <use x="671.648438" xlink:href="#DejaVuSans-41"/>
     <use x="740.056641" xlink:href="#DejaVuSans-6e"/>
     <use x="803.435547" xlink:href="#DejaVuSans-64"/>
     <use x="866.912109" xlink:href="#DejaVuSans-65"/>
     <use x="928.435547" xlink:href="#DejaVuSans-72"/>
     <use x="969.517578" xlink:href="#DejaVuSans-65"/>
    </g>
   </g>
   <g id="legend_1">
    <g id="text_17">
     <!-- Verteilung -->
     <defs>
      <path d="M 28.609375 0 
L 0.78125 72.90625 
L 11.078125 72.90625 
L 34.1875 11.53125 
L 57.328125 72.90625 
L 67.578125 72.90625 
L 39.796875 0 
z
" id="DejaVuSans-56"/>
     </defs>
     <g transform="translate(364.584687 429.619413)scale(0.1 -0.1)">
      <use xlink:href="#DejaVuSans-56"/>
      <use x="68.298828" xlink:href="#DejaVuSans-65"/>
      <use x="129.822266" xlink:href="#DejaVuSans-72"/>
      <use x="170.935547" xlink:href="#DejaVuSans-74"/>
      <use x="210.144531" xlink:href="#DejaVuSans-65"/>
      <use x="271.667969" xlink:href="#DejaVuSans-69"/>
      <use x="299.451172" xlink:href="#DejaVuSans-6c"/>
      <use x="327.234375" xlink:href="#DejaVuSans-75"/>
      <use x="390.613281" xlink:href="#DejaVuSans-6e"/>
      <use x="453.992188" xlink:href="#DejaVuSans-67"/>
     </g>
    </g>
    <g id="patch_24">
     <path d="M 286.68875 441.77785 
L 302.68875 441.77785 
L 302.68875 436.17785 
L 286.68875 436.17785 
z
" style="fill:#9ba1b8;"/>
    </g>
    <g id="text_18">
     <!-- Durchschnitt -->
     <g transform="translate(309.08875 441.77785)scale(0.08 -0.08)">
      <use xlink:href="#DejaVuSans-44"/>
      <use x="77.001953" xlink:href="#DejaVuSans-75"/>
      <use x="140.380859" xlink:href="#DejaVuSans-72"/>
      <use x="181.462891" xlink:href="#DejaVuSans-63"/>
      <use x="236.443359" xlink:href="#DejaVuSans-68"/>
      <use x="299.822266" xlink:href="#DejaVuSans-73"/>
      <use x="351.921875" xlink:href="#DejaVuSans-63"/>
      <use x="406.902344" xlink:href="#DejaVuSans-68"/>
      <use x="470.28125" xlink:href="#DejaVuSans-6e"/>
      <use x="533.660156" xlink:href="#DejaVuSans-69"/>
      <use x="561.443359" xlink:href="#DejaVuSans-74"/>
      <use x="600.652344" xlink:href="#DejaVuSans-74"/>
     </g>
    </g>
    <g id="patch_25">
     <path d="M 376.275 441.77785 
L 392.275 441.77785 
L 392.275 436.17785 
L 376.275 436.17785 
z
" style="fill:none;opacity:0;"/>
    </g>
    <g id="text_19">
     <!-- unter dem Durchschnitt -->
     <g transform="translate(398.675 441.77785)scale(0.08 -0.08)">
      <use xlink:href="#DejaVuSans-75"/>
      <use x="63.378906" xlink:href="#DejaVuSans-6e"/>
      <use x="126.757812" xlink:href="#DejaVuSans-74"/>
      <use x="165.966797" xlink:href="#DejaVuSans-65"/>
      <use x="227.490234" xlink:href="#DejaVuSans-72"/>
      <use x="268.603516" xlink:href="#DejaVuSans-20"/>
      <use x="300.390625" xlink:href="#DejaVuSans-64"/>
      <use x="363.867188" xlink:href="#DejaVuSans-65"/>
      <use x="425.390625" xlink:href="#DejaVuSans-6d"/>
      <use x="522.802734" xlink:href="#DejaVuSans-20"/>
      <use x="554.589844" xlink:href="#DejaVuSans-44"/>
      <use x="631.591797" xlink:href="#DejaVuSans-75"/>
      <use x="694.970703" xlink:href="#DejaVuSans-72"/>
      <use x="736.052734" xlink:href="#DejaVuSans-63"/>
      <use x="791.033203" xlink:href="#DejaVuSans-68"/>
      <use x="854.412109" xlink:href="#DejaVuSans-73"/>
      <use x="906.511719" xlink:href="#DejaVuSans-63"/>
      <use x="961.492188" xlink:href="#DejaVuSans-68"/>
      <use x="1024.871094" xlink:href="#DejaVuSans-6e"/>
      <use x="1088.25" xlink:href="#DejaVuSans-69"/>
      <use x="1116.033203" xlink:href="#DejaVuSans-74"/>
      <use x="1155.242188" xlink:href="#DejaVuSans-74"/>
     </g>
    </g>
   </g>
  </g>
  <g id="text_20">
   <!-- BACKGROUND -->
   <defs>
    <path d="M 19.671875 34.8125 
L 19.671875 8.109375 
L 35.5 8.109375 
Q 43.453125 8.109375 47.28125 11.40625 
Q 51.125 14.703125 51.125 21.484375 
Q 51.125 28.328125 47.28125 31.5625 
Q 43.453125 34.8125 35.5 34.8125 
z
M 19.671875 64.796875 
L 19.671875 42.828125 
L 34.28125 42.828125 
Q 41.5 42.828125 45.03125 45.53125 
Q 48.578125 48.25 48.578125 53.8125 
Q 48.578125 59.328125 45.03125 62.0625 
Q 41.5 64.796875 34.28125 64.796875 
z
M 9.8125 72.90625 
L 35.015625 72.90625 
Q 46.296875 72.90625 52.390625 68.21875 
Q 58.5 63.53125 58.5 54.890625 
Q 58.5 48.1875 55.375 44.234375 
Q 52.25 40.28125 46.1875 39.3125 
Q 53.46875 37.75 57.5 32.78125 
Q 61.53125 27.828125 61.53125 20.40625 
Q 61.53125 10.640625 54.890625 5.3125 
Q 48.25 0 35.984375 0 
L 9.8125 0 
z
" id="DejaVuSans-42"/>
    <path d="M 64.40625 67.28125 
L 64.40625 56.890625 
Q 59.421875 61.53125 53.78125 63.8125 
Q 48.140625 66.109375 41.796875 66.109375 
Q 29.296875 66.109375 22.65625 58.46875 
Q 16.015625 50.828125 16.015625 36.375 
Q 16.015625 21.96875 22.65625 14.328125 
Q 29.296875 6.6875 41.796875 6.6875 
Q 48.140625 6.6875 53.78125 8.984375 
Q 59.421875 11.28125 64.40625 15.921875 
L 64.40625 5.609375 
Q 59.234375 2.09375 53.4375 0.328125 
Q 47.65625 -1.421875 41.21875 -1.421875 
Q 24.65625 -1.421875 15.125 8.703125 
Q 5.609375 18.84375 5.609375 36.375 
Q 5.609375 53.953125 15.125 64.078125 
Q 24.65625 74.21875 41.21875 74.21875 
Q 47.75 74.21875 53.53125 72.484375 
Q 59.328125 70.75 64.40625 67.28125 
z
" id="DejaVuSans-43"/>
    <path d="M 44.390625 34.1875 
Q 47.5625 33.109375 50.5625 29.59375 
Q 53.5625 26.078125 56.59375 19.921875 
L 66.609375 0 
L 56 0 
L 46.6875 18.703125 
Q 43.0625 26.03125 39.671875 28.421875 
Q 36.28125 30.8125 30.421875 30.8125 
L 19.671875 30.8125 
L 19.671875 0 
L 9.8125 0 
L 9.8125 72.90625 
L 32.078125 72.90625 
Q 44.578125 72.90625 50.734375 67.671875 
Q 56.890625 62.453125 56.890625 51.90625 
Q 56.890625 45.015625 53.6875 40.46875 
Q 50.484375 35.9375 44.390625 34.1875 
z
M 19.671875 64.796875 
L 19.671875 38.921875 
L 32.078125 38.921875 
Q 39.203125 38.921875 42.84375 42.21875 
Q 46.484375 45.515625 46.484375 51.90625 
Q 46.484375 58.296875 42.84375 61.546875 
Q 39.203125 64.796875 32.078125 64.796875 
z
" id="DejaVuSans-52"/>
    <path d="M 39.40625 66.21875 
Q 28.65625 66.21875 22.328125 58.203125 
Q 16.015625 50.203125 16.015625 36.375 
Q 16.015625 22.609375 22.328125 14.59375 
Q 28.65625 6.59375 39.40625 6.59375 
Q 50.140625 6.59375 56.421875 14.59375 
Q 62.703125 22.609375 62.703125 36.375 
Q 62.703125 50.203125 56.421875 58.203125 
Q 50.140625 66.21875 39.40625 66.21875 
z
M 39.40625 74.21875 
Q 54.734375 74.21875 63.90625 63.9375 
Q 73.09375 53.65625 73.09375 36.375 
Q 73.09375 19.140625 63.90625 8.859375 
Q 54.734375 -1.421875 39.40625 -1.421875 
Q 24.03125 -1.421875 14.8125 8.828125 
Q 5.609375 19.09375 5.609375 36.375 
Q 5.609375 53.65625 14.8125 63.9375 
Q 24.03125 74.21875 39.40625 74.21875 
z
" id="DejaVuSans-4f"/>
    <path d="M 9.8125 72.90625 
L 23.09375 72.90625 
L 55.421875 11.921875 
L 55.421875 72.90625 
L 64.984375 72.90625 
L 64.984375 0 
L 51.703125 0 
L 19.390625 60.984375 
L 19.390625 0 
L 9.8125 0 
z
" id="DejaVuSans-4e"/>
   </defs>
   <g transform="translate(113.032437 14.798437)scale(0.1 -0.1)">
    <use xlink:href="#DejaVuSans-42"/>
    <use x="68.603516" xlink:href="#DejaVuSans-41"/>
    <use x="136.996094" xlink:href="#DejaVuSans-43"/>
    <use x="206.820312" xlink:href="#DejaVuSans-4b"/>
    <use x="272.396484" xlink:href="#DejaVuSans-47"/>
    <use x="349.886719" xlink:href="#DejaVuSans-52"/>
    <use x="419.369141" xlink:href="#DejaVuSans-4f"/>
    <use x="498.080078" xlink:href="#DejaVuSans-55"/>
    <use x="571.273438" xlink:href="#DejaVuSans-4e"/>
    <use x="646.078125" xlink:href="#DejaVuSans-44"/>
   </g>
  </g>
 </g>
 <defs>
  <clipPath id="pe2df9d62ac">
   <rect height="63.4592" width="244.97" x="316.967125" y="101.616"/>
  </clipPath>
  <clipPath id="p4868bb8304">
   <rect height="63.4592" width="244.97" x="316.967125" y="165.0752"/>
  </clipPath>
  <clipPath id="pec21d156aa">
   <rect height="63.4592" width="244.97" x="316.967125" y="228.5344"/>
  </clipPath>
  <clipPath id="p8998479a85">
   <rect height="63.4592" width="244.97" x="316.967125" y="291.9936"/>
  </clipPath>
  <clipPath id="p4b00bb970e">
   <rect height="63.4592" width="244.97" x="316.967125" y="355.4528"/>
  </clipPath>
 </defs>
</svg>
