<?xml version="1.0" encoding="utf-8" standalone="no"?>
<!DOCTYPE svg PUBLIC "-//W3C//DTD SVG 1.1//EN"
  "http://www.w3.org/Graphics/SVG/1.1/DTD/svg11.dtd">
<!-- Created with matplotlib (http://matplotlib.org/) -->
<svg height="852pt" version="1.1" viewBox="0 0 510 852" width="510pt" xmlns="http://www.w3.org/2000/svg" xmlns:xlink="http://www.w3.org/1999/xlink">
 <defs>
  <style type="text/css">
*{stroke-linecap:butt;stroke-linejoin:round;}
  </style>
 </defs>
 <g id="figure_1">
  <g id="patch_1">
   <path d="M 0 852.0944 
L 510.457031 852.0944 
L 510.457031 0 
L 0 0 
z
" style="fill:#f4f4f6;"/>
  </g>
  <g id="axes_1">
   <g id="patch_2">
    <path d="M 238.0625 180.1248 
L 488.9625 180.1248 
L 488.9625 109.728 
L 238.0625 109.728 
z
" style="fill:#f4f4f6;"/>
   </g>
   <g id="patch_3">
    <path clip-path="url(#p8a20713e0d)" d="z
" style="fill:#9ba1b8;"/>
   </g>
   <g id="patch_4">
    <path clip-path="url(#p8a20713e0d)" d="M 238.0625 144.809072 
L 347.616438 144.809072 
L 347.616438 158.888432 
L 238.0625 158.888432 
z
" style="fill:#9ba1b8;"/>
   </g>
   <g id="patch_5">
    <path clip-path="url(#p8a20713e0d)" d="M 238.0625 122.63408 
L 347.616438 122.63408 
L 347.616438 136.71344 
L 238.0625 136.71344 
z
" style="fill:none;opacity:0;"/>
   </g>
   <g id="patch_6">
    <path clip-path="url(#p8a20713e0d)" d="z
" style="fill:#343866;"/>
   </g>
   <g id="matplotlib.axis_1">
    <g id="xtick_1">
     <g id="line2d_1">
      <defs>
       <path d="M 0 0 
L 0 -3.5 
" id="m2dd99acf3b" style="stroke:#000000;stroke-width:0.8;"/>
      </defs>
      <g>
       <use style="stroke:#000000;stroke-width:0.8;" x="238.0625" xlink:href="#m2dd99acf3b" y="109.728"/>
      </g>
     </g>
     <g id="text_1">
      <!--   0% -->
      <defs>
       <path id="DejaVuSans-20"/>
       <path d="M 31.78125 66.40625 
Q 24.171875 66.40625 20.328125 58.90625 
Q 16.5 51.421875 16.5 36.375 
Q 16.5 21.390625 20.328125 13.890625 
Q 24.171875 6.390625 31.78125 6.390625 
Q 39.453125 6.390625 43.28125 13.890625 
Q 47.125 21.390625 47.125 36.375 
Q 47.125 51.421875 43.28125 58.90625 
Q 39.453125 66.40625 31.78125 66.40625 
z
M 31.78125 74.21875 
Q 44.046875 74.21875 50.515625 64.515625 
Q 56.984375 54.828125 56.984375 36.375 
Q 56.984375 17.96875 50.515625 8.265625 
Q 44.046875 -1.421875 31.78125 -1.421875 
Q 19.53125 -1.421875 13.0625 8.265625 
Q 6.59375 17.96875 6.59375 36.375 
Q 6.59375 54.828125 13.0625 64.515625 
Q 19.53125 74.21875 31.78125 74.21875 
z
" id="DejaVuSans-30"/>
       <path d="M 72.703125 32.078125 
Q 68.453125 32.078125 66.03125 28.46875 
Q 63.625 24.859375 63.625 18.40625 
Q 63.625 12.0625 66.03125 8.421875 
Q 68.453125 4.78125 72.703125 4.78125 
Q 76.859375 4.78125 79.265625 8.421875 
Q 81.6875 12.0625 81.6875 18.40625 
Q 81.6875 24.8125 79.265625 28.4375 
Q 76.859375 32.078125 72.703125 32.078125 
z
M 72.703125 38.28125 
Q 80.421875 38.28125 84.953125 32.90625 
Q 89.5 27.546875 89.5 18.40625 
Q 89.5 9.28125 84.9375 3.921875 
Q 80.375 -1.421875 72.703125 -1.421875 
Q 64.890625 -1.421875 60.34375 3.921875 
Q 55.8125 9.28125 55.8125 18.40625 
Q 55.8125 27.59375 60.375 32.9375 
Q 64.9375 38.28125 72.703125 38.28125 
z
M 22.3125 68.015625 
Q 18.109375 68.015625 15.6875 64.375 
Q 13.28125 60.75 13.28125 54.390625 
Q 13.28125 47.953125 15.671875 44.328125 
Q 18.0625 40.71875 22.3125 40.71875 
Q 26.5625 40.71875 28.96875 44.328125 
Q 31.390625 47.953125 31.390625 54.390625 
Q 31.390625 60.6875 28.953125 64.34375 
Q 26.515625 68.015625 22.3125 68.015625 
z
M 66.40625 74.21875 
L 74.21875 74.21875 
L 28.609375 -1.421875 
L 20.796875 -1.421875 
z
M 22.3125 74.21875 
Q 30.03125 74.21875 34.609375 68.875 
Q 39.203125 63.53125 39.203125 54.390625 
Q 39.203125 45.171875 34.640625 39.84375 
Q 30.078125 34.515625 22.3125 34.515625 
Q 14.546875 34.515625 10.03125 39.859375 
Q 5.515625 45.21875 5.515625 54.390625 
Q 5.515625 63.484375 10.046875 68.84375 
Q 14.59375 74.21875 22.3125 74.21875 
z
" id="DejaVuSans-25"/>
      </defs>
      <g transform="translate(226.952344 100.648313)scale(0.1 -0.1)">
       <use xlink:href="#DejaVuSans-20"/>
       <use x="31.787109" xlink:href="#DejaVuSans-20"/>
       <use x="63.574219" xlink:href="#DejaVuSans-30"/>
       <use x="127.197266" xlink:href="#DejaVuSans-25"/>
      </g>
     </g>
    </g>
    <g id="xtick_2">
     <g id="line2d_2">
      <g>
       <use style="stroke:#000000;stroke-width:0.8;" x="288.2425" xlink:href="#m2dd99acf3b" y="109.728"/>
      </g>
     </g>
     <g id="text_2">
      <!--  20% -->
      <defs>
       <path d="M 19.1875 8.296875 
L 53.609375 8.296875 
L 53.609375 0 
L 7.328125 0 
L 7.328125 8.296875 
Q 12.9375 14.109375 22.625 23.890625 
Q 32.328125 33.6875 34.8125 36.53125 
Q 39.546875 41.84375 41.421875 45.53125 
Q 43.3125 49.21875 43.3125 52.78125 
Q 43.3125 58.59375 39.234375 62.25 
Q 35.15625 65.921875 28.609375 65.921875 
Q 23.96875 65.921875 18.8125 64.3125 
Q 13.671875 62.703125 7.8125 59.421875 
L 7.8125 69.390625 
Q 13.765625 71.78125 18.9375 73 
Q 24.125 74.21875 28.421875 74.21875 
Q 39.75 74.21875 46.484375 68.546875 
Q 53.21875 62.890625 53.21875 53.421875 
Q 53.21875 48.921875 51.53125 44.890625 
Q 49.859375 40.875 45.40625 35.40625 
Q 44.1875 33.984375 37.640625 27.21875 
Q 31.109375 20.453125 19.1875 8.296875 
z
" id="DejaVuSans-32"/>
      </defs>
      <g transform="translate(275.540156 100.648313)scale(0.1 -0.1)">
       <use xlink:href="#DejaVuSans-20"/>
       <use x="31.787109" xlink:href="#DejaVuSans-32"/>
       <use x="95.410156" xlink:href="#DejaVuSans-30"/>
       <use x="159.033203" xlink:href="#DejaVuSans-25"/>
      </g>
     </g>
    </g>
    <g id="xtick_3">
     <g id="line2d_3">
      <g>
       <use style="stroke:#000000;stroke-width:0.8;" x="338.4225" xlink:href="#m2dd99acf3b" y="109.728"/>
      </g>
     </g>
     <g id="text_3">
      <!--  40% -->
      <defs>
       <path d="M 37.796875 64.3125 
L 12.890625 25.390625 
L 37.796875 25.390625 
z
M 35.203125 72.90625 
L 47.609375 72.90625 
L 47.609375 25.390625 
L 58.015625 25.390625 
L 58.015625 17.1875 
L 47.609375 17.1875 
L 47.609375 0 
L 37.796875 0 
L 37.796875 17.1875 
L 4.890625 17.1875 
L 4.890625 26.703125 
z
" id="DejaVuSans-34"/>
      </defs>
      <g transform="translate(325.720156 100.648313)scale(0.1 -0.1)">
       <use xlink:href="#DejaVuSans-20"/>
       <use x="31.787109" xlink:href="#DejaVuSans-34"/>
       <use x="95.410156" xlink:href="#DejaVuSans-30"/>
       <use x="159.033203" xlink:href="#DejaVuSans-25"/>
      </g>
     </g>
    </g>
    <g id="xtick_4">
     <g id="line2d_4">
      <g>
       <use style="stroke:#000000;stroke-width:0.8;" x="388.6025" xlink:href="#m2dd99acf3b" y="109.728"/>
      </g>
     </g>
     <g id="text_4">
      <!--  60% -->
      <defs>
       <path d="M 33.015625 40.375 
Q 26.375 40.375 22.484375 35.828125 
Q 18.609375 31.296875 18.609375 23.390625 
Q 18.609375 15.53125 22.484375 10.953125 
Q 26.375 6.390625 33.015625 6.390625 
Q 39.65625 6.390625 43.53125 10.953125 
Q 47.40625 15.53125 47.40625 23.390625 
Q 47.40625 31.296875 43.53125 35.828125 
Q 39.65625 40.375 33.015625 40.375 
z
M 52.59375 71.296875 
L 52.59375 62.3125 
Q 48.875 64.0625 45.09375 64.984375 
Q 41.3125 65.921875 37.59375 65.921875 
Q 27.828125 65.921875 22.671875 59.328125 
Q 17.53125 52.734375 16.796875 39.40625 
Q 19.671875 43.65625 24.015625 45.921875 
Q 28.375 48.1875 33.59375 48.1875 
Q 44.578125 48.1875 50.953125 41.515625 
Q 57.328125 34.859375 57.328125 23.390625 
Q 57.328125 12.15625 50.6875 5.359375 
Q 44.046875 -1.421875 33.015625 -1.421875 
Q 20.359375 -1.421875 13.671875 8.265625 
Q 6.984375 17.96875 6.984375 36.375 
Q 6.984375 53.65625 15.1875 63.9375 
Q 23.390625 74.21875 37.203125 74.21875 
Q 40.921875 74.21875 44.703125 73.484375 
Q 48.484375 72.75 52.59375 71.296875 
z
" id="DejaVuSans-36"/>
      </defs>
      <g transform="translate(375.900156 100.648313)scale(0.1 -0.1)">
       <use xlink:href="#DejaVuSans-20"/>
       <use x="31.787109" xlink:href="#DejaVuSans-36"/>
       <use x="95.410156" xlink:href="#DejaVuSans-30"/>
       <use x="159.033203" xlink:href="#DejaVuSans-25"/>
      </g>
     </g>
    </g>
    <g id="xtick_5">
     <g id="line2d_5">
      <g>
       <use style="stroke:#000000;stroke-width:0.8;" x="438.7825" xlink:href="#m2dd99acf3b" y="109.728"/>
      </g>
     </g>
     <g id="text_5">
      <!--  80% -->
      <defs>
       <path d="M 31.78125 34.625 
Q 24.75 34.625 20.71875 30.859375 
Q 16.703125 27.09375 16.703125 20.515625 
Q 16.703125 13.921875 20.71875 10.15625 
Q 24.75 6.390625 31.78125 6.390625 
Q 38.8125 6.390625 42.859375 10.171875 
Q 46.921875 13.96875 46.921875 20.515625 
Q 46.921875 27.09375 42.890625 30.859375 
Q 38.875 34.625 31.78125 34.625 
z
M 21.921875 38.8125 
Q 15.578125 40.375 12.03125 44.71875 
Q 8.5 49.078125 8.5 55.328125 
Q 8.5 64.0625 14.71875 69.140625 
Q 20.953125 74.21875 31.78125 74.21875 
Q 42.671875 74.21875 48.875 69.140625 
Q 55.078125 64.0625 55.078125 55.328125 
Q 55.078125 49.078125 51.53125 44.71875 
Q 48 40.375 41.703125 38.8125 
Q 48.828125 37.15625 52.796875 32.3125 
Q 56.78125 27.484375 56.78125 20.515625 
Q 56.78125 9.90625 50.3125 4.234375 
Q 43.84375 -1.421875 31.78125 -1.421875 
Q 19.734375 -1.421875 13.25 4.234375 
Q 6.78125 9.90625 6.78125 20.515625 
Q 6.78125 27.484375 10.78125 32.3125 
Q 14.796875 37.15625 21.921875 38.8125 
z
M 18.3125 54.390625 
Q 18.3125 48.734375 21.84375 45.5625 
Q 25.390625 42.390625 31.78125 42.390625 
Q 38.140625 42.390625 41.71875 45.5625 
Q 45.3125 48.734375 45.3125 54.390625 
Q 45.3125 60.0625 41.71875 63.234375 
Q 38.140625 66.40625 31.78125 66.40625 
Q 25.390625 66.40625 21.84375 63.234375 
Q 18.3125 60.0625 18.3125 54.390625 
z
" id="DejaVuSans-38"/>
      </defs>
      <g transform="translate(426.080156 100.648313)scale(0.1 -0.1)">
       <use xlink:href="#DejaVuSans-20"/>
       <use x="31.787109" xlink:href="#DejaVuSans-38"/>
       <use x="95.410156" xlink:href="#DejaVuSans-30"/>
       <use x="159.033203" xlink:href="#DejaVuSans-25"/>
      </g>
     </g>
    </g>
    <g id="xtick_6">
     <g id="line2d_6">
      <g>
       <use style="stroke:#000000;stroke-width:0.8;" x="488.9625" xlink:href="#m2dd99acf3b" y="109.728"/>
      </g>
     </g>
     <g id="text_6">
      <!-- 100% -->
      <defs>
       <path d="M 12.40625 8.296875 
L 28.515625 8.296875 
L 28.515625 63.921875 
L 10.984375 60.40625 
L 10.984375 69.390625 
L 28.421875 72.90625 
L 38.28125 72.90625 
L 38.28125 8.296875 
L 54.390625 8.296875 
L 54.390625 0 
L 12.40625 0 
z
" id="DejaVuSans-31"/>
      </defs>
      <g transform="translate(474.667969 100.648313)scale(0.1 -0.1)">
       <use xlink:href="#DejaVuSans-31"/>
       <use x="63.623047" xlink:href="#DejaVuSans-30"/>
       <use x="127.246094" xlink:href="#DejaVuSans-30"/>
       <use x="190.869141" xlink:href="#DejaVuSans-25"/>
      </g>
     </g>
    </g>
   </g>
   <g id="matplotlib.axis_2">
    <g id="ytick_1">
     <g id="line2d_7">
      <defs>
       <path d="M 0 0 
L -3.5 0 
" id="md82b5b39b9"/>
      </defs>
      <g>
       <use style="fill:none;" x="238.0625" xlink:href="#md82b5b39b9" y="127.3272"/>
      </g>
     </g>
    </g>
    <g id="ytick_2">
     <g id="line2d_8">
      <g>
       <use style="fill:none;" x="238.0625" xlink:href="#md82b5b39b9" y="162.5256"/>
      </g>
     </g>
    </g>
   </g>
   <g id="line2d_9">
    <path clip-path="url(#p8a20713e0d)" d="M 0 0 
" style="fill:none;stroke:#424242;stroke-linecap:square;stroke-width:2.7;"/>
   </g>
   <g id="line2d_10">
    <path clip-path="url(#p8a20713e0d)" d="M 0 0 
" style="fill:none;stroke:#424242;stroke-linecap:square;stroke-width:2.7;"/>
   </g>
   <g id="line2d_11">
    <path clip-path="url(#p8a20713e0d)" d="M 0 0 
" style="fill:none;stroke:#424242;stroke-linecap:square;stroke-width:2.7;"/>
   </g>
   <g id="line2d_12">
    <path clip-path="url(#p8a20713e0d)" d="M 0 0 
" style="fill:none;stroke:#424242;stroke-linecap:square;stroke-width:2.7;"/>
   </g>
   <g id="patch_7">
    <path d="M 238.0625 109.728 
L 488.9625 109.728 
" style="fill:none;stroke:#000000;stroke-linecap:square;stroke-linejoin:miter;stroke-width:0.8;"/>
   </g>
   <g id="text_7">
    <!--  44% -->
    <g style="fill:#969ebd;" transform="translate(192.522875 158.888432)scale(0.12 -0.12)">
     <use xlink:href="#DejaVuSans-20"/>
     <use x="31.787109" xlink:href="#DejaVuSans-34"/>
     <use x="95.410156" xlink:href="#DejaVuSans-34"/>
     <use x="159.033203" xlink:href="#DejaVuSans-25"/>
    </g>
   </g>
   <g id="text_8">
    <!-- Durchschnitt Unbekannt -->
    <defs>
     <path d="M 19.671875 64.796875 
L 19.671875 8.109375 
L 31.59375 8.109375 
Q 46.6875 8.109375 53.6875 14.9375 
Q 60.6875 21.78125 60.6875 36.53125 
Q 60.6875 51.171875 53.6875 57.984375 
Q 46.6875 64.796875 31.59375 64.796875 
z
M 9.8125 72.90625 
L 30.078125 72.90625 
Q 51.265625 72.90625 61.171875 64.09375 
Q 71.09375 55.28125 71.09375 36.53125 
Q 71.09375 17.671875 61.125 8.828125 
Q 51.171875 0 30.078125 0 
L 9.8125 0 
z
" id="DejaVuSans-44"/>
     <path d="M 8.5 21.578125 
L 8.5 54.6875 
L 17.484375 54.6875 
L 17.484375 21.921875 
Q 17.484375 14.15625 20.5 10.265625 
Q 23.53125 6.390625 29.59375 6.390625 
Q 36.859375 6.390625 41.078125 11.03125 
Q 45.3125 15.671875 45.3125 23.6875 
L 45.3125 54.6875 
L 54.296875 54.6875 
L 54.296875 0 
L 45.3125 0 
L 45.3125 8.40625 
Q 42.046875 3.421875 37.71875 1 
Q 33.40625 -1.421875 27.6875 -1.421875 
Q 18.265625 -1.421875 13.375 4.4375 
Q 8.5 10.296875 8.5 21.578125 
z
M 31.109375 56 
z
" id="DejaVuSans-75"/>
     <path d="M 41.109375 46.296875 
Q 39.59375 47.171875 37.8125 47.578125 
Q 36.03125 48 33.890625 48 
Q 26.265625 48 22.1875 43.046875 
Q 18.109375 38.09375 18.109375 28.8125 
L 18.109375 0 
L 9.078125 0 
L 9.078125 54.6875 
L 18.109375 54.6875 
L 18.109375 46.1875 
Q 20.953125 51.171875 25.484375 53.578125 
Q 30.03125 56 36.53125 56 
Q 37.453125 56 38.578125 55.875 
Q 39.703125 55.765625 41.0625 55.515625 
z
" id="DejaVuSans-72"/>
     <path d="M 48.78125 52.59375 
L 48.78125 44.1875 
Q 44.96875 46.296875 41.140625 47.34375 
Q 37.3125 48.390625 33.40625 48.390625 
Q 24.65625 48.390625 19.8125 42.84375 
Q 14.984375 37.3125 14.984375 27.296875 
Q 14.984375 17.28125 19.8125 11.734375 
Q 24.65625 6.203125 33.40625 6.203125 
Q 37.3125 6.203125 41.140625 7.25 
Q 44.96875 8.296875 48.78125 10.40625 
L 48.78125 2.09375 
Q 45.015625 0.34375 40.984375 -0.53125 
Q 36.96875 -1.421875 32.421875 -1.421875 
Q 20.0625 -1.421875 12.78125 6.34375 
Q 5.515625 14.109375 5.515625 27.296875 
Q 5.515625 40.671875 12.859375 48.328125 
Q 20.21875 56 33.015625 56 
Q 37.15625 56 41.109375 55.140625 
Q 45.0625 54.296875 48.78125 52.59375 
z
" id="DejaVuSans-63"/>
     <path d="M 54.890625 33.015625 
L 54.890625 0 
L 45.90625 0 
L 45.90625 32.71875 
Q 45.90625 40.484375 42.875 44.328125 
Q 39.84375 48.1875 33.796875 48.1875 
Q 26.515625 48.1875 22.3125 43.546875 
Q 18.109375 38.921875 18.109375 30.90625 
L 18.109375 0 
L 9.078125 0 
L 9.078125 75.984375 
L 18.109375 75.984375 
L 18.109375 46.1875 
Q 21.34375 51.125 25.703125 53.5625 
Q 30.078125 56 35.796875 56 
Q 45.21875 56 50.046875 50.171875 
Q 54.890625 44.34375 54.890625 33.015625 
z
" id="DejaVuSans-68"/>
     <path d="M 44.28125 53.078125 
L 44.28125 44.578125 
Q 40.484375 46.53125 36.375 47.5 
Q 32.28125 48.484375 27.875 48.484375 
Q 21.1875 48.484375 17.84375 46.4375 
Q 14.5 44.390625 14.5 40.28125 
Q 14.5 37.15625 16.890625 35.375 
Q 19.28125 33.59375 26.515625 31.984375 
L 29.59375 31.296875 
Q 39.15625 29.25 43.1875 25.515625 
Q 47.21875 21.78125 47.21875 15.09375 
Q 47.21875 7.46875 41.1875 3.015625 
Q 35.15625 -1.421875 24.609375 -1.421875 
Q 20.21875 -1.421875 15.453125 -0.5625 
Q 10.6875 0.296875 5.421875 2 
L 5.421875 11.28125 
Q 10.40625 8.6875 15.234375 7.390625 
Q 20.0625 6.109375 24.8125 6.109375 
Q 31.15625 6.109375 34.5625 8.28125 
Q 37.984375 10.453125 37.984375 14.40625 
Q 37.984375 18.0625 35.515625 20.015625 
Q 33.0625 21.96875 24.703125 23.78125 
L 21.578125 24.515625 
Q 13.234375 26.265625 9.515625 29.90625 
Q 5.8125 33.546875 5.8125 39.890625 
Q 5.8125 47.609375 11.28125 51.796875 
Q 16.75 56 26.8125 56 
Q 31.78125 56 36.171875 55.265625 
Q 40.578125 54.546875 44.28125 53.078125 
z
" id="DejaVuSans-73"/>
     <path d="M 54.890625 33.015625 
L 54.890625 0 
L 45.90625 0 
L 45.90625 32.71875 
Q 45.90625 40.484375 42.875 44.328125 
Q 39.84375 48.1875 33.796875 48.1875 
Q 26.515625 48.1875 22.3125 43.546875 
Q 18.109375 38.921875 18.109375 30.90625 
L 18.109375 0 
L 9.078125 0 
L 9.078125 54.6875 
L 18.109375 54.6875 
L 18.109375 46.1875 
Q 21.34375 51.125 25.703125 53.5625 
Q 30.078125 56 35.796875 56 
Q 45.21875 56 50.046875 50.171875 
Q 54.890625 44.34375 54.890625 33.015625 
z
" id="DejaVuSans-6e"/>
     <path d="M 9.421875 54.6875 
L 18.40625 54.6875 
L 18.40625 0 
L 9.421875 0 
z
M 9.421875 75.984375 
L 18.40625 75.984375 
L 18.40625 64.59375 
L 9.421875 64.59375 
z
" id="DejaVuSans-69"/>
     <path d="M 18.3125 70.21875 
L 18.3125 54.6875 
L 36.8125 54.6875 
L 36.8125 47.703125 
L 18.3125 47.703125 
L 18.3125 18.015625 
Q 18.3125 11.328125 20.140625 9.421875 
Q 21.96875 7.515625 27.59375 7.515625 
L 36.8125 7.515625 
L 36.8125 0 
L 27.59375 0 
Q 17.1875 0 13.234375 3.875 
Q 9.28125 7.765625 9.28125 18.015625 
L 9.28125 47.703125 
L 2.6875 47.703125 
L 2.6875 54.6875 
L 9.28125 54.6875 
L 9.28125 70.21875 
z
" id="DejaVuSans-74"/>
     <path d="M 8.6875 72.90625 
L 18.609375 72.90625 
L 18.609375 28.609375 
Q 18.609375 16.890625 22.84375 11.734375 
Q 27.09375 6.59375 36.625 6.59375 
Q 46.09375 6.59375 50.34375 11.734375 
Q 54.59375 16.890625 54.59375 28.609375 
L 54.59375 72.90625 
L 64.5 72.90625 
L 64.5 27.390625 
Q 64.5 13.140625 57.4375 5.859375 
Q 50.390625 -1.421875 36.625 -1.421875 
Q 22.796875 -1.421875 15.734375 5.859375 
Q 8.6875 13.140625 8.6875 27.390625 
z
" id="DejaVuSans-55"/>
     <path d="M 48.6875 27.296875 
Q 48.6875 37.203125 44.609375 42.84375 
Q 40.53125 48.484375 33.40625 48.484375 
Q 26.265625 48.484375 22.1875 42.84375 
Q 18.109375 37.203125 18.109375 27.296875 
Q 18.109375 17.390625 22.1875 11.75 
Q 26.265625 6.109375 33.40625 6.109375 
Q 40.53125 6.109375 44.609375 11.75 
Q 48.6875 17.390625 48.6875 27.296875 
z
M 18.109375 46.390625 
Q 20.953125 51.265625 25.265625 53.625 
Q 29.59375 56 35.59375 56 
Q 45.5625 56 51.78125 48.09375 
Q 58.015625 40.1875 58.015625 27.296875 
Q 58.015625 14.40625 51.78125 6.484375 
Q 45.5625 -1.421875 35.59375 -1.421875 
Q 29.59375 -1.421875 25.265625 0.953125 
Q 20.953125 3.328125 18.109375 8.203125 
L 18.109375 0 
L 9.078125 0 
L 9.078125 75.984375 
L 18.109375 75.984375 
z
" id="DejaVuSans-62"/>
     <path d="M 56.203125 29.59375 
L 56.203125 25.203125 
L 14.890625 25.203125 
Q 15.484375 15.921875 20.484375 11.0625 
Q 25.484375 6.203125 34.421875 6.203125 
Q 39.59375 6.203125 44.453125 7.46875 
Q 49.3125 8.734375 54.109375 11.28125 
L 54.109375 2.78125 
Q 49.265625 0.734375 44.1875 -0.34375 
Q 39.109375 -1.421875 33.890625 -1.421875 
Q 20.796875 -1.421875 13.15625 6.1875 
Q 5.515625 13.8125 5.515625 26.8125 
Q 5.515625 40.234375 12.765625 48.109375 
Q 20.015625 56 32.328125 56 
Q 43.359375 56 49.78125 48.890625 
Q 56.203125 41.796875 56.203125 29.59375 
z
M 47.21875 32.234375 
Q 47.125 39.59375 43.09375 43.984375 
Q 39.0625 48.390625 32.421875 48.390625 
Q 24.90625 48.390625 20.390625 44.140625 
Q 15.875 39.890625 15.1875 32.171875 
z
" id="DejaVuSans-65"/>
     <path d="M 9.078125 75.984375 
L 18.109375 75.984375 
L 18.109375 31.109375 
L 44.921875 54.6875 
L 56.390625 54.6875 
L 27.390625 29.109375 
L 57.625 0 
L 45.90625 0 
L 18.109375 26.703125 
L 18.109375 0 
L 9.078125 0 
z
" id="DejaVuSans-6b"/>
     <path d="M 34.28125 27.484375 
Q 23.390625 27.484375 19.1875 25 
Q 14.984375 22.515625 14.984375 16.5 
Q 14.984375 11.71875 18.140625 8.90625 
Q 21.296875 6.109375 26.703125 6.109375 
Q 34.1875 6.109375 38.703125 11.40625 
Q 43.21875 16.703125 43.21875 25.484375 
L 43.21875 27.484375 
z
M 52.203125 31.203125 
L 52.203125 0 
L 43.21875 0 
L 43.21875 8.296875 
Q 40.140625 3.328125 35.546875 0.953125 
Q 30.953125 -1.421875 24.3125 -1.421875 
Q 15.921875 -1.421875 10.953125 3.296875 
Q 6 8.015625 6 15.921875 
Q 6 25.140625 12.171875 29.828125 
Q 18.359375 34.515625 30.609375 34.515625 
L 43.21875 34.515625 
L 43.21875 35.40625 
Q 43.21875 41.609375 39.140625 45 
Q 35.0625 48.390625 27.6875 48.390625 
Q 23 48.390625 18.546875 47.265625 
Q 14.109375 46.140625 10.015625 43.890625 
L 10.015625 52.203125 
Q 14.9375 54.109375 19.578125 55.046875 
Q 24.21875 56 28.609375 56 
Q 40.484375 56 46.34375 49.84375 
Q 52.203125 43.703125 52.203125 31.203125 
z
" id="DejaVuSans-61"/>
    </defs>
    <g style="fill:#969ebd;" transform="translate(41.685 158.888432)scale(0.12 -0.12)">
     <use xlink:href="#DejaVuSans-44"/>
     <use x="77.001953" xlink:href="#DejaVuSans-75"/>
     <use x="140.380859" xlink:href="#DejaVuSans-72"/>
     <use x="181.462891" xlink:href="#DejaVuSans-63"/>
     <use x="236.443359" xlink:href="#DejaVuSans-68"/>
     <use x="299.822266" xlink:href="#DejaVuSans-73"/>
     <use x="351.921875" xlink:href="#DejaVuSans-63"/>
     <use x="406.902344" xlink:href="#DejaVuSans-68"/>
     <use x="470.28125" xlink:href="#DejaVuSans-6e"/>
     <use x="533.660156" xlink:href="#DejaVuSans-69"/>
     <use x="561.443359" xlink:href="#DejaVuSans-74"/>
     <use x="600.652344" xlink:href="#DejaVuSans-74"/>
     <use x="639.861328" xlink:href="#DejaVuSans-20"/>
     <use x="671.648438" xlink:href="#DejaVuSans-55"/>
     <use x="744.841797" xlink:href="#DejaVuSans-6e"/>
     <use x="808.220703" xlink:href="#DejaVuSans-62"/>
     <use x="871.697266" xlink:href="#DejaVuSans-65"/>
     <use x="933.220703" xlink:href="#DejaVuSans-6b"/>
     <use x="991.115234" xlink:href="#DejaVuSans-61"/>
     <use x="1052.394531" xlink:href="#DejaVuSans-6e"/>
     <use x="1115.773438" xlink:href="#DejaVuSans-6e"/>
     <use x="1179.152344" xlink:href="#DejaVuSans-74"/>
    </g>
   </g>
  </g>
  <g id="axes_2">
   <g id="patch_8">
    <path clip-path="url(#p4eaa565995)" d="z
" style="fill:#9ba1b8;"/>
   </g>
   <g id="patch_9">
    <path clip-path="url(#p4eaa565995)" d="M 238.0625 215.205872 
L 279.735959 215.205872 
L 279.735959 229.285232 
L 238.0625 229.285232 
z
" style="fill:#9ba1b8;"/>
   </g>
   <g id="patch_10">
    <path clip-path="url(#p4eaa565995)" d="M 238.0625 193.03088 
L 279.735959 193.03088 
L 279.735959 207.11024 
L 238.0625 207.11024 
z
" style="fill:none;opacity:0;"/>
   </g>
   <g id="patch_11">
    <path clip-path="url(#p4eaa565995)" d="z
" style="fill:#343866;"/>
   </g>
   <g id="line2d_13">
    <path clip-path="url(#p4eaa565995)" d="M 0 0 
" style="fill:none;stroke:#424242;stroke-linecap:square;stroke-width:2.7;"/>
   </g>
   <g id="line2d_14">
    <path clip-path="url(#p4eaa565995)" d="M 0 0 
" style="fill:none;stroke:#424242;stroke-linecap:square;stroke-width:2.7;"/>
   </g>
   <g id="line2d_15">
    <path clip-path="url(#p4eaa565995)" d="M 0 0 
" style="fill:none;stroke:#424242;stroke-linecap:square;stroke-width:2.7;"/>
   </g>
   <g id="line2d_16">
    <path clip-path="url(#p4eaa565995)" d="M 0 0 
" style="fill:none;stroke:#424242;stroke-linecap:square;stroke-width:2.7;"/>
   </g>
   <g id="text_9">
    <!--  17% -->
    <defs>
     <path d="M 8.203125 72.90625 
L 55.078125 72.90625 
L 55.078125 68.703125 
L 28.609375 0 
L 18.3125 0 
L 43.21875 64.59375 
L 8.203125 64.59375 
z
" id="DejaVuSans-37"/>
    </defs>
    <g style="fill:#969ebd;" transform="translate(192.522875 229.285232)scale(0.12 -0.12)">
     <use xlink:href="#DejaVuSans-20"/>
     <use x="31.787109" xlink:href="#DejaVuSans-31"/>
     <use x="95.410156" xlink:href="#DejaVuSans-37"/>
     <use x="159.033203" xlink:href="#DejaVuSans-25"/>
    </g>
   </g>
   <g id="text_10">
    <!-- Durchschnitt Wien -->
    <defs>
     <path d="M 3.328125 72.90625 
L 13.28125 72.90625 
L 28.609375 11.28125 
L 43.890625 72.90625 
L 54.984375 72.90625 
L 70.3125 11.28125 
L 85.59375 72.90625 
L 95.609375 72.90625 
L 77.296875 0 
L 64.890625 0 
L 49.515625 63.28125 
L 33.984375 0 
L 21.578125 0 
z
" id="DejaVuSans-57"/>
    </defs>
    <g style="fill:#969ebd;" transform="translate(77.105625 229.285232)scale(0.12 -0.12)">
     <use xlink:href="#DejaVuSans-44"/>
     <use x="77.001953" xlink:href="#DejaVuSans-75"/>
     <use x="140.380859" xlink:href="#DejaVuSans-72"/>
     <use x="181.462891" xlink:href="#DejaVuSans-63"/>
     <use x="236.443359" xlink:href="#DejaVuSans-68"/>
     <use x="299.822266" xlink:href="#DejaVuSans-73"/>
     <use x="351.921875" xlink:href="#DejaVuSans-63"/>
     <use x="406.902344" xlink:href="#DejaVuSans-68"/>
     <use x="470.28125" xlink:href="#DejaVuSans-6e"/>
     <use x="533.660156" xlink:href="#DejaVuSans-69"/>
     <use x="561.443359" xlink:href="#DejaVuSans-74"/>
     <use x="600.652344" xlink:href="#DejaVuSans-74"/>
     <use x="639.861328" xlink:href="#DejaVuSans-20"/>
     <use x="671.648438" xlink:href="#DejaVuSans-57"/>
     <use x="770.494141" xlink:href="#DejaVuSans-69"/>
     <use x="798.277344" xlink:href="#DejaVuSans-65"/>
     <use x="859.800781" xlink:href="#DejaVuSans-6e"/>
    </g>
   </g>
  </g>
  <g id="axes_3">
   <g id="patch_12">
    <path clip-path="url(#p769a0931dc)" d="z
" style="fill:#9ba1b8;"/>
   </g>
   <g id="patch_13">
    <path clip-path="url(#p769a0931dc)" d="M 238.0625 285.602672 
L 274.365668 285.602672 
L 274.365668 299.682032 
L 238.0625 299.682032 
z
" style="fill:#9ba1b8;"/>
   </g>
   <g id="patch_14">
    <path clip-path="url(#p769a0931dc)" d="M 238.0625 263.42768 
L 274.365668 263.42768 
L 274.365668 277.50704 
L 238.0625 277.50704 
z
" style="fill:none;opacity:0;"/>
   </g>
   <g id="patch_15">
    <path clip-path="url(#p769a0931dc)" d="z
" style="fill:#343866;"/>
   </g>
   <g id="line2d_17">
    <path clip-path="url(#p769a0931dc)" d="M 0 0 
" style="fill:none;stroke:#424242;stroke-linecap:square;stroke-width:2.7;"/>
   </g>
   <g id="line2d_18">
    <path clip-path="url(#p769a0931dc)" d="M 0 0 
" style="fill:none;stroke:#424242;stroke-linecap:square;stroke-width:2.7;"/>
   </g>
   <g id="line2d_19">
    <path clip-path="url(#p769a0931dc)" d="M 0 0 
" style="fill:none;stroke:#424242;stroke-linecap:square;stroke-width:2.7;"/>
   </g>
   <g id="line2d_20">
    <path clip-path="url(#p769a0931dc)" d="M 0 0 
" style="fill:none;stroke:#424242;stroke-linecap:square;stroke-width:2.7;"/>
   </g>
   <g id="text_11">
    <!--  14% -->
    <g style="fill:#969ebd;" transform="translate(192.522875 299.682032)scale(0.12 -0.12)">
     <use xlink:href="#DejaVuSans-20"/>
     <use x="31.787109" xlink:href="#DejaVuSans-31"/>
     <use x="95.410156" xlink:href="#DejaVuSans-34"/>
     <use x="159.033203" xlink:href="#DejaVuSans-25"/>
    </g>
   </g>
   <g id="text_12">
    <!-- Durchschnitt Niederösterreich -->
    <defs>
     <path d="M 9.8125 72.90625 
L 23.09375 72.90625 
L 55.421875 11.921875 
L 55.421875 72.90625 
L 64.984375 72.90625 
L 64.984375 0 
L 51.703125 0 
L 19.390625 60.984375 
L 19.390625 0 
L 9.8125 0 
z
" id="DejaVuSans-4e"/>
     <path d="M 45.40625 46.390625 
L 45.40625 75.984375 
L 54.390625 75.984375 
L 54.390625 0 
L 45.40625 0 
L 45.40625 8.203125 
Q 42.578125 3.328125 38.25 0.953125 
Q 33.9375 -1.421875 27.875 -1.421875 
Q 17.96875 -1.421875 11.734375 6.484375 
Q 5.515625 14.40625 5.515625 27.296875 
Q 5.515625 40.1875 11.734375 48.09375 
Q 17.96875 56 27.875 56 
Q 33.9375 56 38.25 53.625 
Q 42.578125 51.265625 45.40625 46.390625 
z
M 14.796875 27.296875 
Q 14.796875 17.390625 18.875 11.75 
Q 22.953125 6.109375 30.078125 6.109375 
Q 37.203125 6.109375 41.296875 11.75 
Q 45.40625 17.390625 45.40625 27.296875 
Q 45.40625 37.203125 41.296875 42.84375 
Q 37.203125 48.484375 30.078125 48.484375 
Q 22.953125 48.484375 18.875 42.84375 
Q 14.796875 37.203125 14.796875 27.296875 
z
" id="DejaVuSans-64"/>
     <path d="M 30.609375 48.390625 
Q 23.390625 48.390625 19.1875 42.75 
Q 14.984375 37.109375 14.984375 27.296875 
Q 14.984375 17.484375 19.15625 11.84375 
Q 23.34375 6.203125 30.609375 6.203125 
Q 37.796875 6.203125 41.984375 11.859375 
Q 46.1875 17.53125 46.1875 27.296875 
Q 46.1875 37.015625 41.984375 42.703125 
Q 37.796875 48.390625 30.609375 48.390625 
z
M 30.609375 56 
Q 42.328125 56 49.015625 48.375 
Q 55.71875 40.765625 55.71875 27.296875 
Q 55.71875 13.875 49.015625 6.21875 
Q 42.328125 -1.421875 30.609375 -1.421875 
Q 18.84375 -1.421875 12.171875 6.21875 
Q 5.515625 13.875 5.515625 27.296875 
Q 5.515625 40.765625 12.171875 48.375 
Q 18.84375 56 30.609375 56 
z
M 35.21875 75.78125 
L 45.125 75.78125 
L 45.125 65.921875 
L 35.21875 65.921875 
z
M 16.125 75.78125 
L 26.03125 75.78125 
L 26.03125 65.921875 
L 16.125 65.921875 
z
" id="DejaVuSans-f6"/>
    </defs>
    <g style="fill:#969ebd;" transform="translate(7.2 299.682032)scale(0.12 -0.12)">
     <use xlink:href="#DejaVuSans-44"/>
     <use x="77.001953" xlink:href="#DejaVuSans-75"/>
     <use x="140.380859" xlink:href="#DejaVuSans-72"/>
     <use x="181.462891" xlink:href="#DejaVuSans-63"/>
     <use x="236.443359" xlink:href="#DejaVuSans-68"/>
     <use x="299.822266" xlink:href="#DejaVuSans-73"/>
     <use x="351.921875" xlink:href="#DejaVuSans-63"/>
     <use x="406.902344" xlink:href="#DejaVuSans-68"/>
     <use x="470.28125" xlink:href="#DejaVuSans-6e"/>
     <use x="533.660156" xlink:href="#DejaVuSans-69"/>
     <use x="561.443359" xlink:href="#DejaVuSans-74"/>
     <use x="600.652344" xlink:href="#DejaVuSans-74"/>
     <use x="639.861328" xlink:href="#DejaVuSans-20"/>
     <use x="671.648438" xlink:href="#DejaVuSans-4e"/>
     <use x="746.453125" xlink:href="#DejaVuSans-69"/>
     <use x="774.236328" xlink:href="#DejaVuSans-65"/>
     <use x="835.759766" xlink:href="#DejaVuSans-64"/>
     <use x="899.236328" xlink:href="#DejaVuSans-65"/>
     <use x="960.759766" xlink:href="#DejaVuSans-72"/>
     <use x="1001.841797" xlink:href="#DejaVuSans-f6"/>
     <use x="1063.023438" xlink:href="#DejaVuSans-73"/>
     <use x="1115.123047" xlink:href="#DejaVuSans-74"/>
     <use x="1154.332031" xlink:href="#DejaVuSans-65"/>
     <use x="1215.855469" xlink:href="#DejaVuSans-72"/>
     <use x="1256.953125" xlink:href="#DejaVuSans-72"/>
     <use x="1298.035156" xlink:href="#DejaVuSans-65"/>
     <use x="1359.558594" xlink:href="#DejaVuSans-69"/>
     <use x="1387.341797" xlink:href="#DejaVuSans-63"/>
     <use x="1442.322266" xlink:href="#DejaVuSans-68"/>
    </g>
   </g>
  </g>
  <g id="axes_4">
   <g id="patch_16">
    <path clip-path="url(#p62445238f6)" d="z
" style="fill:#9ba1b8;"/>
   </g>
   <g id="patch_17">
    <path clip-path="url(#p62445238f6)" d="M 238.0625 355.999472 
L 252.669692 355.999472 
L 252.669692 370.078832 
L 238.0625 370.078832 
z
" style="fill:#9ba1b8;"/>
   </g>
   <g id="patch_18">
    <path clip-path="url(#p62445238f6)" d="M 238.0625 333.82448 
L 252.669692 333.82448 
L 252.669692 347.90384 
L 238.0625 347.90384 
z
" style="fill:none;opacity:0;"/>
   </g>
   <g id="patch_19">
    <path clip-path="url(#p62445238f6)" d="z
" style="fill:#343866;"/>
   </g>
   <g id="line2d_21">
    <path clip-path="url(#p62445238f6)" d="M 0 0 
" style="fill:none;stroke:#424242;stroke-linecap:square;stroke-width:2.7;"/>
   </g>
   <g id="line2d_22">
    <path clip-path="url(#p62445238f6)" d="M 0 0 
" style="fill:none;stroke:#424242;stroke-linecap:square;stroke-width:2.7;"/>
   </g>
   <g id="line2d_23">
    <path clip-path="url(#p62445238f6)" d="M 0 0 
" style="fill:none;stroke:#424242;stroke-linecap:square;stroke-width:2.7;"/>
   </g>
   <g id="line2d_24">
    <path clip-path="url(#p62445238f6)" d="M 0 0 
" style="fill:none;stroke:#424242;stroke-linecap:square;stroke-width:2.7;"/>
   </g>
   <g id="text_13">
    <!--   6% -->
    <g style="fill:#969ebd;" transform="translate(196.344125 370.078832)scale(0.12 -0.12)">
     <use xlink:href="#DejaVuSans-20"/>
     <use x="31.787109" xlink:href="#DejaVuSans-20"/>
     <use x="63.574219" xlink:href="#DejaVuSans-36"/>
     <use x="127.197266" xlink:href="#DejaVuSans-25"/>
    </g>
   </g>
   <g id="text_14">
    <!-- Durchschnitt Burgenland -->
    <defs>
     <path d="M 19.671875 34.8125 
L 19.671875 8.109375 
L 35.5 8.109375 
Q 43.453125 8.109375 47.28125 11.40625 
Q 51.125 14.703125 51.125 21.484375 
Q 51.125 28.328125 47.28125 31.5625 
Q 43.453125 34.8125 35.5 34.8125 
z
M 19.671875 64.796875 
L 19.671875 42.828125 
L 34.28125 42.828125 
Q 41.5 42.828125 45.03125 45.53125 
Q 48.578125 48.25 48.578125 53.8125 
Q 48.578125 59.328125 45.03125 62.0625 
Q 41.5 64.796875 34.28125 64.796875 
z
M 9.8125 72.90625 
L 35.015625 72.90625 
Q 46.296875 72.90625 52.390625 68.21875 
Q 58.5 63.53125 58.5 54.890625 
Q 58.5 48.1875 55.375 44.234375 
Q 52.25 40.28125 46.1875 39.3125 
Q 53.46875 37.75 57.5 32.78125 
Q 61.53125 27.828125 61.53125 20.40625 
Q 61.53125 10.640625 54.890625 5.3125 
Q 48.25 0 35.984375 0 
L 9.8125 0 
z
" id="DejaVuSans-42"/>
     <path d="M 45.40625 27.984375 
Q 45.40625 37.75 41.375 43.109375 
Q 37.359375 48.484375 30.078125 48.484375 
Q 22.859375 48.484375 18.828125 43.109375 
Q 14.796875 37.75 14.796875 27.984375 
Q 14.796875 18.265625 18.828125 12.890625 
Q 22.859375 7.515625 30.078125 7.515625 
Q 37.359375 7.515625 41.375 12.890625 
Q 45.40625 18.265625 45.40625 27.984375 
z
M 54.390625 6.78125 
Q 54.390625 -7.171875 48.1875 -13.984375 
Q 42 -20.796875 29.203125 -20.796875 
Q 24.46875 -20.796875 20.265625 -20.09375 
Q 16.0625 -19.390625 12.109375 -17.921875 
L 12.109375 -9.1875 
Q 16.0625 -11.328125 19.921875 -12.34375 
Q 23.78125 -13.375 27.78125 -13.375 
Q 36.625 -13.375 41.015625 -8.765625 
Q 45.40625 -4.15625 45.40625 5.171875 
L 45.40625 9.625 
Q 42.625 4.78125 38.28125 2.390625 
Q 33.9375 0 27.875 0 
Q 17.828125 0 11.671875 7.65625 
Q 5.515625 15.328125 5.515625 27.984375 
Q 5.515625 40.671875 11.671875 48.328125 
Q 17.828125 56 27.875 56 
Q 33.9375 56 38.28125 53.609375 
Q 42.625 51.21875 45.40625 46.390625 
L 45.40625 54.6875 
L 54.390625 54.6875 
z
" id="DejaVuSans-67"/>
     <path d="M 9.421875 75.984375 
L 18.40625 75.984375 
L 18.40625 0 
L 9.421875 0 
z
" id="DejaVuSans-6c"/>
    </defs>
    <g style="fill:#969ebd;" transform="translate(38.0025 370.078832)scale(0.12 -0.12)">
     <use xlink:href="#DejaVuSans-44"/>
     <use x="77.001953" xlink:href="#DejaVuSans-75"/>
     <use x="140.380859" xlink:href="#DejaVuSans-72"/>
     <use x="181.462891" xlink:href="#DejaVuSans-63"/>
     <use x="236.443359" xlink:href="#DejaVuSans-68"/>
     <use x="299.822266" xlink:href="#DejaVuSans-73"/>
     <use x="351.921875" xlink:href="#DejaVuSans-63"/>
     <use x="406.902344" xlink:href="#DejaVuSans-68"/>
     <use x="470.28125" xlink:href="#DejaVuSans-6e"/>
     <use x="533.660156" xlink:href="#DejaVuSans-69"/>
     <use x="561.443359" xlink:href="#DejaVuSans-74"/>
     <use x="600.652344" xlink:href="#DejaVuSans-74"/>
     <use x="639.861328" xlink:href="#DejaVuSans-20"/>
     <use x="671.648438" xlink:href="#DejaVuSans-42"/>
     <use x="740.251953" xlink:href="#DejaVuSans-75"/>
     <use x="803.630859" xlink:href="#DejaVuSans-72"/>
     <use x="844.728516" xlink:href="#DejaVuSans-67"/>
     <use x="908.205078" xlink:href="#DejaVuSans-65"/>
     <use x="969.728516" xlink:href="#DejaVuSans-6e"/>
     <use x="1033.107422" xlink:href="#DejaVuSans-6c"/>
     <use x="1060.890625" xlink:href="#DejaVuSans-61"/>
     <use x="1122.169922" xlink:href="#DejaVuSans-6e"/>
     <use x="1185.548828" xlink:href="#DejaVuSans-64"/>
    </g>
   </g>
  </g>
  <g id="axes_5">
   <g id="patch_20">
    <path clip-path="url(#p3321968a77)" d="z
" style="fill:#9ba1b8;"/>
   </g>
   <g id="patch_21">
    <path clip-path="url(#p3321968a77)" d="M 238.0625 426.396272 
L 252.45488 426.396272 
L 252.45488 440.475632 
L 238.0625 440.475632 
z
" style="fill:#9ba1b8;"/>
   </g>
   <g id="patch_22">
    <path clip-path="url(#p3321968a77)" d="M 238.0625 404.22128 
L 252.45488 404.22128 
L 252.45488 418.30064 
L 238.0625 418.30064 
z
" style="fill:none;opacity:0;"/>
   </g>
   <g id="patch_23">
    <path clip-path="url(#p3321968a77)" d="z
" style="fill:#343866;"/>
   </g>
   <g id="line2d_25">
    <path clip-path="url(#p3321968a77)" d="M 0 0 
" style="fill:none;stroke:#424242;stroke-linecap:square;stroke-width:2.7;"/>
   </g>
   <g id="line2d_26">
    <path clip-path="url(#p3321968a77)" d="M 0 0 
" style="fill:none;stroke:#424242;stroke-linecap:square;stroke-width:2.7;"/>
   </g>
   <g id="line2d_27">
    <path clip-path="url(#p3321968a77)" d="M 0 0 
" style="fill:none;stroke:#424242;stroke-linecap:square;stroke-width:2.7;"/>
   </g>
   <g id="line2d_28">
    <path clip-path="url(#p3321968a77)" d="M 0 0 
" style="fill:none;stroke:#424242;stroke-linecap:square;stroke-width:2.7;"/>
   </g>
   <g id="text_15">
    <!--   6% -->
    <g style="fill:#969ebd;" transform="translate(196.344125 440.475632)scale(0.12 -0.12)">
     <use xlink:href="#DejaVuSans-20"/>
     <use x="31.787109" xlink:href="#DejaVuSans-20"/>
     <use x="63.574219" xlink:href="#DejaVuSans-36"/>
     <use x="127.197266" xlink:href="#DejaVuSans-25"/>
    </g>
   </g>
   <g id="text_16">
    <!-- Durchschnitt Steiermark -->
    <defs>
     <path d="M 53.515625 70.515625 
L 53.515625 60.890625 
Q 47.90625 63.578125 42.921875 64.890625 
Q 37.9375 66.21875 33.296875 66.21875 
Q 25.25 66.21875 20.875 63.09375 
Q 16.5 59.96875 16.5 54.203125 
Q 16.5 49.359375 19.40625 46.890625 
Q 22.3125 44.4375 30.421875 42.921875 
L 36.375 41.703125 
Q 47.40625 39.59375 52.65625 34.296875 
Q 57.90625 29 57.90625 20.125 
Q 57.90625 9.515625 50.796875 4.046875 
Q 43.703125 -1.421875 29.984375 -1.421875 
Q 24.8125 -1.421875 18.96875 -0.25 
Q 13.140625 0.921875 6.890625 3.21875 
L 6.890625 13.375 
Q 12.890625 10.015625 18.65625 8.296875 
Q 24.421875 6.59375 29.984375 6.59375 
Q 38.421875 6.59375 43.015625 9.90625 
Q 47.609375 13.234375 47.609375 19.390625 
Q 47.609375 24.75 44.3125 27.78125 
Q 41.015625 30.8125 33.5 32.328125 
L 27.484375 33.5 
Q 16.453125 35.6875 11.515625 40.375 
Q 6.59375 45.0625 6.59375 53.421875 
Q 6.59375 63.09375 13.40625 68.65625 
Q 20.21875 74.21875 32.171875 74.21875 
Q 37.3125 74.21875 42.625 73.28125 
Q 47.953125 72.359375 53.515625 70.515625 
z
" id="DejaVuSans-53"/>
     <path d="M 52 44.1875 
Q 55.375 50.25 60.0625 53.125 
Q 64.75 56 71.09375 56 
Q 79.640625 56 84.28125 50.015625 
Q 88.921875 44.046875 88.921875 33.015625 
L 88.921875 0 
L 79.890625 0 
L 79.890625 32.71875 
Q 79.890625 40.578125 77.09375 44.375 
Q 74.3125 48.1875 68.609375 48.1875 
Q 61.625 48.1875 57.5625 43.546875 
Q 53.515625 38.921875 53.515625 30.90625 
L 53.515625 0 
L 44.484375 0 
L 44.484375 32.71875 
Q 44.484375 40.625 41.703125 44.40625 
Q 38.921875 48.1875 33.109375 48.1875 
Q 26.21875 48.1875 22.15625 43.53125 
Q 18.109375 38.875 18.109375 30.90625 
L 18.109375 0 
L 9.078125 0 
L 9.078125 54.6875 
L 18.109375 54.6875 
L 18.109375 46.1875 
Q 21.1875 51.21875 25.484375 53.609375 
Q 29.78125 56 35.6875 56 
Q 41.65625 56 45.828125 52.96875 
Q 50 49.953125 52 44.1875 
z
" id="DejaVuSans-6d"/>
    </defs>
    <g style="fill:#969ebd;" transform="translate(41.01 440.475632)scale(0.12 -0.12)">
     <use xlink:href="#DejaVuSans-44"/>
     <use x="77.001953" xlink:href="#DejaVuSans-75"/>
     <use x="140.380859" xlink:href="#DejaVuSans-72"/>
     <use x="181.462891" xlink:href="#DejaVuSans-63"/>
     <use x="236.443359" xlink:href="#DejaVuSans-68"/>
     <use x="299.822266" xlink:href="#DejaVuSans-73"/>
     <use x="351.921875" xlink:href="#DejaVuSans-63"/>
     <use x="406.902344" xlink:href="#DejaVuSans-68"/>
     <use x="470.28125" xlink:href="#DejaVuSans-6e"/>
     <use x="533.660156" xlink:href="#DejaVuSans-69"/>
     <use x="561.443359" xlink:href="#DejaVuSans-74"/>
     <use x="600.652344" xlink:href="#DejaVuSans-74"/>
     <use x="639.861328" xlink:href="#DejaVuSans-20"/>
     <use x="671.648438" xlink:href="#DejaVuSans-53"/>
     <use x="735.125" xlink:href="#DejaVuSans-74"/>
     <use x="774.333984" xlink:href="#DejaVuSans-65"/>
     <use x="835.857422" xlink:href="#DejaVuSans-69"/>
     <use x="863.640625" xlink:href="#DejaVuSans-65"/>
     <use x="925.164062" xlink:href="#DejaVuSans-72"/>
     <use x="966.261719" xlink:href="#DejaVuSans-6d"/>
     <use x="1063.673828" xlink:href="#DejaVuSans-61"/>
     <use x="1124.953125" xlink:href="#DejaVuSans-72"/>
     <use x="1166.066406" xlink:href="#DejaVuSans-6b"/>
    </g>
   </g>
  </g>
  <g id="axes_6">
   <g id="patch_24">
    <path clip-path="url(#p764c2633d7)" d="z
" style="fill:#9ba1b8;"/>
   </g>
   <g id="patch_25">
    <path clip-path="url(#p764c2633d7)" d="M 238.0625 496.793072 
L 247.514212 496.793072 
L 247.514212 510.872432 
L 238.0625 510.872432 
z
" style="fill:#9ba1b8;"/>
   </g>
   <g id="patch_26">
    <path clip-path="url(#p764c2633d7)" d="M 238.0625 474.61808 
L 247.514212 474.61808 
L 247.514212 488.69744 
L 238.0625 488.69744 
z
" style="fill:none;opacity:0;"/>
   </g>
   <g id="patch_27">
    <path clip-path="url(#p764c2633d7)" d="z
" style="fill:#343866;"/>
   </g>
   <g id="line2d_29">
    <path clip-path="url(#p764c2633d7)" d="M 0 0 
" style="fill:none;stroke:#424242;stroke-linecap:square;stroke-width:2.7;"/>
   </g>
   <g id="line2d_30">
    <path clip-path="url(#p764c2633d7)" d="M 0 0 
" style="fill:none;stroke:#424242;stroke-linecap:square;stroke-width:2.7;"/>
   </g>
   <g id="line2d_31">
    <path clip-path="url(#p764c2633d7)" d="M 0 0 
" style="fill:none;stroke:#424242;stroke-linecap:square;stroke-width:2.7;"/>
   </g>
   <g id="line2d_32">
    <path clip-path="url(#p764c2633d7)" d="M 0 0 
" style="fill:none;stroke:#424242;stroke-linecap:square;stroke-width:2.7;"/>
   </g>
   <g id="text_17">
    <!--   4% -->
    <g style="fill:#969ebd;" transform="translate(196.344125 510.872432)scale(0.12 -0.12)">
     <use xlink:href="#DejaVuSans-20"/>
     <use x="31.787109" xlink:href="#DejaVuSans-20"/>
     <use x="63.574219" xlink:href="#DejaVuSans-34"/>
     <use x="127.197266" xlink:href="#DejaVuSans-25"/>
    </g>
   </g>
   <g id="text_18">
    <!-- Durchschnitt Kärnten -->
    <defs>
     <path d="M 9.8125 72.90625 
L 19.671875 72.90625 
L 19.671875 42.09375 
L 52.390625 72.90625 
L 65.09375 72.90625 
L 28.90625 38.921875 
L 67.671875 0 
L 54.6875 0 
L 19.671875 35.109375 
L 19.671875 0 
L 9.8125 0 
z
" id="DejaVuSans-4b"/>
     <path d="M 34.28125 27.484375 
Q 23.390625 27.484375 19.1875 25 
Q 14.984375 22.515625 14.984375 16.5 
Q 14.984375 11.71875 18.140625 8.90625 
Q 21.296875 6.109375 26.703125 6.109375 
Q 34.1875 6.109375 38.703125 11.40625 
Q 43.21875 16.703125 43.21875 25.484375 
L 43.21875 27.484375 
z
M 52.203125 31.203125 
L 52.203125 0 
L 43.21875 0 
L 43.21875 8.296875 
Q 40.140625 3.328125 35.546875 0.953125 
Q 30.953125 -1.421875 24.3125 -1.421875 
Q 15.921875 -1.421875 10.953125 3.296875 
Q 6 8.015625 6 15.921875 
Q 6 25.140625 12.171875 29.828125 
Q 18.359375 34.515625 30.609375 34.515625 
L 43.21875 34.515625 
L 43.21875 35.40625 
Q 43.21875 41.609375 39.140625 45 
Q 35.0625 48.390625 27.6875 48.390625 
Q 23 48.390625 18.546875 47.265625 
Q 14.109375 46.140625 10.015625 43.890625 
L 10.015625 52.203125 
Q 14.9375 54.109375 19.578125 55.046875 
Q 24.21875 56 28.609375 56 
Q 40.484375 56 46.34375 49.84375 
Q 52.203125 43.703125 52.203125 31.203125 
z
M 33.59375 75.78125 
L 43.5 75.78125 
L 43.5 65.921875 
L 33.59375 65.921875 
z
M 14.5 75.78125 
L 24.40625 75.78125 
L 24.40625 65.921875 
L 14.5 65.921875 
z
" id="DejaVuSans-e4"/>
    </defs>
    <g style="fill:#969ebd;" transform="translate(59.83875 510.872432)scale(0.12 -0.12)">
     <use xlink:href="#DejaVuSans-44"/>
     <use x="77.001953" xlink:href="#DejaVuSans-75"/>
     <use x="140.380859" xlink:href="#DejaVuSans-72"/>
     <use x="181.462891" xlink:href="#DejaVuSans-63"/>
     <use x="236.443359" xlink:href="#DejaVuSans-68"/>
     <use x="299.822266" xlink:href="#DejaVuSans-73"/>
     <use x="351.921875" xlink:href="#DejaVuSans-63"/>
     <use x="406.902344" xlink:href="#DejaVuSans-68"/>
     <use x="470.28125" xlink:href="#DejaVuSans-6e"/>
     <use x="533.660156" xlink:href="#DejaVuSans-69"/>
     <use x="561.443359" xlink:href="#DejaVuSans-74"/>
     <use x="600.652344" xlink:href="#DejaVuSans-74"/>
     <use x="639.861328" xlink:href="#DejaVuSans-20"/>
     <use x="671.648438" xlink:href="#DejaVuSans-4b"/>
     <use x="737.208984" xlink:href="#DejaVuSans-e4"/>
     <use x="798.488281" xlink:href="#DejaVuSans-72"/>
     <use x="839.585938" xlink:href="#DejaVuSans-6e"/>
     <use x="902.964844" xlink:href="#DejaVuSans-74"/>
     <use x="942.173828" xlink:href="#DejaVuSans-65"/>
     <use x="1003.697266" xlink:href="#DejaVuSans-6e"/>
    </g>
   </g>
  </g>
  <g id="axes_7">
   <g id="patch_28">
    <path clip-path="url(#p9f0a5ba827)" d="z
" style="fill:#9ba1b8;"/>
   </g>
   <g id="patch_29">
    <path clip-path="url(#p9f0a5ba827)" d="M 238.0625 567.189872 
L 247.514212 567.189872 
L 247.514212 581.269232 
L 238.0625 581.269232 
z
" style="fill:#9ba1b8;"/>
   </g>
   <g id="patch_30">
    <path clip-path="url(#p9f0a5ba827)" d="M 238.0625 545.01488 
L 247.514212 545.01488 
L 247.514212 559.09424 
L 238.0625 559.09424 
z
" style="fill:none;opacity:0;"/>
   </g>
   <g id="patch_31">
    <path clip-path="url(#p9f0a5ba827)" d="z
" style="fill:#343866;"/>
   </g>
   <g id="line2d_33">
    <path clip-path="url(#p9f0a5ba827)" d="M 0 0 
" style="fill:none;stroke:#424242;stroke-linecap:square;stroke-width:2.7;"/>
   </g>
   <g id="line2d_34">
    <path clip-path="url(#p9f0a5ba827)" d="M 0 0 
" style="fill:none;stroke:#424242;stroke-linecap:square;stroke-width:2.7;"/>
   </g>
   <g id="line2d_35">
    <path clip-path="url(#p9f0a5ba827)" d="M 0 0 
" style="fill:none;stroke:#424242;stroke-linecap:square;stroke-width:2.7;"/>
   </g>
   <g id="line2d_36">
    <path clip-path="url(#p9f0a5ba827)" d="M 0 0 
" style="fill:none;stroke:#424242;stroke-linecap:square;stroke-width:2.7;"/>
   </g>
   <g id="text_19">
    <!--   4% -->
    <g style="fill:#969ebd;" transform="translate(196.344125 581.269232)scale(0.12 -0.12)">
     <use xlink:href="#DejaVuSans-20"/>
     <use x="31.787109" xlink:href="#DejaVuSans-20"/>
     <use x="63.574219" xlink:href="#DejaVuSans-34"/>
     <use x="127.197266" xlink:href="#DejaVuSans-25"/>
    </g>
   </g>
   <g id="text_20">
    <!-- Durchschnitt Salzburg -->
    <defs>
     <path d="M 5.515625 54.6875 
L 48.1875 54.6875 
L 48.1875 46.484375 
L 14.40625 7.171875 
L 48.1875 7.171875 
L 48.1875 0 
L 4.296875 0 
L 4.296875 8.203125 
L 38.09375 47.515625 
L 5.515625 47.515625 
z
" id="DejaVuSans-7a"/>
    </defs>
    <g style="fill:#969ebd;" transform="translate(54.913125 581.269232)scale(0.12 -0.12)">
     <use xlink:href="#DejaVuSans-44"/>
     <use x="77.001953" xlink:href="#DejaVuSans-75"/>
     <use x="140.380859" xlink:href="#DejaVuSans-72"/>
     <use x="181.462891" xlink:href="#DejaVuSans-63"/>
     <use x="236.443359" xlink:href="#DejaVuSans-68"/>
     <use x="299.822266" xlink:href="#DejaVuSans-73"/>
     <use x="351.921875" xlink:href="#DejaVuSans-63"/>
     <use x="406.902344" xlink:href="#DejaVuSans-68"/>
     <use x="470.28125" xlink:href="#DejaVuSans-6e"/>
     <use x="533.660156" xlink:href="#DejaVuSans-69"/>
     <use x="561.443359" xlink:href="#DejaVuSans-74"/>
     <use x="600.652344" xlink:href="#DejaVuSans-74"/>
     <use x="639.861328" xlink:href="#DejaVuSans-20"/>
     <use x="671.648438" xlink:href="#DejaVuSans-53"/>
     <use x="735.125" xlink:href="#DejaVuSans-61"/>
     <use x="796.404297" xlink:href="#DejaVuSans-6c"/>
     <use x="824.1875" xlink:href="#DejaVuSans-7a"/>
     <use x="876.677734" xlink:href="#DejaVuSans-62"/>
     <use x="940.154297" xlink:href="#DejaVuSans-75"/>
     <use x="1003.533203" xlink:href="#DejaVuSans-72"/>
     <use x="1044.630859" xlink:href="#DejaVuSans-67"/>
    </g>
   </g>
  </g>
  <g id="axes_8">
   <g id="patch_32">
    <path clip-path="url(#pcf576610b9)" d="z
" style="fill:#9ba1b8;"/>
   </g>
   <g id="patch_33">
    <path clip-path="url(#pcf576610b9)" d="M 238.0625 637.586672 
L 245.366096 637.586672 
L 245.366096 651.666032 
L 238.0625 651.666032 
z
" style="fill:#9ba1b8;"/>
   </g>
   <g id="patch_34">
    <path clip-path="url(#pcf576610b9)" d="M 238.0625 615.41168 
L 245.366096 615.41168 
L 245.366096 629.49104 
L 238.0625 629.49104 
z
" style="fill:none;opacity:0;"/>
   </g>
   <g id="patch_35">
    <path clip-path="url(#pcf576610b9)" d="z
" style="fill:#343866;"/>
   </g>
   <g id="line2d_37">
    <path clip-path="url(#pcf576610b9)" d="M 0 0 
" style="fill:none;stroke:#424242;stroke-linecap:square;stroke-width:2.7;"/>
   </g>
   <g id="line2d_38">
    <path clip-path="url(#pcf576610b9)" d="M 0 0 
" style="fill:none;stroke:#424242;stroke-linecap:square;stroke-width:2.7;"/>
   </g>
   <g id="line2d_39">
    <path clip-path="url(#pcf576610b9)" d="M 0 0 
" style="fill:none;stroke:#424242;stroke-linecap:square;stroke-width:2.7;"/>
   </g>
   <g id="line2d_40">
    <path clip-path="url(#pcf576610b9)" d="M 0 0 
" style="fill:none;stroke:#424242;stroke-linecap:square;stroke-width:2.7;"/>
   </g>
   <g id="text_21">
    <!--   3% -->
    <defs>
     <path d="M 40.578125 39.3125 
Q 47.65625 37.796875 51.625 33 
Q 55.609375 28.21875 55.609375 21.1875 
Q 55.609375 10.40625 48.1875 4.484375 
Q 40.765625 -1.421875 27.09375 -1.421875 
Q 22.515625 -1.421875 17.65625 -0.515625 
Q 12.796875 0.390625 7.625 2.203125 
L 7.625 11.71875 
Q 11.71875 9.328125 16.59375 8.109375 
Q 21.484375 6.890625 26.8125 6.890625 
Q 36.078125 6.890625 40.9375 10.546875 
Q 45.796875 14.203125 45.796875 21.1875 
Q 45.796875 27.640625 41.28125 31.265625 
Q 36.765625 34.90625 28.71875 34.90625 
L 20.21875 34.90625 
L 20.21875 43.015625 
L 29.109375 43.015625 
Q 36.375 43.015625 40.234375 45.921875 
Q 44.09375 48.828125 44.09375 54.296875 
Q 44.09375 59.90625 40.109375 62.90625 
Q 36.140625 65.921875 28.71875 65.921875 
Q 24.65625 65.921875 20.015625 65.03125 
Q 15.375 64.15625 9.8125 62.3125 
L 9.8125 71.09375 
Q 15.4375 72.65625 20.34375 73.4375 
Q 25.25 74.21875 29.59375 74.21875 
Q 40.828125 74.21875 47.359375 69.109375 
Q 53.90625 64.015625 53.90625 55.328125 
Q 53.90625 49.265625 50.4375 45.09375 
Q 46.96875 40.921875 40.578125 39.3125 
z
" id="DejaVuSans-33"/>
    </defs>
    <g style="fill:#969ebd;" transform="translate(196.344125 651.666032)scale(0.12 -0.12)">
     <use xlink:href="#DejaVuSans-20"/>
     <use x="31.787109" xlink:href="#DejaVuSans-20"/>
     <use x="63.574219" xlink:href="#DejaVuSans-33"/>
     <use x="127.197266" xlink:href="#DejaVuSans-25"/>
    </g>
   </g>
   <g id="text_22">
    <!-- Durchschnitt Oberösterreich -->
    <defs>
     <path d="M 39.40625 66.21875 
Q 28.65625 66.21875 22.328125 58.203125 
Q 16.015625 50.203125 16.015625 36.375 
Q 16.015625 22.609375 22.328125 14.59375 
Q 28.65625 6.59375 39.40625 6.59375 
Q 50.140625 6.59375 56.421875 14.59375 
Q 62.703125 22.609375 62.703125 36.375 
Q 62.703125 50.203125 56.421875 58.203125 
Q 50.140625 66.21875 39.40625 66.21875 
z
M 39.40625 74.21875 
Q 54.734375 74.21875 63.90625 63.9375 
Q 73.09375 53.65625 73.09375 36.375 
Q 73.09375 19.140625 63.90625 8.859375 
Q 54.734375 -1.421875 39.40625 -1.421875 
Q 24.03125 -1.421875 14.8125 8.828125 
Q 5.609375 19.09375 5.609375 36.375 
Q 5.609375 53.65625 14.8125 63.9375 
Q 24.03125 74.21875 39.40625 74.21875 
z
" id="DejaVuSans-4f"/>
    </defs>
    <g style="fill:#969ebd;" transform="translate(17.44875 651.666032)scale(0.12 -0.12)">
     <use xlink:href="#DejaVuSans-44"/>
     <use x="77.001953" xlink:href="#DejaVuSans-75"/>
     <use x="140.380859" xlink:href="#DejaVuSans-72"/>
     <use x="181.462891" xlink:href="#DejaVuSans-63"/>
     <use x="236.443359" xlink:href="#DejaVuSans-68"/>
     <use x="299.822266" xlink:href="#DejaVuSans-73"/>
     <use x="351.921875" xlink:href="#DejaVuSans-63"/>
     <use x="406.902344" xlink:href="#DejaVuSans-68"/>
     <use x="470.28125" xlink:href="#DejaVuSans-6e"/>
     <use x="533.660156" xlink:href="#DejaVuSans-69"/>
     <use x="561.443359" xlink:href="#DejaVuSans-74"/>
     <use x="600.652344" xlink:href="#DejaVuSans-74"/>
     <use x="639.861328" xlink:href="#DejaVuSans-20"/>
     <use x="671.648438" xlink:href="#DejaVuSans-4f"/>
     <use x="750.359375" xlink:href="#DejaVuSans-62"/>
     <use x="813.835938" xlink:href="#DejaVuSans-65"/>
     <use x="875.359375" xlink:href="#DejaVuSans-72"/>
     <use x="916.441406" xlink:href="#DejaVuSans-f6"/>
     <use x="977.623047" xlink:href="#DejaVuSans-73"/>
     <use x="1029.722656" xlink:href="#DejaVuSans-74"/>
     <use x="1068.931641" xlink:href="#DejaVuSans-65"/>
     <use x="1130.455078" xlink:href="#DejaVuSans-72"/>
     <use x="1171.552734" xlink:href="#DejaVuSans-72"/>
     <use x="1212.634766" xlink:href="#DejaVuSans-65"/>
     <use x="1274.158203" xlink:href="#DejaVuSans-69"/>
     <use x="1301.941406" xlink:href="#DejaVuSans-63"/>
     <use x="1356.921875" xlink:href="#DejaVuSans-68"/>
    </g>
   </g>
  </g>
  <g id="axes_9">
   <g id="patch_36">
    <path clip-path="url(#pa804020ac5)" d="z
" style="fill:#9ba1b8;"/>
   </g>
   <g id="patch_37">
    <path clip-path="url(#pa804020ac5)" d="M 238.0625 707.983472 
L 244.506849 707.983472 
L 244.506849 722.062832 
L 238.0625 722.062832 
z
" style="fill:#9ba1b8;"/>
   </g>
   <g id="patch_38">
    <path clip-path="url(#pa804020ac5)" d="M 238.0625 685.80848 
L 244.506849 685.80848 
L 244.506849 699.88784 
L 238.0625 699.88784 
z
" style="fill:none;opacity:0;"/>
   </g>
   <g id="patch_39">
    <path clip-path="url(#pa804020ac5)" d="z
" style="fill:#343866;"/>
   </g>
   <g id="line2d_41">
    <path clip-path="url(#pa804020ac5)" d="M 0 0 
" style="fill:none;stroke:#424242;stroke-linecap:square;stroke-width:2.7;"/>
   </g>
   <g id="line2d_42">
    <path clip-path="url(#pa804020ac5)" d="M 0 0 
" style="fill:none;stroke:#424242;stroke-linecap:square;stroke-width:2.7;"/>
   </g>
   <g id="line2d_43">
    <path clip-path="url(#pa804020ac5)" d="M 0 0 
" style="fill:none;stroke:#424242;stroke-linecap:square;stroke-width:2.7;"/>
   </g>
   <g id="line2d_44">
    <path clip-path="url(#pa804020ac5)" d="M 0 0 
" style="fill:none;stroke:#424242;stroke-linecap:square;stroke-width:2.7;"/>
   </g>
   <g id="text_23">
    <!--   3% -->
    <g style="fill:#969ebd;" transform="translate(196.344125 722.062832)scale(0.12 -0.12)">
     <use xlink:href="#DejaVuSans-20"/>
     <use x="31.787109" xlink:href="#DejaVuSans-20"/>
     <use x="63.574219" xlink:href="#DejaVuSans-33"/>
     <use x="127.197266" xlink:href="#DejaVuSans-25"/>
    </g>
   </g>
   <g id="text_24">
    <!-- Durchschnitt Tirol -->
    <defs>
     <path d="M -0.296875 72.90625 
L 61.375 72.90625 
L 61.375 64.59375 
L 35.5 64.59375 
L 35.5 0 
L 25.59375 0 
L 25.59375 64.59375 
L -0.296875 64.59375 
z
" id="DejaVuSans-54"/>
     <path d="M 30.609375 48.390625 
Q 23.390625 48.390625 19.1875 42.75 
Q 14.984375 37.109375 14.984375 27.296875 
Q 14.984375 17.484375 19.15625 11.84375 
Q 23.34375 6.203125 30.609375 6.203125 
Q 37.796875 6.203125 41.984375 11.859375 
Q 46.1875 17.53125 46.1875 27.296875 
Q 46.1875 37.015625 41.984375 42.703125 
Q 37.796875 48.390625 30.609375 48.390625 
z
M 30.609375 56 
Q 42.328125 56 49.015625 48.375 
Q 55.71875 40.765625 55.71875 27.296875 
Q 55.71875 13.875 49.015625 6.21875 
Q 42.328125 -1.421875 30.609375 -1.421875 
Q 18.84375 -1.421875 12.171875 6.21875 
Q 5.515625 13.875 5.515625 27.296875 
Q 5.515625 40.765625 12.171875 48.375 
Q 18.84375 56 30.609375 56 
z
" id="DejaVuSans-6f"/>
    </defs>
    <g style="fill:#969ebd;" transform="translate(81.02625 722.062832)scale(0.12 -0.12)">
     <use xlink:href="#DejaVuSans-44"/>
     <use x="77.001953" xlink:href="#DejaVuSans-75"/>
     <use x="140.380859" xlink:href="#DejaVuSans-72"/>
     <use x="181.462891" xlink:href="#DejaVuSans-63"/>
     <use x="236.443359" xlink:href="#DejaVuSans-68"/>
     <use x="299.822266" xlink:href="#DejaVuSans-73"/>
     <use x="351.921875" xlink:href="#DejaVuSans-63"/>
     <use x="406.902344" xlink:href="#DejaVuSans-68"/>
     <use x="470.28125" xlink:href="#DejaVuSans-6e"/>
     <use x="533.660156" xlink:href="#DejaVuSans-69"/>
     <use x="561.443359" xlink:href="#DejaVuSans-74"/>
     <use x="600.652344" xlink:href="#DejaVuSans-74"/>
     <use x="639.861328" xlink:href="#DejaVuSans-20"/>
     <use x="671.648438" xlink:href="#DejaVuSans-54"/>
     <use x="732.685547" xlink:href="#DejaVuSans-69"/>
     <use x="760.46875" xlink:href="#DejaVuSans-72"/>
     <use x="801.550781" xlink:href="#DejaVuSans-6f"/>
     <use x="862.732422" xlink:href="#DejaVuSans-6c"/>
    </g>
   </g>
  </g>
  <g id="axes_10">
   <g id="patch_40">
    <path clip-path="url(#p2dba2b1548)" d="z
" style="fill:#9ba1b8;"/>
   </g>
   <g id="patch_41">
    <path clip-path="url(#p2dba2b1548)" d="M 238.0625 778.380272 
L 239.780993 778.380272 
L 239.780993 792.459632 
L 238.0625 792.459632 
z
" style="fill:#9ba1b8;"/>
   </g>
   <g id="patch_42">
    <path clip-path="url(#p2dba2b1548)" d="M 238.0625 756.20528 
L 239.780993 756.20528 
L 239.780993 770.28464 
L 238.0625 770.28464 
z
" style="fill:none;opacity:0;"/>
   </g>
   <g id="patch_43">
    <path clip-path="url(#p2dba2b1548)" d="z
" style="fill:#343866;"/>
   </g>
   <g id="line2d_45">
    <path clip-path="url(#p2dba2b1548)" d="M 0 0 
" style="fill:none;stroke:#424242;stroke-linecap:square;stroke-width:2.7;"/>
   </g>
   <g id="line2d_46">
    <path clip-path="url(#p2dba2b1548)" d="M 0 0 
" style="fill:none;stroke:#424242;stroke-linecap:square;stroke-width:2.7;"/>
   </g>
   <g id="line2d_47">
    <path clip-path="url(#p2dba2b1548)" d="M 0 0 
" style="fill:none;stroke:#424242;stroke-linecap:square;stroke-width:2.7;"/>
   </g>
   <g id="line2d_48">
    <path clip-path="url(#p2dba2b1548)" d="M 0 0 
" style="fill:none;stroke:#424242;stroke-linecap:square;stroke-width:2.7;"/>
   </g>
   <g id="text_25">
    <!--   1% -->
    <g style="fill:#969ebd;" transform="translate(196.344125 792.459632)scale(0.12 -0.12)">
     <use xlink:href="#DejaVuSans-20"/>
     <use x="31.787109" xlink:href="#DejaVuSans-20"/>
     <use x="63.574219" xlink:href="#DejaVuSans-31"/>
     <use x="127.197266" xlink:href="#DejaVuSans-25"/>
    </g>
   </g>
   <g id="text_26">
    <!-- Durchschnitt Vorarlberg -->
    <defs>
     <path d="M 28.609375 0 
L 0.78125 72.90625 
L 11.078125 72.90625 
L 34.1875 11.53125 
L 57.328125 72.90625 
L 67.578125 72.90625 
L 39.796875 0 
z
" id="DejaVuSans-56"/>
    </defs>
    <g style="fill:#969ebd;" transform="translate(43.64625 792.459632)scale(0.12 -0.12)">
     <use xlink:href="#DejaVuSans-44"/>
     <use x="77.001953" xlink:href="#DejaVuSans-75"/>
     <use x="140.380859" xlink:href="#DejaVuSans-72"/>
     <use x="181.462891" xlink:href="#DejaVuSans-63"/>
     <use x="236.443359" xlink:href="#DejaVuSans-68"/>
     <use x="299.822266" xlink:href="#DejaVuSans-73"/>
     <use x="351.921875" xlink:href="#DejaVuSans-63"/>
     <use x="406.902344" xlink:href="#DejaVuSans-68"/>
     <use x="470.28125" xlink:href="#DejaVuSans-6e"/>
     <use x="533.660156" xlink:href="#DejaVuSans-69"/>
     <use x="561.443359" xlink:href="#DejaVuSans-74"/>
     <use x="600.652344" xlink:href="#DejaVuSans-74"/>
     <use x="639.861328" xlink:href="#DejaVuSans-20"/>
     <use x="671.648438" xlink:href="#DejaVuSans-56"/>
     <use x="739.947266" xlink:href="#DejaVuSans-6f"/>
     <use x="801.128906" xlink:href="#DejaVuSans-72"/>
     <use x="842.242188" xlink:href="#DejaVuSans-61"/>
     <use x="903.521484" xlink:href="#DejaVuSans-72"/>
     <use x="944.634766" xlink:href="#DejaVuSans-6c"/>
     <use x="972.417969" xlink:href="#DejaVuSans-62"/>
     <use x="1035.894531" xlink:href="#DejaVuSans-65"/>
     <use x="1097.417969" xlink:href="#DejaVuSans-72"/>
     <use x="1138.515625" xlink:href="#DejaVuSans-67"/>
    </g>
   </g>
   <g id="legend_1">
    <g id="text_27">
     <!-- Verteilung -->
     <g transform="translate(287.459062 827.872213)scale(0.1 -0.1)">
      <use xlink:href="#DejaVuSans-56"/>
      <use x="68.298828" xlink:href="#DejaVuSans-65"/>
      <use x="129.822266" xlink:href="#DejaVuSans-72"/>
      <use x="170.935547" xlink:href="#DejaVuSans-74"/>
      <use x="210.144531" xlink:href="#DejaVuSans-65"/>
      <use x="271.667969" xlink:href="#DejaVuSans-69"/>
      <use x="299.451172" xlink:href="#DejaVuSans-6c"/>
      <use x="327.234375" xlink:href="#DejaVuSans-75"/>
      <use x="390.613281" xlink:href="#DejaVuSans-6e"/>
      <use x="453.992188" xlink:href="#DejaVuSans-67"/>
     </g>
    </g>
    <g id="patch_44">
     <path d="M 209.563125 840.03065 
L 225.563125 840.03065 
L 225.563125 834.43065 
L 209.563125 834.43065 
z
" style="fill:#9ba1b8;"/>
    </g>
    <g id="text_28">
     <!-- Durchschnitt -->
     <g transform="translate(231.963125 840.03065)scale(0.08 -0.08)">
      <use xlink:href="#DejaVuSans-44"/>
      <use x="77.001953" xlink:href="#DejaVuSans-75"/>
      <use x="140.380859" xlink:href="#DejaVuSans-72"/>
      <use x="181.462891" xlink:href="#DejaVuSans-63"/>
      <use x="236.443359" xlink:href="#DejaVuSans-68"/>
      <use x="299.822266" xlink:href="#DejaVuSans-73"/>
      <use x="351.921875" xlink:href="#DejaVuSans-63"/>
      <use x="406.902344" xlink:href="#DejaVuSans-68"/>
      <use x="470.28125" xlink:href="#DejaVuSans-6e"/>
      <use x="533.660156" xlink:href="#DejaVuSans-69"/>
      <use x="561.443359" xlink:href="#DejaVuSans-74"/>
      <use x="600.652344" xlink:href="#DejaVuSans-74"/>
     </g>
    </g>
    <g id="patch_45">
     <path d="M 299.149375 840.03065 
L 315.149375 840.03065 
L 315.149375 834.43065 
L 299.149375 834.43065 
z
" style="fill:none;opacity:0;"/>
    </g>
    <g id="text_29">
     <!-- unter dem Durchschnitt -->
     <g transform="translate(321.549375 840.03065)scale(0.08 -0.08)">
      <use xlink:href="#DejaVuSans-75"/>
      <use x="63.378906" xlink:href="#DejaVuSans-6e"/>
      <use x="126.757812" xlink:href="#DejaVuSans-74"/>
      <use x="165.966797" xlink:href="#DejaVuSans-65"/>
      <use x="227.490234" xlink:href="#DejaVuSans-72"/>
      <use x="268.603516" xlink:href="#DejaVuSans-20"/>
      <use x="300.390625" xlink:href="#DejaVuSans-64"/>
      <use x="363.867188" xlink:href="#DejaVuSans-65"/>
      <use x="425.390625" xlink:href="#DejaVuSans-6d"/>
      <use x="522.802734" xlink:href="#DejaVuSans-20"/>
      <use x="554.589844" xlink:href="#DejaVuSans-44"/>
      <use x="631.591797" xlink:href="#DejaVuSans-75"/>
      <use x="694.970703" xlink:href="#DejaVuSans-72"/>
      <use x="736.052734" xlink:href="#DejaVuSans-63"/>
      <use x="791.033203" xlink:href="#DejaVuSans-68"/>
      <use x="854.412109" xlink:href="#DejaVuSans-73"/>
      <use x="906.511719" xlink:href="#DejaVuSans-63"/>
      <use x="961.492188" xlink:href="#DejaVuSans-68"/>
      <use x="1024.871094" xlink:href="#DejaVuSans-6e"/>
      <use x="1088.25" xlink:href="#DejaVuSans-69"/>
      <use x="1116.033203" xlink:href="#DejaVuSans-74"/>
      <use x="1155.242188" xlink:href="#DejaVuSans-74"/>
     </g>
    </g>
   </g>
  </g>
  <g id="text_30">
   <!-- BUNDESLAND -->
   <defs>
    <path d="M 9.8125 72.90625 
L 55.90625 72.90625 
L 55.90625 64.59375 
L 19.671875 64.59375 
L 19.671875 43.015625 
L 54.390625 43.015625 
L 54.390625 34.71875 
L 19.671875 34.71875 
L 19.671875 8.296875 
L 56.78125 8.296875 
L 56.78125 0 
L 9.8125 0 
z
" id="DejaVuSans-45"/>
    <path d="M 9.8125 72.90625 
L 19.671875 72.90625 
L 19.671875 8.296875 
L 55.171875 8.296875 
L 55.171875 0 
L 9.8125 0 
z
" id="DejaVuSans-4c"/>
    <path d="M 34.1875 63.1875 
L 20.796875 26.90625 
L 47.609375 26.90625 
z
M 28.609375 72.90625 
L 39.796875 72.90625 
L 67.578125 0 
L 57.328125 0 
L 50.6875 18.703125 
L 17.828125 18.703125 
L 11.1875 0 
L 0.78125 0 
z
" id="DejaVuSans-41"/>
   </defs>
   <g transform="translate(35.47 14.798438)scale(0.1 -0.1)">
    <use xlink:href="#DejaVuSans-42"/>
    <use x="68.603516" xlink:href="#DejaVuSans-55"/>
    <use x="141.796875" xlink:href="#DejaVuSans-4e"/>
    <use x="216.601562" xlink:href="#DejaVuSans-44"/>
    <use x="293.603516" xlink:href="#DejaVuSans-45"/>
    <use x="356.787109" xlink:href="#DejaVuSans-53"/>
    <use x="420.263672" xlink:href="#DejaVuSans-4c"/>
    <use x="476.007812" xlink:href="#DejaVuSans-41"/>
    <use x="544.416016" xlink:href="#DejaVuSans-4e"/>
    <use x="619.220703" xlink:href="#DejaVuSans-44"/>
   </g>
  </g>
 </g>
 <defs>
  <clipPath id="p8a20713e0d">
   <rect height="70.3968" width="250.9" x="238.0625" y="109.728"/>
  </clipPath>
  <clipPath id="p4eaa565995">
   <rect height="70.3968" width="250.9" x="238.0625" y="180.1248"/>
  </clipPath>
  <clipPath id="p769a0931dc">
   <rect height="70.3968" width="250.9" x="238.0625" y="250.5216"/>
  </clipPath>
  <clipPath id="p62445238f6">
   <rect height="70.3968" width="250.9" x="238.0625" y="320.9184"/>
  </clipPath>
  <clipPath id="p3321968a77">
   <rect height="70.3968" width="250.9" x="238.0625" y="391.3152"/>
  </clipPath>
  <clipPath id="p764c2633d7">
   <rect height="70.3968" width="250.9" x="238.0625" y="461.712"/>
  </clipPath>
  <clipPath id="p9f0a5ba827">
   <rect height="70.3968" width="250.9" x="238.0625" y="532.1088"/>
  </clipPath>
  <clipPath id="pcf576610b9">
   <rect height="70.3968" width="250.9" x="238.0625" y="602.5056"/>
  </clipPath>
  <clipPath id="pa804020ac5">
   <rect height="70.3968" width="250.9" x="238.0625" y="672.9024"/>
  </clipPath>
  <clipPath id="p2dba2b1548">
   <rect height="70.3968" width="250.9" x="238.0625" y="743.2992"/>
  </clipPath>
 </defs>
</svg>
