<?xml version="1.0" encoding="utf-8" standalone="no"?>
<!DOCTYPE svg PUBLIC "-//W3C//DTD SVG 1.1//EN"
  "http://www.w3.org/Graphics/SVG/1.1/DTD/svg11.dtd">
<!-- Created with matplotlib (http://matplotlib.org/) -->
<svg height="180pt" version="1.1" viewBox="0 0 455 180" width="455pt" xmlns="http://www.w3.org/2000/svg" xmlns:xlink="http://www.w3.org/1999/xlink">
 <defs>
  <style type="text/css">
*{stroke-linecap:butt;stroke-linejoin:round;}
  </style>
 </defs>
 <g id="figure_1">
  <g id="patch_1">
   <path d="M 0 180.028 
L 455.582344 180.028 
L 455.582344 0 
L 0 0 
z
" style="fill:#f4f4f6;"/>
  </g>
  <g id="axes_1">
   <g id="patch_2">
    <path d="M 167.259167 58.411566 
L 436.3425 58.411566 
L 436.3425 23.2 
L 167.259167 23.2 
z
" style="fill:#f4f4f6;"/>
   </g>
   <g id="patch_3">
    <path clip-path="url(#p01893e9405)" d="z
" style="fill:#9ba1b8;"/>
   </g>
   <g id="patch_4">
    <path clip-path="url(#p01893e9405)" d="M 167.259167 40.747097 
L 340.274221 40.747097 
L 340.274221 45.441973 
L 167.259167 45.441973 
z
" style="fill:#9ba1b8;"/>
   </g>
   <g id="patch_5">
    <path clip-path="url(#p01893e9405)" d="M 167.259167 29.655454 
L 299.440453 29.655454 
L 299.440453 34.350329 
L 167.259167 34.350329 
z
" style="fill:#343866;"/>
   </g>
   <g id="patch_6">
    <path clip-path="url(#p01893e9405)" d="z
" style="fill:#343866;"/>
   </g>
   <g id="patch_7">
    <path clip-path="url(#p01893e9405)" d="z
" style="fill:#c53968;"/>
   </g>
   <g id="patch_8">
    <path clip-path="url(#p01893e9405)" d="z
" style="fill:#c53968;"/>
   </g>
   <g id="matplotlib.axis_1">
    <g id="xtick_1">
     <g id="line2d_1">
      <defs>
       <path d="M 0 0 
L 0 -3.5 
" id="mc475d790cd" style="stroke:#000000;stroke-width:0.8;"/>
      </defs>
      <g>
       <use style="stroke:#000000;stroke-width:0.8;" x="167.259167" xlink:href="#mc475d790cd" y="23.2"/>
      </g>
     </g>
     <g id="text_1">
      <!--   0% -->
      <defs>
       <path id="PTSans-Regular-20"/>
       <path d="M 4.296875 35 
Q 4.296875 53 10.140625 62.09375 
Q 16 71.203125 27.203125 71.203125 
Q 39.296875 71.203125 44.75 62.25 
Q 50.203125 53.296875 50.203125 35 
Q 50.203125 17 44.34375 7.890625 
Q 38.5 -1.203125 27.203125 -1.203125 
Q 15.296875 -1.203125 9.796875 8.296875 
Q 4.296875 17.796875 4.296875 35 
z
M 12.59375 35 
Q 12.59375 28.5 13.4375 23.140625 
Q 14.296875 17.796875 16.09375 13.9375 
Q 17.90625 10.09375 20.65625 7.9375 
Q 23.40625 5.796875 27.203125 5.796875 
Q 34.796875 5.796875 38.34375 12.84375 
Q 41.90625 19.90625 41.90625 35 
Q 41.90625 41.40625 41.15625 46.796875 
Q 40.40625 52.203125 38.65625 56.09375 
Q 36.90625 60 34.09375 62.09375 
Q 31.296875 64.203125 27.203125 64.203125 
Q 19.703125 64.203125 16.140625 57.09375 
Q 12.59375 50 12.59375 35 
z
" id="PTSans-Regular-30"/>
       <path d="M 7.03125 54.203125 
Q 7.03125 58.703125 8.21875 61.890625 
Q 9.421875 65.09375 11.46875 67.1875 
Q 13.53125 69.296875 16.375 70.25 
Q 19.21875 71.203125 22.53125 71.203125 
Q 25.828125 71.203125 28.671875 70.296875 
Q 31.53125 69.40625 33.578125 67.40625 
Q 35.625 65.40625 36.828125 62.15625 
Q 38.03125 58.90625 38.03125 54.203125 
Q 38.03125 49.5 36.828125 46.25 
Q 35.625 43 33.578125 41 
Q 31.53125 39 28.671875 38.09375 
Q 25.828125 37.203125 22.53125 37.203125 
Q 19.21875 37.203125 16.375 38.09375 
Q 13.53125 39 11.46875 41 
Q 9.421875 43 8.21875 46.25 
Q 7.03125 49.5 7.03125 54.203125 
z
M 14.421875 54.203125 
Q 14.421875 48.203125 16.5625 45.59375 
Q 18.71875 43 22.53125 43 
Q 24.421875 43 25.921875 43.546875 
Q 27.421875 44.09375 28.46875 45.34375 
Q 29.53125 46.59375 30.078125 48.75 
Q 30.625 50.90625 30.625 54.203125 
Q 30.625 57.5 30.078125 59.640625 
Q 29.53125 61.796875 28.46875 63.046875 
Q 27.421875 64.296875 25.921875 64.84375 
Q 24.421875 65.40625 22.53125 65.40625 
Q 18.71875 65.40625 16.5625 63.046875 
Q 14.421875 60.703125 14.421875 54.203125 
z
M 42.65625 17.203125 
Q 42.65625 21.703125 43.84375 24.890625 
Q 45.046875 28.09375 47.09375 30.1875 
Q 49.15625 32.296875 52 33.25 
Q 54.84375 34.203125 58.15625 34.203125 
Q 61.453125 34.203125 64.296875 33.296875 
Q 67.15625 32.40625 69.203125 30.40625 
Q 71.25 28.40625 72.453125 25.15625 
Q 73.65625 21.90625 73.65625 17.203125 
Q 73.65625 12.5 72.453125 9.25 
Q 71.25 6 69.203125 4 
Q 67.15625 2 64.296875 1.09375 
Q 61.453125 0.203125 58.15625 0.203125 
Q 54.84375 0.203125 52 1.09375 
Q 49.15625 2 47.09375 4 
Q 45.046875 6 43.84375 9.25 
Q 42.65625 12.5 42.65625 17.203125 
z
M 50.046875 17.203125 
Q 50.046875 11.203125 52.1875 8.59375 
Q 54.34375 6 58.15625 6 
Q 60.046875 6 61.546875 6.546875 
Q 63.046875 7.09375 64.09375 8.34375 
Q 65.15625 9.59375 65.703125 11.75 
Q 66.25 13.90625 66.25 17.203125 
Q 66.25 20.5 65.703125 22.640625 
Q 65.15625 24.796875 64.09375 26.046875 
Q 63.046875 27.296875 61.546875 27.84375 
Q 60.046875 28.40625 58.15625 28.40625 
Q 54.34375 28.40625 52.1875 26.046875 
Q 50.046875 23.703125 50.046875 17.203125 
z
M 63.65625 71.296875 
L 68.546875 67.5 
L 17.25 -1.203125 
L 12.25 2.703125 
z
" id="PTSans-Regular-25"/>
      </defs>
      <g transform="translate(157.99901 14.2)scale(0.1 -0.1)">
       <use xlink:href="#PTSans-Regular-20"/>
       <use x="26.699997" xlink:href="#PTSans-Regular-20"/>
       <use x="53.399994" xlink:href="#PTSans-Regular-30"/>
       <use x="107.899979" xlink:href="#PTSans-Regular-25"/>
      </g>
     </g>
    </g>
    <g id="xtick_2">
     <g id="line2d_2">
      <g>
       <use style="stroke:#000000;stroke-width:0.8;" x="221.075833" xlink:href="#mc475d790cd" y="23.2"/>
      </g>
     </g>
     <g id="text_2">
      <!--  20% -->
      <defs>
       <path d="M 44.59375 54.09375 
Q 44.59375 48.796875 42.640625 43.25 
Q 40.703125 37.703125 37.546875 32.09375 
Q 34.40625 26.5 30.5 21.140625 
Q 26.59375 15.796875 22.703125 11 
L 17.796875 6.703125 
L 17.796875 6.296875 
L 24.203125 7.40625 
L 46 7.40625 
L 46 0 
L 6.203125 0 
L 6.203125 2.90625 
Q 8.40625 5.203125 11.5 8.59375 
Q 14.59375 12 17.9375 16.140625 
Q 21.296875 20.296875 24.546875 24.9375 
Q 27.796875 29.59375 30.4375 34.390625 
Q 33.09375 39.203125 34.6875 43.890625 
Q 36.296875 48.59375 36.296875 52.796875 
Q 36.296875 57.703125 33.5 60.953125 
Q 30.703125 64.203125 25 64.203125 
Q 21.203125 64.203125 17.59375 62.640625 
Q 14 61.09375 11.40625 59.09375 
L 8.09375 64.796875 
Q 11.59375 67.796875 16.390625 69.5 
Q 21.203125 71.203125 26.703125 71.203125 
Q 31 71.203125 34.296875 69.953125 
Q 37.59375 68.703125 39.890625 66.390625 
Q 42.203125 64.09375 43.390625 60.9375 
Q 44.59375 57.796875 44.59375 54.09375 
z
" id="PTSans-Regular-32"/>
      </defs>
      <g transform="translate(210.425833 14.2)scale(0.1 -0.1)">
       <use xlink:href="#PTSans-Regular-20"/>
       <use x="26.699997" xlink:href="#PTSans-Regular-32"/>
       <use x="81.199982" xlink:href="#PTSans-Regular-30"/>
       <use x="135.699966" xlink:href="#PTSans-Regular-25"/>
      </g>
     </g>
    </g>
    <g id="xtick_3">
     <g id="line2d_3">
      <g>
       <use style="stroke:#000000;stroke-width:0.8;" x="274.8925" xlink:href="#mc475d790cd" y="23.2"/>
      </g>
     </g>
     <g id="text_3">
      <!--  40% -->
      <defs>
       <path d="M 52.40625 21.5 
L 40.59375 21.5 
L 40.59375 0 
L 32.796875 0 
L 32.796875 21.5 
L 2 21.5 
L 2 24.796875 
L 35.203125 71.09375 
L 40.59375 71.09375 
L 40.59375 28.5 
L 52.40625 28.5 
z
M 32.796875 50.296875 
L 33.796875 58.5 
L 33.5 58.5 
L 30 51.703125 
L 15.90625 32.59375 
L 11.09375 27.703125 
L 18.09375 28.5 
L 32.796875 28.5 
z
" id="PTSans-Regular-34"/>
      </defs>
      <g transform="translate(264.2425 14.2)scale(0.1 -0.1)">
       <use xlink:href="#PTSans-Regular-20"/>
       <use x="26.699997" xlink:href="#PTSans-Regular-34"/>
       <use x="81.199982" xlink:href="#PTSans-Regular-30"/>
       <use x="135.699966" xlink:href="#PTSans-Regular-25"/>
      </g>
     </g>
    </g>
    <g id="xtick_4">
     <g id="line2d_4">
      <g>
       <use style="stroke:#000000;stroke-width:0.8;" x="328.709167" xlink:href="#mc475d790cd" y="23.2"/>
      </g>
     </g>
     <g id="text_4">
      <!--  60% -->
      <defs>
       <path d="M 49.203125 21.09375 
Q 49.203125 16.5 47.796875 12.453125 
Q 46.40625 8.40625 43.703125 5.34375 
Q 41 2.296875 37 0.546875 
Q 33 -1.203125 27.90625 -1.203125 
Q 22.90625 -1.203125 18.90625 0.390625 
Q 14.90625 2 12 5.140625 
Q 9.09375 8.296875 7.546875 12.890625 
Q 6 17.5 6 23.5 
Q 6 33.40625 8.546875 41.75 
Q 11.09375 50.09375 15.59375 56.296875 
Q 20.09375 62.5 26.25 66.34375 
Q 32.40625 70.203125 39.59375 71.203125 
L 41.296875 64.796875 
Q 35.703125 63.796875 31.09375 61 
Q 26.5 58.203125 23.046875 54.09375 
Q 19.59375 50 17.390625 44.890625 
Q 15.203125 39.796875 14.40625 34.40625 
Q 16 37.09375 19.796875 39.34375 
Q 23.59375 41.59375 29.09375 41.59375 
Q 38.5 41.59375 43.84375 36.1875 
Q 49.203125 30.796875 49.203125 21.09375 
z
M 40.90625 20.296875 
Q 40.90625 27.40625 37.59375 31 
Q 34.296875 34.59375 27.40625 34.59375 
Q 22.5 34.59375 18.953125 32.1875 
Q 15.40625 29.796875 14 26.796875 
Q 13.796875 25.40625 13.796875 24.5 
Q 13.796875 23.59375 13.796875 22.5 
Q 13.796875 19.40625 14.640625 16.40625 
Q 15.5 13.40625 17.296875 11.046875 
Q 19.09375 8.703125 21.75 7.25 
Q 24.40625 5.796875 28 5.796875 
Q 30.90625 5.796875 33.25 6.890625 
Q 35.59375 8 37.296875 9.890625 
Q 39 11.796875 39.953125 14.5 
Q 40.90625 17.203125 40.90625 20.296875 
z
" id="PTSans-Regular-36"/>
      </defs>
      <g transform="translate(318.059167 14.2)scale(0.1 -0.1)">
       <use xlink:href="#PTSans-Regular-20"/>
       <use x="26.699997" xlink:href="#PTSans-Regular-36"/>
       <use x="81.199982" xlink:href="#PTSans-Regular-30"/>
       <use x="135.699966" xlink:href="#PTSans-Regular-25"/>
      </g>
     </g>
    </g>
    <g id="xtick_5">
     <g id="line2d_5">
      <g>
       <use style="stroke:#000000;stroke-width:0.8;" x="382.525833" xlink:href="#mc475d790cd" y="23.2"/>
      </g>
     </g>
     <g id="text_5">
      <!--  80% -->
      <defs>
       <path d="M 6.796875 16.703125 
Q 6.796875 23 10.09375 27.640625 
Q 13.40625 32.296875 20.40625 36.09375 
Q 17.90625 37.59375 15.75 39.25 
Q 13.59375 40.90625 11.9375 43 
Q 10.296875 45.09375 9.34375 47.6875 
Q 8.40625 50.296875 8.40625 53.703125 
Q 8.40625 57.59375 9.75 60.796875 
Q 11.09375 64 13.640625 66.296875 
Q 16.203125 68.59375 19.75 69.890625 
Q 23.296875 71.203125 27.796875 71.203125 
Q 32 71.203125 35.390625 70 
Q 38.796875 68.796875 41.140625 66.6875 
Q 43.5 64.59375 44.796875 61.6875 
Q 46.09375 58.796875 46.09375 55.296875 
Q 46.09375 49.59375 43.5 45.25 
Q 40.90625 40.90625 34.90625 36.703125 
Q 37.5 35.203125 39.84375 33.390625 
Q 42.203125 31.59375 43.953125 29.390625 
Q 45.703125 27.203125 46.703125 24.453125 
Q 47.703125 21.703125 47.703125 18.203125 
Q 47.703125 13.90625 46.296875 10.34375 
Q 44.90625 6.796875 42.203125 4.25 
Q 39.5 1.703125 35.59375 0.25 
Q 31.703125 -1.203125 26.703125 -1.203125 
Q 21.90625 -1.203125 18.203125 0.1875 
Q 14.5 1.59375 11.953125 4 
Q 9.40625 6.40625 8.09375 9.65625 
Q 6.796875 12.90625 6.796875 16.703125 
z
M 39.90625 17.703125 
Q 39.90625 20.703125 38.703125 22.953125 
Q 37.5 25.203125 35.546875 27.046875 
Q 33.59375 28.90625 31.09375 30.40625 
Q 28.59375 31.90625 25.90625 33.296875 
Q 19.796875 29.90625 17.1875 25.703125 
Q 14.59375 21.5 14.59375 17.703125 
Q 14.59375 15.296875 15.390625 13.09375 
Q 16.203125 10.90625 17.796875 9.296875 
Q 19.40625 7.703125 21.75 6.75 
Q 24.09375 5.796875 27.203125 5.796875 
Q 29.703125 5.796875 32 6.546875 
Q 34.296875 7.296875 36.046875 8.75 
Q 37.796875 10.203125 38.84375 12.453125 
Q 39.90625 14.703125 39.90625 17.703125 
z
M 16.203125 53.90625 
Q 16.203125 51.09375 17.296875 48.9375 
Q 18.40625 46.796875 20.25 45.09375 
Q 22.09375 43.40625 24.5 41.953125 
Q 26.90625 40.5 29.5 39.203125 
Q 34 42.703125 36.140625 46.09375 
Q 38.296875 49.5 38.296875 53.59375 
Q 38.296875 58.703125 35.140625 61.453125 
Q 32 64.203125 27.59375 64.203125 
Q 24.90625 64.203125 22.796875 63.296875 
Q 20.703125 62.40625 19.203125 61 
Q 17.703125 59.59375 16.953125 57.75 
Q 16.203125 55.90625 16.203125 53.90625 
z
" id="PTSans-Regular-38"/>
      </defs>
      <g transform="translate(371.875833 14.2)scale(0.1 -0.1)">
       <use xlink:href="#PTSans-Regular-20"/>
       <use x="26.699997" xlink:href="#PTSans-Regular-38"/>
       <use x="81.199982" xlink:href="#PTSans-Regular-30"/>
       <use x="135.699966" xlink:href="#PTSans-Regular-25"/>
      </g>
     </g>
    </g>
    <g id="xtick_6">
     <g id="line2d_6">
      <g>
       <use style="stroke:#000000;stroke-width:0.8;" x="436.3425" xlink:href="#mc475d790cd" y="23.2"/>
      </g>
     </g>
     <g id="text_6">
      <!-- 100% -->
      <defs>
       <path d="M 10.796875 7.40625 
L 24.796875 7.40625 
L 24.796875 55.796875 
L 25.796875 61.703125 
L 21.796875 57 
L 10.796875 49.09375 
L 7 54.203125 
L 29 71.203125 
L 32.59375 71.203125 
L 32.59375 7.40625 
L 46.296875 7.40625 
L 46.296875 0 
L 10.796875 0 
z
" id="PTSans-Regular-31"/>
      </defs>
      <g transform="translate(424.302656 14.2)scale(0.1 -0.1)">
       <use xlink:href="#PTSans-Regular-31"/>
       <use x="54.499985" xlink:href="#PTSans-Regular-30"/>
       <use x="108.999969" xlink:href="#PTSans-Regular-30"/>
       <use x="163.499954" xlink:href="#PTSans-Regular-25"/>
      </g>
     </g>
    </g>
   </g>
   <g id="matplotlib.axis_2">
    <g id="ytick_1">
     <g id="line2d_7">
      <defs>
       <path d="M 0 0 
L -3.5 0 
" id="me9ad609921"/>
      </defs>
      <g>
       <use style="fill:none;" x="167.259167" xlink:href="#me9ad609921" y="32.002892"/>
      </g>
     </g>
    </g>
    <g id="ytick_2">
     <g id="line2d_8">
      <g>
       <use style="fill:none;" x="167.259167" xlink:href="#me9ad609921" y="49.608675"/>
      </g>
     </g>
    </g>
   </g>
   <g id="line2d_9">
    <path clip-path="url(#p01893e9405)" d="M 0 0 
" style="fill:none;stroke:#424242;stroke-linecap:square;stroke-width:2.7;"/>
   </g>
   <g id="line2d_10">
    <path clip-path="url(#p01893e9405)" d="M 0 0 
" style="fill:none;stroke:#424242;stroke-linecap:square;stroke-width:2.7;"/>
   </g>
   <g id="line2d_11">
    <path clip-path="url(#p01893e9405)" d="M 0 0 
" style="fill:none;stroke:#424242;stroke-linecap:square;stroke-width:2.7;"/>
   </g>
   <g id="line2d_12">
    <path clip-path="url(#p01893e9405)" d="M 0 0 
" style="fill:none;stroke:#424242;stroke-linecap:square;stroke-width:2.7;"/>
   </g>
   <g id="line2d_13">
    <path clip-path="url(#p01893e9405)" d="M 0 0 
" style="fill:none;stroke:#424242;stroke-linecap:square;stroke-width:2.7;"/>
   </g>
   <g id="line2d_14">
    <path clip-path="url(#p01893e9405)" d="M 0 0 
" style="fill:none;stroke:#424242;stroke-linecap:square;stroke-width:2.7;"/>
   </g>
   <g id="patch_9">
    <path d="M 167.259167 23.2 
L 436.3425 23.2 
" style="fill:none;stroke:#000000;stroke-linecap:square;stroke-linejoin:miter;stroke-width:0.8;"/>
   </g>
   <g id="text_7">
    <!--  64% -->
    <g style="fill:#969ebd;" transform="translate(137.886667 45.441973)scale(0.1 -0.1)">
     <use xlink:href="#PTSans-Regular-20"/>
     <use x="26.699997" xlink:href="#PTSans-Regular-36"/>
     <use x="81.199982" xlink:href="#PTSans-Regular-34"/>
     <use x="135.699966" xlink:href="#PTSans-Regular-25"/>
    </g>
   </g>
   <g id="text_8">
    <!-- E Durchschnitt -->
    <defs>
     <path d="M 8.5 70 
L 46.59375 70 
L 46.59375 62.59375 
L 16.796875 62.59375 
L 16.796875 39.703125 
L 44.09375 39.703125 
L 44.09375 32.296875 
L 16.796875 32.296875 
L 16.796875 7.40625 
L 47.09375 7.40625 
L 47.09375 0 
L 8.5 0 
z
" id="PTSans-Regular-45"/>
     <path d="M 8.5 70 
Q 10.40625 70.296875 12.75 70.4375 
Q 15.09375 70.59375 17.640625 70.640625 
Q 20.203125 70.703125 22.640625 70.75 
Q 25.09375 70.796875 27.203125 70.796875 
Q 35.59375 70.796875 41.75 68.1875 
Q 47.90625 65.59375 51.90625 60.9375 
Q 55.90625 56.296875 57.84375 49.796875 
Q 59.796875 43.296875 59.796875 35.5 
Q 59.796875 28.40625 57.9375 21.84375 
Q 56.09375 15.296875 52.09375 10.25 
Q 48.09375 5.203125 41.6875 2.140625 
Q 35.296875 -0.90625 26.203125 -0.90625 
Q 24.59375 -0.90625 22.046875 -0.84375 
Q 19.5 -0.796875 16.796875 -0.640625 
Q 14.09375 -0.5 11.796875 -0.390625 
Q 9.5 -0.296875 8.5 -0.09375 
z
M 27.40625 63.40625 
Q 26.09375 63.40625 24.546875 63.40625 
Q 23 63.40625 21.5 63.296875 
Q 20 63.203125 18.75 63.09375 
Q 17.5 63 16.796875 62.90625 
L 16.796875 6.90625 
Q 17.296875 6.796875 18.6875 6.75 
Q 20.09375 6.703125 21.59375 6.640625 
Q 23.09375 6.59375 24.5 6.546875 
Q 25.90625 6.5 26.40625 6.5 
Q 33.40625 6.5 38.15625 8.890625 
Q 42.90625 11.296875 45.75 15.34375 
Q 48.59375 19.40625 49.796875 24.65625 
Q 51 29.90625 51 35.5 
Q 51 40.40625 49.890625 45.34375 
Q 48.796875 50.296875 46.09375 54.296875 
Q 43.40625 58.296875 38.84375 60.84375 
Q 34.296875 63.40625 27.40625 63.40625 
z
" id="PTSans-Regular-44"/>
     <path d="M 14.90625 50 
L 14.90625 21.5 
Q 14.90625 17.59375 15.34375 14.640625 
Q 15.796875 11.703125 16.890625 9.75 
Q 18 7.796875 19.890625 6.796875 
Q 21.796875 5.796875 24.703125 5.796875 
Q 27.40625 5.796875 29.5 6.640625 
Q 31.59375 7.5 33.25 9 
Q 34.90625 10.5 36.15625 12.453125 
Q 37.40625 14.40625 38.203125 16.59375 
L 38.203125 50 
L 46.203125 50 
L 46.203125 14.203125 
Q 46.203125 10.59375 46.453125 6.75 
Q 46.703125 2.90625 47.296875 0 
L 41.796875 0 
L 39.796875 7.90625 
L 39.296875 7.90625 
Q 37 4 33.09375 1.390625 
Q 29.203125 -1.203125 23.203125 -1.203125 
Q 19.203125 -1.203125 16.140625 -0.25 
Q 13.09375 0.703125 11.046875 3.09375 
Q 9 5.5 7.953125 9.546875 
Q 6.90625 13.59375 6.90625 19.796875 
L 6.90625 50 
z
" id="PTSans-Regular-75"/>
     <path d="M 31.296875 42.296875 
Q 28.296875 43.296875 25.59375 43.296875 
Q 21.296875 43.296875 18.796875 40.9375 
Q 16.296875 38.59375 15.703125 35 
L 15.703125 0 
L 7.703125 0 
L 7.703125 50 
L 13.296875 50 
L 14.796875 43.90625 
L 15.203125 43.90625 
Q 17.09375 47.296875 19.75 49.140625 
Q 22.40625 51 26.5 51 
Q 29.40625 51 33 50 
z
" id="PTSans-Regular-72"/>
     <path d="M 41.796875 3.296875 
Q 38.796875 1.09375 34.6875 -0.046875 
Q 30.59375 -1.203125 26.09375 -1.203125 
Q 20.296875 -1.203125 16.296875 0.640625 
Q 12.296875 2.5 9.75 5.953125 
Q 7.203125 9.40625 6.046875 14.25 
Q 4.90625 19.09375 4.90625 25 
Q 4.90625 37.703125 10.5 44.453125 
Q 16.09375 51.203125 26.59375 51.203125 
Q 31.40625 51.203125 34.75 50.453125 
Q 38.09375 49.703125 40.796875 48.296875 
L 38.5 41.40625 
Q 36.203125 42.703125 33.390625 43.453125 
Q 30.59375 44.203125 27.40625 44.203125 
Q 13.203125 44.203125 13.203125 25 
Q 13.203125 21.203125 13.953125 17.75 
Q 14.703125 14.296875 16.453125 11.640625 
Q 18.203125 9 21.046875 7.390625 
Q 23.90625 5.796875 28.09375 5.796875 
Q 31.703125 5.796875 34.546875 6.890625 
Q 37.40625 8 39.203125 9.40625 
z
" id="PTSans-Regular-63"/>
     <path d="M 39.796875 0 
L 39.796875 28.5 
Q 39.796875 32.40625 39.34375 35.34375 
Q 38.90625 38.296875 37.703125 40.25 
Q 36.5 42.203125 34.453125 43.203125 
Q 32.40625 44.203125 29.09375 44.203125 
Q 24.40625 44.203125 20.59375 41.140625 
Q 16.796875 38.09375 15.703125 33.296875 
L 15.703125 0 
L 7.703125 0 
L 7.703125 70 
L 15.703125 70 
L 15.703125 44.40625 
L 16.09375 44.40625 
Q 18.703125 47.5 22.34375 49.34375 
Q 26 51.203125 31.40625 51.203125 
Q 35.59375 51.203125 38.6875 50.25 
Q 41.796875 49.296875 43.84375 46.890625 
Q 45.90625 44.5 46.84375 40.453125 
Q 47.796875 36.40625 47.796875 30.203125 
L 47.796875 0 
z
" id="PTSans-Regular-68"/>
     <path d="M 29.703125 13.59375 
Q 29.703125 16.59375 27.890625 18.296875 
Q 26.09375 20 23.4375 21.140625 
Q 20.796875 22.296875 17.640625 23.34375 
Q 14.5 24.40625 11.84375 26.046875 
Q 9.203125 27.703125 7.390625 30.296875 
Q 5.59375 32.90625 5.59375 37.296875 
Q 5.59375 44.5 9.6875 47.84375 
Q 13.796875 51.203125 21.09375 51.203125 
Q 26.5 51.203125 30.140625 50.25 
Q 33.796875 49.296875 36.5 48 
L 34.59375 41.40625 
Q 32.296875 42.5 29.046875 43.34375 
Q 25.796875 44.203125 22.09375 44.203125 
Q 17.703125 44.203125 15.640625 42.703125 
Q 13.59375 41.203125 13.59375 37.5 
Q 13.59375 34.90625 15.390625 33.453125 
Q 17.203125 32 19.84375 30.84375 
Q 22.5 29.703125 25.640625 28.59375 
Q 28.796875 27.5 31.4375 25.703125 
Q 34.09375 23.90625 35.890625 21.15625 
Q 37.703125 18.40625 37.703125 13.90625 
Q 37.703125 10.703125 36.640625 7.890625 
Q 35.59375 5.09375 33.390625 3.09375 
Q 31.203125 1.09375 27.953125 -0.046875 
Q 24.703125 -1.203125 20.296875 -1.203125 
Q 14.59375 -1.203125 10.59375 -0.09375 
Q 6.59375 1 3.90625 2.5 
L 6.296875 9.296875 
Q 8.59375 8 12.296875 6.890625 
Q 16 5.796875 19.796875 5.796875 
Q 24.09375 5.796875 26.890625 7.5 
Q 29.703125 9.203125 29.703125 13.59375 
z
" id="PTSans-Regular-73"/>
     <path d="M 39.796875 0 
L 39.796875 28.5 
Q 39.796875 36.296875 37.546875 40.25 
Q 35.296875 44.203125 29.296875 44.203125 
Q 24 44.203125 20.546875 41.34375 
Q 17.09375 38.5 15.703125 34.203125 
L 15.703125 0 
L 7.703125 0 
L 7.703125 50 
L 13.296875 50 
L 14.796875 43.90625 
L 15.203125 43.90625 
Q 17.59375 47.09375 21.640625 49.140625 
Q 25.703125 51.203125 31.296875 51.203125 
Q 35.40625 51.203125 38.5 50.25 
Q 41.59375 49.296875 43.640625 46.890625 
Q 45.703125 44.5 46.75 40.453125 
Q 47.796875 36.40625 47.796875 30.203125 
L 47.796875 0 
z
" id="PTSans-Regular-6e"/>
     <path d="M 9.40625 50 
L 17.40625 50 
L 17.40625 0 
L 9.40625 0 
z
M 7.703125 65.203125 
Q 7.703125 67.5 9.25 69.140625 
Q 10.796875 70.796875 13.203125 70.796875 
Q 15.59375 70.796875 17.296875 69.140625 
Q 19 67.5 19 65.203125 
Q 19 62.90625 17.296875 61.40625 
Q 15.59375 59.90625 13.203125 59.90625 
Q 10.796875 59.90625 9.25 61.40625 
Q 7.703125 62.90625 7.703125 65.203125 
z
" id="PTSans-Regular-69"/>
     <path d="M 1.09375 50 
L 8.90625 50 
L 8.90625 59.90625 
L 16.90625 62.203125 
L 16.90625 50 
L 30.5 50 
L 30.5 43 
L 16.90625 43 
L 16.90625 15.296875 
Q 16.90625 10.09375 18.203125 7.9375 
Q 19.5 5.796875 22.59375 5.796875 
Q 25.203125 5.796875 27 6.34375 
Q 28.796875 6.90625 31 7.796875 
L 32.796875 1.703125 
Q 30.09375 0.40625 26.890625 -0.390625 
Q 23.703125 -1.203125 20 -1.203125 
Q 13.90625 -1.203125 11.40625 2.25 
Q 8.90625 5.703125 8.90625 13.796875 
L 8.90625 43 
L 1.09375 43 
z
" id="PTSans-Regular-74"/>
    </defs>
    <g style="fill:#969ebd;" transform="translate(67.126562 45.441973)scale(0.1 -0.1)">
     <use xlink:href="#PTSans-Regular-45"/>
     <use x="53.599991" xlink:href="#PTSans-Regular-20"/>
     <use x="80.299988" xlink:href="#PTSans-Regular-44"/>
     <use x="145.699982" xlink:href="#PTSans-Regular-75"/>
     <use x="199.599976" xlink:href="#PTSans-Regular-72"/>
     <use x="233.59996" xlink:href="#PTSans-Regular-63"/>
     <use x="278.699951" xlink:href="#PTSans-Regular-68"/>
     <use x="333.399948" xlink:href="#PTSans-Regular-73"/>
     <use x="375.499939" xlink:href="#PTSans-Regular-63"/>
     <use x="420.59993" xlink:href="#PTSans-Regular-68"/>
     <use x="475.299927" xlink:href="#PTSans-Regular-6e"/>
     <use x="529.999924" xlink:href="#PTSans-Regular-69"/>
     <use x="556.799911" xlink:href="#PTSans-Regular-74"/>
     <use x="590.699905" xlink:href="#PTSans-Regular-74"/>
    </g>
   </g>
   <g id="text_9">
    <!--  49% -->
    <defs>
     <path d="M 5.203125 48.796875 
Q 5.203125 53.59375 6.59375 57.6875 
Q 8 61.796875 10.703125 64.796875 
Q 13.40625 67.796875 17.453125 69.5 
Q 21.5 71.203125 26.90625 71.203125 
Q 37.09375 71.203125 42.796875 64.59375 
Q 48.5 58 48.5 46 
Q 48.5 34.703125 45.953125 26.25 
Q 43.40625 17.796875 38.90625 12 
Q 34.40625 6.203125 28.25 2.953125 
Q 22.09375 -0.296875 14.90625 -1.203125 
L 13.09375 5.203125 
Q 18.90625 6.09375 23.546875 8.59375 
Q 28.203125 11.09375 31.546875 14.890625 
Q 34.90625 18.703125 37 23.546875 
Q 39.09375 28.40625 39.90625 34.09375 
Q 37.203125 30.90625 33.953125 29.65625 
Q 30.703125 28.40625 25.40625 28.40625 
Q 21.296875 28.40625 17.640625 29.75 
Q 14 31.09375 11.203125 33.6875 
Q 8.40625 36.296875 6.796875 40.09375 
Q 5.203125 43.90625 5.203125 48.796875 
z
M 13.5 49.59375 
Q 13.5 42.5 17.25 38.953125 
Q 21 35.40625 27.09375 35.40625 
Q 32 35.40625 35.5 37 
Q 39 38.59375 40.5 41.203125 
Q 40.703125 42.5 40.703125 43.5 
Q 40.703125 44.5 40.703125 45.59375 
Q 40.703125 49.203125 39.84375 52.546875 
Q 39 55.90625 37.296875 58.546875 
Q 35.59375 61.203125 32.84375 62.703125 
Q 30.09375 64.203125 26.40625 64.203125 
Q 20.296875 64.203125 16.890625 60.34375 
Q 13.5 56.5 13.5 49.59375 
z
" id="PTSans-Regular-39"/>
    </defs>
    <g style="fill:#2c316e;" transform="translate(137.886667 34.350329)scale(0.1 -0.1)">
     <use xlink:href="#PTSans-Regular-20"/>
     <use x="26.699997" xlink:href="#PTSans-Regular-34"/>
     <use x="81.199982" xlink:href="#PTSans-Regular-39"/>
     <use x="135.699966" xlink:href="#PTSans-Regular-25"/>
    </g>
   </g>
   <g id="text_10">
    <!-- E Erwachsene (25-59) -->
    <defs>
     <path d="M 40.09375 50 
L 51.59375 20.796875 
L 54.09375 11.203125 
L 54.296875 11.203125 
L 56.203125 21 
L 65.09375 50 
L 72.703125 50 
L 55.90625 -1.09375 
L 52 -1.09375 
L 38.90625 31.90625 
L 37 40.09375 
L 36.703125 40.09375 
L 34.703125 31.796875 
L 22.09375 -1.09375 
L 18.203125 -1.09375 
L 0.796875 50 
L 9.5 50 
L 19.40625 20.90625 
L 21.09375 11.203125 
L 21.203125 11.203125 
L 23.59375 21.09375 
L 34.296875 50 
z
" id="PTSans-Regular-77"/>
     <path d="M 6.90625 46.296875 
Q 10.703125 48.59375 15.75 49.6875 
Q 20.796875 50.796875 26.296875 50.796875 
Q 31.5 50.796875 34.640625 49.390625 
Q 37.796875 48 39.4375 45.75 
Q 41.09375 43.5 41.640625 40.796875 
Q 42.203125 38.09375 42.203125 35.40625 
Q 42.203125 29.40625 41.890625 23.703125 
Q 41.59375 18 41.59375 12.90625 
Q 41.59375 9.203125 41.890625 5.890625 
Q 42.203125 2.59375 43 -0.203125 
L 37.09375 -0.203125 
L 35 6.796875 
L 34.5 6.796875 
Q 33.59375 5.40625 32.25 4.046875 
Q 30.90625 2.703125 29 1.640625 
Q 27.09375 0.59375 24.59375 -0.09375 
Q 22.09375 -0.796875 18.90625 -0.796875 
Q 15.703125 -0.796875 12.953125 0.203125 
Q 10.203125 1.203125 8.203125 3.046875 
Q 6.203125 4.90625 5.046875 7.5 
Q 3.90625 10.09375 3.90625 13.40625 
Q 3.90625 17.796875 5.703125 20.75 
Q 7.5 23.703125 10.75 25.453125 
Q 14 27.203125 18.546875 27.953125 
Q 23.09375 28.703125 28.59375 28.703125 
Q 30 28.703125 31.34375 28.703125 
Q 32.703125 28.703125 34.09375 28.5 
Q 34.40625 31.5 34.40625 33.90625 
Q 34.40625 39.40625 32.203125 41.59375 
Q 30 43.796875 24.203125 43.796875 
Q 22.5 43.796875 20.546875 43.546875 
Q 18.59375 43.296875 16.546875 42.84375 
Q 14.5 42.40625 12.640625 41.75 
Q 10.796875 41.09375 9.40625 40.296875 
z
M 21.09375 6.203125 
Q 23.90625 6.203125 26.09375 6.953125 
Q 28.296875 7.703125 29.890625 8.84375 
Q 31.5 10 32.546875 11.390625 
Q 33.59375 12.796875 34.09375 14.09375 
L 34.09375 22.40625 
Q 32.703125 22.5 31.25 22.546875 
Q 29.796875 22.59375 28.40625 22.59375 
Q 25.296875 22.59375 22.34375 22.25 
Q 19.40625 21.90625 17.15625 20.953125 
Q 14.90625 20 13.546875 18.34375 
Q 12.203125 16.703125 12.203125 14.203125 
Q 12.203125 10.703125 14.703125 8.453125 
Q 17.203125 6.203125 21.09375 6.203125 
z
" id="PTSans-Regular-61"/>
     <path d="M 44.203125 4 
Q 41.203125 1.59375 36.640625 0.1875 
Q 32.09375 -1.203125 27 -1.203125 
Q 21.296875 -1.203125 17.09375 0.640625 
Q 12.90625 2.5 10.203125 5.953125 
Q 7.5 9.40625 6.203125 14.203125 
Q 4.90625 19 4.90625 25 
Q 4.90625 37.796875 10.59375 44.5 
Q 16.296875 51.203125 26.90625 51.203125 
Q 30.296875 51.203125 33.6875 50.453125 
Q 37.09375 49.703125 39.796875 47.59375 
Q 42.5 45.5 44.203125 41.640625 
Q 45.90625 37.796875 45.90625 31.5 
Q 45.90625 28.203125 45.296875 24.203125 
L 13.203125 24.203125 
Q 13.203125 19.796875 14.09375 16.390625 
Q 15 13 16.890625 10.640625 
Q 18.796875 8.296875 21.84375 7.046875 
Q 24.90625 5.796875 29.296875 5.796875 
Q 32.703125 5.796875 36.09375 7 
Q 39.5 8.203125 41.203125 9.796875 
z
M 27 44.203125 
Q 21.09375 44.203125 17.546875 41.09375 
Q 14 38 13.296875 30.5 
L 38.09375 30.5 
Q 38.09375 38.09375 35.1875 41.140625 
Q 32.296875 44.203125 27 44.203125 
z
" id="PTSans-Regular-65"/>
     <path d="M 22.703125 -22 
Q 18.09375 -17.203125 14.890625 -11.453125 
Q 11.703125 -5.703125 9.75 0.34375 
Q 7.796875 6.40625 6.890625 12.546875 
Q 6 18.703125 6 24.296875 
Q 6 29.796875 6.890625 35.890625 
Q 7.796875 42 9.796875 48.140625 
Q 11.796875 54.296875 15.046875 60.1875 
Q 18.296875 66.09375 23 71.203125 
L 27.796875 67.703125 
Q 23.796875 62.59375 21.140625 57.140625 
Q 18.5 51.703125 16.890625 46.09375 
Q 15.296875 40.5 14.640625 34.953125 
Q 14 29.40625 14 24.296875 
Q 14 19.5 14.75 13.84375 
Q 15.5 8.203125 17.140625 2.546875 
Q 18.796875 -3.09375 21.4375 -8.5 
Q 24.09375 -13.90625 27.796875 -18.296875 
z
" id="PTSans-Regular-28"/>
     <path d="M 21.296875 5.796875 
Q 28.203125 5.796875 32.703125 9.796875 
Q 37.203125 13.796875 37.203125 21.40625 
Q 37.203125 28.703125 32.75 32.296875 
Q 28.296875 35.90625 20.5 35.90625 
L 12.09375 35.40625 
L 12.09375 70 
L 43.296875 70 
L 43.296875 62.59375 
L 19.59375 62.59375 
L 19.59375 42.703125 
L 23.90625 42.90625 
Q 33.796875 42.796875 39.5 37.390625 
Q 45.203125 32 45.203125 21.90625 
Q 45.203125 16.296875 43.296875 11.9375 
Q 41.40625 7.59375 38.15625 4.6875 
Q 34.90625 1.796875 30.5 0.296875 
Q 26.09375 -1.203125 21.09375 -1.203125 
Q 16.59375 -1.203125 13.5 -0.703125 
Q 10.40625 -0.203125 7.703125 0.796875 
L 9.796875 7.59375 
Q 12.09375 6.703125 14.75 6.25 
Q 17.40625 5.796875 21.296875 5.796875 
z
" id="PTSans-Regular-35"/>
     <path d="M 5.90625 32.5 
L 30.09375 32.5 
L 30.09375 25.09375 
L 5.90625 25.09375 
z
" id="PTSans-Regular-2d"/>
     <path d="M 5.296875 71.203125 
Q 9.90625 66.40625 13.09375 60.65625 
Q 16.296875 54.90625 18.25 48.84375 
Q 20.203125 42.796875 21.09375 36.640625 
Q 22 30.5 22 24.90625 
Q 22 19.40625 21.09375 13.296875 
Q 20.203125 7.203125 18.203125 1.046875 
Q 16.203125 -5.09375 12.953125 -11 
Q 9.703125 -16.90625 5 -22 
L 0.203125 -18.5 
Q 4.203125 -13.40625 6.890625 -7.90625 
Q 9.59375 -2.40625 11.140625 3.1875 
Q 12.703125 8.796875 13.34375 14.296875 
Q 14 19.796875 14 24.90625 
Q 14 29.703125 13.203125 35.296875 
Q 12.40625 40.90625 10.75 46.59375 
Q 9.09375 52.296875 6.5 57.6875 
Q 3.90625 63.09375 0.203125 67.5 
z
" id="PTSans-Regular-29"/>
    </defs>
    <g style="fill:#2c316e;" transform="translate(37 34.350329)scale(0.1 -0.1)">
     <use xlink:href="#PTSans-Regular-45"/>
     <use x="53.599991" xlink:href="#PTSans-Regular-20"/>
     <use x="80.299988" xlink:href="#PTSans-Regular-45"/>
     <use x="133.899979" xlink:href="#PTSans-Regular-72"/>
     <use x="167.899963" xlink:href="#PTSans-Regular-77"/>
     <use x="241.399948" xlink:href="#PTSans-Regular-61"/>
     <use x="290.999939" xlink:href="#PTSans-Regular-63"/>
     <use x="336.09993" xlink:href="#PTSans-Regular-68"/>
     <use x="390.799927" xlink:href="#PTSans-Regular-73"/>
     <use x="432.899918" xlink:href="#PTSans-Regular-65"/>
     <use x="483.699905" xlink:href="#PTSans-Regular-6e"/>
     <use x="538.399902" xlink:href="#PTSans-Regular-65"/>
     <use x="589.19989" xlink:href="#PTSans-Regular-20"/>
     <use x="615.899887" xlink:href="#PTSans-Regular-28"/>
     <use x="643.899872" xlink:href="#PTSans-Regular-32"/>
     <use x="698.399857" xlink:href="#PTSans-Regular-35"/>
     <use x="752.899841" xlink:href="#PTSans-Regular-2d"/>
     <use x="788.899826" xlink:href="#PTSans-Regular-35"/>
     <use x="843.399811" xlink:href="#PTSans-Regular-39"/>
     <use x="897.899796" xlink:href="#PTSans-Regular-29"/>
    </g>
   </g>
  </g>
  <g id="axes_2">
   <g id="patch_10">
    <path clip-path="url(#p4cc9edfee4)" d="z
" style="fill:#9ba1b8;"/>
   </g>
   <g id="patch_11">
    <path clip-path="url(#p4cc9edfee4)" d="M 167.259167 77.719242 
L 225.084438 77.719242 
L 225.084438 82.414117 
L 167.259167 82.414117 
z
" style="fill:#9ba1b8;"/>
   </g>
   <g id="patch_12">
    <path clip-path="url(#p4cc9edfee4)" d="z
" style="fill:#343866;"/>
   </g>
   <g id="patch_13">
    <path clip-path="url(#p4cc9edfee4)" d="z
" style="fill:#343866;"/>
   </g>
   <g id="patch_14">
    <path clip-path="url(#p4cc9edfee4)" d="M 167.259167 66.627598 
L 271.115892 66.627598 
L 271.115892 71.322474 
L 167.259167 71.322474 
z
" style="fill:#c53968;"/>
   </g>
   <g id="patch_15">
    <path clip-path="url(#p4cc9edfee4)" d="z
" style="fill:#c53968;"/>
   </g>
   <g id="line2d_15">
    <path clip-path="url(#p4cc9edfee4)" d="M 0 0 
" style="fill:none;stroke:#424242;stroke-linecap:square;stroke-width:2.7;"/>
   </g>
   <g id="line2d_16">
    <path clip-path="url(#p4cc9edfee4)" d="M 0 0 
" style="fill:none;stroke:#424242;stroke-linecap:square;stroke-width:2.7;"/>
   </g>
   <g id="line2d_17">
    <path clip-path="url(#p4cc9edfee4)" d="M 0 0 
" style="fill:none;stroke:#424242;stroke-linecap:square;stroke-width:2.7;"/>
   </g>
   <g id="line2d_18">
    <path clip-path="url(#p4cc9edfee4)" d="M 0 0 
" style="fill:none;stroke:#424242;stroke-linecap:square;stroke-width:2.7;"/>
   </g>
   <g id="line2d_19">
    <path clip-path="url(#p4cc9edfee4)" d="M 0 0 
" style="fill:none;stroke:#424242;stroke-linecap:square;stroke-width:2.7;"/>
   </g>
   <g id="line2d_20">
    <path clip-path="url(#p4cc9edfee4)" d="M 0 0 
" style="fill:none;stroke:#424242;stroke-linecap:square;stroke-width:2.7;"/>
   </g>
   <g id="text_11">
    <!--  21% -->
    <g style="fill:#969ebd;" transform="translate(137.886667 82.414117)scale(0.1 -0.1)">
     <use xlink:href="#PTSans-Regular-20"/>
     <use x="26.699997" xlink:href="#PTSans-Regular-32"/>
     <use x="81.199982" xlink:href="#PTSans-Regular-31"/>
     <use x="135.699966" xlink:href="#PTSans-Regular-25"/>
    </g>
   </g>
   <g id="text_12">
    <!-- UN Durchschnitt -->
    <defs>
     <path d="M 48.703125 70 
L 56.703125 70 
L 56.703125 23.296875 
Q 56.703125 17 55.046875 12.390625 
Q 53.40625 7.796875 50.34375 4.84375 
Q 47.296875 1.90625 43 0.5 
Q 38.703125 -0.90625 33.5 -0.90625 
Q 21.09375 -0.90625 14.796875 4.6875 
Q 8.5 10.296875 8.5 21.703125 
L 8.5 70 
L 16.796875 70 
L 16.796875 25.59375 
Q 16.796875 20.296875 17.84375 16.640625 
Q 18.90625 13 21 10.75 
Q 23.09375 8.5 26.25 7.5 
Q 29.40625 6.5 33.59375 6.5 
Q 41.703125 6.5 45.203125 10.953125 
Q 48.703125 15.40625 48.703125 25.59375 
z
" id="PTSans-Regular-55"/>
     <path d="M 21.09375 45.796875 
L 15.703125 55.90625 
L 15.296875 55.90625 
L 16.296875 45.796875 
L 16.296875 0 
L 8.5 0 
L 8.5 71.09375 
L 12.90625 71.09375 
L 46.40625 24.40625 
L 51.59375 14.796875 
L 52.09375 14.796875 
L 51 24.40625 
L 51 70 
L 58.796875 70 
L 58.796875 -1.09375 
L 54.40625 -1.09375 
z
" id="PTSans-Regular-4e"/>
    </defs>
    <g style="fill:#969ebd;" transform="translate(59.235937 82.414117)scale(0.1 -0.1)">
     <use xlink:href="#PTSans-Regular-55"/>
     <use x="65.199997" xlink:href="#PTSans-Regular-4e"/>
     <use x="132.499985" xlink:href="#PTSans-Regular-20"/>
     <use x="159.199982" xlink:href="#PTSans-Regular-44"/>
     <use x="224.599976" xlink:href="#PTSans-Regular-75"/>
     <use x="278.499969" xlink:href="#PTSans-Regular-72"/>
     <use x="312.499954" xlink:href="#PTSans-Regular-63"/>
     <use x="357.599945" xlink:href="#PTSans-Regular-68"/>
     <use x="412.299942" xlink:href="#PTSans-Regular-73"/>
     <use x="454.399933" xlink:href="#PTSans-Regular-63"/>
     <use x="499.499924" xlink:href="#PTSans-Regular-68"/>
     <use x="554.199921" xlink:href="#PTSans-Regular-6e"/>
     <use x="608.899918" xlink:href="#PTSans-Regular-69"/>
     <use x="635.699905" xlink:href="#PTSans-Regular-74"/>
     <use x="669.599899" xlink:href="#PTSans-Regular-74"/>
    </g>
   </g>
   <g id="text_13">
    <!--  39% -->
    <defs>
     <path d="M 23.40625 5.796875 
Q 26.796875 5.796875 29.6875 6.796875 
Q 32.59375 7.796875 34.6875 9.75 
Q 36.796875 11.703125 38 14.390625 
Q 39.203125 17.09375 39.203125 20.296875 
Q 39.203125 27.296875 35.046875 30.6875 
Q 30.90625 34.09375 23.59375 34.09375 
L 16.203125 34.09375 
L 16.203125 37 
L 30.59375 59.203125 
L 35.203125 63.59375 
L 28.703125 62.59375 
L 8.90625 62.59375 
L 8.90625 70 
L 44.59375 70 
L 44.59375 67.09375 
L 28.703125 43.203125 
L 25.203125 40.296875 
L 25.203125 40.09375 
L 28.59375 40.796875 
Q 32.59375 40.703125 36 39.34375 
Q 39.40625 38 41.90625 35.453125 
Q 44.40625 32.90625 45.796875 29.34375 
Q 47.203125 25.796875 47.203125 21.296875 
Q 47.203125 15.90625 45.296875 11.703125 
Q 43.40625 7.5 40.15625 4.640625 
Q 36.90625 1.796875 32.5 0.296875 
Q 28.09375 -1.203125 23.203125 -1.203125 
Q 18.703125 -1.203125 15.09375 -0.5 
Q 11.5 0.203125 8.796875 1.296875 
L 10.90625 8.40625 
Q 13.203125 7.296875 16.34375 6.546875 
Q 19.5 5.796875 23.40625 5.796875 
z
" id="PTSans-Regular-33"/>
    </defs>
    <g style="fill:#dc2260;" transform="translate(137.886667 71.322474)scale(0.1 -0.1)">
     <use xlink:href="#PTSans-Regular-20"/>
     <use x="26.699997" xlink:href="#PTSans-Regular-33"/>
     <use x="81.199982" xlink:href="#PTSans-Regular-39"/>
     <use x="135.699966" xlink:href="#PTSans-Regular-25"/>
    </g>
   </g>
   <g id="text_14">
    <!-- UN Unbekannt -->
    <defs>
     <path d="M 7.703125 70 
L 15.703125 70 
L 15.703125 45.09375 
L 16.09375 45.09375 
Q 18.40625 48 21.953125 49.59375 
Q 25.5 51.203125 29.703125 51.203125 
Q 39.40625 51.203125 44.25 45 
Q 49.09375 38.796875 49.09375 25.796875 
Q 49.09375 12.703125 42.6875 5.890625 
Q 36.296875 -0.90625 24.703125 -0.90625 
Q 19.09375 -0.90625 14.546875 0.296875 
Q 10 1.5 7.703125 2.90625 
z
M 28.296875 44.203125 
Q 23.296875 44.203125 20.1875 41.390625 
Q 17.09375 38.59375 15.703125 33.5 
L 15.703125 8.296875 
Q 17.59375 7.203125 20.296875 6.640625 
Q 23 6.09375 25.90625 6.09375 
Q 32.703125 6.09375 36.75 10.890625 
Q 40.796875 15.703125 40.796875 25.90625 
Q 40.796875 29.796875 40.09375 33.1875 
Q 39.40625 36.59375 37.90625 39 
Q 36.40625 41.40625 34.046875 42.796875 
Q 31.703125 44.203125 28.296875 44.203125 
z
" id="PTSans-Regular-62"/>
     <path d="M 20.296875 22.5 
L 15.703125 22.5 
L 15.703125 0 
L 7.703125 0 
L 7.703125 70 
L 15.703125 70 
L 15.703125 27.40625 
L 19.796875 28.796875 
L 35.296875 50 
L 44.59375 50 
L 29.296875 29.90625 
L 25.203125 26.59375 
L 30.203125 22.59375 
L 46.90625 0 
L 37 0 
z
" id="PTSans-Regular-6b"/>
    </defs>
    <g style="fill:#dc2260;" transform="translate(67.115625 71.322474)scale(0.1 -0.1)">
     <use xlink:href="#PTSans-Regular-55"/>
     <use x="65.199997" xlink:href="#PTSans-Regular-4e"/>
     <use x="132.499985" xlink:href="#PTSans-Regular-20"/>
     <use x="159.199982" xlink:href="#PTSans-Regular-55"/>
     <use x="224.399979" xlink:href="#PTSans-Regular-6e"/>
     <use x="279.099976" xlink:href="#PTSans-Regular-62"/>
     <use x="333.09996" xlink:href="#PTSans-Regular-65"/>
     <use x="383.899948" xlink:href="#PTSans-Regular-6b"/>
     <use x="431.799942" xlink:href="#PTSans-Regular-61"/>
     <use x="481.399933" xlink:href="#PTSans-Regular-6e"/>
     <use x="536.09993" xlink:href="#PTSans-Regular-6e"/>
     <use x="590.799927" xlink:href="#PTSans-Regular-74"/>
    </g>
   </g>
  </g>
  <g id="axes_3">
   <g id="patch_16">
    <path clip-path="url(#pb92b035310)" d="z
" style="fill:#9ba1b8;"/>
   </g>
   <g id="patch_17">
    <path clip-path="url(#pb92b035310)" d="M 167.259167 114.691386 
L 201.585722 114.691386 
L 201.585722 119.386262 
L 167.259167 119.386262 
z
" style="fill:#9ba1b8;"/>
   </g>
   <g id="patch_18">
    <path clip-path="url(#pb92b035310)" d="M 167.259167 103.599743 
L 200.304488 103.599743 
L 200.304488 108.294618 
L 167.259167 108.294618 
z
" style="fill:#343866;"/>
   </g>
   <g id="patch_19">
    <path clip-path="url(#pb92b035310)" d="z
" style="fill:#343866;"/>
   </g>
   <g id="patch_20">
    <path clip-path="url(#pb92b035310)" d="z
" style="fill:#c53968;"/>
   </g>
   <g id="patch_21">
    <path clip-path="url(#pb92b035310)" d="z
" style="fill:#c53968;"/>
   </g>
   <g id="line2d_21">
    <path clip-path="url(#pb92b035310)" d="M 0 0 
" style="fill:none;stroke:#424242;stroke-linecap:square;stroke-width:2.7;"/>
   </g>
   <g id="line2d_22">
    <path clip-path="url(#pb92b035310)" d="M 0 0 
" style="fill:none;stroke:#424242;stroke-linecap:square;stroke-width:2.7;"/>
   </g>
   <g id="line2d_23">
    <path clip-path="url(#pb92b035310)" d="M 0 0 
" style="fill:none;stroke:#424242;stroke-linecap:square;stroke-width:2.7;"/>
   </g>
   <g id="line2d_24">
    <path clip-path="url(#pb92b035310)" d="M 0 0 
" style="fill:none;stroke:#424242;stroke-linecap:square;stroke-width:2.7;"/>
   </g>
   <g id="line2d_25">
    <path clip-path="url(#pb92b035310)" d="M 0 0 
" style="fill:none;stroke:#424242;stroke-linecap:square;stroke-width:2.7;"/>
   </g>
   <g id="line2d_26">
    <path clip-path="url(#pb92b035310)" d="M 0 0 
" style="fill:none;stroke:#424242;stroke-linecap:square;stroke-width:2.7;"/>
   </g>
   <g id="text_15">
    <!--  13% -->
    <g style="fill:#969ebd;" transform="translate(137.886667 119.386262)scale(0.1 -0.1)">
     <use xlink:href="#PTSans-Regular-20"/>
     <use x="26.699997" xlink:href="#PTSans-Regular-31"/>
     <use x="81.199982" xlink:href="#PTSans-Regular-33"/>
     <use x="135.699966" xlink:href="#PTSans-Regular-25"/>
    </g>
   </g>
   <g id="text_16">
    <!-- S Durchschnitt -->
    <defs>
     <path d="M 40.09375 17.796875 
Q 40.09375 22 37.59375 24.640625 
Q 35.09375 27.296875 31.34375 29.34375 
Q 27.59375 31.40625 23.1875 33.203125 
Q 18.796875 35 15.046875 37.546875 
Q 11.296875 40.09375 8.796875 43.84375 
Q 6.296875 47.59375 6.296875 53.40625 
Q 6.296875 61.59375 12 66.390625 
Q 17.703125 71.203125 28.203125 71.203125 
Q 34.296875 71.203125 39.296875 70.296875 
Q 44.296875 69.40625 47.09375 68 
L 44.59375 60.703125 
Q 42.296875 61.796875 37.84375 62.796875 
Q 33.40625 63.796875 27.796875 63.796875 
Q 21.203125 63.796875 17.890625 60.84375 
Q 14.59375 57.90625 14.59375 53.90625 
Q 14.59375 50 17.09375 47.390625 
Q 19.59375 44.796875 23.34375 42.75 
Q 27.09375 40.703125 31.5 38.703125 
Q 35.90625 36.703125 39.65625 34.046875 
Q 43.40625 31.40625 45.90625 27.703125 
Q 48.40625 24 48.40625 18.5 
Q 48.40625 14 46.796875 10.390625 
Q 45.203125 6.796875 42.09375 4.1875 
Q 39 1.59375 34.59375 0.1875 
Q 30.203125 -1.203125 24.59375 -1.203125 
Q 17.09375 -1.203125 12.1875 -0.046875 
Q 7.296875 1.09375 4.59375 2.5 
L 7.40625 10 
Q 9.703125 8.703125 14.203125 7.453125 
Q 18.703125 6.203125 24.296875 6.203125 
Q 27.59375 6.203125 30.5 6.84375 
Q 33.40625 7.5 35.5 8.953125 
Q 37.59375 10.40625 38.84375 12.59375 
Q 40.09375 14.796875 40.09375 17.796875 
z
" id="PTSans-Regular-53"/>
    </defs>
    <g style="fill:#969ebd;" transform="translate(67.176562 119.386262)scale(0.1 -0.1)">
     <use xlink:href="#PTSans-Regular-53"/>
     <use x="53.099991" xlink:href="#PTSans-Regular-20"/>
     <use x="79.799988" xlink:href="#PTSans-Regular-44"/>
     <use x="145.199982" xlink:href="#PTSans-Regular-75"/>
     <use x="199.099976" xlink:href="#PTSans-Regular-72"/>
     <use x="233.09996" xlink:href="#PTSans-Regular-63"/>
     <use x="278.199951" xlink:href="#PTSans-Regular-68"/>
     <use x="332.899948" xlink:href="#PTSans-Regular-73"/>
     <use x="374.999939" xlink:href="#PTSans-Regular-63"/>
     <use x="420.09993" xlink:href="#PTSans-Regular-68"/>
     <use x="474.799927" xlink:href="#PTSans-Regular-6e"/>
     <use x="529.499924" xlink:href="#PTSans-Regular-69"/>
     <use x="556.299911" xlink:href="#PTSans-Regular-74"/>
     <use x="590.199905" xlink:href="#PTSans-Regular-74"/>
    </g>
   </g>
   <g id="text_17">
    <!--  12% -->
    <g style="fill:#2c316e;" transform="translate(137.886667 108.294618)scale(0.1 -0.1)">
     <use xlink:href="#PTSans-Regular-20"/>
     <use x="26.699997" xlink:href="#PTSans-Regular-31"/>
     <use x="81.199982" xlink:href="#PTSans-Regular-32"/>
     <use x="135.699966" xlink:href="#PTSans-Regular-25"/>
    </g>
   </g>
   <g id="text_18">
    <!-- S Senioren (60+) -->
    <defs>
     <path d="M 4.90625 25 
Q 4.90625 37.703125 10.546875 44.453125 
Q 16.203125 51.203125 26.796875 51.203125 
Q 32.40625 51.203125 36.546875 49.34375 
Q 40.703125 47.5 43.390625 44.046875 
Q 46.09375 40.59375 47.390625 35.75 
Q 48.703125 30.90625 48.703125 25 
Q 48.703125 12.296875 43.046875 5.546875 
Q 37.40625 -1.203125 26.796875 -1.203125 
Q 21.203125 -1.203125 17.046875 0.640625 
Q 12.90625 2.5 10.203125 5.953125 
Q 7.5 9.40625 6.203125 14.25 
Q 4.90625 19.09375 4.90625 25 
z
M 13.203125 25 
Q 13.203125 21.203125 13.953125 17.703125 
Q 14.703125 14.203125 16.296875 11.59375 
Q 17.90625 9 20.5 7.390625 
Q 23.09375 5.796875 26.796875 5.796875 
Q 40.40625 5.703125 40.40625 25 
Q 40.40625 28.90625 39.65625 32.40625 
Q 38.90625 35.90625 37.296875 38.5 
Q 35.703125 41.09375 33.09375 42.640625 
Q 30.5 44.203125 26.796875 44.203125 
Q 13.203125 44.296875 13.203125 25 
z
" id="PTSans-Regular-6f"/>
     <path d="M 4 37.40625 
L 21.59375 37.40625 
L 21.59375 55.5 
L 28.796875 55.5 
L 28.796875 37.40625 
L 46.40625 37.40625 
L 46.40625 30.203125 
L 28.796875 30.203125 
L 28.796875 12.203125 
L 21.59375 12.203125 
L 21.59375 30.203125 
L 4 30.203125 
z
" id="PTSans-Regular-2b"/>
    </defs>
    <g style="fill:#2c316e;" transform="translate(59.539062 108.294618)scale(0.1 -0.1)">
     <use xlink:href="#PTSans-Regular-53"/>
     <use x="53.099991" xlink:href="#PTSans-Regular-20"/>
     <use x="79.799988" xlink:href="#PTSans-Regular-53"/>
     <use x="132.899979" xlink:href="#PTSans-Regular-65"/>
     <use x="183.699966" xlink:href="#PTSans-Regular-6e"/>
     <use x="238.399963" xlink:href="#PTSans-Regular-69"/>
     <use x="265.199951" xlink:href="#PTSans-Regular-6f"/>
     <use x="318.799942" xlink:href="#PTSans-Regular-72"/>
     <use x="352.799927" xlink:href="#PTSans-Regular-65"/>
     <use x="403.599915" xlink:href="#PTSans-Regular-6e"/>
     <use x="458.299911" xlink:href="#PTSans-Regular-20"/>
     <use x="484.999908" xlink:href="#PTSans-Regular-28"/>
     <use x="512.999893" xlink:href="#PTSans-Regular-36"/>
     <use x="567.499878" xlink:href="#PTSans-Regular-30"/>
     <use x="621.999863" xlink:href="#PTSans-Regular-2b"/>
     <use x="672.499847" xlink:href="#PTSans-Regular-29"/>
    </g>
   </g>
  </g>
  <g id="axes_4">
   <g id="patch_22">
    <path clip-path="url(#p65d8b28d73)" d="z
" style="fill:#9ba1b8;"/>
   </g>
   <g id="patch_23">
    <path clip-path="url(#p65d8b28d73)" d="M 167.259167 151.663531 
L 171.175619 151.663531 
L 171.175619 156.358406 
L 167.259167 156.358406 
z
" style="fill:#9ba1b8;"/>
   </g>
   <g id="patch_24">
    <path clip-path="url(#p65d8b28d73)" d="M 167.259167 140.571888 
L 167.259167 140.571888 
L 167.259167 145.266763 
L 167.259167 145.266763 
z
" style="fill:#343866;"/>
   </g>
   <g id="patch_25">
    <path clip-path="url(#p65d8b28d73)" d="z
" style="fill:#343866;"/>
   </g>
   <g id="patch_26">
    <path clip-path="url(#p65d8b28d73)" d="z
" style="fill:#c53968;"/>
   </g>
   <g id="patch_27">
    <path clip-path="url(#p65d8b28d73)" d="z
" style="fill:#c53968;"/>
   </g>
   <g id="line2d_27">
    <path clip-path="url(#p65d8b28d73)" d="M 0 0 
" style="fill:none;stroke:#424242;stroke-linecap:square;stroke-width:2.7;"/>
   </g>
   <g id="line2d_28">
    <path clip-path="url(#p65d8b28d73)" d="M 0 0 
" style="fill:none;stroke:#424242;stroke-linecap:square;stroke-width:2.7;"/>
   </g>
   <g id="line2d_29">
    <path clip-path="url(#p65d8b28d73)" d="M 0 0 
" style="fill:none;stroke:#424242;stroke-linecap:square;stroke-width:2.7;"/>
   </g>
   <g id="line2d_30">
    <path clip-path="url(#p65d8b28d73)" d="M 0 0 
" style="fill:none;stroke:#424242;stroke-linecap:square;stroke-width:2.7;"/>
   </g>
   <g id="line2d_31">
    <path clip-path="url(#p65d8b28d73)" d="M 0 0 
" style="fill:none;stroke:#424242;stroke-linecap:square;stroke-width:2.7;"/>
   </g>
   <g id="line2d_32">
    <path clip-path="url(#p65d8b28d73)" d="M 0 0 
" style="fill:none;stroke:#424242;stroke-linecap:square;stroke-width:2.7;"/>
   </g>
   <g id="text_19">
    <!--   1% -->
    <g style="fill:#969ebd;" transform="translate(140.666354 156.358406)scale(0.1 -0.1)">
     <use xlink:href="#PTSans-Regular-20"/>
     <use x="26.699997" xlink:href="#PTSans-Regular-20"/>
     <use x="53.399994" xlink:href="#PTSans-Regular-31"/>
     <use x="107.899979" xlink:href="#PTSans-Regular-25"/>
    </g>
   </g>
   <g id="text_20">
    <!-- JE Durchschnitt -->
    <defs>
     <path d="M 11.203125 70 
L 19.5 70 
L 19.5 15.40625 
Q 19.5 7.40625 15.953125 3.203125 
Q 12.40625 -1 5.203125 -1 
Q 4.40625 -1 3.203125 -0.890625 
Q 2 -0.796875 0.796875 -0.59375 
Q -0.40625 -0.40625 -1.546875 -0.09375 
Q -2.703125 0.203125 -3.40625 0.59375 
L -1.796875 7.703125 
Q 1 6.40625 4.296875 6.40625 
Q 8.5 6.40625 9.84375 9.34375 
Q 11.203125 12.296875 11.203125 17.40625 
z
" id="PTSans-Regular-4a"/>
    </defs>
    <g style="fill:#969ebd;" transform="translate(64.217187 156.358406)scale(0.1 -0.1)">
     <use xlink:href="#PTSans-Regular-4a"/>
     <use x="29.099991" xlink:href="#PTSans-Regular-45"/>
     <use x="82.699982" xlink:href="#PTSans-Regular-20"/>
     <use x="109.399979" xlink:href="#PTSans-Regular-44"/>
     <use x="174.799973" xlink:href="#PTSans-Regular-75"/>
     <use x="228.699966" xlink:href="#PTSans-Regular-72"/>
     <use x="262.699951" xlink:href="#PTSans-Regular-63"/>
     <use x="307.799942" xlink:href="#PTSans-Regular-68"/>
     <use x="362.499939" xlink:href="#PTSans-Regular-73"/>
     <use x="404.59993" xlink:href="#PTSans-Regular-63"/>
     <use x="449.699921" xlink:href="#PTSans-Regular-68"/>
     <use x="504.399918" xlink:href="#PTSans-Regular-6e"/>
     <use x="559.099915" xlink:href="#PTSans-Regular-69"/>
     <use x="585.899902" xlink:href="#PTSans-Regular-74"/>
     <use x="619.799896" xlink:href="#PTSans-Regular-74"/>
    </g>
   </g>
   <g id="text_21">
    <!--   0% -->
    <g style="fill:#2c316e;" transform="translate(140.666354 145.266763)scale(0.1 -0.1)">
     <use xlink:href="#PTSans-Regular-20"/>
     <use x="26.699997" xlink:href="#PTSans-Regular-20"/>
     <use x="53.399994" xlink:href="#PTSans-Regular-30"/>
     <use x="107.899979" xlink:href="#PTSans-Regular-25"/>
    </g>
   </g>
   <g id="text_22">
    <!-- JE Junge Erwachsene (18-24) -->
    <defs>
     <path d="M 46 -2.296875 
Q 46 -12 40.84375 -16.59375 
Q 35.703125 -21.203125 25.59375 -21.203125 
Q 19.59375 -21.203125 15.9375 -20.453125 
Q 12.296875 -19.703125 9.703125 -18.5 
L 11.796875 -11.703125 
Q 14.09375 -12.59375 16.890625 -13.390625 
Q 19.703125 -14.203125 24.203125 -14.203125 
Q 28.40625 -14.203125 31.046875 -13.453125 
Q 33.703125 -12.703125 35.296875 -10.953125 
Q 36.90625 -9.203125 37.5 -6.453125 
Q 38.09375 -3.703125 38.09375 0.09375 
L 38.09375 4.90625 
L 37.703125 4.90625 
Q 35.703125 2 32.59375 0.453125 
Q 29.5 -1.09375 24.5 -1.09375 
Q 14.40625 -1.09375 9.65625 5.203125 
Q 4.90625 11.5 4.90625 24.796875 
Q 4.90625 37.59375 11 44.25 
Q 17.09375 50.90625 29 50.90625 
Q 34.703125 50.90625 38.75 50 
Q 42.796875 49.09375 46 47.90625 
z
M 25.90625 5.90625 
Q 31 5.90625 33.890625 8.453125 
Q 36.796875 11 38 16.40625 
L 38 42 
Q 34 43.90625 27.796875 43.90625 
Q 21 43.90625 17.09375 39.296875 
Q 13.203125 34.703125 13.203125 24.90625 
Q 13.203125 20.703125 13.890625 17.203125 
Q 14.59375 13.703125 16.09375 11.203125 
Q 17.59375 8.703125 20 7.296875 
Q 22.40625 5.90625 25.90625 5.90625 
z
" id="PTSans-Regular-67"/>
    </defs>
    <g style="fill:#2c316e;" transform="translate(7.2 145.266763)scale(0.1 -0.1)">
     <use xlink:href="#PTSans-Regular-4a"/>
     <use x="29.099991" xlink:href="#PTSans-Regular-45"/>
     <use x="82.699982" xlink:href="#PTSans-Regular-20"/>
     <use x="109.399979" xlink:href="#PTSans-Regular-4a"/>
     <use x="138.499969" xlink:href="#PTSans-Regular-75"/>
     <use x="192.399963" xlink:href="#PTSans-Regular-6e"/>
     <use x="247.09996" xlink:href="#PTSans-Regular-67"/>
     <use x="300.799957" xlink:href="#PTSans-Regular-65"/>
     <use x="351.599945" xlink:href="#PTSans-Regular-20"/>
     <use x="378.299942" xlink:href="#PTSans-Regular-45"/>
     <use x="431.899933" xlink:href="#PTSans-Regular-72"/>
     <use x="465.899918" xlink:href="#PTSans-Regular-77"/>
     <use x="539.399902" xlink:href="#PTSans-Regular-61"/>
     <use x="588.999893" xlink:href="#PTSans-Regular-63"/>
     <use x="634.099884" xlink:href="#PTSans-Regular-68"/>
     <use x="688.799881" xlink:href="#PTSans-Regular-73"/>
     <use x="730.899872" xlink:href="#PTSans-Regular-65"/>
     <use x="781.69986" xlink:href="#PTSans-Regular-6e"/>
     <use x="836.399857" xlink:href="#PTSans-Regular-65"/>
     <use x="887.199844" xlink:href="#PTSans-Regular-20"/>
     <use x="913.899841" xlink:href="#PTSans-Regular-28"/>
     <use x="941.899826" xlink:href="#PTSans-Regular-31"/>
     <use x="996.399811" xlink:href="#PTSans-Regular-38"/>
     <use x="1050.899796" xlink:href="#PTSans-Regular-2d"/>
     <use x="1086.89978" xlink:href="#PTSans-Regular-32"/>
     <use x="1141.399765" xlink:href="#PTSans-Regular-34"/>
     <use x="1195.89975" xlink:href="#PTSans-Regular-29"/>
    </g>
   </g>
  </g>
 </g>
 <defs>
  <clipPath id="p01893e9405">
   <rect height="35.211566" width="269.083333" x="167.259167" y="23.2"/>
  </clipPath>
  <clipPath id="p4cc9edfee4">
   <rect height="35.211566" width="269.083333" x="167.259167" y="60.172145"/>
  </clipPath>
  <clipPath id="pb92b035310">
   <rect height="35.211566" width="269.083333" x="167.259167" y="97.144289"/>
  </clipPath>
  <clipPath id="p65d8b28d73">
   <rect height="35.211566" width="269.083333" x="167.259167" y="134.116434"/>
  </clipPath>
 </defs>
</svg>
